<?xml version="1.0" encoding="UTF-8" standalone="no"?>
<svg
   id="Layer_12"
   viewBox="0 0 865 1388"
   version="1.1"
   sodipodi:docname="rosieOnboarding-11.svg"
   inkscape:version="1.2.1 (9c6d41e4, 2022-07-14)"
   xmlns:inkscape="http://www.inkscape.org/namespaces/inkscape"
   xmlns:sodipodi="http://sodipodi.sourceforge.net/DTD/sodipodi-0.dtd"
   xmlns="http://www.w3.org/2000/svg"
   xmlns:svg="http://www.w3.org/2000/svg">
  <sodipodi:namedview
     id="namedview477"
     pagecolor="#505050"
     bordercolor="#ffffff"
     borderopacity="1"
     inkscape:showpageshadow="0"
     inkscape:pageopacity="0"
     inkscape:pagecheckerboard="1"
     inkscape:deskcolor="#505050"
     showgrid="false"
     inkscape:zoom="0.30619541"
     inkscape:cx="484.98441"
     inkscape:cy="489.88324"
     inkscape:window-width="1309"
     inkscape:window-height="456"
     inkscape:window-x="0"
     inkscape:window-y="25"
     inkscape:window-maximized="0"
     inkscape:current-layer="Layer_12" />
  <defs
     id="defs306">
    <style
       id="style304">.cls-1{letter-spacing:0em;}.cls-2{letter-spacing:0em;}.cls-2,.cls-3,.cls-4{font-family:ComicNeue-BoldItalic, 'Comic Neue';}.cls-5{fill:#0f0f0f;}.cls-6,.cls-7,.cls-8,.cls-9{font-family:ComicNeue-Regular, 'Comic Neue';}.cls-3,.cls-10{font-size:36px;}.cls-11{fill:#0c0c0c;}.cls-7,.cls-12{letter-spacing:-.02em;}.cls-13,.cls-9{letter-spacing:-.03em;}.cls-14{letter-spacing:-.02em;}.cls-8{letter-spacing:-.06em;}.cls-15{fill:#071215;}.cls-16{fill:#020506;}.cls-17{letter-spacing:0em;}.cls-18{letter-spacing:-.02em;}.cls-19{letter-spacing:-.1em;}.cls-20{fill:#030303;}.cls-21{letter-spacing:-.02em;}.cls-22{fill:#0d0d0d;}.cls-23{letter-spacing:-.02em;}.cls-24{fill:#080808;}.cls-25{letter-spacing:0em;}.cls-26{letter-spacing:-.07em;}.cls-27{fill:#bdccd4;}.cls-28{fill:#fdfdfd;}.cls-29{letter-spacing:-.02em;}.cls-30{fill:#171717;}.cls-31{letter-spacing:-.02em;}.cls-32{fill:#121212;}.cls-33{fill:#161616;}.cls-34{fill:#eef0f0;}.cls-35{fill:#0b0b0b;}.cls-36{fill:#fa99af;}.cls-37{fill:#040808;}.cls-38{fill:#070707;}.cls-39{fill:#fefefe;}.cls-40{fill:#060606;}</style>
  </defs>
  <g
     id="g378">
    <path
       class="cls-39"
       d="M42,0c260.25,0,520.5,0,780.75,0,0,462.67,0,925.33,0,1388-260.25,0-520.5,0-780.75,0,0-462.67,0-925.33,0-1388ZM730.89,568.33H273.31c-.22-3.58-.43-6.89-.64-10.35,14.88-3.73,21.31-15.14,25.16-27.8,.96,4.18,1.94,8.94,3.24,13.62,.32,1.17,1.89,2.98,2.56,2.84,1.25-.25,2.59-1.51,3.31-2.7,1.09-1.82,1.76-3.91,2.47-5.94,1.67-4.73,3.1-9.54,4.97-14.18,.49-1.22,2.23-1.93,3.38-2.89,.74-.62,2.01-1.22,2.05-1.91,.05-.76-.82-1.91-1.6-2.36-2.59-1.49-5.71-.7-7.05,2.04-1.61,3.3-2.82,6.81-4.09,10.28-1.09,2.99-2.03,6.05-3.21,9.61-2.17-11.45-5.77-21.79-7.77-32.52-.56-3.02-2.56-5.87-4.26-8.58-6.77-10.82-16.8-16.98-29.03-19.81-6.37-1.47-12.49-.89-18.58,1.81-16.58,7.33-23.83,21.57-28.95,37.7-2.01,6.32-4.97,12.35-7.5,18.51l-1.32-.34c-1.13-5.11-2.33-10.2-3.38-15.33-1.16-5.65-3.98-7.53-9.5-5.93-.81,.23-1.98,1.75-1.81,2.26,.33,.96,1.42,2,2.4,2.3,1.3,.39,2.8,.1,4.19,.1,1.64,7.41,3.15,14.6,4.89,21.73,.32,1.3,1.55,3.2,2.52,3.3,1.1,.12,2.73-1.24,3.5-2.38,1.86-2.79,3.36-5.82,5.09-8.9,.23,.48,.36,.69,.42,.91,.21,.68,.36,1.38,.58,2.06,2.52,7.75,5.67,15.47,13.22,19.31,5.48,2.79,6.82,6.47,6.16,11.82-.06,.46-.07,.93-.13,1.7h-90.61v551.62c13.87,0,27.56-.07,41.26,.08,1.93,.02,3.83,1.17,5.79,1.63,.82,.19,1.77,.02,2.62-.17,2.01-.45,3.99-1.47,5.98-1.47,175.73-.07,351.45-.06,527.18-.06h4.06V568.33ZM216.79,443.65c2.16,0,3.47,0,4.78,0,93.75,.16,187.51,.35,281.26,.48,78.35,.11,156.7,.18,235.05,.21,5.65,0,11.31-.27,16.94-.74,17.14-1.41,27.32-9.44,30.97-26.15,2.27-10.38,3.54-21.18,3.57-31.8,.28-85.49,.18-170.97,.13-256.46,0-3.7-.4-7.47-1.13-11.1-3.58-17.64-14.6-29.37-30.26-37.15-16.41-8.15-34.09-10.78-52.14-10.79-178.37-.09-356.74-.11-535.1,.02-11.03,0-22.14,.8-33.07,2.27-7.65,1.03-15.35,3.11-22.53,5.98-23.25,9.27-33.11,27.68-33.49,51.86-.86,55.01-1.75,110.02-2.29,165.03-.32,32.5-.17,65,.17,97.5,.11,10.82,1.66,21.6,6.35,31.6,4.19,8.93,11.09,14.77,20.96,15.58,10.41,.85,20.9,.73,31.36,.79,17.43,.11,34.87,.03,52.04,.03,6.99,24.41,10.94,31.41,18.44,34.03,2.66-10.37,5.34-20.79,8.02-31.19Z"
       id="path308" />
    <path
       class="cls-20"
       d="M730.89,568.33v551.6h-4.06c-175.73,0-351.45,0-527.18,.06-1.99,0-3.97,1.02-5.98,1.47-.85,.19-1.8,.36-2.62,.17-1.96-.45-3.86-1.61-5.79-1.63-13.69-.15-27.39-.08-41.26-.08V568.31h90.61c.06-.77,.08-1.24,.13-1.7,.66-5.36-.68-9.03-6.16-11.82-7.54-3.84-10.7-11.56-13.22-19.31-.22-.68-.37-1.38-.58-2.06-.07-.23-.2-.43-.42-.91-1.73,3.08-3.22,6.11-5.09,8.9-.76,1.14-2.4,2.5-3.5,2.38-.97-.1-2.2-2-2.52-3.3-1.75-7.13-3.25-14.32-4.89-21.73-1.39,0-2.9,.3-4.19-.1-.99-.3-2.07-1.34-2.4-2.3-.18-.51,1-2.03,1.81-2.26,5.52-1.61,8.34,.28,9.5,5.93,1.05,5.12,2.25,10.22,3.38,15.33l1.32,.34c2.53-6.16,5.49-12.18,7.5-18.51,5.12-16.13,12.37-30.37,28.95-37.7,6.09-2.69,12.21-3.28,18.58-1.81,12.24,2.82,22.27,8.99,29.03,19.81,1.69,2.71,3.69,5.56,4.26,8.58,2,10.73,5.6,21.07,7.77,32.52,1.18-3.57,2.11-6.62,3.21-9.61,1.27-3.46,2.48-6.97,4.09-10.28,1.34-2.74,4.45-3.53,7.05-2.04,.78,.45,1.65,1.6,1.6,2.36-.05,.68-1.31,1.29-2.05,1.91-1.15,.96-2.89,1.67-3.38,2.89-1.87,4.64-3.31,9.45-4.97,14.18-.71,2.02-1.38,4.12-2.47,5.94-.72,1.19-2.06,2.45-3.31,2.7-.67,.13-2.23-1.68-2.56-2.84-1.3-4.68-2.27-9.45-3.24-13.62-3.85,12.66-10.28,24.07-25.16,27.8,.21,3.46,.42,6.77,.64,10.35h457.59Zm-272.78,458.69c6.96,1.39,13.61,3.02,20.36,3.96,3.87,.54,7.96,.36,11.85-.19,17.05-2.4,29.15-12.5,38.33-26.23,7.2-10.77,13.32-22.26,20.22-33.24,10.98-17.49,21.72-35.07,29.89-54.13,1.26-2.94,3.57-6.07,6.25-7.63,7.12-4.15,14.71-7.5,22.11-11.17,2.99-1.48,6.11-2.76,8.88-4.56,1-.65,1.89-2.77,1.58-3.87-.77-2.71-1.79-5.61-3.55-7.73-6.57-7.91-15.86-10.46-25.52-11.72-8.47-1.1-16.62,1.32-24.86,2.86-7.37,1.38-12.16,4.79-12.99,12.64-.14,1.29-.56,2.55-.87,3.82-5.71,23.47-11.72,46.83-22.44,68.69-5.48,11.18-13.45,19.46-25.36,23.61-7.09,2.47-12.19,.98-16.54-5.25-4.12-5.91-6.41-12.54-6.91-19.75-.62-8.87-.9-17.78-1.93-26.6-.94-8.03-2.71-15.96-4.08-23.94-3.79-22.09-11.1-42.67-25.56-60.23-3.86-4.69-7.41-9.69-13.06-12.48-3.82,3.57-7.4,6.96-11.02,10.3-7.8,7.2-15.89,13.89-26.13,17.52-14.01,4.97-28.14,7.73-43.22,6.23-21.01-2.09-40.28-8.64-57.96-19.99-8.56-5.5-15.7-12.62-21.79-20.68-8.45,3.05-15.47,7.95-21.29,14.5-15.67,17.61-25.71,38.25-32.27,60.71-6.22,21.3-9.42,43.24-13.69,64.97-5.11,26-7.75,52.27-9.6,78.6-1.4,19.9-1.06,39.92-1.47,59.89-.01,.68,.18,1.36,.27,2.08H716.88V580.3H157.78v527.64h28.8c1.42-26.36,2.59-52.4,4.32-78.41,.86-13.01,2.1-26.07,4.31-38.91,4.1-23.84,8.72-47.6,13.71-71.27,4.41-20.89,10.91-41.17,22.36-59.42,9.87-15.73,19.28-32.13,39.88-36.63-1.04-1.3-2.13-2.42-2.92-3.73-3.64-6.01-8.32-11.68-10.56-18.19-5.45-15.81-6.77-31.96-3.73-48.84,4.53-25.11,15.04-47.26,29.4-67.93,11.87-17.09,25.81-31.27,46.25-38.49,14.84-5.24,29.86-7.63,45.26-6.79,13.26,.73,25.68,5.03,36.86,12.76,11.38,7.87,21.43,17.11,29.86,27.95,4.07,5.24,6.6,11.65,10.2,17.29,7.83,12.3,12.12,25.95,15.42,39.94,.98,4.15,1.72,8.65,1.2,12.82-1.9,15.3-5.04,30.41-10.52,44.84-4.86,12.82-11.57,24.74-20.86,35.11,1.83,1.3,3.54,2.39,5.09,3.65,1.58,1.29,3.16,2.63,4.49,4.17,12.45,14.37,23.27,29.63,27.35,48.74,2.94,13.77,6.66,27.4,9.01,41.26,1.66,9.78,1.55,19.86,2.37,29.79,.51,6.11,2.31,11.77,6.79,16.27,1.87,1.87,3.83,2.34,6.43,1.25,9.5-3.98,16.74-10.46,21.25-19.64,7.35-14.97,13.18-30.56,17.52-46.68,2.88-10.69,5.81-21.37,8.6-32.09,1.29-4.95,3.87-8.34,9.15-9.43,4.34-.89,8.6-2.13,12.9-3.24,15.57-4.02,30.21-1.26,43.97,6.51,8.01,4.52,11.95,12.03,12.86,20.97,.64,6.3-4.45,11.36-12.91,14.41-5.94,2.15-11.84,4.57-17.44,7.48-4.41,2.28-8.61,4.99-10.56,10.26-2.12,5.7-4.55,11.38-7.58,16.64-13.18,22.87-26.53,45.66-40.05,68.33-5.29,8.88-12.33,16.87-21.15,21.82-13.82,7.75-29.01,10.99-45.01,6.6-4.01-1.1-8.22-1.5-12.96-2.33,0,4.12,.2,7.72-.04,11.3-.77,11.61-1.64,23.22-2.62,34.82-.36,4.3-.84,8.63-1.79,12.83-.58,2.58-2.3,5.03-5.5,4.69-2.19-.23-3.35-3.89-2.81-6.86,.64-3.54,1.17-7.11,1.47-10.69,.65-7.67,1.08-15.36,1.67-23.03,.79-10.17,2.07-20.33,2.36-30.52,.44-15.25-.6-30.46-3.33-45.5-2.79-15.36-5.53-30.74-8.54-46.06-2.16-11-5.82-21.75-5.3-33.16,.05-1.02,1.04-2,1.59-3.01,.74,.94,1.9,1.78,2.15,2.83,.98,4.17,1.5,8.45,2.52,12.6,3.24,13.21,7.13,26.28,9.81,39.6,2.93,14.52,5.05,29.22,7.01,43.9,1.25,9.38,1.57,18.89,2.31,28.45Zm-94.18-166.56c11.23-.14,22.31-3.41,32.94-8.28,10.05-4.6,17.49-12.67,25.35-20.07,23.48-22.12,33.59-50.67,38.34-81.6,1.67-10.84-2.45-20.96-6.35-30.63-7.57-18.79-17.44-36.26-32.72-50.2-7.55-6.89-15.23-13.5-24.86-17.22-9.66-3.73-19.51-5.51-30.1-4.53-8.35,.77-16.68,1.03-24.68,3.77-12.26,4.2-24.84,8.03-34.25,17.55-22.61,22.86-39.27,49.18-45.36,81.28-1.46,7.71-3.26,15.66-2.8,23.38,.93,15.71,4.87,30.48,15.92,42.92,6.28,7.07,11.4,15.23,19.15,20.86,20.49,14.88,43.58,22.1,69.44,22.77Zm-70.6-341.3c0-1.81,.03-3.61-.02-5.42-.02-.58-.25-1.16-.38-1.75-3.15-13.99-12.44-22.33-25.08-27.94-7.15-3.17-13.98-3.69-20.99-.11-18.72,9.55-27.23,25.38-27.21,45.85,.01,16.43,17.33,30.07,33.62,27.17,3.75-.67,7.53-1.24,11.23-2.12,6.53-1.56,13.3-2.92,17.98-8.27,6.83-7.8,11.28-16.69,10.84-27.42Zm-24.71,39.81c-10.08,2.72-19.98,4.74-30.15,.71,0,2.04,.1,3.59-.02,5.12-.23,2.82,.91,3.74,3.76,3.6,4.78-.24,9.58-.07,14.38-.07,4.02,0,8.04,0,12.04,0v-9.36Z"
       id="path310" />
    <path
       class="cls-40"
       d="M216.79,443.65c-2.67,10.4-5.35,20.83-8.02,31.19-7.5-2.61-11.44-9.61-18.44-34.03-17.17,0-34.61,.08-52.04-.03-10.46-.07-20.95,.06-31.36-.79-9.87-.81-16.77-6.65-20.96-15.58-4.69-10-6.24-20.78-6.35-31.6-.34-32.5-.49-65-.17-97.5,.54-55.01,1.44-110.02,2.29-165.03,.38-24.18,10.24-42.59,33.49-51.86,7.18-2.86,14.88-4.95,22.53-5.98,10.93-1.47,22.04-2.27,33.07-2.27,178.37-.12,356.74-.11,535.1-.02,18.05,0,35.73,2.64,52.14,10.79,15.66,7.78,26.68,19.51,30.26,37.15,.74,3.63,1.13,7.39,1.13,11.1,.05,85.49,.16,170.97-.13,256.46-.04,10.62-1.3,21.42-3.57,31.8-3.65,16.71-13.83,24.73-30.97,26.15-5.63,.46-11.29,.74-16.94,.74-78.35-.03-156.7-.1-235.05-.21-93.75-.13-187.51-.32-281.26-.48-1.31,0-2.62,0-4.78,0Zm-11.29,23.61c2.63-8.4,5.22-16.24,7.51-24.16,.89-3.08,2.45-3.89,5.62-3.88,105.19,.25,210.38,.4,315.57,.55,62.95,.09,125.89,.2,188.84,.22,10.34,0,20.71-.08,31.02-.76,15.82-1.05,24.22-7.7,27.57-23.16,2.2-10.14,3.35-20.71,3.39-31.1,.27-84.53,.08-169.05,.23-253.58,.04-21.54-9.72-36.63-28.6-46.22-15.92-8.09-33.13-10.65-50.69-10.65-180.06-.09-360.11-.08-540.17-.02-13.73,0-27.4,1.18-40.69,4.99-18.84,5.4-32.7,16.12-37.16,36.17-1.24,5.59-1.7,11.43-1.8,17.17-.7,42.25-1.4,84.5-1.75,126.76-.37,44.42-.48,88.84-.38,133.25,.02,9.97,1.53,19.92,5.68,29.2,3.5,7.82,9.37,12.87,18.01,13.72,6.44,.64,12.96,.63,19.45,.65,22.38,.07,44.75,.03,67.17,.03,1.96,11.52,4.26,22.03,11.21,30.83Z"
       id="path312" />
    <path
       class="cls-28"
       d="M458.11,1027.02c-.74-9.56-1.06-19.07-2.31-28.45-1.96-14.69-4.08-29.39-7.01-43.9-2.68-13.32-6.58-26.39-9.81-39.6-1.02-4.16-1.54-8.44-2.52-12.6-.25-1.06-1.41-1.9-2.15-2.83-.55,1-1.55,1.98-1.59,3.01-.52,11.41,3.14,22.16,5.3,33.16,3.01,15.32,5.75,30.7,8.54,46.06,2.73,15.05,3.77,30.26,3.33,45.5-.29,10.19-1.58,20.34-2.36,30.52-.59,7.67-1.02,15.36-1.67,23.03-.3,3.58-.83,7.15-1.47,10.69-.54,2.98,.63,6.64,2.81,6.86,3.2,.33,4.91-2.12,5.5-4.69,.95-4.2,1.43-8.53,1.79-12.83,.97-11.6,1.84-23.21,2.62-34.82,.24-3.58,.04-7.18,.04-11.3,4.73,.83,8.94,1.23,12.96,2.33,16.01,4.38,31.19,1.14,45.01-6.6,8.82-4.94,15.86-12.93,21.15-21.82,13.52-22.68,26.86-45.46,40.05-68.33,3.03-5.26,5.46-10.94,7.58-16.64,1.95-5.27,6.16-7.98,10.56-10.26,5.6-2.9,11.5-5.33,17.44-7.48,8.46-3.06,13.55-8.12,12.91-14.41-.91-8.95-4.86-16.45-12.86-20.97-13.75-7.76-28.39-10.53-43.97-6.51-4.29,1.11-8.56,2.34-12.9,3.24-5.28,1.09-7.86,4.47-9.15,9.43-2.79,10.72-5.72,21.39-8.6,32.09-4.35,16.12-10.17,31.71-17.52,46.68-4.51,9.18-11.75,15.66-21.25,19.64-2.59,1.09-4.56,.62-6.43-1.25-4.48-4.5-6.28-10.16-6.79-16.27-.82-9.93-.71-20.01-2.37-29.79-2.36-13.86-6.07-27.49-9.01-41.26-4.08-19.1-14.9-34.37-27.35-48.74-1.33-1.54-2.91-2.88-4.49-4.17-1.55-1.27-3.26-2.35-5.09-3.65,9.29-10.37,16-22.28,20.86-35.11,5.47-14.43,8.62-29.55,10.52-44.84,.52-4.17-.22-8.67-1.2-12.82-3.3-14-7.59-27.64-15.42-39.94-3.59-5.64-6.12-12.05-10.2-17.29-8.43-10.84-18.48-20.08-29.86-27.95-11.19-7.74-23.6-12.03-36.86-12.76-15.4-.85-30.42,1.55-45.26,6.79-20.44,7.22-34.38,21.4-46.25,38.49-14.36,20.67-24.87,42.81-29.4,67.93-3.04,16.87-1.72,33.03,3.73,48.84,2.24,6.51,6.92,12.18,10.56,18.19,.79,1.31,1.89,2.42,2.92,3.73-20.6,4.5-30.01,20.9-39.88,36.63-11.45,18.26-17.96,38.53-22.36,59.42-4.99,23.67-9.61,47.43-13.71,71.27-2.21,12.84-3.44,25.89-4.31,38.91-1.73,26-2.9,52.04-4.32,78.41h-28.8V580.3H716.88v527.7H195.73c-.1-.72-.29-1.4-.27-2.08,.41-19.97,.07-39.99,1.47-59.89,1.85-26.33,4.5-52.6,9.6-78.6,4.27-21.72,7.47-43.66,13.69-64.97,6.56-22.46,16.6-43.1,32.27-60.71,5.83-6.55,12.85-11.45,21.29-14.5,6.1,8.06,13.24,15.19,21.79,20.68,17.67,11.35,36.94,17.9,57.96,19.99,15.08,1.5,29.21-1.26,43.22-6.23,10.24-3.63,18.34-10.32,26.13-17.52,3.62-3.34,7.2-6.73,11.02-10.3,5.65,2.79,9.2,7.79,13.06,12.48,14.45,17.56,21.76,38.15,25.56,60.23,1.37,7.98,3.14,15.91,4.08,23.94,1.03,8.82,1.31,17.73,1.93,26.6,.5,7.21,2.79,13.85,6.91,19.75,4.35,6.23,9.45,7.73,16.54,5.25,11.92-4.16,19.88-12.43,25.36-23.61,10.72-21.85,16.72-45.22,22.44-68.69,.31-1.27,.73-2.53,.87-3.82,.83-7.85,5.62-11.26,12.99-12.64,8.24-1.54,16.39-3.96,24.86-2.86,9.66,1.26,18.95,3.81,25.52,11.72,1.76,2.12,2.78,5.02,3.55,7.73,.31,1.1-.58,3.22-1.58,3.87-2.78,1.8-5.9,3.08-8.88,4.56-7.4,3.67-14.99,7.01-22.11,11.17-2.68,1.57-4.99,4.69-6.25,7.63-8.17,19.05-18.91,36.64-29.89,54.13-6.9,10.98-13.01,22.47-20.22,33.24-9.18,13.72-21.28,23.83-38.33,26.23-3.89,.55-7.98,.73-11.85,.19-6.75-.94-13.4-2.57-20.36-3.96Zm-224.21,43.83c.62,7.11,1.38,16.43,2.32,25.73,.15,1.44,.96,2.92,1.8,4.14,.47,.68,1.88,1.4,2.47,1.16,.93-.39,1.85-1.47,2.17-2.45,.35-1.08,.07-2.38-.04-3.58-.62-7.15-1.62-14.28-1.85-21.44-.47-15.15,1.36-30.21,4.28-44.99,6.26-31.67,10.7-63.74,20.04-94.78,.84-2.79,.76-5.89,.85-8.86,.02-.62-1.08-1.28-1.67-1.93-.5,.56-1.25,1.04-1.45,1.69-3.61,11.88-7.7,23.65-10.59,35.71-4.08,17.03-7.26,34.28-10.85,51.43-3.86,18.46-6.61,37.05-7.5,58.17Zm288.65-238.77v.07c-2.04,0-4.09,.03-6.13-.01-1.9-.04-3.46,.36-3.35,2.68,.09,2.04,.63,3.75,3.28,3.66,4.68-.16,9.37-.02,14.02-.44,1.23-.11,2.32-1.8,3.47-2.77-1.24-1.06-2.35-2.76-3.75-3.05-2.42-.51-5.02-.14-7.54-.14Zm68.46-46.97c.77,1.72,1.35,3.02,1.93,4.32,1.2-.95,2.89-1.66,3.49-2.89,1.52-3.1,2.66-6.4,3.72-9.69,.84-2.59,1.54-5.27,1.88-7.97,.12-1.01-.83-2.29-1.6-3.19-.2-.24-2.07,.29-2.29,.83-2.47,6.15-4.77,12.36-7.14,18.6Zm-26.62-14.05l-.35,.06c.45,2.81,.62,5.72,1.5,8.4,.38,1.16,2.24,1.83,3.42,2.72,.41-1.33,1.17-2.66,1.16-3.99-.01-2.01-.63-4-.84-6.02-.18-1.66,.19-3.46-.31-4.99-.41-1.24-1.75-2.18-2.68-3.25-.63,1.16-1.48,2.25-1.83,3.49-.31,1.11-.07,2.38-.07,3.58Zm-10.46,61.85h-.12c0-1.8,.46-3.77-.14-5.33-.48-1.26-2.14-2.26-3.51-2.86-.32-.14-2.22,1.75-2.24,2.73-.08,3.55,.16,7.13,.67,10.64,.12,.81,1.88,2.03,2.73,1.91,.96-.13,2.19-1.43,2.49-2.46,.43-1.43,.11-3.08,.11-4.64Zm75.08-39.18c-3.87,1.92-7.59,3.57-11.07,5.63-.72,.43-.79,2.4-.66,3.61,.05,.46,1.74,1.29,2.28,1.05,3.82-1.68,7.58-3.5,11.23-5.52,.6-.33,.92-2.02,.65-2.84-.25-.76-1.47-1.21-2.44-1.93Zm-101.26-16.8c-.72,5.21,1.24,9.6,5.4,12.12,1.22,.74,3.2,.22,4.83,.27-.26-1.61-.05-3.56-.9-4.77-1.48-2.12-3.52-3.89-5.49-5.61-.96-.84-2.3-1.23-3.84-2.02Zm26.96,35.32c0-1.55,.4-3.26-.13-4.6-.41-1.05-1.88-1.94-3.07-2.33-.59-.19-2.28,.87-2.31,1.41-.13,3.39-.07,6.81,.27,10.18,.07,.73,1.83,2.01,2.36,1.81,1.12-.42,2.31-1.48,2.77-2.57,.47-1.11,.1-2.58,.11-3.89Zm9.1-8.32c-2.12,.32-4.12,.3-5.81,1.02-.86,.37-1.77,2.18-1.57,3.1,.22,.99,1.68,2.34,2.66,2.4,2.82,.15,5.69-.13,8.49-.57,.95-.15,2.29-1.12,2.49-1.95,.2-.83-.55-2.47-1.32-2.84-1.54-.73-3.38-.83-4.94-1.16Zm29.47,47.13v.08c-.85,0-1.72-.14-2.52,.03-1.51,.31-4.13-1.09-4.08,1.91,.04,2.34,1.32,4.02,4.15,3.87,2.27-.12,4.59,.25,6.84-.03,1.17-.15,2.23-1.22,3.34-1.88-.9-1.23-1.55-2.97-2.77-3.56-1.4-.67-3.29-.32-4.96-.41Zm11.97-28.53h.03c0-1.67,.37-3.47-.13-4.98-.34-1.03-1.81-1.89-2.97-2.34-.35-.14-1.9,1.32-1.93,2.09-.15,3.41-.1,6.86,.22,10.26,.08,.8,1.52,2.05,2.31,2.03,.84-.02,2.14-1.18,2.36-2.06,.39-1.58,.11-3.32,.11-4.99Zm-8.81,17.73c.22,1.66,.07,2.89,.57,3.73,.64,1.07,1.81,1.83,2.76,2.72,.89-1.1,2.08-2.07,2.59-3.33,.7-1.72,1.16-3.64,1.2-5.49,.03-1.31-.79-2.64-1.23-3.96-1.48,.6-3.42,.81-4.33,1.89-1.04,1.24-1.18,3.25-1.55,4.44Zm-36.28,10.96v-.09c-1.07,0-2.19-.19-3.21,.05-1.12,.27-2.13,.94-3.19,1.44,.95,1.36,1.68,3.59,2.9,3.9,2.46,.63,5.22,.47,7.8,.14,1.11-.14,2.06-1.52,3.08-2.34-1.03-1.03-1.9-2.46-3.14-2.99-1.21-.52-2.81-.11-4.24-.11Zm75.07-25.44c-1.76,.3-3.8,.28-5.48,1.06-.94,.44-1.7,2.17-1.73,3.34-.01,.6,1.74,1.72,2.73,1.76,2.25,.1,4.57-.11,6.76-.61,1.08-.25,1.96-1.42,2.93-2.18-.86-.97-1.61-2.08-2.62-2.85-.59-.45-1.59-.34-2.59-.52Zm-52.34-14.43c1.03,0,2.3,.36,3.14-.08,1.29-.69,2.27-1.93,3.39-2.94-1.05-.92-2.01-2.45-3.18-2.65-2.31-.39-4.76-.2-7.12,.1-.69,.09-1.72,1.35-1.74,2.1-.14,4.02,2.74,3.73,5.51,3.47Zm-6.31,45.59c1.04,0,1.97,.24,2.69-.05,1.25-.5,2.37-1.34,3.55-2.03-.93-1.08-1.76-2.94-2.82-3.07-2.77-.36-5.65-.06-8.46,.23-.43,.04-1.13,1.45-1.02,2.12,.63,4,3.88,2.51,6.07,2.81Zm-24.63-7.09c-.32-2.22,.95-5.67-2.9-5.72-3.88-.05-2.71,3.5-2.87,5.71-.18,2.42-.4,5.91,2.7,6.09,3.96,.22,2.7-3.6,3.08-6.08Zm46.69-37.04c1.43-.26,4.32,.67,4.4-2.6,.07-2.93-2.31-3.29-4.63-3.13-2.03,.14-4.64-.54-4.61,2.95,.03,3.13,2.19,2.9,4.84,2.78Z"
       id="path314" />
    <path
       class="cls-28"
       d="M363.93,860.46c-25.85-.66-48.94-7.89-69.44-22.77-7.75-5.63-12.87-13.8-19.15-20.86-11.05-12.44-14.99-27.21-15.92-42.92-.46-7.72,1.34-15.67,2.8-23.38,6.09-32.09,22.75-58.42,45.36-81.28,9.42-9.52,21.99-13.35,34.25-17.55,8-2.74,16.33-3,24.68-3.77,10.59-.98,20.44,.8,30.1,4.53,9.64,3.72,17.31,10.33,24.86,17.22,15.28,13.94,25.15,31.41,32.72,50.2,3.9,9.67,8.02,19.79,6.35,30.63-4.75,30.93-14.86,59.48-38.34,81.6-7.86,7.4-15.3,15.47-25.35,20.07-10.63,4.87-21.71,8.14-32.94,8.28Zm10.99-94.91c-.46,10.35-.94,20.5-1.33,30.65-.04,1.15,.26,2.4,.76,3.44,.33,.7,1.28,1.53,1.94,1.52,.74-.01,1.77-.75,2.13-1.45,.53-1.02,.77-2.3,.78-3.46,.07-9.24,.08-18.47,.07-27.71,0-2.55-1.15-3.8-4.35-2.99Zm15.34,50.36c-.33-.26-.66-.51-.99-.77-10.34,6.71-20.49,9.13-30.44-1.15-1.98,.57-2.43,2.06-.97,3.85,1.35,1.65,2.83,3.49,4.67,4.38,5.66,2.75,19.74,3.17,26.2-3.4,.74-.75,1.04-1.94,1.54-2.92Zm-41.3-45.59c.01-5.39-.93-6.2-5.08-5.49-3.67,.63-5.27,6.63-2.45,10.32,.91,1.18,2.94,2,4.47,2.01,.78,0,1.8-2.05,2.3-3.34,.56-1.41,.65-3.01,.75-3.5Zm54.76,1.59c1.3,1.56,2.32,3.94,3.96,4.47,2.51,.82,4.8-2.69,4.82-6.59,.01-2.66-1.15-4.37-3.9-4.54-2.47-.16-4.09,2.32-4.88,6.66Z"
       id="path316" />
    <path
       class="cls-36"
       d="M293.33,519.16c.44,10.73-4.02,19.61-10.84,27.42-4.68,5.35-11.46,6.71-17.98,8.27-3.7,.89-7.48,1.45-11.23,2.12-16.29,2.91-33.61-10.74-33.62-27.17-.01-20.47,8.49-36.3,27.21-45.85,7.01-3.58,13.84-3.06,20.99,.11,12.64,5.61,21.93,13.94,25.08,27.94,.13,.58,.36,1.16,.38,1.75,.05,1.8,.02,3.61,.02,5.42Zm-42.36,24.95c.48-.54,2.22-1.62,2.48-2.98,.58-3.06-3.87-7.77-6.9-7.94-2.62-.15-3.69,1.23-3.79,3.64-.16,3.8,3.02,7.16,8.22,7.28Zm21.15-24.72c-1.57-1.72-2.59-3.85-3.82-3.98-2.81-.3-2.45,2.36-2.35,4.14,.11,2.15-1.14,5.45,2.24,5.63,1.08,.06,2.35-3.34,3.94-5.79Zm-30.77,.44l-.56,.11c.36,1.45,.44,3.09,1.2,4.28,.38,.6,2.02,.39,3.09,.54,.15-2.64,.41-5.28,.34-7.92,0-.39-1.6-1.12-2.34-1-.66,.11-1.34,1.1-1.68,1.85-.27,.59-.05,1.41-.05,2.13Zm-4.04-11.34l-.18-1.11c2.24-1.49,4.52-2.92,6.64-4.56,.19-.15-.67-1.66-1.05-2.53-1.6,1.28-3.5,2.32-4.68,3.91-.78,1.03-.52,2.84-.73,4.3Zm28.79-6.29c2,1.63,3.39,2.95,4.97,3.95,.65,.41,1.74,.14,2.63,.17-1.26-1.85-2.18-4.19-3.89-5.41-1.92-1.37-3.52-.1-3.72,1.29Z"
       id="path318" />
    <path
       class="cls-34"
       d="M268.62,558.97v9.36c-3.99,0-8.01,0-12.04,0-4.79,0-9.6-.17-14.38,.07-2.85,.14-3.99-.78-3.76-3.6,.12-1.53,.02-3.08,.02-5.12,10.17,4.03,20.07,2.01,30.15-.71Z"
       id="path320" />
    <path
       class="cls-39"
       d="M205.5,467.26c-6.94-8.8-9.24-19.31-11.21-30.83-22.41,0-44.79,.04-67.17-.03-6.49-.02-13,0-19.45-.65-8.64-.86-14.51-5.9-18.01-13.72-4.15-9.28-5.66-19.23-5.68-29.2-.09-44.42,.02-88.84,.38-133.25,.35-42.25,1.05-84.51,1.75-126.76,.1-5.74,.55-11.59,1.8-17.17,4.46-20.05,18.32-30.77,37.16-36.17,13.29-3.81,26.96-4.99,40.69-4.99,180.06-.06,360.11-.08,540.17,.02,17.56,0,34.76,2.57,50.69,10.65,18.87,9.59,28.63,24.68,28.6,46.22-.15,84.53,.04,169.05-.23,253.58-.03,10.38-1.18,20.95-3.39,31.1-3.36,15.46-11.75,22.11-27.57,23.16-10.31,.68-20.68,.76-31.02,.76-62.95-.02-125.89-.12-188.84-.22-105.19-.15-210.38-.3-315.57-.55-3.16,0-4.72,.8-5.62,3.88-2.3,7.93-4.88,15.77-7.51,24.16Z"
       id="path322" />
    <path
       class="cls-38"
       d="M233.91,1070.85c.88-21.11,3.63-39.71,7.5-58.17,3.59-17.15,6.77-34.4,10.85-51.43,2.89-12.06,6.97-23.83,10.59-35.71,.2-.65,.95-1.13,1.45-1.69,.59,.64,1.69,1.3,1.67,1.93-.09,2.96-.01,6.06-.85,8.86-9.34,31.03-13.79,63.1-20.04,94.78-2.92,14.79-4.76,29.84-4.28,44.99,.22,7.16,1.22,14.3,1.85,21.44,.1,1.2,.39,2.5,.04,3.58-.32,.98-1.24,2.07-2.17,2.45-.59,.25-2-.47-2.47-1.16-.85-1.22-1.66-2.7-1.8-4.14-.94-9.3-1.69-18.63-2.32-25.73Z"
       id="path324" />
    <path
       class="cls-22"
       d="M522.56,832.08c2.52,0,5.12-.37,7.54,.14,1.4,.29,2.51,1.99,3.75,3.05-1.15,.96-2.24,2.65-3.47,2.77-4.65,.42-9.35,.28-14.02,.44-2.65,.09-3.18-1.62-3.28-3.66-.11-2.32,1.45-2.72,3.35-2.68,2.04,.04,4.09,.01,6.13,.01v-.07Z"
       id="path326" />
    <path
       class="cls-35"
       d="M591.02,785.11c2.36-6.23,4.66-12.45,7.14-18.6,.22-.53,2.08-1.06,2.29-.83,.77,.9,1.72,2.18,1.6,3.19-.33,2.69-1.04,5.37-1.88,7.97-1.06,3.29-2.21,6.59-3.72,9.69-.61,1.24-2.29,1.94-3.49,2.89-.58-1.3-1.16-2.6-1.93-4.32Z"
       id="path328" />
    <path
       class="cls-30"
       d="M564.4,771.06c0-1.2-.25-2.47,.07-3.58,.35-1.24,1.2-2.33,1.83-3.49,.93,1.07,2.27,2.01,2.68,3.25,.5,1.53,.13,3.33,.31,4.99,.22,2.02,.83,4.01,.84,6.02,0,1.33-.75,2.66-1.16,3.99-1.19-.89-3.04-1.56-3.42-2.72-.88-2.67-1.04-5.58-1.5-8.4l.35-.06Z"
       id="path330" />
    <path
       class="cls-27"
       d="M553.94,832.91c0,1.56,.32,3.21-.11,4.64-.31,1.03-1.53,2.32-2.49,2.46-.85,.12-2.62-1.1-2.73-1.91-.51-3.51-.76-7.1-.67-10.64,.02-.98,1.92-2.87,2.24-2.73,1.36,.6,3.02,1.6,3.51,2.86,.6,1.57,.14,3.53,.14,5.33h.12Z"
       id="path332" />
    <path
       class="cls-32"
       d="M629.02,793.73c.97,.72,2.19,1.17,2.44,1.93,.27,.82-.05,2.51-.65,2.84-3.64,2.02-7.41,3.84-11.23,5.52-.55,.24-2.24-.59-2.28-1.05-.13-1.21-.06-3.18,.66-3.61,3.47-2.06,7.19-3.71,11.07-5.63Z"
       id="path334" />
    <path
       class="cls-11"
       d="M527.75,776.93c1.54,.78,2.88,1.18,3.84,2.02,1.97,1.72,4.01,3.49,5.49,5.61,.84,1.21,.63,3.16,.9,4.77-1.63-.05-3.62,.47-4.83-.27-4.16-2.52-6.12-6.91-5.4-12.12Z"
       id="path336" />
    <path
       class="cls-27"
       d="M554.72,812.25c0,1.31,.36,2.78-.11,3.89-.46,1.09-1.65,2.16-2.77,2.57-.53,.2-2.28-1.09-2.36-1.81-.34-3.37-.4-6.79-.27-10.18,.02-.54,1.72-1.6,2.31-1.41,1.19,.39,2.65,1.28,3.07,2.33,.53,1.34,.13,3.05,.13,4.6Z"
       id="path338" />
    <path
       class="cls-27"
       d="M563.82,803.93c1.56,.33,3.4,.43,4.94,1.16,.77,.36,1.52,2,1.32,2.84-.2,.83-1.53,1.8-2.49,1.95-2.8,.43-5.67,.71-8.49,.57-.98-.05-2.44-1.41-2.66-2.4-.2-.92,.7-2.73,1.57-3.1,1.69-.71,3.69-.69,5.81-1.02Z"
       id="path340" />
    <path
       class="cls-27"
       d="M593.29,851.07c1.68,.09,3.56-.26,4.96,.41,1.21,.58,1.87,2.33,2.77,3.56-1.11,.66-2.17,1.74-3.34,1.88-2.24,.28-4.56-.09-6.84,.03-2.83,.15-4.11-1.52-4.15-3.87-.05-3,2.56-1.6,4.08-1.91,.81-.17,1.68-.03,2.52-.03v-.08Z"
       id="path342" />
    <path
       class="cls-27"
       d="M605.26,822.53c0,1.67,.28,3.41-.11,4.99-.22,.88-1.52,2.04-2.36,2.06-.79,.02-2.23-1.24-2.31-2.03-.32-3.4-.38-6.84-.22-10.26,.03-.77,1.58-2.22,1.93-2.09,1.16,.45,2.62,1.31,2.97,2.34,.5,1.51,.13,3.31,.13,4.98h-.03Z"
       id="path344" />
    <path
       class="cls-27"
       d="M596.45,840.26c.38-1.19,.51-3.2,1.55-4.44,.91-1.08,2.85-1.29,4.33-1.89,.44,1.32,1.26,2.65,1.23,3.96-.05,1.85-.5,3.77-1.2,5.49-.51,1.25-1.7,2.23-2.59,3.33-.94-.89-2.11-1.65-2.76-2.72-.5-.84-.35-2.07-.57-3.73Z"
       id="path346" />
    <path
       class="cls-27"
       d="M560.17,851.23c1.43,0,3.03-.4,4.24,.11,1.25,.53,2.11,1.96,3.14,2.99-1.02,.82-1.97,2.2-3.08,2.34-2.57,.33-5.34,.5-7.8-.14-1.22-.31-1.95-2.54-2.9-3.9,1.06-.5,2.08-1.17,3.19-1.44,1.01-.25,2.13-.05,3.21-.05v.09Z"
       id="path348" />
    <path
       class="cls-33"
       d="M635.24,825.79c.99,.17,2,.07,2.59,.52,1.01,.77,1.76,1.88,2.62,2.85-.97,.76-1.84,1.93-2.93,2.18-2.19,.5-4.51,.71-6.76,.61-.99-.04-2.74-1.16-2.73-1.76,.03-1.17,.78-2.9,1.73-3.34,1.67-.78,3.72-.76,5.48-1.06Z"
       id="path350" />
    <path
       class="cls-27"
       d="M582.9,811.35c-2.77,.25-5.66,.55-5.51-3.47,.03-.75,1.06-2.01,1.74-2.1,2.35-.3,4.8-.49,7.12-.1,1.18,.2,2.13,1.72,3.18,2.65-1.11,1.01-2.1,2.25-3.39,2.94-.84,.45-2.11,.08-3.14,.08Z"
       id="path352" />
    <path
       class="cls-27"
       d="M576.59,856.95c-2.19-.3-5.43,1.19-6.07-2.81-.11-.67,.59-2.08,1.02-2.12,2.81-.28,5.69-.59,8.46-.23,1.05,.14,1.89,2,2.82,3.07-1.18,.69-2.3,1.52-3.55,2.03-.72,.29-1.65,.05-2.69,.05Z"
       id="path354" />
    <path
       class="cls-27"
       d="M551.97,849.85c-.38,2.48,.89,6.3-3.08,6.08-3.1-.17-2.88-3.67-2.7-6.09,.16-2.21-1.01-5.76,2.87-5.71,3.86,.05,2.59,3.5,2.9,5.72Z"
       id="path356" />
    <path
       class="cls-27"
       d="M598.66,812.81c-2.65,.12-4.81,.35-4.84-2.78-.03-3.49,2.58-2.81,4.61-2.95,2.32-.16,4.7,.2,4.63,3.13-.08,3.28-2.97,2.35-4.4,2.6Z"
       id="path358" />
    <path
       class="cls-24"
       d="M374.92,765.55c3.19-.81,4.35,.44,4.35,2.99,.01,9.24,0,18.47-.07,27.71,0,1.17-.26,2.44-.78,3.46-.36,.7-1.39,1.44-2.13,1.45-.66,0-1.61-.82-1.94-1.52-.49-1.04-.8-2.29-.76-3.44,.39-10.15,.87-20.3,1.33-30.65Z"
       id="path360" />
    <path
       class="cls-5"
       d="M390.26,815.92c-.5,.98-.8,2.17-1.54,2.92-6.46,6.57-20.54,6.15-26.2,3.4-1.84-.89-3.32-2.74-4.67-4.38-1.47-1.79-1.02-3.28,.97-3.85,9.96,10.27,20.1,7.86,30.44,1.15,.33,.26,.66,.51,.99,.77Z"
       id="path362" />
    <path
       class="cls-38"
       d="M348.96,770.32c-.1,.49-.19,2.09-.75,3.5-.51,1.28-1.52,3.34-2.3,3.34-1.53-.01-3.56-.82-4.47-2.01-2.83-3.68-1.22-9.68,2.45-10.32,4.15-.71,5.09,.1,5.08,5.49Z"
       id="path364" />
    <path
       class="cls-35"
       d="M403.72,771.91c.79-4.34,2.41-6.82,4.88-6.66,2.75,.18,3.91,1.88,3.9,4.54-.02,3.9-2.32,7.41-4.82,6.59-1.63-.53-2.66-2.92-3.96-4.47Z"
       id="path366" />
    <path
       class="cls-37"
       d="M250.97,544.11c-5.2-.12-8.37-3.47-8.22-7.28,.1-2.41,1.18-3.79,3.79-3.64,3.03,.17,7.48,4.88,6.9,7.94-.26,1.36-2,2.44-2.48,2.98Z"
       id="path368" />
    <path
       class="cls-16"
       d="M272.12,519.4c-1.59,2.45-2.86,5.84-3.94,5.79-3.38-.18-2.13-3.48-2.24-5.63-.09-1.78-.45-4.44,2.35-4.14,1.23,.13,2.25,2.26,3.82,3.98Z"
       id="path370" />
    <path
       class="cls-16"
       d="M241.35,519.84c0-.72-.22-1.54,.05-2.13,.35-.75,1.02-1.75,1.68-1.85,.74-.12,2.33,.61,2.34,1,.07,2.63-.19,5.28-.34,7.92-1.07-.16-2.71,.05-3.09-.54-.76-1.19-.84-2.83-1.2-4.28l.56-.11Z"
       id="path372" />
    <path
       class="cls-15"
       d="M237.31,508.5c.21-1.46-.05-3.27,.73-4.3,1.19-1.58,3.09-2.63,4.68-3.91,.37,.88,1.24,2.39,1.05,2.53-2.12,1.64-4.4,3.07-6.64,4.56l.18,1.11Z"
       id="path374" />
    <path
       class="cls-15"
       d="M266.1,502.21c.2-1.39,1.8-2.66,3.72-1.29,1.71,1.22,2.62,3.57,3.89,5.41-.89-.04-1.98,.24-2.63-.17-1.59-1-2.97-2.32-4.97-3.95Z"
       id="path376" />
  </g>
</svg>
