<?xml version="1.0" encoding="UTF-8" standalone="no"?>
<svg
   id="Layer_13"
   viewBox="0 0 865 1388"
   version="1.1"
   sodipodi:docname="rosieOnboarding-13.svg"
   inkscape:version="1.2.1 (9c6d41e4, 2022-07-14)"
   xmlns:inkscape="http://www.inkscape.org/namespaces/inkscape"
   xmlns:sodipodi="http://sodipodi.sourceforge.net/DTD/sodipodi-0.dtd"
   xmlns="http://www.w3.org/2000/svg"
   xmlns:svg="http://www.w3.org/2000/svg">
  <sodipodi:namedview
     id="namedview152"
     pagecolor="#505050"
     bordercolor="#ffffff"
     borderopacity="1"
     inkscape:showpageshadow="0"
     inkscape:pageopacity="0"
     inkscape:pagecheckerboard="1"
     inkscape:deskcolor="#505050"
     showgrid="false"
     inkscape:zoom="0.29176693"
     inkscape:cx="440.42004"
     inkscape:cy="695.76083"
     inkscape:window-width="1309"
     inkscape:window-height="456"
     inkscape:window-x="0"
     inkscape:window-y="25"
     inkscape:window-maximized="0"
     inkscape:current-layer="Layer_13-2" />
  <defs
     id="defs4">
    <style
       id="style2">.cls-1{fill:#040707;}.cls-2{letter-spacing:-.02em;}.cls-2,.cls-3,.cls-4,.cls-5,.cls-6,.cls-7,.cls-8{isolation:isolate;}.cls-2,.cls-3,.cls-5,.cls-6,.cls-7,.cls-8{font-family:ComicNeue-Regular, 'Comic Neue';font-size:36px;}.cls-3{letter-spacing:0em;}.cls-5{letter-spacing:-.07em;}.cls-9{fill:#020607;}.cls-7{letter-spacing:-.06em;}.cls-10{fill:#050505;}.cls-11{fill:#fa99af;}.cls-8{letter-spacing:-.03em;}.cls-12{fill:#030708;}</style>
  </defs>
  <g
     id="Layer_13-2">
    <path
       class="cls-10"
       d="M428.48,66.97h256.74c16.51,0,33,1.1,48.93,5.78,21.86,6.4,33,20,35.53,42.6,1.02,10.42,1.5,20.89,1.42,31.36,.17,30.11,1.9,60.17,3.32,90.23,1.57,33.07,3.17,66.14,4.58,99.22,.9,21,1.62,42.11,1.45,63.19-.13,16.31-1.57,32.42-7.83,47.74-7.93,19.44-22.79,29.36-43.23,31.66-5.63,.56-11.28,.82-16.94,.75-143.72-.01-287.43-.02-431.12-.02-3.52,0-4.49,1-5.14,4.34-6.81,34.52-9.7,69.33-7.65,104.48,1.23,20.77,4.17,41.4,8.79,61.68,.58,2.58,1.69,3,4.08,3,25.64-.09,51.28-.06,76.91-.06,86.67,0,173.33-.02,260-.07,3.22,0,4.08,.72,4.08,4-.09,128.96-.09,257.92,0,386.88,0,3.85-1.14,4.41-4.57,4.36-12.87-.2-25.75-.08-38.63-.08-103.23,0-206.46,.02-309.69,.07-3.24,0-4.11-.73-4.1-4.06,.11-60.44,.14-120.89,.08-181.34v-132.21c0-2.14-.48-4.26-1.42-6.19-14.87-31.36-24.19-64.45-30.37-98.48-8-44.23-10.77-88.83-9.42-133.72,.12-4,.24-7.95,.65-11.9,.26-2.4-.44-2.95-2.79-2.94-26.12,.09-52.24,.09-78.36,0-10.89,0-21.3-2-30.49-8.28-11.2-7.66-16.6-19-19.69-31.69-2.75-11.29-3.6-22.81-3.61-34.39-.04-86-.04-171.98,0-257.93,0-12.43,1.23-24.71,4.8-36.71,6.43-21.61,21-34.1,42.83-38.48,12.93-2.6,26-2.92,39.16-2.92h251.7v.13Zm93,962.37c-.61,2.25,0,4.51-.08,6.76-.08,2.8,1.12,3.47,3.82,3.44,14.08-.14,28.16-.14,42.25,0,2.76,0,3.41-.78,3.36-3.45-.19-12.88-.28-25.76-.17-38.64,0-3.43-.52-6-3.32-8.5-4.6-4.13-3.6-10,1.67-13.42,.59-.38,1.57-.87,1.57-1.33,0-4.77,1.48-9.8-.4-14.24-2.1-4.97-4.97-9.59-8.49-13.68-8.16-9.54-14.3-20.78-24.63-28.51-5.13-3.83-9.61-8.52-15.76-11.75v9.19c0,1.32-.12,2.64-.12,4,.1,36.7,.2,73.41,.3,110.13Zm-177.41-218.73c.23,.16,.54,.51,.67,.45,.62-.3,.11-.64,0-1-11.35-19.1-23-38-33.35-57.7-29.72-56.39-46.9-116.1-47.87-180.11-.39-30.83,2.62-61.61,9-91.78,1.11-5.32,1.14-5.32,6.71-5.32h434.01c5.3,.06,10.59-.18,15.86-.74,19.2-2.23,32.91-11.7,40-30.1,5.32-13.81,6.79-28.24,7-42.84,.27-21.68-.5-43.35-1.42-65-1.41-33.08-2.94-66.15-4.57-99.22-1.46-30.55-3.2-61.09-3.33-91.68,.08-9.98-.41-19.95-1.45-29.88-2.43-20.88-12.23-32.73-32.31-38.66-15.62-4.61-31.71-5.66-47.85-5.66-169.84-.08-339.68-.1-509.53-.07-11.19-.14-22.38,.56-33.47,2.12-24.32,3.72-38.51,16.63-44.42,40.56-2.37,9.96-3.52,20.17-3.42,30.4V403.05c0,12.29,.87,24.54,4.28,36.45,4.53,15.82,13.47,27.51,30.18,31.75,5.42,1.29,10.97,1.89,16.54,1.78,27.08,0,54.17,0,81.25-.07,2.49,0,3.24,.43,3,3.1-.53,5.87-.72,11.78-.89,17.67-1.19,38.03,.96,76.09,6.42,113.75,4.88,32.9,12.46,65.11,24.72,96.09,11.59,29.31,26.89,56.38,49,79.18,10.5,10.86,21.93,20.56,35.24,27.86Zm-1.32,4.72c.09,46.26-.22,92.09,1,138,4.66-10,10.79-18.76,19.47-25.58,.95-.91,1.81-1.92,2.56-3,2.94-3.5,5.77-7.28,9.92-9.32,8.78-4.32,16.52-10.19,24.66-15.48,2.1-1.11,3.33-3.36,3.14-5.72-.06-76.58-.36-153.16,.74-229.73,0-2.32-.44-3-2.87-3-18.77,.1-37.54,.1-56.33,0-2.53,0-3.14,.6-3.11,3.15,.37,27.21-.09,54.41,.64,81.62,.44,16.36,.14,32.74,.11,49.11-.05,1.91,.47,3.79,1.48,5.41,3.84,6.24,7.56,12.55,11.25,18.89,.39,.67,1.49,1.34,.57,2.62l-13.23-6.97Zm155.09,70.55c.1-.43,.17-.87,.21-1.31,0-47.31-.14-94.63,0-142,.07-26-.65-52,.67-78,.12-2.55-.41-3.18-3-3.17-21.78,.11-43.56,.11-65.35,0-2.93,0-3.2,1-3.16,3.47,.25,16.72,.42,33.45,.49,50.19,.18,55.73,.33,111.46,.44,167.19,0,5.21,0,5.24,4.82,3.66,15.67-5.29,32.44-6.41,48.67-3.26,5.41,1.09,10.79,2.16,16.21,3.23Zm72.37,56.76l.77-.26v-3.83c.23-52.83-.47-105.66-.09-158.49,.28-38.4,.07-76.81,.18-115.21,0-2.58-.44-3.44-3.26-3.4-14.92,.16-29.84,.16-44.77,0-3.08,0-3.47,1.08-3.32,3.65,1.35,23.45,.6,46.93,.75,70.4,.33,52.61,.55,105.21,.65,157.82-.16,1.68,.81,3.27,2.38,3.89,4.5,2.24,8.71,5.02,12.54,8.27,9.27,8.11,19.28,15.47,25.68,26.46,2.27,3.88,5.61,7.15,8.49,10.7h0Zm-296.23-197.8v291.86c0,2.14,.43,2.86,2.74,2.84,12-.13,24.07-.1,36.11,0,2,0,2.68-.41,2.65-2.53-.12-10.12-.06-20.23-.06-30.35,.18-1.07-.2-2.15-1-2.88-3.49-3-4.92-7-5.23-11.43-.5-6.9-.7-13.82,5.08-19,1.31-1.17,1.12-2.54,1.12-4v-171.24c.1-1.9-.7-3.73-2.16-4.94-8.26-7.57-15.81-15.87-22.56-24.8-5.84-7.59-11.03-15.61-16.69-23.53Zm154.35,183.92l4.32-4.18c1.07-1.15,2.44-1.98,3.95-2.42,2-.51,4-.5,4.95,1.65,.84,1.89,.13,3.49-1.73,4.54-2.48,1.4-3.78,4-5.81,5.86-.88,.8-1.52,2-2.85,2-2.43,.18-2.63,1.68-2.62,3.71,.11,32.15,.17,64.29,.16,96.44,0,2.54,.62,3.11,3.13,3.1,20.82-.1,41.64-.14,62.45,.06,3.42,0,3.82-1.1,3.81-4.07-.1-23.71,0-47.43,0-71.15v-66.45c0-1.68,0-3.1-2-3.5-8.64-1.74-17.24-3.81-26.05-4.43-13.71-1-26.86,1.74-39.73,6.26-1.34,.47-2,.84-2,2.36,.02,9.79,.02,19.54,.02,30.22Zm164.33,57.4v50.54c0,2.12,.39,3,2.73,2.85,4.81-.28,9.63-.28,14.44,0,3.63,.26,4.5-.79,4.5-4.46-.11-122.67-.14-245.33-.09-368-.05-.96-.05-1.93,0-2.89,.22-1.94-.34-2.77-2.52-2.72-6,.14-12,.12-18.05,0-1.89,0-2.48,.45-2.38,2.39,.29,5.29,.49,10.59,.5,15.88,.2,71.26,.38,142.52,.53,213.79,.07,27.33,.2,54.65,.38,81.94,0,1.16-.85,2.82,.92,3.46,5.59,2,7,7.14,8.86,11.88,1.54,4,.53,8.78-1.94,10.66-.93,.71-2.1,1.8-3.19,.92s-.56-2.13,0-3.31c2.35-4.68,.35-10.37-4.72-12.93h.03Zm-246.33-26.31c1.35,.31,2.61,.63,3.88,.87,3.56,.66,5.91,4.08,5.25,7.63-.02,.12-.05,.25-.08,.37-1.37,5.38-3.33,7.44-8.84,7.76-2.95,.17-3.19,1.31-3.17,3.71,.1,18.66,.15,37.32,0,56,0,2.76,.77,3.36,3.41,3.34,17.69-.12,35.37-.15,53.06,0,3.11,0,3.68-.91,3.67-3.82-.1-41.28-.13-82.56-.08-123.85v-3.85c-4.69,3.15-8.61,6.44-13.07,8.61-8.42,4.09-15.35,9.78-22.09,16.24-8.33,8.07-16.48,16.05-21.94,26.99Zm76.62-109.37h0v-6.86c0-59.95,.05-119.89,.16-179.83,0-2.12-.78-2.34-2.47-2.29-3.36,.17-6.74,.17-10.1,0-2.56-.18-2.9,.84-2.82,3.07,.32,8.05,.56,16.12,.61,24.18,.48,72.67,1.09,145.35,.95,218-.09,41.16,.1,82.33,.22,123.5,0,3-1.27,6.89,.55,8.69s5.75,.2,8.7,.6c3.41,.45,4.33-.6,4.32-4.17-.15-61.63-.19-123.26-.12-184.89Zm80.81-.25c0,14.92,0,29.84,0,44.77,0,45.75,.03,91.5,.08,137.24,0,7.24-.08,7.24,7.25,7.24,.48-.05,.96-.05,1.44,0,2.65,.46,3.07-.79,3.07-3.2,0-31.29,.22-62.58,.23-93.87,0-40.79-.2-81.59-.16-122.39,.06-49.23,.31-98.46,.4-147.69,0-3.55,1.67-8.44-.62-10.3s-6.9-.33-10.48-.58c-2.35-.17-2.74,.67-2.66,2.83,.36,9.62,.69,19.24,.74,28.86,.28,52.34-.05,104.73,.71,157.09Zm83.15,125.76v-305.69c0-2.85,1.3-6.73-.55-8.26s-5.5-.32-8.35-.55c-2.43-.2-3.31,.43-3.22,3.1,.31,10.11,.39,20.22,.49,30.32,.34,37.31,0,74.63,.48,111.94,.52,42.73,.24,85.47,.3,128.21,0,12.16,0,24.32,.06,36.48,0,1-.78,2.85,1.14,2.82,3.25-.05,6.24,1.27,9.65,1.63Zm-265.58-9.46c1.88-1.16,3.38-2.09,4.88-3,2.87-1.76,5.78-3.68,9.14-4,2.36-.26,2.58-1.2,2.59-3.16,.07-47.16,.18-94.33,.31-141.5,0-1.07,.23-2.21-.88-2.93-5.5-3.52-10.75-7.4-16-11.55l-.04,166.14Zm15.75-177.36l.71-.17c.05-.47,.13-.94,.14-1.42,.16-20.29,.38-40.59,.47-60.89,.09-20.7,0-41.4,.08-62.1,0-2.05-.06-3.3-2.76-3.14-4.31,.25-8.66,.1-13,0-2-.07-2.56,.4-2.54,2.55,.35,31.53,.58,63.06,.85,94.59-.14,1.31,.09,2.64,.66,3.83,5.17,8.87,10.27,17.81,15.39,26.75Zm-22.12-39c.25-1.27,.36-1.57,.37-1.88,.17-28.16-.44-56.32,.68-84.47,.09-2.39-1-2.42-2.76-2.41-9.86,.08-19.73,.18-29.6,0-2.84,0-3.38,.51-2.59,3.35,5.85,21.17,13.41,41.83,22.61,61.77,3.53,7.71,7.28,15.28,11.29,23.65h0Zm22.86,252.85h0c0-11.18-.13-22.37,.08-33.54,.06-3.39-1.05-3.28-3.39-2.09-4.05,2.02-7.85,4.52-11.3,7.45-1.31,1.04-2.02,2.66-1.88,4.33,.16,8.52,.17,17,.2,25.56,.05,10.81,.13,21.62,.07,32.44,0,2,.7,2.4,2.51,2.34,3.6-.13,7.22-.19,10.81,0,2.35,.13,3-.57,3-3-.17-11.12-.1-22.3-.1-33.48h0Zm249.1,8.88h0v-20.54q0-8.34-8.3-9.55c-.35-.05-.71-.05-1.07-.1-1.1-.17-1.58,.32-1.47,1.39,.16,1.73-.47,3.52,.93,5.14,.94,1.17,.94,2.83,0,4-1.09,1.31-1,2.64-1,4v35.33c0,7.87,0,7.76,7.72,7.88,2.45,0,3.26-.47,3.2-3.09-.13-8.1,0-16.28,0-24.45h0Z"
       id="path6" />
    <path
       class="cls-11"
       d="M428.33,928.76v-30.17c0-1.52,.66-1.89,2-2.36,12.87-4.52,26-7.24,39.73-6.26,8.81,.62,17.41,2.69,26.05,4.43,2,.4,2,1.82,2,3.5-.04,22.15-.04,44.3,0,66.45,0,23.72-.1,47.44,0,71.15,0,3-.39,4.11-3.81,4.07-20.81-.2-41.63-.16-62.45-.06-2.51,0-3.13-.56-3.13-3.1,0-32.15-.05-64.3-.16-96.44,0-2,.19-3.53,2.62-3.71,1.33-.09,2-1.25,2.85-2,2-1.86,3.33-4.46,5.81-5.86,1.86-1,2.57-2.65,1.73-4.54-1-2.15-2.94-2.16-4.95-1.65-1.51,.44-2.88,1.27-3.95,2.42l-4.34,4.13Zm37.14,84c1.32,0,2.65,.11,4,0,6.86-.63,10.77-4.1,10.6-9.33-.17-5.42-5.16-11.61-10-13.86-3.75-1.74-6.52,1.07-9.88,1-4.47-.19-8.91,.81-12.86,2.91-3.46,1.94-5.54,4.93-5.15,9.11,.41,4.49,2.27,6.67,7,7.92,5.31,1.37,10.77,2.12,16.26,2.21l.03,.04Zm10.74-83c4.08,.59,7.08,3.64,9.95,6.85,1.36,1.52,3,2.41,4.64,1s1.76-3.29,.36-5.11c-2.61-3.6-6.17-6.41-10.27-8.12-1.57-.6-3.28-.74-4.93-.41-2.77,.48-2.52,2.9-2.63,4.82-.11,1.38,1.11,1.46,2.85,.91l.03,.06Zm-1.22,31.6c-.16-1.64-.23-3.68-.6-5.66-.44-2.28-2.1-2.95-4.29-2.81-2.45,.17-2.51,1.83-2.33,3.58,.37,3.75,.83,7.5,1.26,11.25,.16,1.44,.59,2.52,2.4,2.43,1.47,.06,2.78-.93,3.11-2.37,.67-2.07,.21-4.09,.42-6.48l.03,.06Zm-37.66-6.41c-2.37-.41-2.89,1.22-2.7,3,.32,3.18,.84,6.33,1.54,9.45,.36,1.53,.46,3.74,3.23,3.3,2.44-.38,2.69-2.24,2.73-4,.06-2.63-.13-5.26-.55-7.85-.35-2.13-1.33-4.11-4.25-3.9Z"
       id="path8" />
    <path
       class="cls-11"
       d="M346.33,959.85c5.46-10.94,13.61-18.92,22-27,6.74-6.46,13.67-12.15,22.09-16.24,4.46-2.17,8.38-5.46,13.07-8.61v3.85c0,41.29,.03,82.58,.08,123.85,0,2.91-.56,3.85-3.67,3.82-17.69-.17-35.37-.14-53.06,0-2.64,0-3.43-.58-3.41-3.34,.11-18.65,.06-37.31,0-56,0-2.4,.22-3.54,3.17-3.71,5.51-.32,7.47-2.38,8.84-7.76,.86-3.51-1.29-7.06-4.8-7.92-.12-.03-.24-.06-.37-.08-1.33-.23-2.59-.55-3.94-.86Z"
       id="path10" />
    <path
       class="cls-11"
       d="M521.33,915.21v-9.19c6.15,3.23,10.63,7.92,15.76,11.75,10.33,7.73,16.47,19,24.63,28.51,3.52,4.09,6.39,8.71,8.49,13.68,1.88,4.44,.45,9.47,.4,14.24,0,.46-1,.95-1.57,1.33-5.27,3.43-6.27,9.29-1.67,13.42,2.8,2.51,3.35,5.07,3.32,8.5-.11,12.88,0,25.76,.17,38.64,0,2.67-.6,3.48-3.36,3.45-14.08-.14-28.16-.14-42.25,0-2.7,0-3.9-.64-3.82-3.44,.06-2.25-.53-4.51,.08-6.76,1.77-.71,1.91-2.15,1.88-3.83-.52-28.23,1.15-56.43,.72-84.66-.09-6.37-.14-12.74,0-19.11,.1-2.76-.6-4.9-2.78-6.53Z"
       id="path12" />
    <path
       class="cls-11"
       d="M521.33,915.21c2.21,1.63,2.91,3.77,2.82,6.53-.18,6.37-.13,12.74,0,19.11,.43,28.23-1.24,56.43-.72,84.66,0,1.68-.11,3.12-1.88,3.83-.1-36.72-.2-73.44-.3-110.16-.07-1.33,0-2.65,.08-3.97Z"
       id="path14" />
    <path
       class="cls-1"
       d="M465.44,1012.72c-5.49-.1-10.95-.85-16.27-2.23-4.77-1.25-6.63-3.43-7-7.92-.39-4.18,1.69-7.17,5.15-9.11,3.94-2.09,8.36-3.09,12.82-2.91,3.36,0,6.13-2.77,9.88-1,4.86,2.25,9.85,8.44,10,13.86,.17,5.23-3.74,8.7-10.6,9.33-1.33,.09-2.66-.02-3.98-.02Zm-1.15-5c3.06-.13,5.83-.26,8.37-1.49,1.28-.62,2.75-1.47,2.29-3.23-.85-3.31-2.12-7-5.68-7.71-7.21-1.56-14.75-.31-21.06,3.51-1.45,.76-2.21,2.4-1.85,4,.47,1.51,1.75,2.62,3.31,2.87,4.9,1.28,9.95,1.25,14.66,2l-.04,.05Z"
       id="path16" />
    <path
       class="cls-12"
       d="M476.18,929.7c-1.74,.55-3,.47-2.88-1,.11-1.92-.14-4.34,2.63-4.82,1.65-.33,3.36-.19,4.93,.41,4.11,1.73,7.67,4.57,10.27,8.19,1.4,1.82,1.28,3.73-.36,5.11s-3.28,.53-4.64-1c-2.87-3.25-5.87-6.3-9.95-6.89Z"
       id="path18" />
    <path
       class="cls-12"
       d="M474.96,961.3c-.21,2.39,.25,4.41-.45,6.42-.33,1.44-1.64,2.43-3.11,2.37-1.81,.09-2.24-1-2.4-2.43-.43-3.75-.89-7.5-1.26-11.25-.18-1.75-.12-3.41,2.33-3.58,2.19-.14,3.85,.53,4.29,2.81,.37,1.98,.44,4.02,.6,5.66Z"
       id="path20" />
    <path
       class="cls-9"
       d="M437.33,954.95c2.92-.21,3.9,1.77,4.25,4,.42,2.59,.61,5.22,.55,7.85,0,1.73-.29,3.59-2.73,4-2.77,.44-2.87-1.77-3.23-3.3-.7-3.12-1.22-6.27-1.54-9.45-.19-1.88,.33-3.51,2.7-3.1Z"
       id="path22" />
  </g>
</svg>
