<?xml version="1.0" encoding="UTF-8" standalone="no"?>
<svg
   id="art1"
   viewBox="0 0 865 1388"
   version="1.1"
   sodipodi:docname="rosieOnboarding-01.svg"
   inkscape:version="1.2.1 (9c6d41e4, 2022-07-14)"
   xmlns:inkscape="http://www.inkscape.org/namespaces/inkscape"
   xmlns:sodipodi="http://sodipodi.sourceforge.net/DTD/sodipodi-0.dtd"
   xmlns="http://www.w3.org/2000/svg"
   xmlns:svg="http://www.w3.org/2000/svg">
  <sodipodi:namedview
     id="namedview63"
     pagecolor="#505050"
     bordercolor="#ffffff"
     borderopacity="1"
     inkscape:showpageshadow="0"
     inkscape:pageopacity="0"
     inkscape:pagecheckerboard="1"
     inkscape:deskcolor="#505050"
     showgrid="false"
     inkscape:zoom="0.23338871"
     inkscape:cx="109.25978"
     inkscape:cy="882.64765"
     inkscape:window-width="1309"
     inkscape:window-height="456"
     inkscape:window-x="0"
     inkscape:window-y="25"
     inkscape:window-maximized="0"
     inkscape:current-layer="art1" />
  <defs
     id="defs4">
    <style
       id="style2">.cls-1{fill:#fff;}.cls-2{letter-spacing:-.09em;}.cls-3{letter-spacing:0em;}.cls-4{fill:#f87797;}.cls-5{fill:#fa99af;}.cls-6{font-family:ComicNeue-BoldItalic, 'Comic Neue';font-size:48px;}</style>
  </defs>
  <g
     id="g10">
    <path
       class="cls-5"
       d="M397.46,741.16c-117.24,1.04-191.11,124.47-192.98,233.48-.83,48.36,15.09,99.68,53.26,129.38,50,38.89,121.29,30.58,182.62,14.77,27.94-7.2,56.6-16.12,77.94-35.54,20.68-18.81,32.22-45.43,42.26-71.52,20.74-53.9,37.62-114.27,17.61-168.45-16.47-44.58-61.06-68.79-105.51-85.63,0,0-37.26-16.83-75.21-16.49Z"
       id="path6" />
    <path
       d="M398.9,735.92c-4.45-.66-9.14-1.55-13.65-1.61-5.03-.06-10.27,.86-15.24,1.57-9.01,1.27-17.79,3.4-26.4,6.34-17.09,5.84-33.25,14.32-47.8,25.02-29.48,21.68-52.62,51.34-69.05,83.89-34.36,68.09-47.44,160.64-3.83,227.77,11.82,18.19,27.76,33.47,46.85,43.88s40.8,15.84,62.6,17.77c43.92,3.88,89.66-5.44,131.51-18.28,22.73-6.97,45.02-16.74,62.59-33.15s28.37-37.79,37.43-59.43c19.02-45.4,36.05-95.8,32.53-145.7-1.64-23.23-7.56-46.84-20.51-66.45-11.65-17.62-27.78-31.64-45.58-42.81-8.9-5.59-18.24-10.47-27.79-14.87-4.87-2.24-9.8-4.35-14.76-6.4-2.33-.96-4.66-1.9-7-2.82-.93-.36-1.86-.76-2.81-1.09-4.64-1.62,.51,.28-.79-.22-14.24-5.47-28.27-10.59-43.29-13.68-11.99-2.46-24.23-3.95-36.47-3.91s-12.15,18.85,0,18.84c20.72-.01,41.15,4.62,60.61,11.51,2.56,.91,5.11,1.86,7.63,2.87,.67,.27,4.12,1.74,.84,.32,.42,.18,.84,.37,1.26,.55,8.36,3.58,16.88,6.69,25.14,10.52,34.87,16.17,67.35,39.58,78.71,78.03,13.48,45.66,1.27,94.19-14.23,137.7-7.25,20.37-14.94,41.02-26.21,59.56s-26.56,32.31-46,41.78-40.43,14.64-61.12,19.49-40.55,8.29-61.22,9.37c-39.02,2.05-80-5.26-108.9-33.56-28.1-27.52-39.89-68.03-40.68-106.5-.71-34.56,6.43-69.25,19.02-101.35,24.44-62.32,73.59-116.48,141.19-129.9,8.43-1.67,16.94-3.08,25.4-4.56,5.13-.9,5.26-9.71,0-10.49Z"
       id="path8" />
  </g>
  <g
     id="g16">
    <path
       class="cls-1"
       d="M398.99,987.95c-1.62,3.39-2.06,7.34-1.23,11-1.88-1.79,.31-5.65,2.81-4.96-5.86,7.35-5.9,18.3-1.45,26.58,4.45,8.28,12.72,14.03,21.62,17.05,14.46,4.92,31.08,3.04,44.09-4.98,13-8.03,22.13-22.04,24.21-37.18-5.75-8.23-18.65-6.27-27.3-1.18-8.65,5.1-16.68,12.61-26.7,13.09-13.24,.64-23.42-11.03-31.4-21.61"
       id="path12" />
    <path
       d="M398.22,987.17c-3.17,3.42-5.07,7.06-4.54,11.78l7.63-2.07-.72,1.47-3.08-7.44c-11.89,14.46-4.91,34.52,8.97,44.69,14.97,10.97,36.09,12.16,52.96,5.2,16.68-6.88,29.47-21.92,33.61-39.51,1.01-4.28,1.58-7.47-1.66-10.86-2.75-2.87-6.46-4.59-10.34-5.25-7.78-1.32-15.88,1.17-22.52,5.15-8.54,5.12-17.67,14.21-28.51,11.55-10.26-2.52-16.34-12.18-22.99-19.5-3.64-4.01-10.4,1.2-7.51,5.79,8.63,13.72,24.02,27.82,41.48,23.33,8.78-2.26,15.61-8.45,23.31-12.86,6.35-3.64,15.98-6.31,21.2,.37l-1.29-4.89c-3.41,22.63-21.7,40.43-44.94,41.34-10.85,.42-22.35-2.65-30.49-10.11s-10.84-19.43-4.43-29.16c1.83-2.77-.58-6.61-3.76-6.56-5.72,.09-9.8,6.36-6.35,11.38,2.58,3.75,8.62,1.52,7.48-3.16-.8-3.3-1.78-6.48-1.62-9.91,.04-.94-1.24-1.47-1.88-.78h0Z"
       id="path14" />
  </g>
  <path
     class="cls-4"
     d="M381.57,735.97c-5.28,1.42-10.34,2.62-15.33,5.01-3.76,1.8-7.44,3.79-11.1,5.79-7.07,3.87-13.99,8.01-20.74,12.42-14.77,9.63-28.78,20.45-41.73,32.43-24.56,22.71-46.42,49.48-63.41,78.31-19.31,32.76-35.76,72.03-32.51,110.83,3.19,38.16,23.97,73.16,50.34,100.24,12.18,12.51,26.51,23.35,41.74,31.89,9.15,5.13,18.78,9.36,28.51,13.27,10.56,4.25,21.85,5.84,33.16,6.09s22.36-8.12,24.82-18.89-1.63-23.23-11.83-29.06c-4.93-2.82-9.56-5.48-14.86-7.64-1.72-.7-3.44-1.38-5.16-2.07-3.35-1.35,5.81,2.54,2.57,1.07-.92-.42-1.85-.82-2.77-1.23-3.46-1.53-6.93-2.98-10.46-4.33-.93-.35-4.63-2.41-5.54-2.19-.22,.05,6.13,2.65,3.54,1.49-.67-.3-1.34-.58-2-.88-1.97-.88-3.93-1.79-5.87-2.74-6.05-2.95-11.94-6.22-17.6-9.86-2.66-1.71-5.26-3.49-7.81-5.35-1.06-.77-5.51-4.17-1.42-1.01s-.74-.64-1.83-1.56c-4.97-4.16-9.68-8.62-14.12-13.35-2.16-2.31-4.26-4.68-6.3-7.1-.79-.94-2.38-3.74-3.46-4.26-.23-.11,3.8,5.05,2.2,2.83-.68-.95-1.39-1.87-2.07-2.81-4.55-6.3-8.79-12.85-12.45-19.7-.96-1.79-1.88-3.59-2.75-5.42-.37-.78-.71-1.58-1.09-2.36-1.56-3.23,1.9,5.04,.71,1.66-1.45-4.14-2.92-8.2-3.94-12.47-.48-2.02-.79-4.06-1.23-6.09-.77-3.58,.51,5.48,.22,1.83-.07-.88-.19-1.76-.26-2.64-.38-4.4-.45-8.83-.27-13.25,.08-2.07,.22-4.13,.41-6.19-.02,.17,.2-3.45,.38-3.53,.13-.06-.89,5.54-.32,2.55,.85-4.42,1.6-8.83,2.69-13.21,2.2-8.8,5.19-17.33,8.54-25.74,.24-.61,1.38-3.53,.11-.28-1.35,3.43,.14-.24,.51-1.08,.75-1.67,1.51-3.34,2.29-4.99,1.63-3.46,3.33-6.89,5.1-10.29,6.97-13.38,14.98-26.21,23.89-38.37,.91-1.24,1.83-2.47,2.75-3.7,2.53-3.4-.69,1.1-1.04,1.32,.58-.36,1.57-1.99,1.91-2.42,2.41-3.02,4.87-5.98,7.44-8.86,4.97-5.58,10.14-10.98,15.5-16.18,6.12-5.94,12.48-11.64,19.05-17.07,3.19-2.63,6.41-5.25,9.65-7.82,.72-.57,3.49-2.72,.57-.47s0,0,.6-.44c1.87-1.41,3.75-2.8,5.65-4.16,6.76-4.86,13.7-9.46,20.82-13.77,3.79-2.29,7.62-4.51,11.51-6.64,3.24-1.78,5.83-3.63,8.8-6.07,.58-.47,1.15-.95,1.73-1.43,4.02-3.33-4.03,2.97,.35-.21,8.87-6.45,13.42-16.56,8.92-27.22-4.19-9.93-15.12-15.46-25.71-12.62h0Z"
     id="path18" />
  <path
     d="M192.39,1116.49c1.46-3.48,3.92-6.22,5.24-9.73,1.16-3.08,1.95-6.31,2.84-9.47,1.78-6.34,3.71-12.65,5.79-18.9,4.3-12.98,9.19-25.8,14.67-38.32s11.13-23.9,17.52-35.42c4.96-8.94,11.37-25.06,23.28-26.05,4.19-.35,5.93-7.25,1.08-7.96-12.88-1.89-20.68,9.42-26.49,19.24-7.77,13.15-14.82,26.73-21.13,40.64s-11.53,27.2-16.15,41.24c-2.44,7.39-4.67,14.86-6.7,22.37-.94,3.47-1.88,6.96-2.4,10.52-.56,3.87,.42,7.65,.25,11.56-.06,1.38,1.76,1.38,2.21,.3h0Z"
     id="path20" />
  <path
     d="M364.07,923.76c3.26,0,3.26-5.06,0-5.06s-3.26,5.06,0,5.06h0Z"
     id="path22" />
  <path
     d="M356.98,918.51c-.81,4.88,.22,9.53,.78,14.41s.66,9.89,1.79,14.66c2.14,9.03,15.42,6.7,15.74-2.13,.18-4.85-.91-9.88-1.61-14.68s-1.04-9.68-3.33-14.01c-2.76-5.23-12.33-4.52-13.37,1.75h0Z"
     id="path24" />
  <path
     d="M485.43,917.42c1.74-1.36,1.64-2.99,1.57-5.12-.27-8.32-12.98-8.39-12.98,0,0,6.44,.14,12.59,1.03,19.03s.35,13.36,6.41,16.79c2.59,1.46,6.13,1.13,8.24-1.06,4.94-5.14,2.45-11.9,1.49-18.23s-2.59-12.16-4.41-18.26l-2.98,7.33,1.91-1.37-4.04-1.64,.26,1.07c.1,1.91,2.12,2.55,3.52,1.46h0Z"
     id="path26" />
  <path
     d="M586.81,899.36c7.53,5.42,20.95-6,26.49-10.93,8.4-7.46,15.03-16.78,20.63-26.46,13.49-23.32,24.6-49.56,31.31-75.65,2.66-10.35,6.41-22.8,2.41-33.31-3.67-9.63-15.02-12.92-22.71-5.41-8.91,8.7-5.2,22.58,.27,32.16,5.85,10.24,16.84,10.16,22.84,.15,3.7-6.18,5.75-13.66,8.3-20.35,3-7.9,5.92-15.82,8.91-23.72,4.39-11.59,10.04-25.87,22.62-30.59,4.9-1.84,2.86-9.73-2.19-7.96-18.05,6.34-24.59,25.36-30.77,41.73-4.28,11.34-7.88,23.24-12.84,34.29-1.86,4.16-5.37,9.03-9.2,3.65-3.23-4.55-6.06-12.47-5-18.06,.74-3.87,5.26-9.42,9.56-6.26,3.01,2.22,3.24,7.3,3.21,10.65-.09,10.73-3.89,22.12-7.11,32.27-6.56,20.67-15.4,41.18-26.03,60.09-5.03,8.94-10.79,17.66-18.09,24.92-3.72,3.7-7.82,6.97-12.39,9.57-3.99,2.26-8.74,3.25-10.62,7.69-.26,.6-.14,1.15,.4,1.54h0Z"
     id="path28" />
  <path
     d="M472.19,1115.2c-.28-.72-.56-1.44-.83-2.16-.33-.89-1.73-1.32-2.23-.29l-.57,.91c-1.16,.17-2.07,1.35-2.39,2.39-5.95,19.35-3.14,42.79,3.29,61.69,2.73,8.01,7.13,13.35,15.97,14.15,9.6,.87,21.36-.78,29.62-5.96,3.57-2.24,1.3-7.95-2.89-6.85-8.41,2.21-16.26,5.06-25.16,4.41-3.94-.29-6.41-1.39-8.17-5.05s-2.68-7.87-3.63-11.76c-4.08-16.69-3.11-32.77-2.31-49.7,.06-1.16-.68-2.41-1.7-2.96l.21-.63-2.28,.62c.44,.65,.88,1.3,1.3,1.96,.56,.86,2.17,.33,1.76-.74h0Z"
     id="path30" />
  <path
     d="M315.63,1128.27c-.7-.76-1.35-1.55-1.96-2.38-.56-.71-1.84-.45-2.22,.29-2.65,5.05-6.34,9.52-7.86,15.05s-2.49,11.22-3.28,16.88c-1.55,11.1-2.66,22.55-2.59,33.76,.05,8.06,2.69,16.54,11.53,18.4,5.69,1.19,11.84,1.13,17.63,1.6,6.31,.51,12.96,1.55,19.27,1.08,3.51-.26,4.61-5.44,.87-6.4-9.48-2.43-20.04-2.44-29.77-3.37-4.8-.46-9.37-.24-10.79-5.7-.99-3.81-.41-8.04-.17-11.91,.61-9.93,1.16-19.92,2.66-29.77,.73-4.79,1.82-9.47,2.85-14.2s.69-9.53,2.24-14.35l-2.08,.85,2.22,1.61c1.03,.8,2.35-.43,1.46-1.46h0Z"
     id="path32" />
  <path
     d="M511.21,740.6c30.24,5.83,54.43-24.38,44.15-53-1.08-3.01-3.9-4.86-7.14-4.05-47.6,11.77-97.7,8.76-146.32,8.47-25.98-.16-51.96-.31-77.94-.47-22.88-.14-45.89,.46-68.73-.87-18.93-1.1-38.74-4.13-54.88-14.76-15.61-10.28-23.93-27.07-27.09-45.07-3.38-19.24-1.37-39.36,1.14-58.58s4.92-40.69,20.71-54.07c8.44-7.15,18.67-12.54,28.16-18.16s20.02-11.54,30.35-16.71c19.89-9.96,40.83-18.03,62.79-21.98,24.3-4.37,48.92-1.59,73.3,.53l75.69,6.6c51.13,4.46,102.25,9.08,153.36,13.65l37.84,3.39c8.26,.74,22.34-.28,27.44,7.83,2.63,4.17,3.37,9.91,4.41,14.65,1.35,6.17,2.47,12.4,3.45,18.65,1.87,11.87,3.03,23.86,3.6,35.87,1.12,23.32,.99,48.25-4.07,71.14-1.04,4.69-2.5,9.49-5.57,13.29-3.28,4.06-8.22,6.56-12.95,8.54-11.13,4.66-22.74,8.36-34.07,12.48s-23.33,8.42-34.96,12.72c-8.98,3.32-17.84,7.02-25.26,13.22-3.42,2.85-6.46,6.43-8.53,10.38-2.69,5.13-3.48,10.71-5.38,16.09-3.03,8.58-10.9,13.42-19.45,15.4-11.31,2.62-23.3-.23-34.39-2.61-8.82-1.9-12.6,11.63-3.74,13.56,21.52,4.69,48.26,8.6,64.51-10.28,3.53-4.1,5.79-8.76,7.35-13.91s2.48-10.83,6.28-15.19c6.03-6.93,15.32-10.37,23.7-13.49,13.05-4.86,26.12-9.66,39.17-14.48,11.48-4.24,23.51-7.87,34.51-13.27s17.73-13.65,21.05-24.95,4.15-24.13,5.05-36.01c1.96-25.88,.92-51.85-2.71-77.53-1.69-11.94-3.17-24.98-7.33-36.35-3.93-10.74-12.56-16.57-23.63-18.3-12.66-1.98-25.66-2.43-38.42-3.51l-40.83-3.45-81.66-6.9c-27.22-2.3-54.44-4.69-81.66-7.05s-53.69-5.61-80.57-6.48c-50.2-1.62-95.55,18.97-137.76,44.21-9.75,5.84-19.89,11.52-28.58,18.91s-14.36,17.16-17.9,27.87c-3.3,10-4.67,20.53-6.07,30.92s-2.7,21.36-3.18,32.12c-.91,20.21,.86,41.22,9.98,59.58,9.17,18.44,25.78,31.06,45.02,37.62s40.96,7.49,61.53,7.67c26.98,.23,53.96,.27,80.93,.4s54.55,.26,81.82,.39c25.74,.12,51.49,.1,77.05-3.29,12.31-1.63,24.54-3.89,36.49-7.28l-7.14-4.05c4.03,10.24,3,22.02-3.9,30.85-6.54,8.36-17.71,12.58-28.12,12.09-3.94-.18-4.91,6.21-.94,6.97h0Z"
     id="path34" />
  <text
     class="cls-6"
     transform="translate(243.6,172.76)"
     id="text44" />
  <text
     class="cls-6"
     transform="translate(331.85,570.79)"
     id="text58" />
  <path
     d="M398.9,735.92c-4.45-.68-9.14-1.59-13.65-1.65-5.03-.07-10.28,.87-15.25,1.57-9.01,1.27-17.79,3.4-26.4,6.34-17.1,5.85-33.26,14.32-47.81,25.02-29.49,21.69-52.63,51.35-69.06,83.91-34.37,68.11-47.45,160.67-3.83,227.81,11.82,18.2,27.77,33.49,46.87,43.9,19.32,10.53,40.81,15.84,62.62,17.77,43.93,3.88,89.67-5.44,131.52-18.28,22.74-6.98,45.03-16.75,62.61-33.16s28.38-37.8,37.44-59.45c19.02-45.41,36.05-95.81,32.53-145.71-1.64-23.23-7.56-46.86-20.52-66.47-11.65-17.63-27.79-31.65-45.59-42.83-8.9-5.59-18.24-10.47-27.79-14.87-4.88-2.24-9.81-4.36-14.77-6.4-2.33-.96-4.66-1.9-7-2.82-.93-.36-1.86-.76-2.81-1.09-4.64-1.62,.52,.28-.78-.22-14.24-5.47-28.27-10.6-43.3-13.68-11.99-2.46-24.23-3.95-36.48-3.92s-12.21,18.95,0,18.94c20.71-.01,41.14,4.62,60.6,11.51,2.56,.91,5.11,1.86,7.63,2.87,.67,.27,4.13,1.75,.83,.31,.42,.18,.84,.37,1.26,.55,8.36,3.58,16.88,6.69,25.14,10.52,34.86,16.17,67.34,39.57,78.69,78,13.48,45.65,1.26,94.18-14.23,137.68-7.25,20.37-14.94,41.01-26.2,59.55s-26.55,32.29-45.98,41.76-40.42,14.64-61.11,19.49-40.54,8.28-61.2,9.37c-39.01,2.05-79.98-5.26-108.86-33.54s-39.87-68-40.67-106.47c-.71-34.55,6.43-69.24,19.02-101.34,24.43-62.31,73.57-116.45,141.15-129.86,8.43-1.67,16.93-3.1,25.39-4.61,5.12-.92,5.26-9.69,0-10.49Z"
     id="path60" />
</svg>
