<?xml version="1.0" encoding="UTF-8" standalone="no"?>
<svg
   id="Layer_5"
   viewBox="0 0 865 1388"
   version="1.1"
   sodipodi:docname="rosieOnboarding-04.svg"
   inkscape:version="1.2.1 (9c6d41e4, 2022-07-14)"
   xmlns:inkscape="http://www.inkscape.org/namespaces/inkscape"
   xmlns:sodipodi="http://sodipodi.sourceforge.net/DTD/sodipodi-0.dtd"
   xmlns="http://www.w3.org/2000/svg"
   xmlns:svg="http://www.w3.org/2000/svg">
  <sodipodi:namedview
     id="namedview261"
     pagecolor="#505050"
     bordercolor="#ffffff"
     borderopacity="1"
     inkscape:showpageshadow="0"
     inkscape:pageopacity="0"
     inkscape:pagecheckerboard="1"
     inkscape:deskcolor="#505050"
     showgrid="false"
     inkscape:zoom="0.40520381"
     inkscape:cx="378.82171"
     inkscape:cy="298.61516"
     inkscape:window-width="1309"
     inkscape:window-height="456"
     inkscape:window-x="0"
     inkscape:window-y="25"
     inkscape:window-maximized="0"
     inkscape:current-layer="Layer_5" />
  <defs
     id="defs4">
    <style
       id="style2">.cls-1{letter-spacing:-.02em;}.cls-2{fill:#211916;}.cls-3,.cls-4{font-family:ComicNeue-Regular, 'Comic Neue';}.cls-4{letter-spacing:-.02em;}.cls-5{font-size:36px;}.cls-6{fill:#e2e2e2;}.cls-7{fill:#2a2624;}.cls-8{fill:#08090a;}.cls-9{letter-spacing:-.03em;}.cls-10,.cls-11,.cls-12{font-family:ComicNeue-BoldItalic, 'Comic Neue';}.cls-13{fill:#131313;}.cls-14{letter-spacing:0em;}.cls-15{letter-spacing:0em;}.cls-16{fill:#c7c7c7;}.cls-11{letter-spacing:0em;}.cls-17{fill:#101010;}.cls-12{letter-spacing:-.03em;}.cls-18{letter-spacing:0em;}.cls-19{fill:#0d0d0d;}.cls-20{fill:#181818;}.cls-21{fill:#bdccd4;}.cls-22{fill:#121111;}.cls-23{fill:#fb8c59;}.cls-24{letter-spacing:-.02em;}.cls-25{fill:#d5d5d5;}.cls-26{letter-spacing:0em;}.cls-27{fill:#050505;}.cls-28{fill:#161616;}.cls-29{fill:#141414;}.cls-30{fill:#515151;}.cls-31{fill:#fa99af;}.cls-32{fill:#1a1a1a;}.cls-33{fill:#f88a58;}.cls-34{fill:#1e1e1e;}.cls-35{fill:#1b1310;}</style>
  </defs>
  <g
     id="g196">
    <path
       class="cls-27"
       d="M425.65,537.93c24.05-.44,48.09-1.42,72.11-2.62,10.21-.51,20.44-.98,30.66-.92,25.62,.14,51.25,.46,76.86,1,9.99,.21,19.98,.02,29.96,.37,24.3,.84,48.6-.63,72.88,.16,11.63,.38,23.3-.31,34.91,1.13,3.02,.38,4.03,2.78,5.76,4.34,2,1.82,2.56,4.46,2.56,7.47-.11,189.39-.11,378.78-.01,568.17,0,3.4-.66,4.3-4.21,4.3-209.54-.1-419.09-.1-628.63,0-3.76,0-4.36-1.04-4.36-4.51,.09-189.63,.09-379.26,0-568.89,0-3.21,.56-3.91,4.05-4.51,15.41-2.66,30.8,.68,46.15-.54,16.68-1.33,33.4-1.4,50.09-1.85,19.97-.53,39.91-1.93,59.87-2.29,28.39-.51,56.75-2.54,85.17-1.56,8.78,.3,17.54,.88,26.34,.77,2.06-.03,2.81-.39,3.04-2.67,1.15-11.04,2.21-22.05,.58-33.13-.05-.36-.07-.72-.14-1.08-1.19-5.87-1.19-5.91-7.18-5.84-58,.7-116,1.41-174.01,2.12-8.07,.1-16.11,.04-24.01-2-9.81-2.53-16.88-8.38-21.44-17.34-5.38-10.58-7.32-22.08-8.66-33.69-1.87-16.18-2.24-32.43-2.23-48.7,.02-61.93,.02-123.85,0-185.78,0-8.47,.65-16.86,3.13-24.98,5.45-17.81,18.2-27.68,35.6-32.35,9.23-2.48,18.67-3.47,28.2-3.57,95.31-1.09,190.62-2.01,285.93-3.3,58.12-.79,116.23-2.13,174.34-3.23,10.3-.19,20.43,.9,30.1,4.66,18.54,7.21,28.46,21.68,33.41,40.2,2.59,9.7,3.64,19.64,3.69,29.66,.28,51.44,2.61,102.83,4.07,154.24,.62,21.66,2.01,43.34,.29,65.01-.78,9.87-2.5,19.56-6.5,28.71-6.93,15.87-19.3,24.47-36.22,26.63-13.42,1.71-26.93,.7-40.4,.79-75.58,.55-151.16,.98-226.74,1.36-2.76,.01-3.82,.65-4.43,3.5-2.96,13.88-7.44,27.33-12.31,40.64-1.7,3.81-3.4,7.63-5.1,11.44l.61,.28c2.07-3.87,4.14-7.75,6.21-11.62Zm-52.16,154.61c.47,.28,.8,.02,1.12-.28,.46-.11,.93-.16,1.36-.33,23.09-9.05,46.34-17.63,70.01-25.06,14.62-4.59,28.76-10.94,43.76-14.02,7.99-1.64,16.11-.02,22.17,7.36,9.56,11.63,17.46,24.4,26.37,36.47,1.21,1.64,2.37,3.33,3.47,5.05,.94,1.48,.36,2.74-.76,3.88-1.09,1.11-2.06,.61-3.23,.03-2.43-1.19-3.6-3.46-5.05-5.5-8.26-11.6-15.35-23.98-23.66-35.57-4.57-6.37-10.52-7.12-17.2-6.84-5.24,.22-9.87,2.71-14.69,4.47-31.22,11.37-63.06,20.98-93.97,33.26-36.1,14.35-71.67,29.75-105.43,49.1-1.75,1-2.6,1.71-1.4,3.73,1.14,1.92,1.63,4.12,1.8,6.38,.37-.08,.63-.09,.82-.2,33.16-18.54,68.16-33.24,102.96-48.22,35.45-15.26,72.02-27.61,109.94-35.51,4.57-.95,8.74-1.72,10.56,4.09,.1,.32,.39,.62,.65,.86,6.59,6.18,11.56,13.75,17.51,20.5,3.38,3.83,6.92,7.74,6.75,13.48-.04,1.33-.2,2.28-1.45,2.97-1.38,.75-2.26,0-3.22-.76-1.65-1.29-2.67-3.07-3.76-4.79-6.09-9.62-12.69-18.88-19.99-27.62-.84-1-1.42-2.32-3.44-1.86-7.93,1.84-15.99,3.15-23.87,5.16-20.3,5.2-39.82,12.85-59.75,19.23-22.41,7.17-43.21,18.28-64.81,27.44-28.59,12.12-56.2,26.27-83.63,40.79-26.55,14.05-52.62,28.85-76.87,46.68-1.86,1.37-2.31,2.13-1.04,4.41,3.87,6.95,8.94,13.1,12.87,19.98,12.24,21.45,26.17,41.78,40.43,62.57,1.19-2.21,1.94-3.97,3-5.52,5.37-7.83,10.83-15.61,22.13-14.15l-.09-.09c2.11,2.04,4.27,4.01,5.34,6.9,3.27,8.84,6.69,17.63,7.04,27.22,.06,1.56,.11,3.47,1.55,4.21,5.89,3.04,11.89,5.87,18.26,7.85,8.1,2.53,16.57,3.32,24.74,5.48,11.81,3.11,23.83,5.32,35.99,5.97,15.48,.84,31,.76,46.5-.24,1.25,.96,2.36,.23,3.49-.3,6.18-.79,12.38-1.44,18.54-2.42,14.15-2.24,28.27-4.63,42.4-6.99,3.89-.65,7.76-1.44,11.02-2.05-41.67-66.39-86.25-130.36-136.89-189.94,12.07,8.57,21.75,19.54,30.94,30.92,6.02,7.46,11.13,15.65,17.09,23.16,8.74,11.01,17.67,21.88,26.05,33.18,17.24,23.27,32.71,47.74,49.05,71.62,6.54,9.56,12.22,19.73,18.23,29.65,.46,.76,.89,.53,1.44,.47,7.14-.76,14.03-2.55,21.2-4.85-1.52-1.11-2.73-1.89-3.81-2.81-9.09-7.69-15.96-17.09-21.63-27.53-8.51-15.66-12.97-32.45-14.77-50.04-.49-4.75-.24-4.79-4.48-2.76-.97,.47-1.92,.97-2.86,1.5-5.01,2.85-10,5.72-15.02,8.55-.78,.44-1.71,1.3-2.48,.06-.51-.81,.27-1.29,.79-1.76,6.04-5.47,12.98-9.54,20.55-12.38,2.05-.77,2.73-1.29,2.75-3.47,.24-21.18,3.89-41.67,12.65-61.09,.33-.73,.99-1.33,.48-2.31-.92-1.76-8.58-5.95-10.73-5.79-.83-.14-1.67-.27-2.41,.3-5.87,.39-11.47-.61-16.66-3.46-5.88-3.23-7.75-9.2-9.95-14.9-4.34-11.28,.16-28.44,13.93-32.74,1.02-.32,1.94-.97,2.95-1.36,8.6-3.31,17.36-5.78,26.69-3.96,2.31,.45,2.93-.88,3.62-2.49,2.44-5.73,4.92-11.45,7.99-16.89,.71-1.27,1.23-2.56,3.18-2.1,1.88,.44,3.08,1.39,3.18,3.33,.09,1.9,.21,3.77-.64,5.65-1.81,4.02-3.28,8.19-5.12,12.18-1,2.16-.51,2.91,1.66,3.73,7.11,2.69,12.65,7.36,16.45,14.27,7.89-6.91,16.9-11.96,26.11-16.66,29.49-15.06,59.8-18.38,91.37-6.74,20.26,7.47,37.25,19.43,51.86,35.17,8.15,8.78,14.3,18.9,20.42,29.03,6.93,11.48,10.46,23.99,10.66,37.55,.22,14.7-3.24,28.66-7.31,42.54-4.35,14.87-11.68,28.4-20.09,41.26-5.07,7.75-11.57,14.5-19.62,19.37-2.08,1.26-2.19,1.93-.94,3.87,7.44,11.49,12,24.12,14.5,37.54,2.68,14.44,5.53,28.86,8.08,43.32,1.9,10.72,3.59,21.48,5.12,32.25,1.86,13.14,2.99,26.4,5.26,39.47,2.43,14.05,4.81,28.07,5.41,42.32,.11,2.54,1.14,2.87,3.29,2.85,8.42-.1,16.86-.26,25.27,.06,3.8,.14,4.63-.97,4.63-4.68-.1-171.8-.1-343.6-.05-515.4,0-11.77-1.13-23.41-2.66-35.05-.33-2.53-1.05-3.09-3.44-3.02-23.09,.61-46.17-.62-69.28-.1-20.68,.47-41.39-.4-62.08-.65-7.82-.1-15.64-.04-23.46-.19-14.67-.27-29.35-1.06-44.02-.86-19.24,.26-38.47,1.23-57.7,1.95-8.65,.33-17.3,1.03-25.95,1.17-9.72,.16-19.43,1-29.16,.18l-.37-.82-.4,.83c-4.82,9.02-9.77,17.95-16.68,25.61-5.71,6.33-12.15,11.56-20.59,14.04-.05-.49-.17-.86-.11-1.19,1.99-11.86,3.98-23.72,6-35.58,.26-1.55,.93-2.98-1.84-2.9-9.39,.3-18.76-.45-28.14-.66-29.85-.68-59.66,1.04-89.48,1.92-30.18,.89-60.36,1.59-90.54,2.4-3.24,.09-6.5,.7-9.71,.51-11.08-.68-22.16-.6-33.25-.5-3.24,.03-3.87,.86-3.87,3.97,.08,181.69,.08,363.38,0,545.08,0,3.2,.75,3.91,3.92,3.91,107.49-.09,214.99-.1,322.48,.01,3.45,0,4.58-1.19,4.98-4.31,1-7.85,2.03-15.7,3.36-23.5,2.5-14.64,5.31-29.23,7.78-43.88,.95-5.62,1.33-11.33,1.96-16.95-.87-.29-1.28,.23-1.78,.53-15.61,9.4-31.53,18.27-48.41,25.19-24.11,9.87-48.06,20.11-71.64,31.19-4.5,2.12-8.98,1.49-12.64-1.89-3.17-2.92-6.61-5.52-9.4-8.92-3.65-4.45-7.45-8.81-11.67-12.79-5.78-5.46-11.1-11.47-15.54-17.99-8.83-12.96-17.84-25.8-26.28-39.04-6.62-10.39-14.88-19.69-20.63-30.69-.45-.86-1.41-1.22-2.32-1.6-11-4.54-20.92-11.15-31.59-16.35-15.84-7.73-22.71-21.55-23.98-38.52-.46-6.24-.05-12.51,.78-18.73,.13-.98,.64-2.05-.62-2.91-4.86-3.29-8.3-7.98-11.36-12.81-7.63-12.04-14.91-24.29-21.65-36.87-2.08-3.88-3.95-8.04-7.08-11.18-2.4-2.42-2.07-5.69-3.56-8.32-.15-.26,.2-1.17,.4-1.2,3.21-.48,4.09-3.59,6.06-5.43,13.33-12.42,27.51-23.74,43.28-32.86,18.91-10.94,38.02-21.53,57.08-32.19,1.87-1.05,3.27-1.55,1.76-4.2-1.44-2.52,.49-4.83,3.44-4.44,1.39,.18,3,.3,4,1.42,1.29,1.43,2.43,.96,3.73,.15,1.12-.7,2.29-1.32,3.44-1.97,2.72-2.41,6.33-3.13,9.38-4.89,18.01-10.38,36.8-19.15,55.95-27.18,10.22-4.28,20.33-8.81,30.49-13.23Zm-26.1,324.63c2.05,2.66,4.39,5.04,6.81,7.36,.72,.69,1.94,1.67,.84,2.7-.99,.93-1.64-.42-2.22-1.07-1.36-1.53-3.41-2.29-4.51-4.11-5.78-9.63-13.9-17.43-20.56-26.38-2.36-3.17-4.87-5.66-9.04-6.76-7.44-1.96-14.68-4.69-21.98-7.17-3.66-1.24-7.27-2.63-10.9-3.95,5.07,5.8,10.36,11.06,14.51,17.28,4.07,6.1,8.58,11.87,12.95,17.74,8.46,11.36,18.16,21.75,26.12,33.51,1.09,1.61,2.57,3.15,4.59,3.2,6.92,.16,13.78,.58,20.55-2.13,26.75-10.7,52.7-23.27,79.34-34.21,2.15-.88,4.18-1.83,6.56-1.19,.84,.23,2.08-.57,2.47,.75,.3,1.04-.59,1.76-1.17,2.5-2.33,2.95-5.67,4.42-8.96,5.86-20.89,9.13-41.78,18.26-62.74,27.25-11.31,4.85-22.67,9.69-35.51,7.06-4.44-.91-8.69-2.67-11.32-6.2-4.58-6.16-9.06-12.39-13.99-18.29-13.55-16.19-24.6-34.27-38.25-50.46-5.85-6.93-13.04-9.06-20.27-12.38,1.98,3.25,4.05,6.33,6.35,9.24,6.69,8.48,13.48,16.85,19.48,25.89,6.7,10.08,13.65,20.07,21.11,29.57,10.54,13.4,22.56,25.57,34.75,37.52,3.77,3.7,5.65,3.81,10.45,1.41,14.39-7.19,28.78-14.35,43.64-20.57,20.92-8.76,41.96-17.32,61.47-29.08,4.32-2.6,8.45-5.92,13.14-7.41,3.91-1.24,4.35-3.39,4.48-6.45,.04-.89,1.03-1.69,.23-2.71-7.04,1.6-14.23,1.9-21.39,2.54-16.01,1.42-31.96,.08-47.92-.71-5.55-.28-10.99-1.4-16.39,1.38-9.27,4.78-18.89,8.88-27.67,14.6-1.29,.84-3.19,2.96-4.24,1.47-1.34-1.88,1.48-2.79,2.68-3.88,3.33-3,7.19-5.22,11.18-7.22,5.19-2.61,10.38-5.21,15.79-7.93-5.75-1.19-5.72-1.14-10.33,1.26-7.05,3.68-13.5,8.3-20.11,12.67-1.2,.79-2.9,2.53-3.98,.95-1.09-1.59,1.34-2.12,2.35-2.93,6.34-5.13,13.07-9.7,21.16-13.71-3.6-.77-6.35-1.21-9.01-1.97-6.38-1.81-12.19-.6-17.66,2.92-1.01,.65-2.06,1.23-3.13,1.78-.97,.51-2.06,2.08-3.05,.78-1.1-1.46,.15-2.64,1.49-3.44,2.52-1.5,5.05-2.99,7.78-4.61-8.33-3.21-12.17-2.43-17.89,3.06,3.95,3.68,7.69,7.55,10.63,12.11-.19,1.17,.16,2.06,1.28,2.57Zm37.41-431.21c1.01-.35,1.37-.41,1.67-.59,.83-.49,1.65-.99,2.44-1.53,8.74-6.02,14.83-14.35,20.02-23.38,12.02-20.94,19.14-43.7,24.5-67.08,.45-1.98,.68-3.32,3.44-3.33,62.58-.3,125.17-.75,187.75-1.12,25.16-.15,50.31-.03,75.47-.33,22.85-.28,37.11-11.41,43.51-33.33,2.79-9.56,3.73-19.39,3.86-29.25,.17-13.03-.17-26.05-.85-39.09-.3-5.69,.03-11.6-.12-17.38-1.35-50.94-3.71-101.84-3.94-152.81-.04-9.66-1.11-19.23-3.6-28.58-4.79-18-14.55-31.81-32.77-38.27-9.67-3.42-19.73-4.05-29.89-3.85-57.99,1.14-115.99,2.49-173.98,3.33-90.37,1.31-180.76,1.55-271.13,3.11-12.64,.22-25.28-.04-37.67,2.99-16.67,4.07-29.48,12.71-34.96,29.86-2.17,6.81-3.09,13.86-3.09,21,0,67.83-.11,135.66,.13,203.49,.06,18.17,.99,36.37,5.63,54.11,3.87,14.8,11.14,26.42,27.84,28.8,3.57,.51,7.18,.94,10.77,.95,13.84,.03,27.68-.05,41.52-.22,48.38-.59,96.75-1.23,145.13-1.92,2.27-.03,3.49,.67,4.37,2.7,2.35,5.42,2.91,11.13,3.01,16.93,.29,16.58-2.29,32.88-4.82,49.18-1.31,8.42-2.77,16.82-4.23,25.63Zm-175.16,295.12c-1.03,3.91-1.68,7.75-1.75,11.71-.17,9.28,.12,18.55,.95,27.78,.3,3.35,.51,7.17,3.48,9.51,7.45,5.86,14.36,12.47,22.44,17.47,14.08,8.73,29.53,14.64,44.74,21.01,6.25,2.62,12.72,4.71,19.13,6.92,6.53,2.25,13.11,4.4,19.69,6.51,6.46,2.08,13.07,3.78,19.41,6.17,6.19,2.34,12.75,3.03,19.04,5,9.56,2.99,19.63,4.04,29.56,5.48,10.1,1.47,20.25,2.49,30.44,2.91,20.66,.84,41.3,1.25,61.68-3.19,3.06-.67,4.36,.82,4.65,3.43,.21,1.89,.15,3.89-.25,5.75-1.34,6.24-1.5,12.61-2.28,18.91-.79,6.43-.68,13-1.95,19.32-3.93,19.63-6.6,39.46-9.69,59.22-.41,2.64-.28,3.93,3.18,3.93,73.18-.12,146.36-.11,219.54-.03,2.76,0,3.5-.69,3.26-3.4-.86-9.92-1.52-19.85-3.25-29.7-1.78-10.12-2.91-20.36-4.32-30.54-1.63-11.85-3.17-23.71-4.91-35.55-1.2-8.14-2.62-16.24-4.04-24.34-1.66-9.51-3.73-18.97-5.08-28.52-2.01-14.2-5.97-27.7-12.98-40.24-1.6-2.86-2.87-5.88-6.68-7.01-2.03-.6-2.59-3.19-2.31-5.56,.18-1.53,1.15-1.91,2.23-1.58,4.73,1.44,7.66-1.47,10.79-4.16,14.8-12.68,23.11-29.62,30.54-47.03,5.09-11.91,7.99-24.56,9.82-37.33,1.24-8.63,1.06-17.37-1.21-26.03-2.79-10.66-8.54-19.69-14.5-28.69-20.16-30.46-47.59-49.81-84.1-55.38-10.47-1.6-20.9-.67-31.15,1.26-17.76,3.35-33.57,11.5-48.54,21.36-6.88,4.53-12.98,10.03-18.13,16.4-9.98,12.34-18.93,25.39-25.47,39.96-.36,.81-.91,1.58-.13,2.17,.56,.42,1.35-.02,1.86-.65,1.47-1.78,3.08-1.76,4.58-.12,1.36,1.49,1.27,3.37,.77,5.13-1.42,4.96-4.76,8.83-7.58,12.99-.68,.99-1.99,1.55-2.84,.81-2.81-2.46-2.43,0-2.8,1.61-2.14,9.17-2.19,18.54-2.89,27.86-.69,9.17,2.94,16.72,8.09,23.72,3.29,4.49,6.12,5.06,11.44,3.26,1.46-.49,3.08-.64,3.87,.84,.89,1.66-.2,2.91-1.6,3.91-3.44,2.45-8.16,2.22-12.12-.49-2.6-1.77-4.56-4.2-7.01-7.38,.16,2.08,.11,3.06,.32,3.98,3.37,14.34,8.87,27.84,17.1,40.03,4.13,6.12,8.89,11.93,14.99,16.4,2.83,2.07,5.76,3.66,9.28,4.37,2.04,.41,3.79,1.96,3.24,4.44-.41,1.83-2.31,3.17-3.8,2.55-2.98-1.24-5.12,.38-7.44,1.32-5.08,2.07-10.26,3.81-15.65,4.76-14.86,2.64-29.79,4.95-44.62,7.74-23.04,4.34-46.13,7.67-69.68,7.4-13.48-.16-26.92-.39-40.23-2.57-6.59-1.08-13.09-2.78-19.62-4.23-11.06-2.45-22.41-3.72-32.92-8.46-3.48-1.57-6.78-3.48-10.31-4.88-4.2-1.67-6.74-4.52-7.14-9-.83-9.21-3.04-18.06-6.52-26.6-1.39-3.41-1.84-3.42-4.75-1.14-5.88,4.6-9.36,10.8-12.14,17.55-1.78,4.33-3.31,4.67-6.92,1.85-1.89-1.47-3.73-3.04-5.47-4.69-8.47-8.01-16.63-16.3-23.34-26.21Zm-9.83,2.03c3.26-3.62,3.44-9.86,9.76-10.76-.24-.42-.4-.74-.59-1.03-10.25-15.34-18.84-31.64-27.74-47.75-.35-.63-.55-1.31-1.38-1.5-3.06-.67-3.45-1.47-1.24-3.69,2.62-2.64,5.52-5,8.41-7.35,19.07-15.56,40.17-28,61.52-40.04,9.08-5.12,18.3-9.98,27.67-15.07-2.34-1.09-3.7-2.82-4.25-4.91-.69-2.62-1.85-2.31-3.72-1.25-11.48,6.5-23.08,12.81-34.5,19.43-15.54,9.02-31.64,17.08-46.03,28.06-8.72,6.65-17,13.72-24.89,21.29-2.32,2.23-2.43,4.63-.59,7.07,6.31,8.35,11.01,17.71,16.59,26.51,6.71,10.6,12.32,21.94,21,31Zm276.16-169.96c-6.88,.53-14.48,2.58-21.82,6.05-5.59,2.64-9.22,6.53-10.94,12.45-2.1,7.19,.51,19.36,5.82,23.21,9.59,6.96,22.05,4.93,29.14-5.37,2.13-3.1,2.2-6.74,.77-10.32-1.03-2.58-4.08-4.96-.86-8.06,.24-.23-.02-1.18-.27-1.69-.64-1.32-.38-2.49,.09-3.8,.95-2.69,1.69-5.46,2.56-8.18,1.37-4.27,1.39-4.26-4.49-4.27Zm4.9,52.73c8.49-13.28,16.48-26.58,28.08-37.15,.47-.43,1.09-.84,.1-1.62-4.97-3.9-9.16-8.77-15.49-10.88-2.51-.84-3.1,.02-3.74,1.91-1.58,4.64-3.09,9.31-4.86,13.87-1,2.59-1.1,4.85-.05,7.55,2.5,6.4,.77,12.7-4.39,17.27-1.83,1.62-3.87,3-6.01,4.65,2.46,1.26,4.65,2.4,6.36,4.42Zm-139.28,230.15c-5.11-1.55-9.61-2.92-15.11-4.59,2.69,3.24,4.66,5.63,6.64,8,.62,.75,1.22,1.51,2.37,.7,1.82-1.28,3.69-2.49,6.11-4.11Zm77.27-445.6l-.21-.24-.22,.23,.32,.25,.12-.24Z"
       id="path6" />
    <path
       class="cls-16"
       d="M425.65,537.93c-2.07,3.87-4.14,7.75-6.21,11.62l-.61-.28c1.7-3.81,3.4-7.63,5.1-11.44,.57,.03,1.14,.07,1.72,.1Z"
       id="path8" />
    <path
       class="cls-31"
       d="M277.66,737.85c-.84-.17-1.69-.34-2.53-.51,1.22-1.15,.3-2.05-.23-3.13-6.61-13.45-7.5-26.76-.52-40.62,4.53-8.98,11.02-15.94,18.42-22.3,11.65-10,25.09-14.37,40.25-11.18,16.67,3.51,29.74,12.19,36.8,28.4,.79,1.82,1.63,3.46,3.68,4.08l-.05-.05c-10.16,4.42-20.27,8.95-30.49,13.23-19.15,8.03-37.94,16.8-55.95,27.18-3.05,1.76-6.66,2.48-9.38,4.89Zm38.26-27.16c3.2-.12,7.13-2.12,10.18-5.79,2.42-2.92,1.16-6.93-2.42-7.99-4.69-1.39-12.69,2.69-14.28,7.28-1.29,3.72,.89,6.62,6.52,6.51Zm21.62-21.07c-.56-2.67-1.65-5.64-3.54-8.25-.46-.64-1.25-1.16-2.19-.78-.95,.39-.96,1.21-.95,2.09,.03,3.34,1.43,6.16,3.3,8.81,.51,.72,1.14,1.28,2.1,.9,1-.4,1.42-1.2,1.28-2.76Zm-55.39,13.71c.58-2.2,.98-3.92,1.51-5.61,.56-1.81,1.23-3.59,1.87-5.38,.35-.98,.34-1.94-.64-2.49-.65-.37-1.39-.14-2,.34-2.24,1.79-3.02,10.08-.74,13.14Zm8.97-2.95c-.03,2.52,2.18,5.98,3.79,5.88,1.46-.1,2.96-1.04,2.48-2.4-.78-2.2-1.15-5.11-4.25-5.6-1.49-.23-2.19,.67-2.02,2.12Zm41.18-32.1c-.67,.24-2.05,0-2.16,1.51-.09,1.26,1.04,1.53,1.97,1.67,1.82,.27,3.42,.94,4.93,1.99,.75,.52,1.78,1.21,2.46-.01,.51-.92,.09-1.9-.68-2.59-1.75-1.59-3.9-2.26-6.51-2.56Z"
       id="path10" />
    <path
       class="cls-13"
       d="M403.24,941.53c-.64-2.31,.35-3.74,2.22-5.12,7.88-5.84,17.1-9.27,25.35-14.43,1.52-.95,3.12-1.8,4.76-2.55,1.2-.55,2.63-1.08,3.47,.54,.93,1.82-.51,2.62-1.76,3.33-5.52,3.13-11.06,6.23-16.61,9.31-4.3,2.38-8.63,4.7-12.93,7.08-.56,.31-1.45,.51-1,1.53-1.13,.53-2.24,1.26-3.49,.3Z"
       id="path12" />
    <path
       class="cls-21"
       d="M453.13,788.14c4.67-7.5,8.62-15.36,11.69-23.66,.75-.57,1.58-.45,2.42-.31,1.34,1.49,1.46,2.94,.64,4.89-1.94,4.63-3.55,9.41-5.29,14.12-3.3,1.36-5.89,4.1-9.46,4.95Z"
       id="path14" />
    <path
       class="cls-34"
       d="M346.11,1014.61c1.77-2.84,4.88-3.73,7.64-5.01,3.51-1.62,7.01-3.42,11.04-3.97,.4,1.86-1.11,2.07-1.99,2.53-4.73,2.49-9.49,4.91-14.28,7.28-.81,.4-1.59,.6-1.13,1.73-1.12-.51-1.47-1.4-1.28-2.57Z"
       id="path16" />
    <path
       class="cls-6"
       d="M341.58,996.04c-2.42,1.62-4.29,2.83-6.11,4.11-1.15,.81-1.74,.05-2.37-.7-1.98-2.38-3.95-4.76-6.64-8,5.5,1.67,10.01,3.04,15.11,4.59Z"
       id="path18" />
    <path
       class="cls-16"
       d="M418.85,550.45l-.12,.24-.32-.25,.22-.23,.21,.24Z"
       id="path20" />
    <path
       class="cls-16"
       d="M418.34,552.29l-.77,.02,.4-.83,.37,.82Z"
       id="path22" />
    <path
       class="cls-19"
       d="M334.59,752.3c1.21-.13,1.96-.05,2.4,.61,7,10.27,14.92,19.86,22.18,29.95,4.85,6.75,10.55,12.78,15.64,19.32,3.02,3.88,2.31,7.71-1.9,10.43-9.18,5.91-18.81,11.06-28.27,16.49-5.69,3.27-11.63,6.18-16.44,10.82-1.21,1.16-2.19,.25-3.1-.56-1.84-1.62-2.77-3.88-4.1-5.86-10.23-15.34-20.45-30.69-30.68-46.04-.4-.6-.75-1.24-1.21-1.78-2.31-2.7-2.16-3.85,.76-6,8.92-6.56,18.29-12.41,27.93-17.84,4.92-2.77,9.78-5.65,14.64-8.53,.83-.49,1.59-1.08,2.16-1Zm-29.44,47.7c.15,1.07,1.23,1.08,1.85,1.6-.07,2.58,1.44,4.28,3.3,5.77-.4-2.32-1.34-4.33-3.36-5.7-.72-.58-.16-1.83-1.19-2.25-.84-1.94-1.87-3.76-3.8-5.68,.18,3,1.93,4.5,3.19,6.26Zm43.68-13.35l.31,.46,.33-.3c-.16-.1-.33-.19-.49-.29-.55-2.35-1.8-4.31-3.71-6.82,.49,2.26,.82,3.72,1.11,5.19,.27,1.37,.95,2.12,2.46,1.76Zm-47.37-1.73c-.16-.36-.24-.95-.82-.62-.55,.31-.05,.74,.04,1.11,4.19,8.7,10.19,16.3,14.92,24.83,.39-1.55,1.48-3.06,.32-4.4-5.57-6.46-9.32-14.17-14.46-20.91Zm45.22,5.27c-.74,2.17-1.33,4.21-2.11,6.17-3.75,9.33-10.66,12.59-20.14,9.19-2.29-.82-2.69,.35-2.72,1.73-.2,9.12-1.35,18.42,4.8,26.43,1.04,1.35,1.57,1.27,2.74,.37,4.27-3.32,8.72-6.37,13.39-9.11,9.3-5.47,18.56-11.03,27.88-16.46,1.52-.88,2.33-1.54,.78-3.1-3.28-3.3-5.02-7.77-10.46-9.36-4.77-1.4-9.61-3.37-14.16-5.85Zm-30.39,.51c-.4,3.89,1.64,6.42,4.69,8.24,1.52,.91,3.24,1.5,4.9,2.15,5.47,2.13,9.15,.86,12.11-4.14,1.36-2.29,2.17-4.79,2.81-7.35,2.18-8.66-3.76-14.62-11.9-15.43-3.32-.33-6.29,.59-8.17,3.43-2.62,3.94-3.96,8.41-4.45,13.1Zm22.57-17.9c-2.31-4.69-2.32-4.67-6.11-6.56-.49-.24-.83-.84-1.15-1.33-.7-1.1-1.42-2.21-1.99-3.38-.48-.98-1.09-1.22-1.98-.66-.9,.56-.92,1.1-.18,1.99,.91,1.08,1.58,2.37,2.24,3.63,.47,.89,.06,1.77-.83,2.38,3.42,.28,6.49,1.78,10,3.93Zm-27.93,21.36c.83-1.96,.15-2.98-.49-4-2.35-3.76-4.7-7.52-7.09-11.26-.45-.7-.68-2.19-1.97-1.28-.86,.61-.16,1.55,.28,2.23,2.97,4.62,5.97,9.22,9.27,14.3Zm8.72-28.19c.93,1.28,1.59,2.44,2.49,3.37,1.4,1.45,3.03,.54,4.53,.08,.57-.17,1.35-.39,1.12-1.46-.75-3.39-3.83-4.73-6.82-2.89-.41,.25-.79,.54-1.32,.9Zm-8.57,20.15l.94-.56c-1.71-3.51-3.39-7.02-5.15-10.5-.31-.61-.99-.51-1.58-.24-.65,.29-.97,.88-.62,1.43,2.1,3.32,4.27,6.59,6.41,9.87Zm-9.6,7.87l.71-.38c-1.86-3.64-3.71-7.28-5.61-10.9-.21-.4-.16-1.4-1.09-.93-.69,.34-1.1,.86-.56,1.71,2.2,3.49,4.37,7,6.55,10.5Zm12.77-14.66c.36-1.82,2.24-3.29,1.11-3.94-1.66-.96-2.58-2.32-3.74-3.61-.35-.39-.8-.5-1.24-.11-.48,.43-.19,.83,.05,1.24,1.13,1.91,2.27,3.81,3.81,6.42Zm-18.4,9.43c-.97-1.91-1.38-3.75-3.09-4.78-.12-.07-.76,.36-.74,.47,.42,1.88,1.73,3.16,3.07,4.42,.04,.04,.18-.02,.76-.11Zm1.68-9.21c.84,2.17,1.45,3.49,2.99,4.19-.56-1.37-.54-3.06-2.99-4.19Zm35.25-18.32c.11-1.19,.02-2.15-1.27-2.51-.12-.03-.33,.26-.53,.43,.18,.98,.72,1.66,1.8,2.08Zm1.74,2.78c-.14-.11-.28-.23-.42-.34-.08,.19-.23,.39-.22,.58,0,.12,.25,.23,.39,.34,.08-.19,.16-.38,.24-.58Zm-1.11-1.44c.07-.07,.18-.14,.19-.21,0-.08-.1-.16-.15-.24-.07,.07-.19,.13-.19,.21,0,.07,.1,.16,.16,.25Zm-37.14,27.22c-.09-.09-.19-.24-.26-.22-.17,.04-.32,.14-.48,.22,.08,.08,.17,.24,.23,.23,.17-.03,.32-.14,.5-.23Z"
       id="path24" />
    <path
       class="cls-8"
       d="M374.18,691.78c-.43,.1-.85,.21-.64,.82-2.05-.62-2.89-2.27-3.68-4.08-7.06-16.21-20.13-24.88-36.8-28.4-15.16-3.2-28.6,1.18-40.25,11.18-7.41,6.36-13.9,13.32-18.42,22.3-6.99,13.86-6.09,27.17,.52,40.62,.53,1.08,1.45,1.99,.23,3.13-2.99,.36-3.83-2.06-4.91-3.97-8.07-14.27-8.16-28.85-.65-43.2,10.82-20.69,26.92-34.77,51.05-36.73,13.62-1.1,26.05,3.56,37.2,11.43,1.06,.75,2.05,1.62,3.16,2.5,4.14-7.57,4.57-15.63,3.64-23.66-.9-7.8-2.73-15.49-4.09-23.24-.3-1.68-1.06-2.45-2.71-3.23-4.1-1.93-6.21-5.62-6.41-10.09-.19-4.26,2.96-6.3,7.46-5.09,.22-4.81,.98-9.51,2.27-14.14,.37-1.31,.75-2.46,2.24-2.21,1.77,.29,1.9,1.94,1.39,3.12-2.51,5.79-1.89,12.01-2.76,18.03-.76,5.25,2.19,9.7,3.15,14.59,2.2,11.27,5.29,22.42,4.06,34.1-.49,4.6-1.8,8.93-4.33,12.8-.88,1.35-.85,2.21,.39,3.31,1.52,1.35,3.02,2.81,4.19,4.46,3.3,4.66,6.79,9.33,4.71,15.65Z"
       id="path26" />
    <path
       class="cls-21"
       d="M348.01,874.75c.27,5.61-.79,6.35-6.12,4.38-4.48-1.66-9.01-3.22-13.49-4.89-2.22-.83-3.5-.17-4.54,1.97-1.62,3.33-3.53,6.52-5.32,9.77-1.74-1.59-3.43-3.22-4.55-5.34,1.12-2.26,2.12-4.57,3.38-6.75,1.03-1.78,.21-2.47-1.33-2.7-3.65-.55-7.32-.96-10.98-1.43-.53-.28-1.07-.56-1.6-.83h0v-.86c-.16-1.93-2.21-2.55-2.88-4.13,5.42-1.75,10.75-.12,15.87,1.07,4.24,.98,6.47,.3,8.25-3.65,1.16-2.56,2.65-5.09,4.76-7.1,1.13,1.44,2.36,1.02,3.73,.32,1.96-1.01,3.63-2.59,5.84-3.12-1.01,2.99-4.01,4.87-4.52,8.13l.05-.06c-.39,.26-.78,.52-1.18,.78,.45,.54,.12,.86-.33,1.15-5.02,5.52-4.92,5.85,1.74,8.23,4.45,1.59,8.82,3.37,13.23,5.07h-.02Z"
       id="path28" />
    <path
       class="cls-17"
       d="M307.12,830.65c1.68-.19,2.61,.58,2.95,1.83,.42,1.56-.68,2.64-1.9,3.09-5.7,2.11-10.64,5.54-15.49,9.04-14.15,10.19-29.66,18.06-44.81,26.53-1.25,.7-2.6,1.2-3.91,1.8-.96,.44-1.92,.62-2.47-.51-.58-1.19-.04-1.94,1.08-2.6,7.95-4.67,15.86-9.41,23.79-14.12,10.53-6.25,20.39-13.51,30.68-20.12,3.24-2.08,6.53-4.02,10.07-4.93Z"
       id="path30" />
    <path
       class="cls-17"
       d="M300.21,827.1c-.32,1.82-1.83,2.83-3.37,3.76-11.77,7.16-23.54,14.32-35.32,21.47-7.28,4.41-14.59,8.77-21.86,13.2-1.05,.64-2.09,1.64-3.08,.27-.86-1.18-.06-2.34,.85-3.18,4.36-3.99,9.38-7.07,14.38-10.15,14.48-8.95,28.99-17.84,43.49-26.77,2.5-1.54,4.74-1.02,4.91,1.39Z"
       id="path32" />
    <path
       class="cls-21"
       d="M418.41,809.7c-11.59-1.63-19.62-8.17-25.14-18.21-3.61-6.57-4.74-13.48-3.09-20.82,2.98-2.14,6.1-4.06,9.44-5.6-8.09,11.72-4.42,22.26,4.31,30.79l-.05-.04c2.16,3.07,5.19,4.9,8.7,6.04-.34,.58-1.12,1.39-.95,1.71,.56,1.1,1.34,.15,2.01-.1,.87-.32,1.71-.73,2.56-1.09,3.61,1.7,7.43,.34,11.13,.81-2.97,2.17-5.95,4.35-8.92,6.52Z"
       id="path34" />
    <path
       class="cls-34"
       d="M377.81,739.4c-1.19,.55-2.38,1.09-3.57,1.64-.02-.52-.03-1.04-.05-1.56,3.54-1.67,6.97-3.68,10.65-4.94,10.51-3.61,20.2-8.77,29.61-14.6,11.59-7.19,24.05-12.38,37.21-16.06,5.74-1.6,11.15-4.35,16.73-6.55,.9-.36,2.01-1.6,2.76-.09,.82,1.64-.9,2.06-1.85,2.49-7.54,3.34-15.15,6.45-23.11,8.7-13.62,3.84-25.9,10.57-37.83,18-9.22,5.75-19.53,8.87-29.62,12.53-.48-.2-.8-.07-.93,.45Z"
       id="path36" />
    <path
       class="cls-17"
       d="M213.24,828.41c-1.21,.1-1.77,0-2.06-.66-.27-.62-.13-1.22,.32-1.66,.95-.92,1.88-1.89,2.95-2.64,10.74-7.5,22.27-13.66,33.73-19.95,1.45-.8,2.86-.91,3.75,.59,.96,1.62,.29,3.09-1.26,3.97-3.97,2.24-7.99,4.39-11.98,6.58-7.57,4.15-15.13,8.32-22.7,12.46-1.04,.57-2.15,1.02-2.74,1.3Z"
       id="path38" />
    <path
       class="cls-13"
       d="M433.76,912.29c-.38,1.67-1.64,2.2-2.77,2.86-9.12,5.32-18.25,10.6-27.33,15.98-3.1,1.83-5.98,4.02-9.09,5.84-1.29,.75-2.98,2.78-4.35,.88-1.36-1.89,.92-2.91,2.19-3.85,7.55-5.57,15.46-10.6,23.6-15.25,4.59-2.63,9.32-5,14.03-7.39,1.42-.72,3.02-1.11,3.72,.95Z"
       id="path40" />
    <path
       class="cls-22"
       d="M339.03,851.46c-2.22,.53-3.88,2.11-5.84,3.12-1.37,.71-2.59,1.13-3.73-.32,2.66-3.28,4.02-8.03,9.49-8.11,.98-.01,1.98-.79,2.9-1.32,6.86-3.92,13.71-7.87,20.56-11.81,.62-.36,1.24-.78,1.91-.99,1.38-.43,3.03-1.84,4.11,.18,.99,1.86-.6,2.84-1.96,3.64-3.83,2.24-7.68,4.42-11.53,6.62-5.29,3.02-10.88,5.49-15.91,8.98Z"
       id="path42" />
    <path
       class="cls-28"
       d="M420.39,898.1c-.24,1.11-1.2,1.62-2.16,2.13-12.87,6.83-24.62,15.39-36.54,23.69-.49,.34-.98,.7-1.51,.99-.84,.46-1.8,1.05-2.55-.03-.68-.98-.18-1.84,.66-2.5,2.08-1.63,4.16-3.28,6.28-4.86,10.14-7.53,20.48-14.75,31.73-20.56,2.49-1.28,4.23-.79,4.08,1.13Z"
       id="path44" />
    <path
       class="cls-29"
       d="M353.27,896.66c-1.31-.12-1.37-.92-1.24-1.82,.19-1.34,1.25-2.01,2.19-2.73,11.01-8.36,23.08-15.01,35.16-21.64,1.42-.78,3.68-2.48,4.75-.41,1.26,2.43-1.67,2.96-3.18,3.82-11.66,6.62-23.24,13.36-34.38,20.84-1.09,.73-2.26,1.34-3.3,1.95Z"
       id="path46" />
    <path
       class="cls-32"
       d="M377.36,754.32c2.84-2.91,6.39-4.71,9.81-6.57,13.7-7.45,27.82-14.05,42.14-20.19,1.45-.62,3.76-2.48,4.66-.31,.86,2.08-2.04,2.59-3.52,3.25-16.7,7.46-33.3,15.12-49.6,23.42-.95,.48-2,1.49-3.49,.39Z"
       id="path48" />
    <path
       class="cls-22"
       d="M466.16,796.14c-.57,1.28-1.64,2.1-2.69,2.88-8.67,6.45-17.51,12.66-26.62,18.48-2.93,1.87-5.89,3.68-8.88,5.45-.94,.56-2.21,.93-2.84-.27-.51-.98,.46-1.77,1.24-2.32,11.6-8.14,23.2-16.28,34.84-24.36,.95-.66,2.18-1.03,3.33-1.28,.91-.19,1.6,.35,1.62,1.42Z"
       id="path50" />
    <path
       class="cls-21"
       d="M458.76,788.7c-2.95,7.66-8.8,12.58-15.82,16.17-6.32,3.24-13.08,5.08-20.29,4.71,.37-.3,.72-.62,1.11-.88,6.45-4.34,13.33-8.02,19.83-12.25,4.83-3.15,10.07-5.27,15.17-7.75Z"
       id="path52" />
    <path
       class="cls-13"
       d="M420.96,908.51c1.13,0,1.88-.06,2.33,.68,.63,1.02-.3,1.53-.8,2.1-.47,.53-1.08,.96-1.7,1.3-11.03,6.01-21.6,12.76-32.18,19.52-1.26,.81-3.06,3.06-4.49,1.02-1.41-2.01,1.1-3.08,2.43-4.09,9.78-7.38,20.24-13.69,31.1-19.34,1.16-.61,2.34-1.22,3.31-1.19Z"
       id="path54" />
    <path
       class="cls-20"
       d="M403.94,795.86c-.19-1.64,1.05-2.26,2.14-2.99,12.46-8.38,25.37-16.04,38.28-23.7,1.93-1.15,4.03-2.08,6.5-1.81-.1,1.56-1.2,2.07-2.19,2.68-12.66,7.8-25.09,15.97-38.14,23.12-2.1,1.15-4.19,2.34-6.63,2.64l.05,.04Z"
       id="path56" />
    <path
       class="cls-22"
       d="M256.53,829.42c1.16,.27,1.99,.62,2.21,1.78,.29,1.58-.55,2.42-1.78,3.16-4.72,2.84-9.37,5.79-14.12,8.6-5.15,3.05-10.37,5.99-15.58,8.96-.98,.56-2.12,1.8-3.12,.4-.96-1.34,.03-2.6,1.16-3.35,4.19-2.79,8.43-5.5,12.69-8.19,5.47-3.45,10.97-6.86,16.47-10.27,.7-.44,1.46-.77,2.07-1.09Z"
       id="path58" />
    <path
       class="cls-13"
       d="M361.18,902.99c-.39-.21-.93-.32-1.14-.65-.48-.75-.53-1.68,.12-2.34,1.09-1.11,2.25-2.18,3.48-3.14,8.74-6.81,17.97-12.86,28.01-17.62,.75-.36,1.55-.63,2.35-.87,.84-.26,1.68-.35,2.19,.61,.49,.91,.18,1.64-.57,2.21-.76,.58-1.52,1.17-2.36,1.62-10.5,5.61-20.53,11.93-30.09,19.02-.57,.42-1.23,.72-1.99,1.16Z"
       id="path60" />
    <path
       class="cls-22"
       d="M318.51,890.64c.38,1.79-.09,2.93-1.84,3.99-10.25,6.21-20.01,13.13-29.27,20.74-.55,.46-1.08,1-1.71,1.3-.88,.42-1.8,1.48-2.8,.13-.85-1.15-.32-2.04,.55-2.81,2.41-2.16,4.81-4.34,7.3-6.41,5.9-4.93,12.35-9.08,18.68-13.4,2.37-1.17,4.74-2.34,7.11-3.51,.68-.04,1.37,.7,2.05,0l-.07-.02Z"
       id="path62" />
    <path
       class="cls-29"
       d="M340.82,868.74c-.34-.29-.83-.51-.98-.87-.39-.92,.1-1.64,.83-2.17,2.23-1.63,4.39-3.38,6.74-4.82,8.81-5.39,18-10.09,27.27-14.62,1.23-.6,2.82-1.71,3.73,.15,.83,1.7-.7,2.53-2.02,3.23-11.22,5.93-22.68,11.42-33.47,18.14-.6,.37-1.29,.6-2.09,.96Z"
       id="path64" />
    <path
       class="cls-7"
       d="M314,880.64c1.12,2.12,2.82,3.75,4.55,5.34,4.99,6.28,10.1,12.47,14.93,18.87,6.93,9.17,13.48,18.63,21.1,27.27,1.11,1.26,2.42,2.34,3.53,3.6,.73,.83,2.39,1.72,1.28,2.9-1.22,1.31-2.01-.47-2.79-1.18-4.3-3.88-7.73-8.52-11.21-13.1-5-6.58-9.91-13.23-14.86-19.84-.61-.81-.91-2.08-2.38-1.68l.07,.06c-.53-3.79-3.76-5.8-5.74-8.63-1.01-1.44-1.4-3.79-3.96-3.62l.07,.02c1.2-1.21-.48-1.48-.73-2.22-.95-1.21-1.9-2.43-2.85-3.64l.06,.07c-.7-.77-1.4-1.55-2.1-2.32-.57-.85-1.14-1.69-1.72-2.54l.91-.96c.62,.53,1.24,1.06,1.85,1.59Z"
       id="path66" />
    <path
       class="cls-29"
       d="M390.54,863.39c-.42,1.81-1.92,2.48-3.26,3.2-7.39,3.96-14.83,7.84-22.23,11.8-3.06,1.64-6.05,3.41-9.07,5.12-.93,.53-2.03,1.39-2.84,.19-.8-1.18-.09-2.2,1.05-2.99,10.17-7.14,21.37-12.42,32.42-17.95,1.19-.6,2.97-1.57,3.94,.63Z"
       id="path68" />
    <path
       class="cls-28"
       d="M333.06,861.46c.44-.29,.78-.61,.33-1.15,.56-.01,1-.21,1.18-.78l-.05,.06c11.29-6.6,22.17-13.9,33.99-19.56,1.29-.62,2.6-1.22,3.88-1.86,1-.5,1.88-.51,2.44,.59,.56,1.13-.19,1.8-1,2.38-.38,.28-.83,.46-1.26,.68-12.28,6.29-24.14,13.34-36.14,20.12-1.06,.6-2.69,2.64-3.37-.48Z"
       id="path70" />
    <path
       class="cls-28"
       d="M348.01,874.75h.02c-1.05-1.55-.12-2.39,1.14-3.12,10.47-6.08,20.5-12.94,31.57-17.92,1.67-.75,4.18-2.98,5.33-.64,1,2.03-2.05,3.1-3.77,3.94-9.82,4.78-18.94,10.81-28.66,15.77-1.77,.9-3.46,2.17-5.63,1.97Z"
       id="path72" />
    <path
       class="cls-13"
       d="M309.2,891.43c-8.01,3.93-15.4,8.81-22.19,14.6-.92,.78-1.8,1.6-2.77,2.31-.73,.54-1.6,1.46-2.51,.46-.9-.99-.89-2.14,.11-3.22,2.62-2.85,5.56-5.32,8.62-7.66,6.71-5.15,14.23-8.95,21.56-13.07,1.01,.01,2.03,.02,3.04,.03l-.06-.07c.48,2.07-.41,3.38-2.21,4.33-1.25,.66-2.39,1.52-3.58,2.29Z"
       id="path74" />
    <path
       class="cls-29"
       d="M369.14,910.85c-1.36,.05-1.54-.83-1.51-1.68,.04-1.44,1.02-2.39,2-3.3,8.08-7.54,17.85-12.49,27.36-17.82,1.01-.57,2.51-1.1,3.26,.11,.93,1.49-.47,2.48-1.56,3.16-6.31,3.92-12.74,7.66-19,11.67-3.32,2.13-6.39,4.66-9.57,7.01-.38,.28-.71,.62-.98,.85Z"
       id="path76" />
    <path
       class="cls-20"
       d="M372.93,919.1c-1.22-.29-1.39-1.03-1.18-1.95,.34-1.49,1.4-2.49,2.44-3.48,6.84-6.54,15.16-10.91,23.11-15.83,2.14-1.32,4.38-2.48,6.61-3.64,.66-.35,1.5-1.16,2.16-.04,.5,.84,.13,1.63-.61,2.21-1.6,1.26-3.14,2.61-4.84,3.72-9,5.91-18.8,10.64-26.61,18.29-.33,.32-.77,.52-1.08,.73Z"
       id="path78" />
    <path
       class="cls-32"
       d="M416.2,802.37c-.85,.37-1.69,.77-2.56,1.09-.67,.25-1.46,1.21-2.01,.1-.16-.33,.61-1.13,.95-1.71,12.67-8.25,25.33-16.5,38.01-24.72,1.71-1.11,3.52-2.05,5.29-3.06,.84-.48,1.99-1.23,2.59-.34,.82,1.21-.64,1.96-1.41,2.49-4.16,2.84-8.49,5.43-12.62,8.31-9.15,6.38-18.9,11.79-28.25,17.85Z"
       id="path80" />
    <path
       class="cls-35"
       d="M399.62,765.06c-3.34,1.54-6.46,3.46-9.44,5.6-1.15,.49-2.3,.98-3.98,1.69,.7-4.02,4.52-4.34,6.2-6.64,.44-.09,.83-.21,.73-.8l-.04,.07c10.33-5.49,20.41-11.4,30.41-17.47,1.42-.58,2.83-1.17,4.26-1.74,.77-.31,1.63-.74,2.35-.07,1.04,.96-.17,1.68-.41,2.5-3.34,1.87-6.69,3.74-10.03,5.61-6.68,3.75-13.37,7.5-20.05,11.25Z"
       id="path82" />
    <path
       class="cls-32"
       d="M463.44,813.62c-.17,.95-.92,1.35-1.66,1.76-2.81,1.56-5.56,3.27-8.44,4.68-7.97,3.89-15.43,8.62-22.7,13.67-.69,.48-1.4,.93-2.13,1.33-.91,.5-2.08,1.47-2.81,.24-.66-1.11,.58-1.87,1.42-2.56,9.91-8.08,21.16-13.93,32.52-19.6,.89-.44,1.78-.72,2.76-.61,.63,.07,1.18,.27,1.04,1.09Z"
       id="path84" />
    <path
       class="cls-13"
       d="M328.21,902.89l-.07-.06c1.21,1.99-.86,2.62-1.72,3.13-8.79,5.18-16.87,11.34-24.84,17.66-.82,.65-1.63,1.2-2.42,.09-.72-1-.66-2.04,.3-2.9,2.15-1.9,4.32-3.8,6.51-5.66,5.22-4.44,10.85-8.3,17.01-11.32,1.6-.78,3.23-2.1,5.24-.95Z"
       id="path86" />
    <path
       class="cls-22"
       d="M278.91,875.4c-3.99,.95-6.77,3.99-10.16,5.97-1.63,.95-3.07,2.23-4.93,2.77,0,0,.1,.09,.1,.09-1.48-2.5-.87-4.35,1.53-5.98,6.45-4.38,12.83-8.87,19.21-13.36,1.39-.98,2.7-1.22,3.76,.24,.98,1.35,.29,2.48-.92,3.36-1.85,1.34-3.68,2.69-5.53,4.03-.59,.43-1.3,.84-.24,1.53l.09-.04c-1.56-.68-2.64-.4-2.94,1.46l.03-.06Z"
       id="path88" />
    <path
       class="cls-22"
       d="M226.58,838.49c-1.63-.33-1.54-1.46-1.2-2.53,.5-1.6,1.92-2.43,3.18-3.32,6.96-4.94,14.28-9.32,21.58-13.73,1.37-.83,2.78-1.3,3.82,.12,1,1.36,.03,2.59-1.13,3.32-8.43,5.29-17.19,10.03-25.34,15.77-.28,.2-.64,.26-.91,.37Z"
       id="path90" />
    <path
       class="cls-29"
       d="M293.4,919.64c-1.02-.02-1.52-.31-1.85-.86-.52-.88-.22-1.62,.48-2.23,8.24-7.21,17.04-13.61,26.83-18.56,.87-.44,2-.73,2.6,.23,.63,1.02-.3,1.84-1.05,2.39-2.32,1.69-4.67,3.36-7.09,4.89-5.68,3.58-11.08,7.54-16.3,11.76-1.2,.97-2.58,1.71-3.61,2.38Z"
       id="path92" />
    <path
       class="cls-22"
       d="M306.32,879.99c1.25,.07,2.21,0,2.42,1.09,.2,.99-.01,1.92-1,2.47-8.06,4.54-15.09,10.55-22.74,15.69-.86,.58-1.91,1.2-2.78-.17-.73-1.16-.89-2.13,.4-3.08,6.92-5.14,13.49-10.76,21.08-14.94,.93-.51,1.97-.81,2.62-1.06Z"
       id="path94" />
    <path
       class="cls-21"
       d="M423.51,747.51c-10,6.06-20.08,11.98-30.41,17.47,.07-2.39,1.82-3.87,3.16-5.46,6.13-7.25,13.78-11.77,23.41-12.47,1.28-.09,2.64-.35,3.84,.46Z"
       id="path96" />
    <path
       class="cls-2"
       d="M458.76,788.7c-5.11,2.48-10.34,4.6-15.17,7.75-6.5,4.24-13.37,7.91-19.83,12.25-.39,.26-.74,.59-1.11,.88-2.07,1.27-4.37,2.18-6.15,3.91-.43,.42-.96,.92-1.52,.4-.75-.71-.09-1.29,.43-1.75,.97-.85,1.99-1.64,3-2.45,2.97-2.17,5.95-4.35,8.92-6.52h0c.54,.11,.96-.05,1.22-.55,7.9-4.66,15.81-9.32,23.71-13.98,.55,.21,.83,.02,.85-.57l.02,.06c3.57-.85,6.16-3.59,9.46-4.95,.66-.03,1.45-.62,1.9,.26,.4,.78-.09,1.37-.74,1.79-1.4,.91-2.8,1.8-4.21,2.7-.46,.07-.85,.2-.83,.78l.03-.02Z"
       id="path98" />
    <path
       class="cls-22"
       d="M281.73,874.04c2.55-.29,4.34-2.15,6.53-3.18,1.74-.81,3.39-1.8,5.11-2.66,1.41-.7,2.62-.39,3.32,1.05,.71,1.46-.31,2.31-1.38,2.89-6.67,3.58-12.94,7.79-19.2,12.02-.89,.6-2.09,1.58-3.06-.05-.81-1.37-.48-2.51,.76-3.45,1.63-1.24,3.23-2.5,4.85-3.75,.55-.43,1.34-.81,.25-1.51l-.03,.06c1.74,1.03,2.37-.16,2.94-1.46l-.09,.04Z"
       id="path100" />
    <path
       class="cls-22"
       d="M313.13,928.38c-.94,.74-1.85,1.5-2.82,2.2-.87,.63-1.83,1.44-2.77,.18-.72-.97-.69-2,.21-2.91,1.26-1.27,2.42-2.68,3.79-3.82,4.22-3.51,8.5-6.98,12.83-10.36,1.21-.94,2.64-1.63,4.05-2.26,1.17-.52,2.71-1.18,3.49,.31,.71,1.35-.87,1.96-1.63,2.81-.59,.67-2.14,.66-1.6,2.17l.07-.08c-.23-.33-.51-.39-.83-.12-1.99,1.14-4.24,2-5,4.51l.05-.04c-.96-.69-1.32-.15-1.5,.74l.02-.02c-3.25,1.66-5.8,4.2-8.38,6.69Z"
       id="path102" />
    <path
       class="cls-34"
       d="M400.5,787.82c11.6-10.12,24.13-17.3,37.48-23.12-.67,2.34-33.32,22.24-37.48,23.12Z"
       id="path104" />
    <path
       class="cls-20"
       d="M305.56,875.34c-.66,1.57-2.16,2.2-3.47,3-7.28,4.4-14.79,8.47-21.21,14.16-.72,.64-1.63,1.49-2.51,.69-.87-.79-.82-2.09,.09-2.91,7.56-6.8,15.8-12.53,25.46-15.97,.55-.2,1.19-.15,1.62,.42-.17,.2-.16,.41,.01,.62Z"
       id="path106" />
    <path
       class="cls-32"
       d="M436.27,838.91c6.46-6.55,14.1-10.47,22.07-13.84,.95-.4,2.3-.58,2.84,.7,.46,1.11-.51,1.82-1.37,2.22-6.84,3.2-13.38,6.95-19.8,10.92-.95,.59-2.01,.76-3.74,0Z"
       id="path108" />
    <path
       class="cls-29"
       d="M328.69,916.71c1.34,.41,2.19-.7,3.24-1.12,1.11-.45,1.88-.26,2.43,.67,.47,.8,.35,1.73-.46,2.22-6.15,3.7-11.16,8.92-17.16,12.77-2.23,1.43-3.06,.04-2.3-2.28,1.32-1.14,2.78-2.15,3.93-3.44,1.09-1.23,3.45-1.46,3.14-3.84l-.02,.02c1,.78,1.32,.15,1.5-.74l-.05,.04c2.09-.58,3.56-2.08,5.12-3.46,.44-.15,1-.21,.71-.92l-.07,.08Z"
       id="path110" />
    <path
       class="cls-21"
       d="M419.67,753.81c3.34-1.87,6.69-3.74,10.03-5.61,.9,.32,1.85,.55,2.69,.98,1.6,.81,2.91,1.96,2.11,3.97-.73,1.82-2.16,2.13-4.13,1.87-3.56-.46-7.07-1.39-10.7-1.2Z"
       id="path112" />
    <path
       class="cls-28"
       d="M423.37,937.87c.13-.02-.74,.06-1.11-.98-.37-1.04-.12-1.89,.93-2.4,1.83-.89,3.65-1.81,5.5-2.66,.93-.43,2-.54,2.55,.46,.55,1.01,.44,2.2-.68,2.85-1.95,1.14-3.86,2.39-7.2,2.73Z"
       id="path114" />
    <path
       class="cls-32"
       d="M331.36,928.59c-.25,1.9-5.02,4.98-6.61,4.38-1.05-.4-1.61-1.41-1.01-2.32,1.42-2.16,3.41-3.73,6.12-3.88,1.2-.07,1.55,.92,1.51,1.81Z"
       id="path116" />
    <path
       class="cls-21"
       d="M309.2,891.43c1.19-.77,2.33-1.63,3.58-2.29,1.8-.95,2.69-2.27,2.21-4.33,.95,1.21,1.9,2.43,2.85,3.64-.44,.74-.88,1.48-1.32,2.22-2.37,1.17-4.74,2.34-7.11,3.51-.07-.92-.14-1.83-.21-2.75Z"
       id="path118" />
    <path
       class="cls-21"
       d="M300.59,863.95c.67,1.58,2.72,2.19,2.88,4.13-.19,.22-.38,.45-.58,.67,.19,.07,.38,.13,.57,.2h0c-.61,1.22,.73,1.76,.95,2.69-1.89,.29-3.94,.69-5.03-1.37-1.19-2.26,0-4.81-.48-7.2l1.68,.88Z"
       id="path120" />
    <path
       class="cls-30"
       d="M304.41,871.63c-.22-.93-1.56-1.47-.95-2.7,.53,.28,1.07,.56,1.6,.83,2.36,3.1,4.72,6.19,7.08,9.29l-.91,.96c-1.17-1.42-2.39-2.81-3.5-4.27-.66-.88-1.24-1.37-2.17-.4-.17-.21-.18-.42-.01-.62,.84-1.48-.47-2.16-1.14-3.09Z"
       id="path122" />
    <path
       class="cls-16"
       d="M321.51,921.69c.32,2.37-2.05,2.61-3.14,3.84-1.15,1.29-2.61,2.31-3.93,3.44-.44-.2-.88-.39-1.32-.59,2.59-2.49,5.14-5.03,8.38-6.69Z"
       id="path124" />
    <path
       class="cls-30"
       d="M374.19,739.47c.02,.52,.03,1.04,.05,1.56-1.17,1.02-2.47,1.68-4.39,1.33,1.24-1.57,2.71-2.35,4.35-2.89Z"
       id="path126" />
    <path
       class="cls-33"
       d="M315.05,884.87c-1.01-.01-2.02-.02-3.04-.03,.31-.76,.62-1.52,.94-2.28,.7,.77,1.4,1.55,2.1,2.32Z"
       id="path128" />
    <path
       class="cls-33"
       d="M393.14,764.91c.1,.58-.3,.71-.73,.8-.01-.5,.24-.76,.73-.8Z"
       id="path130" />
    <path
       class="cls-30"
       d="M377.81,739.4c.13-.53,.45-.65,.93-.45-.31,.15-.62,.3-.93,.45Z"
       id="path132" />
    <path
       class="cls-33"
       d="M453.11,788.08c-.02,.59-.31,.78-.85,.57,.28-.19,.57-.38,.85-.57Z"
       id="path134" />
    <path
       class="cls-33"
       d="M458.73,788.72c-.03-.58,.37-.71,.83-.78-.14,.41-.19,.9-.83,.78Z"
       id="path136" />
    <path
       class="cls-23"
       d="M428.54,802.63c-.26,.5-.68,.66-1.22,.55,.41-.18,.81-.36,1.22-.55Z"
       id="path138" />
    <path
       class="cls-19"
       d="M514,816.42c-.98,5.33-3.33,10.13-6.23,14.64-.68,1.06-1.99,1.76-3.49,1.24-1.5-.51-1.45-1.92-1.46-3.02-.07-6.36,2.59-11.77,6.2-16.79,.76-1.06,1.86-1,2.89-.41,1.66,.94,2.16,2.48,2.09,4.34Z"
       id="path140" />
    <path
       class="cls-29"
       d="M476.67,826.45c.49-1.53,.97-3.64,1.83-5.58,2.6-5.84,6.44-10.88,10.56-15.71,.54-.63,1.19-1.19,1.85-1.7,1.16-.89,2.67-1.99,3.84-.81,1.42,1.45-.73,2.09-1.4,2.97-5.4,7.02-10.88,13.97-12.87,22.91-.24,1.1-.64,2.13-2.04,2.05-.88-.05-1.78-1.95-1.77-4.13Z"
       id="path142" />
    <path
       class="cls-8"
       d="M315.93,710.69c-5.64,.11-7.81-2.79-6.52-6.51,1.59-4.59,9.6-8.67,14.28-7.28,3.58,1.06,4.84,5.08,2.42,7.99-3.05,3.68-6.98,5.68-10.18,5.79Zm6.06-10.27c-3.56,.54-6.96,1.17-8.86,4.53-.44,.77-1.63,2.55,.83,2.35,3.56-.28,6.68-1.68,9.04-4.5,.48-.57,.98-1.26,.5-1.91-.27-.36-1.05-.35-1.51-.48Z"
       id="path144" />
    <path
       class="cls-27"
       d="M337.55,689.62c.15,1.56-.28,2.36-1.28,2.76-.96,.38-1.59-.18-2.1-.9-1.87-2.64-3.27-5.46-3.3-8.81,0-.87,0-1.7,.95-2.09,.94-.39,1.73,.14,2.19,.78,1.88,2.61,2.98,5.58,3.54,8.25Z"
       id="path146" />
    <path
       class="cls-19"
       d="M282.15,703.33c-2.28-3.06-1.5-11.34,.74-13.14,.6-.48,1.35-.71,2-.34,.98,.56,.98,1.51,.64,2.49-.63,1.79-1.3,3.57-1.87,5.38-.52,1.69-.92,3.41-1.51,5.61Z"
       id="path148" />
    <path
       class="cls-27"
       d="M291.13,700.38c-.17-1.45,.53-2.36,2.02-2.12,3.09,.48,3.46,3.39,4.25,5.6,.48,1.36-1.01,2.31-2.48,2.4-1.61,.11-3.82-3.36-3.79-5.88Z"
       id="path150" />
    <path
       class="cls-17"
       d="M332.31,668.28c2.61,.3,4.76,.97,6.51,2.56,.77,.7,1.19,1.67,.68,2.59-.68,1.22-1.7,.54-2.46,.01-1.5-1.05-3.11-1.72-4.93-1.99-.93-.14-2.06-.41-1.97-1.67,.11-1.5,1.49-1.26,2.16-1.51Z"
       id="path152" />
    <path
       class="cls-25"
       d="M301.46,784.91c5.14,6.75,8.89,14.46,14.46,20.91,1.16,1.34,.06,2.85-.32,4.4-4.73-8.52-10.73-16.13-14.92-24.83,.26-.16,.52-.33,.78-.49Z"
       id="path154" />
    <path
       class="cls-6"
       d="M338.85,772.79c-3.51-2.15-6.58-3.65-10-3.93,.89-.61,1.3-1.49,.83-2.38-.66-1.26-1.33-2.56-2.24-3.63-.75-.89-.72-1.43,.18-1.99,.89-.55,1.5-.32,1.98,.66,.58,1.17,1.29,2.28,1.99,3.38,.31,.49,.66,1.09,1.15,1.33,3.79,1.89,3.8,1.87,6.11,6.56Z"
       id="path156" />
    <path
       class="cls-25"
       d="M310.92,794.16c-3.3-5.08-6.3-9.68-9.27-14.3-.44-.68-1.14-1.63-.28-2.23,1.3-.91,1.53,.58,1.97,1.28,2.39,3.73,4.73,7.5,7.09,11.26,.64,1.02,1.32,2.05,.49,4Z"
       id="path158" />
    <path
       class="cls-25"
       d="M311.07,786.12c-2.15-3.29-4.31-6.56-6.41-9.87-.35-.55-.03-1.13,.62-1.43,.59-.27,1.28-.36,1.58,.24,1.76,3.48,3.44,7,5.15,10.5l-.94,.56Z"
       id="path160" />
    <path
       class="cls-16"
       d="M301.48,793.99c-2.18-3.5-4.35-7.01-6.55-10.5-.54-.86-.12-1.37,.56-1.71,.93-.47,.88,.53,1.09,.93,1.9,3.62,3.75,7.26,5.61,10.9l-.71,.38Z"
       id="path162" />
    <path
       class="cls-16"
       d="M314.24,779.33c-1.55-2.6-2.68-4.51-3.81-6.42-.24-.4-.54-.81-.05-1.24,.44-.39,.89-.28,1.24,.11,1.15,1.29,2.07,2.65,3.74,3.61,1.13,.65-.75,2.12-1.11,3.94Z"
       id="path164" />
    <path
       class="cls-16"
       d="M348.82,786.65c-1.5,.36-2.18-.39-2.45-1.76-.29-1.47-.63-2.93-1.11-5.19,1.91,2.51,3.16,4.47,3.71,6.82l-.15,.13Z"
       id="path166" />
    <path
       class="cls-16"
       d="M295.85,788.76c-.57,.09-.71,.15-.76,.11-1.34-1.26-2.65-2.54-3.07-4.42-.02-.1,.62-.54,.74-.47,1.7,1.02,2.12,2.87,3.09,4.78Z"
       id="path168" />
    <path
       class="cls-30"
       d="M306.94,801.66c2.02,1.38,2.97,3.38,3.36,5.7-1.86-1.49-3.37-3.18-3.3-5.77l-.06,.06Z"
       id="path170" />
    <path
       class="cls-16"
       d="M305.15,800c-1.26-1.76-3.01-3.27-3.19-6.26,1.93,1.92,2.96,3.74,3.8,5.68-.2,.19-.41,.39-.61,.58Z"
       id="path172" />
    <path
       class="cls-25"
       d="M297.53,779.55c2.45,1.14,2.43,2.83,2.99,4.19-1.54-.71-2.14-2.03-2.99-4.19Z"
       id="path174" />
    <path
       class="cls-30"
       d="M332.78,761.23c-1.08-.42-1.62-1.1-1.8-2.08,.21-.18,.42-.47,.53-.43,1.29,.36,1.38,1.33,1.27,2.51Z"
       id="path176" />
    <path
       class="cls-16"
       d="M305.76,799.41c1.02,.42,.47,1.67,1.18,2.25l.06-.06c-.63-.53-1.7-.53-1.85-1.6,.2-.19,.41-.39,.61-.58Z"
       id="path178" />
    <path
       class="cls-30"
       d="M334.51,764.01c-.08,.2-.16,.39-.24,.58-.14-.11-.38-.22-.39-.34-.01-.19,.14-.38,.22-.58,.14,.11,.28,.22,.42,.34Z"
       id="path180" />
    <path
       class="cls-30"
       d="M333.4,762.56c-.06-.08-.16-.17-.15-.24,0-.07,.13-.14,.19-.21,.05,.08,.16,.17,.15,.24,0,.08-.12,.14-.19,.21Z"
       id="path182" />
    <path
       class="cls-25"
       d="M300.68,785.4c-.09-.37-.58-.8-.04-1.11,.58-.33,.66,.26,.82,.62-.26,.16-.52,.33-.78,.49Z"
       id="path184" />
    <path
       class="cls-16"
       d="M348.97,786.52c.16,.1,.33,.19,.49,.29l-.33,.3c-.1-.15-.2-.3-.31-.46l.15-.13Z"
       id="path186" />
    <path
       class="cls-16"
       d="M296.26,789.78c-.18,.09-.33,.19-.5,.23-.06,.01-.15-.15-.23-.23,.16-.08,.31-.19,.48-.22,.06-.01,.16,.14,.26,.22Z"
       id="path188" />
    <path
       class="cls-30"
       d="M303.47,868.94c-.19-.07-.38-.13-.57-.2,.19-.22,.38-.45,.58-.67,0,.29,0,.58,0,.87Z"
       id="path190" />
    <path
       class="cls-16"
       d="M328.05,917.55c-1.55,1.38-3.02,2.88-5.12,3.46,.76-2.51,3-3.37,5-4.51l.12,1.04Z"
       id="path192" />
    <path
       class="cls-16"
       d="M322.98,920.98c-.18,.89-.5,1.51-1.5,.74,.18-.89,.54-1.43,1.5-.74Z"
       id="path194" />
  </g>
</svg>
