<?xml version="1.0" encoding="UTF-8" standalone="no"?>
<svg
   id="Layer_6"
   viewBox="0 0 865 1388"
   version="1.1"
   sodipodi:docname="rosieOnboarding-05.svg"
   inkscape:version="1.2.1 (9c6d41e4, 2022-07-14)"
   xmlns:inkscape="http://www.inkscape.org/namespaces/inkscape"
   xmlns:sodipodi="http://sodipodi.sourceforge.net/DTD/sodipodi-0.dtd"
   xmlns="http://www.w3.org/2000/svg"
   xmlns:svg="http://www.w3.org/2000/svg">
  <sodipodi:namedview
     id="namedview217"
     pagecolor="#505050"
     bordercolor="#ffffff"
     borderopacity="1"
     inkscape:showpageshadow="0"
     inkscape:pageopacity="0"
     inkscape:pagecheckerboard="1"
     inkscape:deskcolor="#505050"
     showgrid="false"
     inkscape:zoom="0.17002882"
     inkscape:cx="438.16102"
     inkscape:cy="694"
     inkscape:window-width="1309"
     inkscape:window-height="456"
     inkscape:window-x="0"
     inkscape:window-y="25"
     inkscape:window-maximized="0"
     inkscape:current-layer="Layer_6" />
  <defs
     id="defs4">
    <style
       id="style2">.cls-1{letter-spacing:0em;}.cls-2{fill:#090909;}.cls-3,.cls-4,.cls-5,.cls-6,.cls-7{font-family:ComicNeue-Regular, 'Comic Neue';}.cls-8{fill:#0a1315;}.cls-9{letter-spacing:-.06em;}.cls-4,.cls-10{letter-spacing:-.02em;}.cls-11{font-size:36px;}.cls-12{font-family:ComicNeue-BoldItalic, 'Comic Neue';}.cls-13{letter-spacing:0em;}.cls-5{letter-spacing:-.07em;}.cls-14{fill:#030303;}.cls-15{fill:#080808;}.cls-16{fill:#bdccd4;}.cls-17{fill:#141414;}.cls-18{fill:#060a0a;}.cls-19{fill:#040809;}.cls-20{fill:#fa99af;}.cls-6{letter-spacing:-.02em;}.cls-21{letter-spacing:-.03em;}.cls-22{fill:#080707;}.cls-23{fill:#030607;}.cls-24{letter-spacing:-.03em;}.cls-25{fill:#091113;}.cls-7{letter-spacing:-.02em;}</style>
  </defs>
  <g
     id="g162">
    <path
       d="M515.07,878.61c7.81,3.81,14.84,8.76,20.92,14.93,7.82,7.95,15.19,16.31,21.38,25.64,.91,1.37,1.63,2.88,2.44,4.32-.22,.47-.44,.94-.65,1.41,.82,3.08,2.9,5.43,4.7,7.91,10,13.74,17.8,28.48,20.85,45.41,1.5,8.34,1.51,16.77,.93,25.14-1.41,20.36-7.01,39.69-15.8,58.01-6.17,12.87-13.24,25.28-23.5,35.53-5.72,5.72-12.16,10.42-19.23,14.31-.07,.08-.21,.19-.19,.25,.05,.19,.16,.36,.25,.54,68,0,135.99-.04,203.99,.08,3.46,0,4.27-.76,4.27-4.25-.1-188.66-.1-377.32,0-565.98,0-3.7-.94-4.41-4.48-4.4-159.7,.1-319.4,.08-479.1,.08h-4.01c1.68,3.08,4.65,4.61,6.57,7.08l-.79,3.75c-4.07-.93-6.44-4.22-8.56-7.2-2.17-3.06-4.47-4.15-7.95-3.66-1.05,.15-2.15-.06-3.23-.1,.09-1.02,.76-2.26-.29-2.97-.98-.66-1.6,.67-2.44,1-.86,.34-1.62,.94-2.43,1.43-3.73,2.8-8.32,3.88-12.44,6.03,4.35,2.85,2.44,6.99,2.4,10.62-.03,2.5-.57,5-1.02,7.48-.45,2.44,.16,3.7,2.9,3.35,.94-.12,1.93,.01,2.73,.7-.24,1.23-.48,2.46-.72,3.69-8.67-.15-9.96-1.63-8.82-10.01,.47-3.43,.9-6.86,1.34-10.29,.26-2.03-2.59-3.91-5.69-3.62-2.5,.23-4.99,.61-7.47,.98-6.53,.97-12.86,0-19.11-1.88l-1.06-.45c-.68-.12-1.05,.1-1.3,.81-1.47,4.08-3.67,7.83-6.03,11.4-2.28,3.44-2.66,6.33,.5,9.27-.27,1.31-.42,2.7-2.15,2.95-1.1-1.24-2.29-2.43-3.29-3.75-1.64-2.16-2.07-4.44-.58-6.96,2.32-3.91,4.41-7.96,6.78-11.84,1.35-2.21,.96-3.51-1.15-4.99-16.62-11.67-23.39-27.74-20.69-47.76,2.17-16.09,8.31-30.37,20.37-41.64,4.94-4.62,10.66-8.08,17.1-10.27,.65,.06,1.24,0,1.62-.63l.13-.19,.23,.05c.36-.15,.71-.3,1.07-.44,.28-.06,.55-.13,.83-.19,.19,0,.33-.07,.42-.23,.68-.17,1.35-.34,2.02-.51,5.4-.7,10.78-1.55,16.2-2.08,6.45-.62,12.79,.77,19.18,1.38,7.29,2.39,14.02,5.91,18.56,12.19,3.76,5.2,5.37,11.58,7.27,17.67,4.81,15.48,3.92,30.62-3.19,45.29-2.01,4.14-4.68,7.79-8.14,10.84-.55,.14-1.17,.34-.73,1.03,.3,.47,.75,.16,1.03-.24,1.2-.02,2.4-.05,3.61-.05,164.81,0,329.62,0,494.43,0,1.32,0,2.64,.08,3.96,.12,.2,.19,.39,.39,.59,.58,.04,1.2,.12,2.4,.12,3.6,0,197.27,0,394.53,0,591.8,0,1.2-.08,2.4-.12,3.6-.2,.19-.39,.39-.59,.58-1.32,.04-2.64,.12-3.96,.12-78.12,0-156.23,.08-234.35-.09-9.38-.02-18.56,.79-27.73,2.54-1.41,.27-2.86,.38-4.3,.4-11.3,.16-22.61,.24-33.92,.43-2.37,.04-4.56-.26-6.38-1.86-1.81-1.59-3.96-1.44-6.12-1.44-104.84,.01-209.68,0-314.51,0-1.44,0-2.88-.08-4.32-.12-.2-.19-.39-.39-.59-.58-.04-1.2-.12-2.4-.12-3.6,0-197.27,0-394.53,0-591.8,0-1.2,.08-2.4,.12-3.6,.2-.19,.39-.39,.59-.58,13,0,26,0,39.01,0-.32,1.76-.56,3.54-.97,5.28-.31,1.28-1.12,2.83,.21,3.63,1.76,1.06,2.38-.92,3.3-1.91,.2,.09,.29,.24,.29,.46-1.08,1.63-.54,3.46-.66,5.22-7.82,.05-15.64,.25-23.45,.08-2.76-.06-3.31,.72-3.31,3.37,.09,48.77,.06,97.53,.06,146.3,0,140.16,.01,280.31-.08,420.47,0,3.5,.63,4.52,4.38,4.51,47.18-.16,94.36-.16,141.54,0,3.81,.01,5.15-.95,5.88-4.74,6.62-34.23,16.53-67.55,28.21-100.35,6.72-18.86,14.47-37.35,19.72-56.71,2.38-8.75,3.99-17.67,5.35-26.63,.44-2.87-.03-5.33-2.29-7.81-22.08-24.18-39.17-51.26-48.41-83.02-5.65-19.42-6.96-39.05-4.97-59.07,1.18-11.93,1.4-23.96,3.79-35.76,1-4.92,2.03-9.84,3.05-14.76,1.32-.37,1.54-.87,.18-1.56,.53-8.93-.06-17.82-.97-26.7-.22-2.12-.07-4.28-.09-6.43,.98,0,1.95-.02,2.93-.03,2.38,5.35,2.24,11.14,2.72,16.77,1.13,13.24-.64,26.22-3.22,39.24-1.74,8.77-1.82,17.88-2.44,26.85-.38,5.51-.7,11.03-.88,16.56-.76,22.27,4.45,43.18,12.82,63.66,9.63,23.54,24.33,43.51,41.2,62.14,.64,.7,1.21,1.46,1.81,2.2-.23,1.6-.47,3.19-.7,4.79-.92,22.85-7.64,44.35-15.64,65.49-12.17,32.15-22.32,64.92-30.92,98.17-2.12,8.21-3.55,16.59-5.38,24.88-.42,1.91-.25,2.75,2.09,2.75,36.32-.09,72.64-.09,108.95-.11,.36,.48,.92,.89,1.12,.07,.16-.67-.67-.66-1.2-.71-15.28-5.95-27.48-15.68-36.53-29.41-6.5-9.84-11.43-20.24-12.87-32.12-.62-5.17,.56-9.77,3.44-13.94,2.59-3.76,6.31-5.67,10.87-4.67,2.41,.53,2.84-.35,2.86-2.29,.08-.06,.23-.14,.22-.19-.03-.17-.11-.33-.18-.5,.57-4.06,.44-8.23,1.85-12.18,.39-1.1,.49-2.3,1.6-3,1.64,0,3.27-.01,4.91-.02,8.41-.34,16.79,.25,25.16,.88,3.03,.23,6.4,.03,9.03,1.79,1.56,1.04,2.42,.86,3.73-.01,3.69-2.47,7.47-4.8,11.14-7.29,1.09-.74,2.64-1.26,2.65-3.15-11.77-.62-23.19-4.07-35.02-3.25-.19-1.37,.41-2.59,.74-3.86,6.63-1.02,13.09,.52,19.58,1.39,3.9,.52,7.77,1.15,11.71,1.34,5.29,.25,7.21,2.16,6.85,6.39-1.76,.17-2.13,1.32-1.98,2.84l-.12,.13c-4.86,3.27-9.65,6.66-14.62,9.76-1.96,1.23-2.57,2.58-2.76,4.86-.49,6.02-.85,12.09-3.8,17.66-1.17,2.21,1.13,3.93,2.08,5.63,.64,1.14,1.7-.61,2.58-1.03,1.51-.72,2.94-1.61,4.42-2.39,1.34-.7,2.63-.72,3.32,.85,.68,1.56-.25,2.42-1.57,3.1-1.38,.71-2.68,1.58-4.03,2.37-2.13,1.25-2.41,2.7-1.28,5.03,2.24,4.63,5.54,8.53,8.22,12.84,.7,1.12,2.31,1.68,3.54,1.15,.95-.41,.3-1.72,.18-2.63-.13-.94-.5-1.88-.5-2.81-.01-10.21,.03-20.42,.06-30.64,1.22-.09,1.92-.72,2.05-1.96,.3-.31,.6-.62,.89-.93l2.72-.73c2.93,0,5.85,.01,8.78,.02,.72-.02,1.49,.12,2.01-.59,3.31-.44,6.62-1.03,9.94-1.28,3.54-.27,7.59-1.58,10.45,.8,2.19,1.83,4.17,1.68,6.46,1.78,1.66,.07,3.31-.75,4.97-.03,.38,1.2,.18,2.87,1.61,3.28,.88,.25,1.22-.91,1.25-1.81,.68-1.49,2.1-3.1,1.9-4.46-.77-5.23,.9-10.06,1.7-15.04q1.09-6.72-5.75-7.32c-.11-.72-.34-1.33-1.24-1.23-.71,.08-.82,.65-.93,1.21-4.57,0-9.15,0-13.72,0,0-1.18,0-2.35,0-3.53,7.41-1.09,14.81,.05,22.22,.16,1.3,.02,2.72,1.06,2.87,2.39,.58,5.18,4.47,8.29,7.19,12.14,.4,.57,.66,1.24,.98,1.87-.31,1.19-.63,2.37-.94,3.56-3.09-2-4.26-5.61-6.86-8.32-1.14,2.83-1.26,5.67-1.65,8.44-.16,1.13,.09,1.83,1.52,1.58,2.87-.51,5.87-.31,8.61-1.54l-.09,.04c5.51-.29,10.91-1.36,16.18-2.88,3.29-.95,6.02-.49,8.77,1.37,1.45,.98,3.15,1.6,4.74,2.39,.3,1.55-1.05,2.41-1.52,3.64-1.34-.12-2.64-.58-3.58-1.45-2.65-2.47-5.62-2.61-8.87-1.65-2.85,.84-5.76,1.36-8.73,1.54l-1.08,.37-10.15,1.67c-.1-.05-.2-.11-.31-.16,.1,.06,.2,.11,.3,.17,.74,1.09,2,1.12,3.07,1.51,6.86,2.47,13.55,5.32,19.84,9.01,1.92,1.13,3.21,1.16,4.91-.38,1.85-1.66,4-3.58,6.42-.59,.15,1.76-.65,2.88-2.18,3.75-1.73,.99-4.24,1.88-4.81,3.41-2.73,7.26-7.9,13.04-11.28,19.87l.15,.18c2.18-.59,4.34-1.39,6.56-1.72,5.71-.86,8.4-4.64,9.57-9.76,1.19-5.23,2.06-10.53,3.06-15.79,.72-3.37,1.43-6.75,2.15-10.12,1.49-9.41,1.88-18.89,1.51-28.38-.4-10.19-1.41-20.33-2.55-30.46-.16-1.4-.64-2.83,.24-4.17,.97,.02,1.93,.05,2.9,.07,1.92,5.34,2.2,10.99,2.93,16.52,1.62,12.29,1.9,24.66,1.63,37.06-.2,9.3-2.38,18.24-4.06,27.28-.85,4.56-1.15,9.27-3.07,13.57-1.87,4.21-2.97,8.49-9.42,8.84-6.27,.34-12.41,2.98-18.64,4.46-13.34,3.17-26.94,4.22-40.58,5.02-9.25,.54-18.4,.95-27.64-.61-7.6-1.28-13.1-4.8-16.47-11.68-2.92-5.95-5.83-11.92-8.73-17.88-.47-.97-.84-2.31-1.95-2.38-1.52-.1-1.59,1.58-2.09,2.59-1.92,3.9-1.95,8.1-1.81,12.32,.07,1.95,.04,3.92-2.02,5.02-1.98,1.05-3.45-.23-4.91-1.23-7.28-4.97-12.3-12.07-17.68-18.83-1.88-2.36-3.85-4.6-6.48-6.18-2.75-1.65-5.04-1.08-6.92,1.37-2.95,3.86-3.88,8.33-2.85,12.94,5.29,23.68,18.22,41.47,40.46,52.04,6.04,2.87,12.25,5.17,18.6,7.21,1.74,.56,3.49,.71,5.29,.71,28.89,0,57.78,.03,86.66-.04,6.29-.01,11.84-2.77,17.21-5.63,12.36-6.58,21.98-16.2,29.72-27.79,12.65-18.96,20.92-39.78,25.59-61.99,6.2-29.52,.3-56.47-17.9-80.69-3.27-4.35-5.78-9.28-8.64-13.94,.92-.73,.56-1.15-.35-1.43-.62-2.83-2.7-4.76-4.38-6.88-8.53-10.76-17.54-21.02-29.37-28.42-6.3-3.94-12.76-7.03-20.42-6.63-2.58,.14-4.44-.69-4.72-3.59,1.31-.04,1.44-.94,1.41-1.95,11.61-1.15,23.33-1.31,34.66-4.72,18.77-5.64,34.04-16.17,45.99-31.7,14.16-18.41,22.74-39.04,25.62-62.12,2.69-21.47-3.42-40.84-13.54-59.34-1.21-2.2-2.1-4.8-3.87-6.42-4.13-3.8-7.07-8.72-11.64-12.07-.22-1.32,.88-3.05-1.18-3.81-15.04-10.99-31.76-17.58-50.33-19.56-31.49-3.35-60.59,2.62-85.83,22.56-19.75,15.6-33.71,35.7-43.91,58.62-5.13,11.53-8.33,23.5-10.02,35.95-1.03,7.6,4.89,13.54,12.51,12.61,1.66-.2,3.37-.3,5.04-.19,1.66,.11,3.09,.9,3.19,2.78,.09,1.72-1.11,2.5-2.65,2.9-6.47,1.65-12.52,1.02-18.21-3.73,.15,10.63,2.69,19.94,7.91,28.64,5.94,9.91,14.64,16.57,24.52,22.01,1.85,1.02,3.82,1.93,5.19,3.66v4.11c-1.05,1.03-2.18,.79-3.31,.19-12.79-6.9-24.58-14.84-32.09-27.94-7.5-13.09-9.65-27.19-8.35-41.85,3.65-41.15,23.23-74.12,53.48-101.11,11.7-10.44,25.31-18.18,40.84-21.89,.88,.98,1.2,.37,1.42-.5,8.29-2.19,16.67-3.8,25.29-3.87,1.04,.95,2.02,1.13,2.88-.23,8.44-1.22,16.8-.08,25.1,1.17,16.1,2.43,31.07,7.94,44.68,17.06,5.77,3.87,10.17,8.81,14.24,14.45,3.83,5.32,8.04,10.34,11.2,16.13,9.21,16.88,14.89,34.89,14.12,54.13-1.06,26.58-10.11,50.55-26.32,71.83-15.08,19.78-34.91,31.34-59.19,35.67-1.76,.31-3.53,.58-5.29,.87-.53-.02-1.23-.28-1.47,.37-.3,.82,.48,.78,.98,.92Zm-33.26,151.84c-.12-1.01-.26-1.98-1.46-.69-.88,.56-1.02,1.57-1.41,2.42-4.31,9.47-8.47,19.02-13,28.39-1.44,2.98-2.99,5.44,.4,7.94-.78,.31-1.77,.65-1.5,1.64,.24,.89,1.07,.68,1.72,.21,5.33-.58,10.66-1.16,15.99-1.75,.23-.13,.46-.25,.69-.38,.58-.11,1.16-.22,1.74-.32,5.66-.99,11.57-.86,13.58-8.55,1.1-4.2,4.46-7.84,6.95-11.64,3.13-4.79,3.2-4.75-1.98-7.31-.21-.11-.44-.18-.66-.28-7.02-3.23-14.04-6.46-21.06-9.69Zm-23.87,11.65c-.05-1.97,.51-3.98-.34-5.9-.05-2.27-.88-3.17-3.45-3.1-8.4,.23-16.61,2.44-25.04,2.26-2.12-.05-2.17,1.88-2.14,3.43,.21,10.22,.48,20.43,.67,30.65,.03,1.33,.43,1.9,1.8,2.09,9.8,1.36,19.49,.28,28.92-.85-2.03-9.68,.51-19.17-.42-28.57ZM157.92,500.77c.63,14.65,5.84,26.61,17.79,34.74,9.92,6.75,21.36,7.27,32.48,4.4,12.47-3.22,23.84-9.23,33.52-17.97,4.88-4.4,8.61-9.63,10.85-15.89,2.64-7.37,4.94-14.92,4.42-22.75-.43-6.46-2.15-12.82-4.06-19.1-3.01-9.92-8.88-17.02-18.61-20.64-7.32-2.73-14.95-2.67-22.67-2.13-11.94,.84-22.84,4.59-32.01,12.17-14.83,12.26-20.39,28.97-21.71,47.18Zm231.6,556.17c-.56-5.23,.34-9.77,2.39-14.09,1.88-3.98,4.55-5.45,8.71-4.21,1.47,.44,1.99,.23,2.27-1.01,1.16-5.14,1.92-10.34,2.41-15.59,.16-1.73-.37-2.35-2.29-2.65-10.12-1.62-20.36-1.04-30.5-2.06-1.85-.19-2.34,.98-2.52,2.31-.58,4.15-1.03,8.32-1.53,12.49-.14,1.15,.21,1.98,1.14,2.81,3.79,3.36,6.51,7.69,9.85,11.44,3.11,3.5,4.81,8.35,10.07,10.57Zm79.48-15.11c-3.21,1.3-4.37-1.78-6.5-2.6v16.24c.16,.04,.32,.08,.48,.12,1.94-4.43,3.88-8.87,6.02-13.76Zm-3.12-6.3c1.31,1.92,3.39,2.86,3.14,6.2,1.51-2.71,2.59-4.22,2.84-6.2h-5.98Zm-3.75,34.83c.02,.08,0,.19,.05,.22,.07,.05,.18,.04,.27,.06l-.07-.38-.25,.1Z"
       id="path6" />
    <path
       class="cls-15"
       d="M295.58,463.09c6.17-10.01,9.74-20.36,11.07-31.46,1.37-11.46,.67-22.81-1.82-34.08-.42-1.91-1.36-2.34-3.2-2.43-47.36-2.38-94.74-4.08-142.16-4.27-9.17-.04-18.21-1.16-26.97-4.13-14.92-5.06-22.77-15.68-24.79-31.03-1.47-11.16-.43-22.37-.74-33.55-1.79-64.88-2.53-129.76-2.17-194.66,.06-10.78,1.07-21.41,4.56-31.64,7.65-22.44,24.08-34.22,46.88-38.06,14.59-2.46,29.3-1.39,43.96-1.29,63.66,.42,127.32,1.06,190.98,1.6,88.33,.74,176.66,1.46,265,2.17,23.35,.19,46.69,.26,70.04,.47,9.64,.09,19.22,.93,28.56,3.56,16.94,4.77,24.53,14.32,25.23,31.97,.23,5.89,.08,11.8,.09,17.7,0,71.88,0,143.77,0,215.65,0,11.96-.93,23.8-4.87,35.21-6.44,18.66-19.89,28.69-39.62,29.7-8.55,.43-17.09,0-25.63,0-122.41,0-244.81,.02-367.22-.07-3.11,0-4.15,.78-4.69,3.94-3.15,18.25-9.54,35.22-21.2,49.84-5.46,6.85-11.99,12.35-21.29,14.86Zm11.89-11.56c3.59-2.73,6.36-6.22,8.88-9.88,9.93-14.42,15.61-30.5,18.07-47.73,.43-2.99,1.29-3.84,4.39-3.84,123.98,.09,247.95,.08,371.93,.08,8.06,0,16.14,.29,24.18-.05,19.03-.81,30.84-10.02,36.63-28.13,3.3-10.31,4.18-20.96,4.19-31.7,.02-72.13,.01-144.26,0-216.38,0-5.9,.18-11.81-.09-17.7-.7-15.65-6.95-23.39-22.01-27.67-10.17-2.89-20.6-3.42-31.09-3.49-22.26-.13-44.53-.22-66.79-.4-87.97-.71-175.95-1.43-263.92-2.17-63.78-.54-127.56-1.18-191.35-1.61-14.54-.1-29.13-1.16-43.6,1.28-22.69,3.82-38.21,15.93-44.51,38.62-2.49,8.99-3.17,18.2-3.23,27.51-.42,65.14,.48,130.27,2.17,195.39,.27,10.46-.63,20.94,.7,31.39,1.74,13.68,8.67,23.16,21.94,27.63,4.91,1.65,9.98,2.64,15.13,3.18,11.4,1.2,22.85,.56,34.27,.78,40.55,.77,81.08,2.24,121.59,4.18,2.81,.13,3.02,1.79,3.48,3.59,4.82,18.88,4.62,37.6-1.74,56.13-.3,.55-.78,1.09-.19,1.69,.04,.04,.62-.46,.95-.7Z"
       id="path8" />
    <path
       class="cls-22"
       d="M286.91,688.56c-.98,0-1.95,.02-2.93,.03,.47-1.66-.63-1.96-1.86-2.3-6.26-1.69-9.51-5.98-11.35-12.08-1.99-6.57-5.39-12.74-4.87-19.92,.03-.44,.36-1.37-.64-1.24-6.19,.8-6.53-4.52-7.04-7.93-1.5-10-3.36-19.98-3.92-30.12-.13-2.34-.77-4.65-1.87-6.8-1.43-2.8-.67-5.28,2.29-6.29,11.33-3.84,22.72-7.49,34.08-11.23,1.74-.57,3.64-.53,4.73,.75,2.71,3.19,6.57,4.37,10.1,5.79,5.97,2.4,11.34,5.99,17.35,8.29,3.42,1.31,5.8,8.86,4.23,12.11-.55-.18-1.14-.58-1.66-.5-2.77,.42-3.77-1.03-3.99-3.49-.12-1.33-.41-2.53-1.66-3.4-6.47-4.48-13.76-7.38-20.95-11.28,1.3,5.98,2.63,11.42,3.63,16.91,.61,3.34,2.28,4.31,5.6,4.39,6.49,.15,13.03-1.95,19.47,.37,10,3.66,12.3,12.62,14.6,21.47,2.95,11.34,1.79,22.83,1.25,34.36-.82,17.43-6.92,34.05-7.43,51.47-.3,10.32,0,20.65,1.08,30.94,1.23,11.76,2.99,23.41,6.28,34.81,4.13,14.33,12.24,26.14,23.15,35.99,6.02,5.43,11.32,11.83,18.91,15.39,1.43,.67,2.4,1.98,1.38,3.87-.99,1.83-2.43,1.27-3.7,.74-4.23-1.78-8.11-4.17-11.31-7.47-6.5-6.72-14.11-12.25-19.83-19.83-10.48-13.85-16.05-29.37-18.61-46.47-1.77-11.87-3.98-23.59-3.4-35.66,.59-12.21,2.16-24.28,3.91-36.38,1.64-11.33,3.65-22.62,4.18-34.14,.35-7.8,.81-15.52-.12-23.3-.95-7.89-4.44-14.49-10.01-19.93-1.31-1.28-3.71-1.79-5.67-1.96-3.82-.33-7.69-.3-11.53-.17-2.67,.09-3.37,1.5-2.99,4.3,1.49,11.11,.63,21.72-7.23,30.74-3.06,3.51-7.2,3.12-11.05,3.89-.58,.12-1.2-.16-1.37-.87-1.07-4.39-4.24-8.07-4.34-12.78-.07-3.16-2.06-4.78-4.77-4.88-2.75-.1-4.7,1.81-5.27,4.54-1.06,5.08-1.48,10.17,.51,15.19,1.58,3.97,3,8.01,4.49,12.02,.62,1.65,1.71,2.84,3.39,3.44,2.01,.72,4.01,1.45,6.02,2.17,1.88,.68,4.11,.99,4.42,3.54,.34,2.83-2.83,1.44-3.66,2.92Zm-24.75-52.07c.62,3.18-.54,6.54,.8,9.64,.52,1.22,.99,1.99,2.47,2.1,1.73,.13,1.52-1.24,1.86-2.08,1.87-4.65,4.65-6.71,9.4-5.86,2.46,.44,5.15-2.24,7.34,.61,.05,.06,.43-.15,.66-.22,3.88-1.22,7.78-2.4,11.64-3.7,.93-.31,2.34-.55,2.1-2.04-.55-3.43,.26-7.1-.41-10.23-1.79-8.34-3.44-16.73-5.56-25.01-1.12-4.38-1.38-4.54-5.77-3.06-9.48,3.18-18.95,6.45-28.69,8.73-2.17,.51-1.88,1.02-1.33,2.71,3.01,9.24,4.74,18.73,5.5,28.39Zm22.66,7.99c.63,2.5,1.37,5.21,1.98,7.95,.82,3.66,2.83,5.02,6.65,4.27,1.84-.36,3.34-.27,2.9-2.73-.2-1.1,.78-1.65,1.23-2.46,1.72-3.11,3.11-6.33,3.1-10.01-5.44,.55-10.06,4.59-15.85,2.97Z"
       id="path10" />
    <path
       class="cls-16"
       d="M496.69,1025.4c2.97-.18,5.88-.69,8.73-1.54,3.25-.96,6.22-.82,8.87,1.65,.94,.87,2.24,1.34,3.58,1.45,1.5,1.08,2.27-.05,3.09-1.02,.65,.29,1.3,.58,1.95,.87-.72,3.37-1.43,6.75-2.15,10.12-.36,.02-.72,.04-1.08,.06-2.42-2.99-4.57-1.08-6.42,.59-1.7,1.53-3,1.5-4.91,.38-6.29-3.69-12.98-6.54-19.84-9.01-1.08-.39-2.34-.42-3.07-1.51h0c3.38-.56,6.77-1.12,10.15-1.68,.36-.12,.72-.25,1.08-.37Z"
       id="path12" />
    <path
       class="cls-16"
       d="M325.64,620.61c-6.44-2.32-12.98-.22-19.47-.37-3.32-.08-4.99-1.05-5.6-4.39-1.01-5.5-2.33-10.94-3.63-16.91,7.19,3.91,14.48,6.8,20.95,11.28,1.25,.87,1.55,2.07,1.66,3.4,.21,2.46,1.22,3.91,3.99,3.49,.51-.08,1.1,.32,1.66,.5,.15,1,.3,2,.45,3Z"
       id="path14" />
    <path
       class="cls-2"
       d="M398.78,761.36c-.27-.92,.35-1.89,.81-2.81,3.99-8.04,9.79-14.94,14.38-22.62,.46-.76,1.09-1.25,2.09-.86,.99,.39,1.58,1,1.61,2.11,.03,1.12-.36,2.09-.88,3.05-4.29,7.82-10.04,14.76-13.8,22.9-.52,1.13-1.46,1.49-2.66,1.29-1.73-.29-1.37-1.68-1.55-3.06Z"
       id="path16" />
    <path
       d="M443.57,1002.25c3.37,0,6.74,0,10.11-.01,.05,2.14-1.02,2.41-2.97,2.27-1.64-.12-3.84-1.39-4.97,1.14-1.67-.1-2.41,.47-2.56,2.36-.52,6.81-.7,13.69-3.04,20.23-.77-.02-1.53-.04-2.3-.06-.04-.23-.08-.45-.12-.68,.01-1.46,.03-2.91,.04-4.37,1.07-6.25,.89-12.69,2.92-18.8,1.51,.07,2.74-.25,2.89-2.08Z"
       id="path18" />
    <path
       class="cls-2"
       d="M426.58,752.95c.9-5.62,4.33-9.15,8.5-12.09,.97-.68,2.12-.2,2.91,.65,.73,.79,.69,1.77,.24,2.69-1.75,3.57-3.26,7.25-5.78,10.42-1.15,1.44-2.19,2.39-4.17,1.93-2.44-.57-.77-2.69-1.71-3.6Z"
       id="path20" />
    <path
       class="cls-14"
       d="M390.85,998.1c-.33,1.27-.93,2.49-.74,3.86-6.67,2-11.72,6.46-16.69,11.04-1.64,0-3.27,.01-4.91,.02,5.49-6.04,12.29-10.33,19.23-14.42,.89-.52,2-.78,3.11-.5Z"
       id="path22" />
    <path
       d="M430.41,1010.11c-.69,6.26-1.38,12.52-2.06,18.78-2.91-.62-1.43-3.55-2.66-5.06-.64-4.64,.62-9.11,1.21-13.64l.12-.13c1.13,.02,2.26,.04,3.4,.06Z"
       id="path24" />
    <path
       class="cls-17"
       d="M450.04,739.83c-.16,.71-.38,1.64-.59,2.57-.25,1.13-.77,2.22-2.03,2.12-1.31-.11-1-1.47-1.12-2.34-.39-2.97-.69-5.92-2.48-8.53-.52-.76-.82-2.24,.34-2.88,.95-.52,1.76,.43,2.47,1.07,2.3,2.06,2.99,4.82,3.4,7.98Z"
       id="path26" />
    <path
       class="cls-14"
       d="M233.02,437.84c-6.38-.62-12.73-2-19.18-1.38-5.42,.52-10.81,1.37-16.2,2.08,7.95-3.14,16.24-3.47,24.58-2.69,3.62,.34,7.37,.4,10.8,1.99Z"
       id="path28" />
    <path
       class="cls-14"
       d="M155.76,531.71c-.92,.99-1.53,2.98-3.3,1.91-1.33-.8-.52-2.35-.21-3.63,.42-1.74,.66-3.52,.97-5.28,.45-.02,1.18-.27,1.23,.29,.17,1.92-.26,4,1.91,5.2,.06,.03-.39,.99-.6,1.51Z"
       id="path30" />
    <path
       class="cls-14"
       d="M155.39,537.38c.13-1.75-.41-3.59,.66-5.22,.27,.23,.56,.67,.81,.65,2.31-.22,4.12,.7,4.08,3.02-.06,2.93-2.62,1.37-4.12,1.67-.45,.09-.95-.07-1.42-.12Z"
       id="path32" />
    <path
       class="cls-14"
       d="M445.73,1005.65c1.14-2.53,3.33-1.25,4.97-1.14,1.95,.14,3.02-.13,2.97-2.27,.72-.04,1.44-.07,2.17-.11,0,1.18,0,2.35,0,3.53-3.37,0-6.74,0-10.11,0Z"
       id="path34" />
    <path
       class="cls-14"
       d="M228.73,536.88c.81-.49,1.57-1.08,2.43-1.43,.83-.33,1.46-1.67,2.44-1,1.04,.71,.38,1.95,.29,2.97-1.76,.22-3.5,.28-5.15-.54Z"
       id="path36" />
    <path
       class="cls-14"
       d="M425.69,1023.83c1.23,1.51-.25,4.44,2.66,5.06,.02,.48,.04,.96,.07,1.45l-2.72,.73c0-2.41,0-4.82,0-7.23Z"
       id="path38" />
    <path
       class="cls-14"
       d="M172.78,567.9c1.72-.25,1.87-1.65,2.15-2.95,1.42,.92,2.07,2.2,.8,3.53-.97,1.02-2.18,.72-2.95-.58Z"
       id="path40" />
    <path
       class="cls-14"
       d="M222.56,568.73c.24-1.23,.48-2.46,.72-3.69,1.49,.02,2.21,.87,2,2.25-.23,1.55-1.49,1.57-2.72,1.44Z"
       id="path42" />
    <path
       class="cls-14"
       d="M430.41,1010.11c-1.13-.02-2.27-.04-3.4-.06-.15-1.51,.22-2.66,1.98-2.84,.58,.91,1.94,1.44,1.42,2.89Z"
       id="path44" />
    <path
       class="cls-14"
       d="M520.97,1025.94c-.82,.97-1.59,2.11-3.09,1.02,.47-1.23,1.82-2.08,1.52-3.64,1.26,.43,1.35,1.56,1.57,2.61Z"
       id="path46" />
    <path
       class="cls-14"
       d="M253.62,548.37l.79-3.75c1.47,.37,1.73,1.5,1.45,2.7-.26,1.1-1.23,1.24-2.24,1.05Z"
       id="path48" />
    <path
       class="cls-14"
       d="M338.22,920.77c.23-1.6,.47-3.19,.7-4.79,2.36,1.98,1.71,3.51-.7,4.79Z"
       id="path50" />
    <path
       class="cls-14"
       d="M488.17,1022.24c.31-1.19,.63-2.37,.94-3.56,1.53,1.05,1.17,2.39,.6,3.77l.09-.04-1.63-.17Z"
       id="path52" />
    <path
       class="cls-14"
       d="M443.57,1002.25c-.15,1.83-1.38,2.14-2.89,2.08,.18-1.79,1.06-2.58,2.89-2.08Z"
       id="path54" />
    <path
       class="cls-14"
       d="M416.84,863.2v-4.11c1.36,1.37,2.24,2.74,0,4.11Z"
       id="path56" />
    <path
       class="cls-14"
       d="M569.46,692.86c2.05,.76,.95,2.49,1.18,3.81-1.93-.8-.73-2.56-1.18-3.81Z"
       id="path58" />
    <path
       class="cls-14"
       d="M497.03,666c-.86,1.35-1.84,1.18-2.88,.23,.94-.34,1.89-.6,2.88-.23Z"
       id="path60" />
    <path
       class="cls-14"
       d="M437.84,1028.17c.77,.02,1.53,.04,2.3,.06-.31,.51-.63,1.02-.94,1.53-.52,.71-1.28,.58-2.01,.59,1.01-.49,.61-1.41,.65-2.19Z"
       id="path62" />
    <path
       class="cls-14"
       d="M525.02,963.87c-.97-.02-1.93-.05-2.9-.07,1.02-2.19,1.97-1.56,2.9,.07Z"
       id="path64" />
    <path
       class="cls-14"
       d="M493.41,873.05c.03,1.01-.09,1.91-1.41,1.95-.43-1.3,.14-1.87,1.41-1.95Z"
       id="path66" />
    <path
       class="cls-14"
       d="M437.77,1023.13c-.01,1.46-.03,2.91-.04,4.37-.93-1.47-.85-2.92,.04-4.37Z"
       id="path68" />
    <path
       class="cls-22"
       d="M285.04,721.71c1.36,.68,1.14,1.18-.18,1.56l.18-1.56Z"
       id="path70" />
    <path
       class="cls-14"
       d="M468.85,670.09c-.22,.87-.54,1.48-1.42,.5l1.42-.5Z"
       id="path72" />
    <path
       class="cls-14"
       d="M247.82,524.63c-.28,.4-.73,.71-1.03,.24-.44-.69,.18-.89,.73-1.03l.3,.79Z"
       id="path74" />
    <path
       class="cls-14"
       d="M550.89,920.51c.92,.28,1.27,.7,.35,1.43-.25-.45-.67-.85-.35-1.43Z"
       id="path76" />
    <path
       class="cls-14"
       d="M515.07,878.61c-.49-.14-1.27-.1-.98-.92,.24-.65,.93-.39,1.47-.37-.16,.43-.33,.86-.49,1.3Z"
       id="path78" />
    <path
       class="cls-14"
       d="M397.25,1111.3c.53,.05,1.36,.04,1.2,.71-.2,.82-.76,.41-1.12-.07,.04-.22,.02-.44-.08-.64Z"
       id="path80" />
    <path
       class="cls-14"
       d="M192.95,440.05c-.38,.63-.98,.69-1.62,.63,.39-.61,.99-.67,1.62-.63Z"
       id="path82" />
    <path
       class="cls-14"
       d="M559.15,924.92c.22-.47,.44-.94,.65-1.41,.38,.41,.99,.8,.54,1.41-.14,.19-.78,.01-1.19,0Z"
       id="path84" />
    <path
       class="cls-14"
       d="M195.62,439.05c-.09,.16-.23,.24-.42,.23l.14-.29,.27,.06Z"
       id="path86" />
    <path
       class="cls-14"
       d="M365.06,1028.19c.06,.17,.15,.33,.18,.5,0,.05-.14,.13-.22,.19l.04-.69Z"
       id="path88" />
    <path
       class="cls-14"
       d="M181.76,543.47l1.06,.45c-.47,.12-.83,0-1.06-.45Z"
       id="path90" />
    <path
       class="cls-14"
       d="M750.4,525.28c-.2-.19-.39-.39-.59-.58,.51-.12,.7,.08,.59,.58Z"
       id="path92" />
    <path
       class="cls-14"
       d="M194.38,439.47c-.36,.15-.71,.3-1.07,.44,.24-.43,.61-.56,1.07-.44Z"
       id="path94" />
    <path
       class="cls-14"
       d="M114.22,524.7c-.2,.19-.39,.39-.59,.58-.11-.5,.08-.7,.59-.58Z"
       id="path96" />
    <path
       class="cls-14"
       d="M527.17,1112.02c-.09-.18-.2-.35-.25-.54-.02-.06,.12-.17,.19-.25l.06,.79Z"
       id="path98" />
    <path
       class="cls-14"
       d="M113.63,1124.28c.2,.19,.39,.39,.59,.58-.51,.12-.7-.08-.59-.58Z"
       id="path100" />
    <path
       class="cls-14"
       d="M749.81,1124.86c.2-.19,.39-.39,.59-.58,.11,.5-.08,.7-.59,.58Z"
       id="path102" />
    <path
       class="cls-20"
       d="M157.92,500.77c1.32-18.21,6.88-34.93,21.71-47.18,9.18-7.58,20.07-11.34,32.01-12.17,7.71-.54,15.34-.6,22.67,2.13,9.73,3.63,15.6,10.72,18.61,20.64,1.91,6.29,3.63,12.64,4.06,19.1,.52,7.83-1.78,15.38-4.42,22.75-2.24,6.26-5.98,11.49-10.85,15.89-9.68,8.74-21.06,14.76-33.52,17.97-11.12,2.87-22.56,2.35-32.48-4.4-11.95-8.13-17.16-20.09-17.79-34.74Zm60.76,5.65c-3.36,.26-6.54,.09-8.04,3.53-1.07,2.45,.33,6.86,2.81,9.13,3.49,3.2,10.26,4.05,14.55,1.82,4.01-2.07,4.65-4.79,2.66-8.9-2.63-5.46-7.88-4.51-11.99-5.58Zm-36.56-3.65c-.58,1.44,.4,3.13,.77,4.85,1.87,8.69,5.51,16.52,11.85,22.92,1.08,1.09,2.43,1.88,3.78,.6,1.24-1.18,.55-2.46-.47-3.44-6.62-6.36-9.91-14.47-12.11-23.14-.38-1.5-.56-3.06-.82-4.6-.16-.96-.69-1.51-1.68-1.52-1.19-.01-1.28,.87-1.31,1.73-.03,.72,0,1.44,0,2.61Zm34.07-9.09c0-1.5-.23-3.04-1.85-3.52-1.87-.56-2.71,.77-3.46,2.29-.69,1.4-1.4,2.75-1.58,4.32-.18,1.59-.19,3.36,1.55,3.92,1.81,.57,3.13-.5,3.94-2.26,.71-1.53,1.43-3.01,1.4-4.74Zm25.92,5.24c.09-1.12-.3-2.05-1.3-2.35-1.1-.33-2.51-.76-3.3,.41-1.25,1.86-2.42,3.81-3.26,5.87-.49,1.21,.15,2.69,1.17,3.5,.84,.67,2.2,.53,2.95-.33,1.8-2.06,2.99-4.49,3.74-7.1Zm-25.19-24.2c-.15-.27-.28-.88-.62-1.03-2.02-.93-4.01-.34-5.83,.57-1.77,.89-3.09,2.3-2.98,4.48,.03,.51,.45,1.12,.86,1.46,.57,.48,1.11,.14,1.4-.49,.97-2.13,2.83-2.67,4.94-2.89,1.11-.11,2.09-.57,2.22-2.11Zm30.85,11.26c-.47-2.41-1.32-5.01-3.75-6.7-.62-.43-1.45-1.09-2.26-.27-.72,.73-.56,1.6,.15,2.21,1.83,1.56,2.73,3.56,3.1,5.89,.15,.93,.76,1.62,1.75,1.31,.91-.28,1.09-1.19,1.01-2.44Z"
       id="path104" />
    <path
       class="cls-16"
       d="M457.94,1042.11c.93,9.41-1.61,18.89,.42,28.57-9.43,1.13-19.12,2.21-28.92,.85-1.37-.19-1.77-.76-1.8-2.09-.19-10.22-.47-20.43-.67-30.65-.03-1.55,.02-3.48,2.14-3.43,8.44,.18,16.64-2.03,25.04-2.26,2.57-.07,3.4,.84,3.45,3.1-.16,1.98-.43,3.97,.34,5.9Z"
       id="path106" />
    <path
       class="cls-16"
       d="M466.34,1068.52c-3.39-2.5-1.84-4.97-.4-7.94,4.53-9.37,8.69-18.92,13-28.39,.39-.85,.53-1.86,1.41-2.42,.3,.62,.9,.62,1.46,.69,7.02,3.23,14.04,6.46,21.06,9.69,.22,.1,.44,.18,.66,.28,5.18,2.56,5.12,2.52,1.98,7.31-2.48,3.8-5.84,7.44-6.95,11.64-2.02,7.68-7.92,7.55-13.58,8.55-.58,.1-1.16,.22-1.74,.32-.23,.13-.46,.25-.69,.38-5.33,.58-10.66,1.16-15.99,1.75-.07-.62-.15-1.23-.22-1.85Z"
       id="path108" />
    <path
       class="cls-16"
       d="M389.52,1056.94c-5.26-2.22-6.96-7.08-10.07-10.57-3.34-3.76-6.06-8.08-9.85-11.44-.94-.83-1.28-1.66-1.14-2.81,.5-4.16,.95-8.33,1.53-12.49,.18-1.33,.67-2.49,2.52-2.31,10.14,1.03,20.39,.44,30.5,2.06,1.92,.31,2.45,.92,2.29,2.65-.49,5.24-1.25,10.45-2.41,15.59-.28,1.24-.8,1.45-2.27,1.01-4.16-1.24-6.83,.24-8.71,4.21-2.04,4.32-2.95,8.86-2.39,14.09Z"
       id="path110" />
    <path
       class="cls-16"
       d="M439.2,1029.76c.31-.51,.63-1.02,.94-1.53,2.34-6.54,2.51-13.42,3.04-20.23,.15-1.89,.89-2.46,2.56-2.36,3.37,0,6.74,0,10.11,0,4.57,0,9.15,0,13.72,0,.72,0,1.45,.01,2.17,.02q6.82,.6,5.75,7.32c-.81,4.98-2.48,9.81-1.7,15.04,.2,1.36-1.22,2.97-1.9,4.46-.94-.52-1.46-1.85-2.86-1.47-1.66-.72-3.31,.1-4.97,.03-2.29-.09-4.26,.05-6.46-1.78-2.86-2.38-6.91-1.07-10.45-.8-3.33,.26-6.63,.84-9.94,1.28Z"
       id="path112" />
    <path
       class="cls-16"
       d="M425.69,1023.83c0,2.41,0,4.82,0,7.23-.3,.31-.6,.62-.89,.93-1.89-.62-2.41,.21-2.05,1.96-.03,10.21-.07,20.42-.06,30.64,0,.94,.37,1.87,.5,2.81,.12,.91,.77,2.22-.18,2.63-1.23,.53-2.84-.03-3.54-1.15-2.69-4.31-5.98-8.22-8.22-12.84-1.13-2.33-.85-3.78,1.28-5.03,1.34-.79,2.64-1.65,4.03-2.37,1.32-.68,2.26-1.54,1.57-3.1-.69-1.57-1.98-1.55-3.32-.85-1.49,.78-2.91,1.67-4.42,2.39-.88,.42-1.94,2.17-2.58,1.03-.96-1.7-3.25-3.42-2.08-5.63,2.95-5.57,3.3-11.64,3.8-17.66,.19-2.27,.79-3.63,2.76-4.86,4.97-3.11,9.76-6.49,14.62-9.76-.58,4.53-1.84,9-1.21,13.64Z"
       id="path114" />
    <path
       class="cls-16"
       d="M373.42,1013c4.97-4.58,10.02-9.03,16.69-11.04,11.83-.82,23.25,2.62,35.02,3.25,0,1.89-1.55,2.41-2.65,3.15-3.67,2.49-7.45,4.82-11.14,7.29-1.31,.88-2.17,1.05-3.73,.01-2.63-1.75-6-1.56-9.03-1.79-8.37-.63-16.75-1.22-25.16-.88Z"
       id="path116" />
    <path
       class="cls-16"
       d="M519.69,1037c.36-.02,.72-.04,1.08-.06-1.01,5.27-1.87,10.57-3.06,15.8-1.17,5.12-3.86,8.9-9.57,9.76-2.22,.33-4.38,1.13-6.56,1.72l.04-.18h-.19c3.37-6.83,8.55-12.61,11.28-19.87,.58-1.53,3.08-2.42,4.81-3.41,1.53-.87,2.33-1.99,2.18-3.75Z"
       id="path118" />
    <path
       class="cls-16"
       d="M469,1041.83c-2.14,4.89-4.08,9.32-6.02,13.76-.16-.04-.32-.08-.48-.12v-16.24c2.14,.82,3.29,3.9,6.5,2.6Z"
       id="path120" />
    <path
       class="cls-16"
       d="M488.17,1022.24l1.63,.17c-2.75,1.22-5.74,1.03-8.61,1.54-1.43,.25-1.68-.45-1.52-1.58,.39-2.78,.5-5.61,1.65-8.44,2.6,2.71,3.77,6.32,6.86,8.32Z"
       id="path122" />
    <path
       class="cls-16"
       d="M465.88,1035.53h5.98c-.25,1.98-1.33,3.49-2.84,6.2,.25-3.34-1.83-4.28-3.14-6.2Z"
       id="path124" />
    <path
       class="cls-14"
       d="M471.02,1031.03c1.4-.38,1.92,.95,2.86,1.47-.03,.9-.38,2.06-1.25,1.81-1.43-.41-1.24-2.09-1.61-3.28Z"
       id="path126" />
    <path
       class="cls-14"
       d="M422.75,1033.96c-.36-1.74,.16-2.57,2.05-1.96-.13,1.24-.83,1.87-2.05,1.96Z"
       id="path128" />
    <path
       class="cls-14"
       d="M457.94,1042.11c-.77-1.93-.5-3.92-.34-5.9,.84,1.93,.29,3.93,.34,5.9Z"
       id="path130" />
    <path
       class="cls-14"
       d="M466.34,1068.52c.07,.62,.15,1.23,.22,1.85-.65,.47-1.48,.68-1.72-.21-.26-.99,.72-1.33,1.5-1.64Z"
       id="path132" />
    <path
       class="cls-14"
       d="M471.74,1005.67c-.72,0-1.45-.01-2.17-.02,.11-.56,.22-1.13,.93-1.21,.9-.1,1.13,.51,1.24,1.23Z"
       id="path134" />
    <path
       class="cls-14"
       d="M481.81,1030.46c-.56-.07-1.16-.07-1.46-.69,1.21-1.29,1.34-.32,1.46,.69Z"
       id="path136" />
    <path
       class="cls-14"
       d="M462.13,1070.36l.25-.1,.07,.38c-.09-.02-.2-.01-.27-.06-.05-.03-.04-.15-.05-.22Z"
       id="path138" />
    <path
       class="cls-14"
       d="M485.45,1027.45c-.1-.06-.2-.11-.3-.17,.1,.05,.2,.11,.31,.16h0Z"
       id="path140" />
    <polygon
       class="cls-14"
       points="501.58 1064.21 501.43 1064.03 501.61 1064.03 501.58 1064.21"
       id="polygon142" />
    <path
       class="cls-14"
       d="M482.55,1068.63c.23-.13,.46-.25,.69-.38-.23,.13-.46,.25-.69,.38Z"
       id="path144" />
    <path
       class="cls-14"
       d="M496.69,1025.4c-.36,.12-.72,.25-1.08,.37,.36-.12,.72-.25,1.08-.37Z"
       id="path146" />
    <path
       class="cls-16"
       d="M262.16,636.48c-.76-9.66-2.49-19.15-5.5-28.39-.55-1.69-.84-2.2,1.33-2.71,9.74-2.29,19.21-5.55,28.69-8.73,4.39-1.47,4.65-1.32,5.77,3.06,2.12,8.27,3.77,16.67,5.56,25.01,.67,3.12-.14,6.8,.41,10.23,.24,1.48-1.17,1.72-2.1,2.04-3.86,1.3-7.76,2.48-11.64,3.7-.23,.07-.61,.28-.66,.22-2.19-2.84-4.87-.16-7.34-.61-4.75-.86-7.52,1.21-9.4,5.86-.34,.84-.12,2.21-1.86,2.08-1.48-.11-1.95-.89-2.47-2.1-1.34-3.11-.18-6.46-.8-9.64Z"
       id="path148" />
    <path
       class="cls-18"
       d="M218.68,506.41c4.11,1.07,9.36,.13,11.99,5.58,1.98,4.11,1.34,6.82-2.66,8.9-4.3,2.22-11.07,1.38-14.55-1.82-2.48-2.27-3.88-6.68-2.81-9.13,1.5-3.44,4.68-3.27,8.04-3.53Zm3.41,11.3c2.12-.19,4.97-.47,5.14-2.83,.19-2.63-2.35-3.47-4.89-3.36-1.24,.05-2.23-.78-3.34-1.09-1.82-.51-3.71,.07-4.64,1.67-.91,1.58,.51,2.84,1.62,3.85,1.7,1.56,3.94,1.5,6.11,1.76Z"
       id="path150" />
    <path
       class="cls-19"
       d="M182.12,502.76c0-1.16-.02-1.89,0-2.61,.04-.87,.12-1.75,1.31-1.73,.99,.01,1.52,.56,1.68,1.52,.26,1.54,.43,3.09,.82,4.6,2.19,8.67,5.48,16.78,12.11,23.14,1.02,.98,1.71,2.27,.47,3.44-1.35,1.29-2.7,.49-3.78-.6-6.34-6.4-9.98-14.23-11.85-22.92-.37-1.72-1.35-3.42-.77-4.85Z"
       id="path152" />
    <path
       class="cls-23"
       d="M216.2,493.67c.03,1.73-.7,3.22-1.4,4.74-.82,1.76-2.13,2.84-3.94,2.26-1.74-.55-1.73-2.33-1.55-3.92,.18-1.57,.89-2.92,1.58-4.32,.75-1.53,1.59-2.85,3.46-2.29,1.62,.48,1.86,2.02,1.85,3.52Z"
       id="path154" />
    <path
       class="cls-23"
       d="M242.12,498.91c-.75,2.61-1.94,5.04-3.74,7.1-.75,.86-2.11,1-2.95,.33-1.02-.81-1.66-2.29-1.17-3.5,.84-2.06,2.01-4.02,3.26-5.87,.79-1.18,2.2-.75,3.3-.41,1,.3,1.4,1.23,1.3,2.35Z"
       id="path156" />
    <path
       class="cls-8"
       d="M216.93,474.71c-.14,1.54-1.12,1.99-2.22,2.11-2.11,.22-3.97,.76-4.94,2.89-.29,.63-.83,.96-1.4,.49-.42-.35-.84-.95-.86-1.46-.11-2.18,1.21-3.59,2.98-4.48,1.82-.92,3.8-1.5,5.83-.57,.34,.16,.47,.77,.62,1.03Z"
       id="path158" />
    <path
       class="cls-25"
       d="M247.78,485.96c.07,1.25-.11,2.16-1.01,2.44-.98,.31-1.6-.39-1.75-1.31-.37-2.33-1.27-4.32-3.1-5.89-.71-.61-.87-1.48-.15-2.21,.8-.82,1.63-.16,2.26,.27,2.44,1.69,3.28,4.29,3.75,6.7Z"
       id="path160" />
  </g>
</svg>
