<?xml version="1.0" encoding="UTF-8" standalone="no"?>
<svg
   id="Layer_14"
   viewBox="0 0 865 1388"
   version="1.1"
   sodipodi:docname="rosieOnboarding-12.svg"
   inkscape:version="1.2.1 (9c6d41e4, 2022-07-14)"
   xmlns:inkscape="http://www.inkscape.org/namespaces/inkscape"
   xmlns:sodipodi="http://sodipodi.sourceforge.net/DTD/sodipodi-0.dtd"
   xmlns="http://www.w3.org/2000/svg"
   xmlns:svg="http://www.w3.org/2000/svg">
  <sodipodi:namedview
     id="namedview217"
     pagecolor="#505050"
     bordercolor="#ffffff"
     borderopacity="1"
     inkscape:showpageshadow="0"
     inkscape:pageopacity="0"
     inkscape:pagecheckerboard="1"
     inkscape:deskcolor="#505050"
     showgrid="false"
     inkscape:zoom="0.23124871"
     inkscape:cx="430.27266"
     inkscape:cy="640.00356"
     inkscape:window-width="1309"
     inkscape:window-height="456"
     inkscape:window-x="0"
     inkscape:window-y="25"
     inkscape:window-maximized="0"
     inkscape:current-layer="Layer_14" />
  <defs
     id="defs122">
    <style
       id="style120">.cls-1{letter-spacing:-.07em;}.cls-2{fill:#0f0f0f;}.cls-3{fill:#090909;}.cls-4{font-family:ComicNeue-Regular, 'Comic Neue';}.cls-5{letter-spacing:0em;}.cls-6{font-size:36px;}.cls-7{letter-spacing:-.02em;}.cls-8{fill:#070b0b;}.cls-9{font-family:ComicNeue-BoldItalic, 'Comic Neue';}.cls-10{fill:#020202;}.cls-11{fill:#091214;}.cls-12{letter-spacing:0em;}.cls-13{letter-spacing:-.02em;}.cls-14{fill:#0d0d0d;}.cls-15{letter-spacing:0em;}.cls-16{fill:#bdccd4;}.cls-17{letter-spacing:-.02em;}.cls-18{fill:#121212;}.cls-19{fill:#fa99af;}.cls-20{fill:#040505;}.cls-21{fill:#1a1a1a;}.cls-22{fill:#070707;}.cls-23{letter-spacing:-.03em;}.cls-24{letter-spacing:-.06em;}.cls-25{fill:#ececec;}.cls-26{fill:#060606;}</style>
  </defs>
  <g
     id="g176">
    <polygon
       class="cls-16"
       points="390 858 291 858 291 824 310 854 294.44 785 390 785 390 858"
       id="polygon124" />
    <path
       class="cls-20"
       d="M345.36,1018.09c-5.05,2.37-10.16,3.91-15.4,4.82-1.78,.31-2.1,.96-1.98,2.51,.12,1.56,.03,3.13,.03,4.69,0,5.18,0,5.2,5.04,6.18,1.97,.38,2.94,1.48,2.82,3.49-.13,2.24-1.83,2.46-3.39,2.2-7.55-1.27-9.19-1.37-8.83-9.09,.14-3.01,1.17-6.58-.07-8.87-1.27-2.33-5.37-1.38-8.13-2.34-3.74-1.3-7.33-2.85-10.95-5.2-.54,1.94-1.12,3.65-1.08,5.54,.04,1.88-.53,3.51-2.74,3.44-2.13-.07-2.09-1.97-2.25-3.46-.14-1.31-.38-2.78,.05-3.95,1.64-4.41,.07-7.64-2.64-11.21-3.85-5.07-5.52-11.3-6.69-17.52-.34-1.83-.68-2.29-2.57-2.15-7.31,.54-14.63,.86-21.95,1.25-1.38,.07-2.46,.07-3.59,1.52-2.21,2.82-8.04,1.75-9.85-1.62-2.52-4.68-3.14-9.93-4.05-15.07-.75-4.22-1.4-8.51-2.46-12.61-3.32-12.86-11.2-21.93-24.06-26.16-16.89-5.57-33.39-3.75-49.72,2.57-9.09,3.52-17.36,8.39-25.25,14-10.4,7.4-17.03,17.29-19.77,29.84-1.89,8.65-2.02,8.76-10.95,9.59-2.52,.23-2.88,1.14-2.88,3.32,.06,30.71,.08,61.41-.04,92.12-.01,2.92,1.25,2.91,3.41,2.91,35.39-.05,70.78-.03,106.17-.03,154.8,0,309.59-.01,464.39,.08,3.28,0,4.1-.79,4.08-4.07-.14-27.45-.04-54.91-.15-82.37-.01-2.88,.53-4.15,3.67-3.83,2.86,.29,5.77,.14,8.66,.08,1.53-.03,2.25,.49,2.07,2.08-.07,.59-.01,1.2-.01,1.81,0,32.39-.05,64.79,.08,97.18,.01,3.12-.89,3.62-3.77,3.62-199.81-.07-399.63-.07-599.44,.01-3.1,0-3.63-.86-3.63-3.76,.07-221.33,.07-442.66-.01-663.99,0-3.1,.84-3.66,3.75-3.64,22.03,.13,44.06,.12,66.08,.01,2.45-.01,3.52,.53,3.3,3.08-.12,1.43,.01,2.89,.09,4.33q.4,7.03-6.79,7.04c-16.25,.03-32.5,.13-48.75,.04-2.49-.01-3.19,.56-3.18,3.13,.08,74.3,.08,148.6,0,222.9,0,2.68,.6,3.37,3.35,3.36,53.91-.09,107.83-.08,161.74-.04,2.11,0,3.52-.05,3.89-2.79,4.89-35.56,13.27-70.33,23.69-104.63,6.98-22.98,14.78-45.66,23.89-67.89,.31-.75,.52-1.54,.89-2.66h-4.45c-28.65,0-57.3-.03-85.94,.02-8.85,.01-17.54-.93-25.89-3.96-17.55-6.37-27.21-19.79-32.48-36.98-4.09-13.34-5.33-27.11-5.71-40.96-.68-24.46,1.39-48.85,2.38-73.27,.55-13.58,.94-27.16,2.03-40.73,1.65-20.52,10.76-31.91,30.79-36.85,11.77-2.91,23.78-3.55,35.82-3.56,79.93-.06,159.85,.3,239.78-.14,78.47-.43,156.93,.72,235.4,.26,10.35-.06,20.67,.86,30.74,3.53,18.18,4.81,27.87,15.92,30.4,34.61,1.07,7.89,1.43,15.81,1.43,23.77-.01,39.26,0,78.51,0,117.77,0,7.88-1.07,15.6-3.87,23-5.9,15.59-17.82,24.6-33.07,29.86-13.68,4.72-27.89,6.38-42.25,6.42-56.45,.15-112.91,.1-169.36,.11-43.81,0-87.63,.02-131.44-.04-2.34,0-3.97,.64-5.61,2.36-22.1,23.16-39.46,49.63-54.3,77.85-15.73,29.91-28.87,60.92-39.29,93.08-.37,1.13-.65,2.28-1.05,3.67,4.81,.21,9.45,.57,14.08,.6,15.4,.09,30.81,.32,46.2,.01,11.77-.24,23.52-1.85,35.31-1.21,15.59,.85,31.24,.29,46.81,1.93,4.98,.53,10.09,.01,15.14-.24,16.85-.83,33.62,.21,50.41,1.48,4.92,.37,10.17-.68,14.84-.39,6.72,.41,13.37-.1,20.04,.1,29.22,.9,58.47,.36,87.68,1.99,7.44,.42,14.91,.36,22.35,.78,9.09,.51,18.13,1.7,27.28,1.63,4.17-.03,6.3,3.51,7.63,7.07,2.07,5.55,2.48,11.47,2.84,17.3,1.76,28.62,.3,57.29,.76,85.93,.22,13.6,.67,27.18,1.19,40.77,.08,1.97,.66,1.96,2.15,1.94,11.8-.09,23.54-1.17,35.3-1.83,9.12-.51,18.29-.68,27.41-.26,6.31,.29,15.28,6.93,15.08,15.2-.4,16.48-.52,32.97-.94,49.45-.27,10.71-.06,21.43,0,32.15,.06,10.6-1.67,21.08-2.14,31.65-.16,3.52-.05,7.05,.87,10.35,.91,3.27-.23,5.88-1.34,8.62-1,2.47-2.87,3.66-5.64,3.6-5.17-.1-10.36-.18-15.53,0-16.33,.55-32.65,1.1-48.93,2.67-5.61,.54-11.3,.18-16.95,.21-.35,0-.72-.22-1.06-.17-1.57,.25-3.33,1.74-4.64,.03-1.41-1.85-1.48-4.16-1.28-6.52,.58-6.68,2.14-13.53,.46-20.07-4.55-17.74-16.14-31.46-35.28-33.34-6.44-.63-12.85-1.75-19.35-1.35-21.92,1.35-40.78,9.44-55.59,25.95-5.71,6.37-7.94,14.35-9.13,22.66-.11,.77-.39,1.49,.55,1.74,2.01,.53,4.06,1.36,3.2,3.8-.77,2.2-2.89,3.44-5.31,3.61-6.07,.43-12.07,1.21-18.23,.88-8.51-.46-17.08,.2-25.62,.09-22.48-.29-44.97,.28-67.45-.81-18.75-.9-37.53-1.18-56.3-.77-6.84,.15-13.67,.89-20.51,1.3-1.19,.07-2.05,.14-2.16,1.69-.83,11.74-7.52,19.93-16.53,26.53-1.73,1.27-2.01,2.41-1.4,4.09,.51,1.4,.6,2.81,.59,4.26-.01,2.05-.3,4.03,2.78,4.39,1.38,.16,2.27,1.74,1.81,3.44-.42,1.57-1.63,1.88-3.08,1.87-4.01-.04-5.56-1.51-5.85-5.59-.2-2.86-.44-5.72-.69-8.81Zm15.12-46.97c.06,.28,.03,.66,.52,.51l-.29-.77c-.55-15.91-12.7-25.03-24.54-27.1-.38,1.27,1.77,2.02,.78,3.49-1.86-.36-3.11-1.77-4.92-2.23-9.49-2.37-17.25,.99-23.93,7.31-8.23,7.79-11.92,17.59-13.6,28.82-1.44,9.6,2.54,16.66,7.1,24.42,1.73-3.79,3.19-7.17,4.8-10.48,.76-1.56,1.49-3.73,3.9-2.54,2.21,1.1,1.34,3.03,.7,4.73-1.37,3.68-2.67,7.4-4.23,11-.76,1.76-.25,2.58,1.22,3.47,7.65,4.63,15.6,6.73,24.59,4.32,12.96-3.48,21.74-11.54,27.46-23.46,1.75-3.64,3.28-7.24,3.15-11.32-.14-4.24-2.11-7.68-5.25-10.49,1.13-.72,1.71,.49,2.55,.32Zm-57.46-133.28c.44,.45,.25,1.78,.93,1.45,.68-.33,.23-1.46-.1-2.21-2.43-10.04-4.77-20.1-7.3-30.11-10.33-40.83-10.69-81.62,.45-122.37,8.32-30.45,20.42-59.45,34-87.84,17.04-35.64,37.42-69.11,65.03-97.76,1.84-1.91,3.61-2.63,6.23-2.63,60.43,.07,120.85,.06,181.28,.05,39.72,0,79.44,.04,119.17-.06,14.12-.04,28.12-1.42,41.62-5.87,15.66-5.16,27.64-14.36,32.58-30.88,1.91-6.39,2.53-12.96,2.52-19.61-.03-38.53-.02-77.07,0-115.6,0-8.19-.28-16.36-1.47-24.49-2.36-16.08-11.09-26.41-27.03-30.47-11.54-2.94-23.29-3.44-35.09-3.44-146.13-.02-292.26-.01-438.39,0-12.64,0-25.28-.2-37.91,.14-12.02,.33-24.03,1.16-35.46,5.53-11.5,4.39-18.39,12.67-19.62,24.89-1.03,10.28-2.18,20.56-2.29,30.95-.27,25.89-2.86,51.69-2.9,77.59-.02,17.25,.73,34.43,5.82,51.08,4.93,16.15,14.15,28.56,30.82,34.12,7.61,2.54,15.48,3.28,23.47,3.27,30.81-.05,61.63-.02,92.44-.02h3.91c.06,.41,.18,.67,.12,.87-.22,.68-.5,1.35-.77,2.01-25.71,62.89-44.5,127.63-52.01,195.36-3.43,30.88-3.77,61.74,1.69,92.46,3.34,18.79,8.88,36.86,18.29,53.59Zm63.58,129.8c6.95-7.02,12.81-13.87,16.32-22.47,.49-1.2,1.04-2.43,1.81-3.46,1.04-1.41,2.51-1.3,3.82-.37,1.35,.95,1.53,2.2,.74,3.72-5.34,10.34-10.96,20.43-20.65,27.54-2.03,1.49-.78,3.82-.44,5.7,.32,1.79,1.97,.93,3.02,.89,4.93-.21,9.85-.66,14.77-.81,26.36-.82,52.7,.27,79.04,1.02,15.76,.45,31.52,.12,47.28,.19,3.46,.01,8.27,1.07,9.93-4.22,1.29-4.12,2.59-8.28,2.88-12.57,1.66-24.12,1.51-48.32,2.85-72.47,.78-14.05,.16-28.18,1.02-42.22,1.19-19.44,2.56-38.82,1.41-58.35-.64-11,.13-22.11,.32-33.16,.29-16.02,3.45-31.74,3.75-47.71,.09-4.69,.21-9.38,.05-14.06-.13-4.1-3.44-8.37-6.35-8.46-16.47-.48-32.93-1.01-49.4-1.33-12.63-.24-25.28,.07-37.9-.33-15.69-.5-31.3-2.89-47.07-2.16-4.43,.2-8.84-.8-13.32-.33-4.9,.51-9.82,.99-14.74,1.05-19.98,.25-39.94-.4-59.91-1.05-1.82-.06-3.64-.6-4.4,2.22-8.44,31.43-10.9,63.21-5.9,95.46,.26,1.7,.77,2.46,2.73,2.37,9.01-.43,18,.5,26.99,.73,19.72,.51,39.45,.68,59.18,.92,4.53,.06,7.11,2.05,7.79,6.61,.51,3.45,.86,6.91,.78,10.41-.18,8.3-.63,16.62-.3,24.9,.41,10.55,1.49,21.07,2.26,31.6,.12,1.57-.53,2.78-1.83,3.68-1.95,1.36-4.13,1.66-6.46,1.66-18.29,.03-36.57,.27-54.86,.12-12.38-.1-24.78,.32-37.14-.85-3.18-.3-4.85-1.97-5.76-4.97-2.66-8.79-2.56-17.77-1.88-26.76,.66-8.66,1.26-17.25-2.12-25.58-.85-2.1-1.21-4.4-1.74-6.61-8.88-37.18-8.18-74.7-3.93-112.33,.52-4.61,.67-4.59-4.04-4.59-52.84,0-105.68,.04-158.52-.08-3.57,0-4.74,.62-4.73,4.54,.13,97.53,.1,195.07,.11,292.6,0,2.15-.62,4.92,.46,6.28,1.08,1.35,3.76-.56,5.76-.42,1.98,.14,2.55-.46,2.66-2.52,.59-11.38,4.85-21.21,13.09-29.14,10.37-9.99,22.62-17.01,36.02-22,15.26-5.69,30.85-7.12,46.94-3.53,14.54,3.24,24.76,11.86,31.12,24.77,3.89,7.89,4.39,17.01,6.09,25.64,1.07,5.43,1.02,6.01,6.23,5.32,8.6-1.15,17.25-1.37,25.88-2.02,1.35-.1,2.64,.03,2.68-1.98,.11-5.08,1.78-9.84,3.67-14.45,5.11-12.47,13.2-21.89,26.93-25.19,1.27-.31,2.92-.04,3.82-.76,3.78-3.04,8.19-2.45,12.11-1.58,16.38,3.64,27.76,12.79,31.05,30.95Zm170.04-281.26c1.89,3.46,3.49,6.69,3.65,10.31,.45,10.24,.06,20.53-1.09,30.64-1.58,13.88-1.96,27.76-2.47,41.67-.42,11.43,.22,22.83,.59,34.25,.53,16.6-1.47,33.17-1.78,49.74-.49,25.87-1.87,51.7-2.39,77.55-.27,13.34-.11,26.67-2.11,39.92-.37,2.44-2.93,5.55-.76,7.12,1.88,1.36,5.33,.6,8.09,.68,.82,.03,1.65-.3,2.49-.38,3.11-.29,6.18-1.04,9.33-.8,5.04,.38,4.88,.37,5.37-4.61,.84-8.66,3.41-16.82,9.43-23.25,23.5-25.04,52.63-31.51,85.27-24.64,17.58,3.7,26.92,16.58,33.05,32.36,2.74,7.06,2.06,14.36,1.61,21.69-.33,5.38-1.17,4.99,4.49,4.64,8.27-.52,16.52-1.63,24.8-1.97,13.58-.57,27.17-.97,40.62-3.12,1.78-.28,2.94,.46,4.2,1.43,2.92,2.25,7.51,.89,8.96-2.24,1.26-2.73-.54-5-.57-7.72-.39,1.82-1.15,2.99-3.08,2.99-1.92,0-2.29-1.59-2.94-2.76-.86-1.55-1.65-3.19-1.52-5.07,.32-4.82-.54-9.6-.54-14.4,0-18.53,1.14-37.02,2.05-55.52,.25-5.04,2.94-6.5,7.81-4.56,.91-1.87,.95-3.78,.65-5.82-15.49,4.46-27.14-4.69-25.11-19.45,1.17-8.5,10.19-16.3,18.62-16.02,2.78,.09,5.08,1.12,6.12,4.02,.33,.92,.27,1.7-.47,2.25-.63,.48-1.32,.28-1.93-.29-1.96-1.86-4.29-1.31-6.43-.64-3.62,1.15-6.61,3.35-8.88,6.42-4.05,5.47-3.6,11.08,1.22,16.13,3.51,3.68,10.64,4.31,15.33,1.42,1.11-.68,1.75-1.42,1.79-2.83,.25-8.78,.9-17.55,.62-26.35-.07-2.27-.81-4.4-2.89-5.47-3.16-1.62-6.24-3.19-10.17-2.8-5,.5-10.09,.11-15.14,.13-3.37,.01-6.78-.24-10.1,.18-12.82,1.6-25.68,1.15-38.54,1.3-1.85,.02-2.49-.84-2.85-2.47-1.13-5.18-1.81-10.41-1.83-15.71-.05-18.3-.1-36.6-.1-54.9,0-10.47-.32-20.98,.29-31.42,.86-14.57,.22-29.02-1.67-43.46-.45-3.41-2.12-4.72-5.5-4.58-4.21,.17-8.5,.52-12.62-.09-14.89-2.22-29.92-1.91-44.88-2.61-18.74-.87-37.54-.36-56.29-1.05-10.47-.39-20.89-.78-31.83,.15Zm-239.65,101.33c.61,3.14,1.16,6.19,1.8,9.22,4.01,19.04,9.7,37.69,13.12,56.86,.48,2.68,1.35,3.21,3.85,3.2,20.57-.1,41.15-.07,61.72-.05,2.92,0,5.75-1.21,8.78-.09,1.66,.61,1.86-.57,1.88-2.28,.19-12.87-2.48-25.64-1.48-38.52,.61-7.82,.52-15.63,.62-23.44,.03-2.16-.53-2.95-2.81-2.9-16.12,.37-32.21-1.13-48.33-.74-3.84,.09-7.68-.42-11.53-.46-9.12-.1-18.2-1.43-27.61-.78Zm472.11,105.12c-2.72-.04-3.53,1.36-3.53,4.07,0,6.84-.41,13.68-.55,20.53-.31,15.48-.81,30.97-.05,46.45,.06,1.22-.28,2.61,1.2,3.32,2.88-24.76,3.89-49.56,2.93-74.37Zm-458.95-36c-7.06-9.09-12.21-18.6-17.18-28.29-.1,7.77-.97,15.43,.33,23.06,.51,3,1.4,4.95,5.06,4.99,3.7,.04,7.4,.41,11.8,.23Z"
       id="path126" />
    <path
       class="cls-10"
       d="M714.91,738.89c.99-35.25,1.98-70.5,2.96-105.75,.32-11.67,.69-23.34,.86-35.01,.35-23.83,1.26-47.66,.66-71.49-.18-7.34-.08-14.66,.11-21.99,.03-1.2-.58-2.86,1.35-3.22,1.61-.3,3.22-.03,4.05,1.59,.56,1.09,.79,2.13,2.47,1.96,2.95-.29,3.52,1.73,3.7,4.14,.9,11.88,1.18,23.74,.16,35.65-.3,3.5-.13,7.16-.18,10.75-.24,17.81-.28,35.62-.79,53.43-1.11,39.22-1.65,78.44-2.22,117.67-.32,22.14-.91,44.28-1.4,66.42-.21,9.39-.45,18.77-.76,28.15-.08,2.24,.26,4.73-1.54,6.5-1.34,1.31-3.13,3.28-4.92,2.21-2.66-1.6-5.33-3.73-5.72-7.27-.19-1.78-.05-3.61-.05-5.41,.08-26.12,.75-52.22,1.27-78.33Z"
       id="path128" />
    <path
       class="cls-22"
       d="M175.84,1048.4c-22.05,.48-39.29-18.66-40.81-37.93-1.21-15.24,3.09-28.43,12.28-40.37,4.92-6.39,9.76-12.62,16.98-16.84,8.51-4.97,17.36-7.01,27.14-6.41,4.82,.29,9.46,2.04,14.43,1.28,2.63-.4,5,1.45,7.2,2.85,6.4,4.07,13.97,6.5,18.33,13.41,6.13,9.71,8.49,20.27,8.16,31.71-.52,17.91-11.51,28.92-24.47,38.98-11.62,9.02-24.83,12.79-39.24,13.32Zm13.06-94.98c-5.62,.12-12.8,1.41-19.58,5.33-6.86,3.97-11.73,9.66-16.45,15.78-9.01,11.69-13.77,24.56-11.13,39.36,1.85,10.36,7.63,18.33,16.77,23.72,10.48,6.18,21.53,4.81,32.61,2.25,8.16-1.88,14.68-6.79,21.21-11.72,14.36-10.84,22.98-24.35,20.34-43.14-1.47-10.46-5-19.59-15.5-24.48-8.38-3.9-16.92-6.93-28.25-7.11Z"
       id="path130" />
    <path
       class="cls-26"
       d="M609.29,1040.47c-14.52,.18-26.49-6.17-36.27-16.98-3.98-4.4-5.26-10.02-5.98-15.81-2.35-18.8,5.22-33.73,17.85-46.8,5.61-5.8,11.25-11.55,18.19-15.77,11.2-6.8,22.78-8.89,36.11-6.19,9.96,2.01,15.16,9.06,21.74,14.73,7.09,6.11,10.34,14.52,11.75,23.84,2.19,14.52-3.59,26.33-12.31,36.9-9.55,11.59-22.08,19.2-36.25,23.98-4.63,1.56-9.48,2.31-14.82,2.1Zm-.27-6.58c1.68,0,3.43,.31,5.04-.05,19.75-4.41,35.23-15.05,46.34-32.01,3.92-5.99,7-12.44,6.79-19.67-.47-16.8-10.88-27.42-24.45-34.59-12.32-6.52-24.92-3.52-36.44,3.58-7.96,4.89-14.19,11.72-20.37,18.65-9.39,10.52-14.32,22.44-13.08,36.67,.4,4.59,1.24,9.16,4.41,12.61,8.52,9.25,18.74,15.15,31.77,14.8Z"
       id="path132" />
    <path
       class="cls-19"
       d="M360.49,971.12c-.84,.17-1.42-1.04-2.55-.32,3.14,2.82,5.12,6.26,5.25,10.49,.13,4.07-1.39,7.67-3.15,11.32-5.72,11.92-14.5,19.97-27.46,23.46-8.99,2.42-16.94,.32-24.59-4.32-1.47-.89-1.98-1.71-1.22-3.47,1.56-3.6,2.86-7.32,4.23-11,.63-1.7,1.51-3.63-.7-4.73-2.4-1.19-3.14,.98-3.9,2.54-1.61,3.31-3.08,6.69-4.8,10.48-4.56-7.76-8.54-14.81-7.1-24.42,1.68-11.24,5.37-21.03,13.6-28.82,6.68-6.32,14.44-9.68,23.93-7.31,1.81,.45,3.06,1.87,4.92,2.23,.99-1.47-1.16-2.22-.78-3.49,11.84,2.07,23.99,11.19,24.54,27.1l-.23,.26Zm-2.23,8.6c-.34-1.29-.81-3.5-1.54-5.62-.45-1.31-1.51-2.06-3.08-1.93-7.01,.58-9.63,4.79-6.76,11.14,1.31,2.9,2.5,6.25,6.7,5.79,2.45-.26,4.51-4,4.69-8.09,0-.12,0-.24,0-1.3Zm-25.93-9.77c.07,3.96,1.57,6.28,3.96,6.32,2.41,.04,2.18-2.06,2.29-3.33,.23-2.61-2.48-5.63-4.48-5.55-1.91,.08-2.02,1.25-1.77,2.55Zm22.48-6.88c-.4-2.35-.73-4.78-3.93-4.94-1.58-.08-2.26,.8-1.91,2.23,.55,2.23,.75,4.97,3.53,5.54,1.7,.35,2.48-1.06,2.31-2.83Zm-26.82-.51c-.39-1.29-1.06-1.69-1.98-1.67-2,.06-2.74,1.7-3.67,3.06-.85,1.24-1.18,2.64-.54,4.07,.23,.51,.89,1.2,1.39,.65,1.78-1.98,2.13-5.01,4.8-6.11Zm9.38-6.52c.75-2.02,4.27-.28,4.64-3.12,.16-1.27-1.01-2.14-2.4-1.97-1.89,.23-3.43,1.02-3.61,3.21-.06,.76-.26,1.74,1.38,1.89Zm-20.58-2.95c-.82-.09-1.13,.44-1.02,1.07,.24,1.41,.69,2.85,2.3,3.16,.73,.14,1.34-.66,1.05-1.44-.43-1.18-.74-2.57-2.33-2.78Z"
       id="path134" />
    <path
       class="cls-19"
       d="M360.72,970.86l.29,.77c-.49,.15-.46-.23-.52-.51l.23-.26Z"
       id="path136" />
    <path
       class="cls-18"
       d="M402.86,936.37c-.08,.76,0,1.9-1.17,2.17-1.11,.26-1.3-.64-1.49-1.54-.95-4.67-4.26-7.64-7.71-10.46-.63-.52-1.65-.63-1.11-1.81,.5-1.1,1.4-.73,2.18-.53,3.84,1.03,9.19,7.96,9.3,12.16Z"
       id="path138" />
    <path
       class="cls-21"
       d="M409.29,930.48c-.1,.73-.09,1.77-.97,2.03-.94,.28-1.32-.53-1.72-1.37-1.01-2.13-2.24-4.16-3.33-6.26-.36-.7-.95-1.46-.11-2.25,.88-.82,1.6-.15,2.16,.39,2.1,2.02,3.51,4.44,3.97,7.45Z"
       id="path140" />
    <path
       class="cls-22"
       d="M611.37,821.13c3.27,.85,6.57,1.6,9.81,2.57,3.62,1.08,6.65,3.04,7.23,7.1,.59,4.15-2.33,6.27-5.42,8.1-5.82,3.44-12.26,6.64-18.78,6.04-9.78-.9-19.68-2.78-28.24-8.44-1.72-1.14-3.21-2.49-4.41-4.19-2.4-3.41-3.88-7.11-3.79-11.6-4.05,1.32-7.84,1.72-11.08-1.63-1.39-1.44-2.42-2.93-2.55-4.97-1.35-21.52-1.02-43.06-.56-64.58,.27-12.7,1.74-25.38,2.7-38.06,.14-1.91,.44-3.8,.71-5.7,.39-2.72,2.89-2.56,4.49-2.58,4.46-.06,8.86-.58,13.29-.85,20.44-1.28,40.9-.33,61.35-.72,9.49-.18,18.99-.3,28.48-.52,4.93-.11,7.67,1.73,9.8,6.23,2.24,4.73,2.27,9.56,2.09,14.69-.47,13.47-.47,26.96-.44,40.44,.02,9.89,.48,19.78,.51,29.67,.02,7.45-.01,14.88,.97,22.29,.57,4.27-.02,4.71-4.2,5-19.44,1.33-38.92,.92-58.38,1.33-1.18,.02-2.36,0-3.55,0l-.04,.41Zm53.51-48.4c-2.09,4.58-4.19,9.16-6.28,13.73,1.34-.76,3.64,.85,3.83-1.61,.3-4.07,1.94-7.78,2.96-11.66,.6-.27,.91-.92,.46-1.25-.69-.5-.62,.52-.97,.79Zm-63.16,15.5c-.65,1.02,.09,1.28,.84,1.53h1.27c6.96,1.53,13.84,1.84,20.88,.01,19.77-5.13,31.14-27.09,22.51-44.73-4.92-10.06-14.23-15.18-24.34-18.87-2.11-.77-5.33-.57-6.18-2.33-1.7-3.52-4.09-2.09-6.23-1.66-9.23,1.86-16.7,6.99-22.11,14.36-5.86,7.99-10.75,16.46-8.42,27.46,2.4,11.32,7.39,20.02,18.81,23.92,.96,.33,1.99,1.44,3.16,.35l-.18-.06Zm52.69,.08c1.65-5.55,3.98-10.66,6.08-15.86,1.28-3.17,3.2-5.57,6.64-6.51,2.48-.68,3.28-2.2,3.32-4.89,.17-11.66,.26-23.33,1.34-34.95,.47-5.09,.15-10.04-1.3-14.98-1.02-3.48-3.02-4.5-6.59-4.51-11.19-.03-22.37,.2-33.55,.66-10.23,.42-20.44-.39-30.66-.67-12.27-.34-24.49,.96-36.75,.76-2.12-.03-3,1.02-3.08,3.08-.46,12.02-1.08,24.03-1.43,36.04-.59,20.1,.41,40.2,.73,60.29,.03,2.15,.52,4.29,.66,6.44,.07,1.05,.52,1.4,1.48,1.63,2.63,.64,4.96,1.89,6.88,4.35,3.32-11.73,10.38-21.01,16.6-30.73,.87-1.36,.75-1.67-.26-2.7-8.61-8.69-10.34-19.81-10.43-31.29-.05-6.41,3.49-11.78,6.7-17.11,7.51-12.47,18.14-20.38,32.91-21.64,5.01-.43,10.37,.12,14.16,3.81,2.57,2.5,5.42,4.23,8.41,5.94,21.1,12.05,23.69,34.26,15.79,51.97-.97,2.18-3.95,3.97-3.27,6.03,.63,1.91,3.46,3.09,5.63,4.85Zm6.23,4.08c-1.22,.45-2.09,.59-2.75,1.04-3.37,2.3-5.69,1.38-7.56-2.07-.72-1.33-2.05-2.33-3.11-3.47-1.05-1.12-2.11-1.98-3.56-.51-1.12,1.13-3.11,1.47-1.77,4.09,1.69,3.27,2.41,6.99,2.4,10.74,0,1.32-.58,2.34-2.05,2.55-1.54,.22-2.14-.6-2.34-2.02-.4-2.82-.94-5.62-1.3-8.45-.28-2.17-.9-2.75-3.2-1.77-5.5,2.33-11.23,4.04-17.24,4.41-9.69,.59-18.76-1.67-27.29-6.24-.66-.36-1.39-1.49-2.2,.16-4.53,9.2-11.2,17.24-14.44,27.15-2.24,6.82-.76,11.09,5.6,14.46,8.59,4.54,17.67,7.15,27.47,5.65,5.82-.89,11.08-3.25,15.82-7.58-7.94-3.77-15.93-4.39-23.94-4.49-5.75-.07-8.14-2.42-6.58-7.88,1.82-6.35,5.45-11.91,8.37-17.78,.37-.74,.95-1.12,1.73-.98,.87,.16,1.57,.73,1.81,1.57,.29,1.06,.09,2.09-.36,3.14-1.82,4.23-3.55,8.5-5.31,12.74,2.48,1.38,2.9-1.94,4.98-1.91,4.07,.07,8.15-.54,12.23-.57,13.12-.1,26.23,0,39.35-.11,5.15-.04,10.3-.43,15.45-.67-1.01-10.53-.17-20.83-.59-32.12-1.78,4.55-2.7,8.24-2.8,12.17-.08,2.93,.34,5.86-1.8,8.59-1.03,1.31-1.55,3.42-3.36,2.84-1.81-.58-2.75-2.65-2.63-4.68,.15-2.49,.6-4.95,.99-8Z"
       id="path142" />
    <path
       class="cls-8"
       d="M358.26,979.72c0,1.06,0,1.18,0,1.3-.17,4.09-2.23,7.82-4.69,8.09-4.2,.45-5.39-2.89-6.7-5.79-2.87-6.36-.24-10.56,6.76-11.14,1.57-.13,2.63,.63,3.08,1.93,.73,2.12,1.2,4.33,1.54,5.62Zm-5.98,4.38c1.75-3.85,1.77-4.1,.52-7.66-4.08,2.68-4.11,2.98-.52,7.66Z"
       id="path144" />
    <path
       class="cls-8"
       d="M332.33,969.95c-.25-1.31-.14-2.48,1.77-2.55,2-.08,4.71,2.94,4.48,5.55-.11,1.27,.11,3.37-2.29,3.33-2.39-.04-3.88-2.36-3.96-6.32Z"
       id="path146" />
    <path
       class="cls-22"
       d="M354.81,963.07c.18,1.77-.61,3.18-2.31,2.83-2.78-.58-2.98-3.32-3.53-5.54-.35-1.43,.33-2.31,1.91-2.23,3.2,.16,3.52,2.59,3.93,4.94Z"
       id="path148" />
    <path
       class="cls-11"
       d="M327.98,962.57c-2.67,1.1-3.02,4.12-4.8,6.11-.49,.55-1.16-.14-1.39-.65-.64-1.43-.31-2.83,.54-4.07,.93-1.35,1.67-2.99,3.67-3.06,.92-.03,1.59,.38,1.98,1.67Z"
       id="path150" />
    <path
       class="cls-11"
       d="M337.36,956.04c-1.64-.15-1.44-1.13-1.38-1.89,.17-2.18,1.72-2.98,3.61-3.21,1.39-.17,2.57,.71,2.4,1.97-.37,2.84-3.89,1.1-4.64,3.12Z"
       id="path152" />
    <path
       class="cls-21"
       d="M316.78,953.09c1.59,.22,1.9,1.61,2.33,2.78,.29,.79-.32,1.58-1.05,1.44-1.61-.31-2.06-1.75-2.3-3.16-.11-.63,.2-1.16,1.02-1.07Z"
       id="path154" />
    <path
       class="cls-2"
       d="M183.57,1021.15c-12.66-.26-21.8-6.38-25.44-16.78-1.65-4.72-1.64-9.45-.32-14.11,2.23-7.87,6.28-14.68,12.64-19.99,7.05-5.89,15.11-6.81,23.7-4.68,1.44,.36,2.99,1.23,3.97,2.33,10.56,11.87,14.4,28.66,5.31,43.32-4.57,7.37-11.53,10.03-19.86,9.91Zm-.65-3.74c10.26,.13,16.34-3.93,20.21-13.52,4.46-11.05,1.05-26.78-7.59-34.88-.41-.39-1.04-.62-1.61-.74-3.9-.84-7.85-1.37-11.78-.41-11.52,2.82-17.21,11.41-20.96,21.71-1.62,4.46-1.85,9.07-.27,13.71,2.89,8.48,11.36,13.98,22,14.11Z"
       id="path156" />
    <path
       class="cls-14"
       d="M638.56,968.21c-3.36,.3-5.41-1.79-7.68-3.11-7.72-4.46-15.42-4.41-23.32-.6-2.2,1.06-4.15,2.5-5.74,4.25-6.11,6.74-10.7,14.39-12.37,23.44-1.83,9.9,3.38,18.3,13.21,19.8,11.73,1.79,22.56-.77,30.61-10.45,4.58-5.5,5.71-12.23,5.93-19.07,.12-3.64-1.9-6.6-4.66-8.96-1.09-.94-2.16-1.91-3.29-2.8-.92-.73-1.08-1.62-.55-2.55,.67-1.17,1.5-.58,2.43-.16,6.55,3.01,10.38,10,9.41,17.04-.51,3.67-.73,7.42-2.05,10.89-4.44,11.73-13.07,18.17-25.41,20.01-4.82,.72-9.57,.97-14.28-.25-10.89-2.82-17.26-13.82-14.42-24.88,2.77-10.8,7.72-20.46,16.71-27.31,10.39-7.92,23.02-6.81,32.72,2.14,.83,.77,2.09,1.08,2.76,2.56Z"
       id="path158" />
    <path
       class="cls-22"
       d="M604.46,991.14c-.01-3.35,1.14-6.27,3.07-8.98,1.48-2.09,3.59-3.54,4.62-6.2,1.09-2.83,8.71-2.29,11.75,.47,3.8,3.45,4.44,11.05,1.41,16.76-2.6,4.9-9.33,8.25-14.1,7.03-4.92-1.26-6.76-3.73-6.75-9.08Zm16.89-6.09c.12-3.07-1.78-5.06-3.79-3.79-3.58,2.25-6.59,5.15-7.72,9.45-.53,1.98,.24,3.44,2.41,3.43,4.48-.02,8.93-4.56,9.11-9.08Z"
       id="path160" />
    <path
       class="cls-14"
       d="M601.9,788.29c-.63-.84-1.51-1.51-1.63-2.69-.12-1.24-.13-2.13,1.62-1.77,2.22,.46,4.49,.33,6.74,.05,1.35-.17,2.38,.34,2.65,1.77,.26,1.39-.72,1.95-1.72,2.74-1.78,1.4-4.19-.48-5.73,1.37h-1.27c1.05-1.23,.05-1.35-.84-1.53l.18,.06Z"
       id="path162" />
    <path
       class="cls-25"
       d="M665.39,773.2c-1.02,3.88-2.66,7.6-2.96,11.66-.18,2.46-2.48,.85-3.83,1.61,2.09-4.58,4.19-9.16,6.28-13.73,.17,.16,.34,.31,.51,.46Z"
       id="path164" />
    <path
       class="cls-25"
       d="M664.88,772.73c.35-.26,.28-1.29,.97-.79,.45,.33,.15,.98-.46,1.25-.17-.15-.34-.31-.51-.46Z"
       id="path166" />
    <path
       class="cls-2"
       d="M596.74,772.06c.99-3.84,.4-8.24,1.94-12.35,.44-1.17,.52-2.55,2.06-2.36,1.7,.21,1.78,1.71,1.66,3.07-.35,4.16-.68,8.33-1.17,12.48-.19,1.61,.31,4.25-2.45,3.84-2.08-.31-2.12-2.53-2.04-4.68Z"
       id="path168" />
    <path
       class="cls-22"
       d="M613.26,769.73c0,.71,.06,1.43-.01,2.14-.18,1.68-1.22,2.49-2.84,2.65-1.62,.17-2.52-.37-3.12-2.09-.75-2.14-.46-4.23-.42-6.33,.02-1.53,1.26-1.72,2.56-1.78,1.95-.09,3.23,.79,3.75,2.57,.26,.88,.04,1.89,.04,2.84h.04Z"
       id="path170" />
    <path
       class="cls-3"
       d="M587.29,764.25c0-.72-.07-1.44,.02-2.15,.12-1.06-.58-2.56,1.33-2.76,1.8-.19,3.27,.65,3.51,2.3,.34,2.34,.24,4.77,.06,7.15-.1,1.28-1.19,2.02-2.56,2.04-1.5,.01-2.13-.97-2.27-2.28-.15-1.42-.15-2.86-.22-4.3h.13Z"
       id="path172" />
    <path
       class="cls-22"
       d="M183.76,1010.83c-8.93,.48-11.76-5.6-12.12-12.91-.18-3.78,.9-7.58,2.85-10.97,2.59-4.52,7.13-5.74,11.64-3.1,.95,.56,1.84,.89,2.96,1.02,6.07,.72,9.7,4.14,10.09,10.2,.42,6.6-1.53,12.22-7.23,14.25-2.69,.96-5.46,1.75-8.18,1.51Zm-6-12c-.31,2.82,.22,5.69,3.75,5.96,3.05,.23,6.3-.26,8.78-2.42,2.7-2.36,3.2-5.69,2.53-8.9-.54-2.57-3.34-2.2-5.38-2.62-1.16-.24-2.87-.07-3.41-.78-2.53-3.36-3.34-.57-4.24,1.1-1.24,2.3-2.13,4.77-2.02,7.67Z"
       id="path174" />
  </g>
</svg>
