<?xml version="1.0" encoding="UTF-8" standalone="no"?>
<svg
   id="Layer_10"
   viewBox="0 0 865 1388"
   version="1.1"
   sodipodi:docname="rosieOnboarding-09.svg"
   inkscape:version="1.2.1 (9c6d41e4, 2022-07-14)"
   xmlns:inkscape="http://www.inkscape.org/namespaces/inkscape"
   xmlns:sodipodi="http://sodipodi.sourceforge.net/DTD/sodipodi-0.dtd"
   xmlns="http://www.w3.org/2000/svg"
   xmlns:svg="http://www.w3.org/2000/svg">
  <sodipodi:namedview
     id="namedview97"
     pagecolor="#505050"
     bordercolor="#ffffff"
     borderopacity="1"
     inkscape:showpageshadow="0"
     inkscape:pageopacity="0"
     inkscape:pagecheckerboard="1"
     inkscape:deskcolor="#505050"
     showgrid="false"
     inkscape:zoom="0.31226489"
     inkscape:cx="337.85418"
     inkscape:cy="35.226502"
     inkscape:window-width="1309"
     inkscape:window-height="456"
     inkscape:window-x="0"
     inkscape:window-y="25"
     inkscape:window-maximized="0"
     inkscape:current-layer="Layer_10" />
  <defs
     id="defs4">
    <style
       id="style2">.cls-1{fill:#9d9d9d;}.cls-2{fill:#090909;}.cls-3,.cls-4,.cls-5,.cls-6,.cls-7{font-family:ComicNeue-Regular, 'Comic Neue';}.cls-3,.cls-8{letter-spacing:0em;}.cls-9,.cls-8,.cls-10{font-family:ComicNeue-Bold, 'Comic Neue';}.cls-5{letter-spacing:-.02em;}.cls-11{font-size:36px;}.cls-12{fill:#040404;}.cls-13{fill:#131313;}.cls-14{fill:#0d0d0d;}.cls-6{letter-spacing:-.06em;}.cls-7{letter-spacing:-.03em;}.cls-15{fill:#bdccd4;}.cls-16{fill:#050505;}.cls-10{letter-spacing:-.02em;}.cls-17{fill:#fa99af;}.cls-18{fill:#191919;}.cls-19{fill:#070707;}.cls-20{fill:#9e9e9e;}</style>
  </defs>
  <g
     id="g88">
    <path
       class="cls-16"
       d="M119.07,1160.73c-3.11-4.6-3.49-9.49-3.48-14.63,.1-50.33,.05-100.66,.14-150.98,0-2.96-.46-4.58-3.7-5.73-6.07-2.17-8.46-7.75-9.24-13.56-1.31-9.84,.92-19.46,3.16-28.99,.91-3.87,3.48-6.37,7.52-6.6,2.38-.13,2.24-1.34,2.24-2.99-.02-18.06-.03-36.12,0-54.18,.25-111.13,.5-222.25,.78-333.38,.01-4.21,.61-8.42,.5-12.62-.06-2.53,.84-3.79,3.02-4.78,2.27-1.03,3.71,.21,5.1,1.47,4.19,3.79,8.29,7.69,12.95,12.03,.26-.5,.5-1.02,.78-1.5,.72-1.22,2.97-1.77,2.6-3.11-.51-1.87-1.57-4.01-3.34-4.96-8.3-4.43-13.62-11.11-15.76-20.79-3.66,3.33-5.54,7.12-7.41,10.91-.73,1.49-1.34,3.74-3.33,2.94-2.05-.83-1.78-3.15-1-4.98,2.14-5.01,5.05-9.52,8.92-13.38,1.21-1.21,2.16-2.44,1.89-4.36-2.07-14.86,16.48-36.07,29.52-39.77,3.92-1.11,7.75-2.51,11.87-2.83,8.03-.61,14.31,3.95,20.94,7.26,2.69,1.34,5.52,2.97,7.34,5.65,.87,1.28,1.84,.55,2.86,.27,5.55-1.52,11.05-3.16,16.91-3.22,2.12-.02,3.48,.75,5.09,1.98,4.24,3.24,7.12,6.88,5.87,12.61-.32,1.46,.41,2.23,1.76,3.04,3.56,2.15,3.64,6.03,.17,8.06-1.29,.75-1.37,1.02-1.03,2.47,1.19,5.12,.62,5.86-4.71,6.71-6.25,1-12.63,1.02-18.82,2.64-1.23,.32-1.7,.38-2.01,1.71-1.75,7.52-6.03,13.17-12.89,16.84-.67,.36-2.24,.56-1.16,1.95,1.76,2.28,3.55,4.54,5.49,6.66,.82,.89,1.46-.36,2.01-.78,3.46-2.58,6.87-5.26,10.8-7.1,1.67-.78,3.76-2.11,5.06,.24,1.13,2.05-.35,3.84-2,4.85-4.2,2.57-8.16,5.47-12.19,8.28-2.63,1.83-4.88,.51-6.59-1.59-1.97-2.42-3.82-4.96-5.45-7.61-1.01-1.65-1.83-2.33-3.85-1.52-9.5,3.78-19.29,6.19-29.64,5.34-1.99-.16-1.59,.86-.93,1.9,1.57,2.45,.65,3.97-1.68,5.18-2.56,1.33-3.06,2.76-.65,5.07,8.09,7.73,16.02,15.63,23.95,23.53,1.03,1.03,2.03,1.57,3.46,1.43,.83-.08,1.68-.01,2.53-.01,174.76,0,349.52,.01,524.28-.09,3.58,0,4.45,.77,4.45,4.41-.11,180.73-.1,361.47,0,542.2,0,3.45-1.39,3.43-3.96,3.42-175.85-.05-351.69-.04-527.54-.05-1.91,0-3.49,.3-5.27,1.5-15.01,10.2-28.77,22.1-43.96,32.03-.8,.52-1.63,1-2.43,1.49Zm234.95-183.79c.36-.26,.73-.52,1.09-.78,2.57-2.02,4.46-4.7,6.4-7.24,4.47-5.85,9.35-11.44,12.65-18.12,7.37-8.43,9.34-19.55,14.45-29.11,.3-.56,.42-1.44-.66-1.64-.88-.34-1.71-.5-2.12,.66l-1.34,.06c-.82-.06-1.68-.28-2.46-.14-10.94,2-21.34-.75-31.62-3.84-7.92-2.38-14.73-7.09-21.69-11.43-.21-.14-.43-.18-.67-.11l.04,.04c-.67-1.01-1.43-1.88-2.83-1.62l.05,.03c.17-1.3-1.06-1.38-1.72-1.89-12.03-9.4-22.71-19.82-28.45-34.52-1.9-4.86-3.01-9.88-4.62-14.77l.04,.06c.18-.73-.35-.59-.75-.61-3.89-1.35-7.99-1.39-12-1.44-3.77-.04-7.59,.54-10.5,3.47-8.07,4.4-15.14,10.15-21.32,16.88-6.1,6.64-12.49,12.99-18.89,19.34-7.21,7.15-15.59,11.82-26.07,11.79-3.65-1.34-7.33-2.59-10.92-4.06-1.39-.57-2.42-1.07-3.02,.79-2.44,2.5-5.07,4.85-8.49,5.77-1.94,.52-2.4,1.43-2.37,3.26,.09,6.37,.24,12.75-.05,19.11-.16,3.58,1.5,6.15,3.37,8.78,1.08,1.52,2.09,1.8,3.77,.45,10.11-8.12,21.84-13.69,32.72-20.61,8.24-5.24,17.24-9.33,24.07-16.67,1.95-2.1,3.93-4.42,6.65-5.74,1,1.72-.61,2.88-.49,4.29-1.14,.38-1.48,1.49-2.12,2.31-3.87,5.03-7.5,10.31-12.99,13.79-10.18,6.46-20.28,13.06-30.64,19.23-7.89,4.7-15.08,10.08-21.37,16.81-2.48,2.65-3.53,5.24-2.6,8.67-.53,4.99-.44,9.98-.07,14.97-.8,2.1,.67,2.65,2.15,3.31,5.27,2.34,11.04,2.55,16.54,3.92,11.58,2.56,23.19,4.73,35.01,6.1,18.51,2.14,36.33-1.22,54.03-5.67,8.71-2.19,15.84-7.65,23.03-12.9,5.56-4.06,10.93-8.16,14.52-14.17,2.46-2.6,4.58-5.45,6.4-8.53,.62-.56,1.26-1.1,1.86-1.68,.53-.51,1.15-1.11,1.85-.59,.84,.62,.02,1.24-.29,1.83-8.96,17.47-23.53,29.29-40.43,37.99-12.62,6.5-26.87,8.54-40.92,9.87-17.81,1.69-35.36-1.34-52.68-5.11-7.16-1.56-14.6-2.03-21.4-5.35-10.88-5.31-22.94-8.1-32.6-16.02-4.47-3.66-10.24-5.99-10.49-13-.02-.64-.59-1.28-.98-1.88-2.85-4.39-6.9-6.1-12.03-5.36-7.9-.44-8.86,.12-10.44,7.8-.93,4.54-1.24,9.21-1.83,13.82-.01,4.28-1.18,8.75,2.06,12.49,1.22,3.48,3.91,4.64,7.33,4.66,1.91,1.77,4.4,.4,6.55,1.29,6.64,2.76,13.48,5.05,20.04,7.98,8.02,3.58,15.77,7.78,23.77,11.41,7.64,3.47,15.06,7.49,23.22,9.73,.07,.58,.53,.63,.97,.81,6.47,2.63,13.33,3.82,20.03,5.62,1.07,.11,2.16,.15,3.22,.33,15.14,2.61,30.43,2.96,45.55,.92,24.32-3.27,46.33-13.39,67.48-25.3,9.38-5.28,18.35-11.34,25.3-19.83l-.02,.02c.46-.05,.71-.31,.75-.77l-.06,.04Zm-57.73,121.39c.66-.27,1.18-.62,.82-1.46l-.07,.08c1.09,.05,1.15-.84,1.42-1.54l-.03,.02c1.07-.7,1.35-1.76,1.38-2.95,1.28-.49,2.18-1.4,2.89-2.54,2.33-3.76,4.8-7.44,6.96-11.3,8.82-15.82,15.71-32.63,25.06-48.2,2.58-4.29,5.38-8.72,6.06-13.95,3.8-9.2,7.59-18.41,11.39-27.61-3.21,1.87-5.7,4.14-8.46,6.02-25.89,17.57-53.6,30.76-85.13,34.08-14.58,1.54-29.19,1.07-43.72-1.32-8.96-1.47-17.6-4.05-26.23-6.74-5.31-2.38-10.62-4.76-15.93-7.15-.23-.08-.46-.14-.68-.24-14.27-6.63-27.96-14.48-42.73-20.06-1.15-.43-2.18-.97-3.42-.56-2.62-.53-4.97-2.72-8.06-1.28,.72,3.03,4.48,4.31,4.47,7.7-.02,1.2-.07,2.4-.07,3.61,.03,46.1,.06,92.19,.09,138.29,0,2.08,0,4.15,0,6.23,1.54-2.59,4.21-4.4,4.21-7.5,.02-26.96,.01-53.92,0-80.88,0-.68-.07-1.88-.35-1.96-4.69-1.29-1.41-3.08-.3-4.64,.45-.63,.67-1.2,.67-1.96-.08-16.12-.15-32.25-.22-48.37,2.79,.6,4.27,2.22,4.04,5.18v39.89c1.38,.17,1.92-.77,2.63-1.33,6.31-5.01,12.92-9.57,19.85-13.68,2.37-1.4,4.83-2.64,7.3-3.86,.69-.35,1.65-.88,2.23,.15,.52,.92-.16,1.59-.85,2.12-1.14,.88-2.27,1.77-3.46,2.56-8.56,5.7-17.32,11.11-25.25,17.72-1.71,1.42-2.55,2.82-2.49,5.14,.18,6.97,.06,13.95,.12,20.92,0,.84-.55,1.91,.72,2.61,.64-.69,1.27-1.39,1.91-2.07,8.51-8.98,16.72-18.32,27.34-24.92,2.43-1.51,3.07-3.03,3.03-5.67-.14-8.66-.05-17.31-.04-25.97,2.48-.51,4.74,1.3,7.23,.68q5.67,.28,5.67,6.12c0,27.55,.05,55.11-.07,82.66-.01,2.92,.84,3.51,3.59,3.51,30.67-.1,61.34-.06,92.01-.07,1.19,0,2.41,.23,3.55-.36,2.97,.5,5.94,.41,8.92,.07,1.1,.5,2.2,.5,2.76-.67,2.23-4.63,6.07-8.28,7.95-13.11l-.06,.07c1.08,.04,1.19-.81,1.41-1.56l-.02,.02Zm-166.17,46.18c.41-.2,.88-.35,1.24-.62,9.9-7.61,19.85-15.15,30.46-21.77,2-1.25,1.65-2.73,1.29-4.51-9.88,3.11-17.84,9.54-27.07,13.4-.59,.25-.76,.8-.94,1.42-1.22,4.15-3.52,7.83-5.23,11.76-.09,.27-.29,.76-.26,.77,.46,.22,.47-.15,.52-.46Zm55.35-274.45c.31-.72,.28-1.31-.61-1.55-1.35-4.05-4.37-6.35-8.49-8.07v35.49c-.24,1.33,.16,1.88,1.51,1.23,2.75-1.33,5.15-3.08,6.31-6.03,1.49-3.8,2.36-7.79,2.19-11.85-.11-2.62,1.05-5.41-.75-7.87l-.15-1.34Zm-57.42-326.09c-.1-.31-.18-.74-.6-.46-.12,.08,.05,.6,.08,.91,1.42,4.41,2.8,8.83,4.3,13.21,.29,.84,.54,1.76,1.46,2.37,7.17,4.78,12.52,11.52,18.65,17.41,3.65,3.51,7.3,7.02,10.97,10.55,1.77-6.4-.5-10.78-5.01-14.85-6.68-6.02-12.97-12.49-19.08-19.12-3.31-3.6-7.16-6.7-10.77-10.03Zm324.27,267.49c.06,4.26-.81,8.62,1.35,12.65,.57,7.26,.99,14.53,.71,21.82-.1,2.74-.56,5.51,.26,8.23-.12,1.92-.36,3.84-.35,5.76,.29,73.93,.6,147.85,.9,221.78,.03,8.6,0,17.19,0,25.79,.38,.08,.76,.15,1.13,.23,7.26-6.4,14.7-12.61,21.54-19.49,.82-.82,1.04-1.69,1.01-2.88-.89-39.55-.54-79.11-.64-118.66-.04-14.93,.08-29.86-.17-44.78-.95-57.55-.27-115.1-.65-172.65-.12-18.06-.37-36.11-.34-54.17,.05-27.69,.28-55.37,.45-83.06,0-1.1,.09-2.2-1.01-2.85-7.83-4.66-13.44-12.35-21.96-16.06-1.17-.51-1.6-1.54-1.35-2.6,.29-1.25,1.55-.99,2.44-.84,1.92,.32,3.62,1.27,5.15,2.43,5.34,4.06,10.61,8.21,15.98,12.24,1.08,.81,2.01,1.89,3.71,1.86,7.45-.13,14.89,.33,22.34,.69,14.57,.71,29.05-.61,43.57-1.82,14.13-1.18,28.34-1.51,42.56-.6,10.44,.67,20.91,.74,31.39,.58,15.6-.23,31.2-.85,46.8,.02,1.02,.06,1.51-.51,2.15-1.01,3.99-3.1,8.06-6.1,11.95-9.31,2.61-2.15,5.53-4.02,8.06-7.17h-4.06c-76.31,0-152.62,.03-228.93-.1-3.64,0-4.2,1.06-4.17,4.38,.69,64.77,1.52,129.54,1.53,194.32,0,1.91-.27,3.82-.42,5.73-.31,6.51-.62,13.02-.93,19.54Zm-8.18-6.41c.12,.34,.08,.93,.65,.66,.14-.07,0-.75-.02-1.15-.14-4.17,.69-8.35-.02-12.52l.28-14.58c.04-.84,.1-1.68,.1-2.52-.03-61.05-.11-122.1-.03-183.15,0-3.42-.7-4.29-4.22-4.28-86.78,.12-173.57,.11-260.35,.01-3.33,0-4.36,.56-4.36,4.18,.12,87.18,.09,174.36,.09,261.54,0,.6,.07,1.21-.01,1.8-.23,1.6,.46,1.85,1.97,1.87,3.68,.03,6.55,1.8,8.87,4.65,6.29,7.71,5.07,16.69,4,25.43-.75,6.14-1.25,6.09,5.03,7.61,1.62,.39,3.01,1.5,4.76,1.43,2.41,.6,4.66-.09,6.93-.78,6.96-2.12,12.69-6.16,17.74-11.28,6.72-6.82,13.87-13.22,20-20.62,3.35-2.71,6.59-5.57,10.07-8.09,8.18-5.93,16.39-11.97,27.5-9.36,2.4,.43,4.81,.86,7.26,1.3-1.34-39.9,27.62-73.81,56.39-82.33,7.75-2.53,15.76-2.05,23.51-.83,18.56,2.93,35.61,10.07,51.12,20.68,8.44,5.77,15.52,13.15,22.73,20.34Zm-313.71,276.02v42.54c.43,.28,.85,.57,1.28,.85,.8-1.2,1.42-2.57,2.41-3.58,7.35-7.47,15.11-14.5,23.92-20.25,1.29-.84,3.2-2.72,4.39-1.15,1.14,1.49-.99,3.07-2.24,3.99-9.72,7.13-18.35,15.5-27.32,23.5-1.9,1.7-3.17,3.32-2.2,5.95,1.5-1.71,2.67-3.91,4.51-5.01,8.44-5.05,16.81-10.24,26-13.91,1.04-.42,2.21-.66,2.2-2.36-.07-11.37-.04-22.75-.04-34.74-1.76,1.44-3.03,2.46-4.29,3.5-6.79,5.6-12.87,11.94-19.02,18.21-1.51,1.54-3.22,2.88-4.89,4.24-.67,.55-1.54,.85-2.11-.17-.42-.74-.67-1.48,.17-2.24,1.34-1.21,2.61-2.49,3.83-3.82,7.73-8.42,15.39-16.9,25.17-23.08,.5-.32,1.1-.55,1.11-1.28,0-5.67,0-11.34,0-17.37-6.84,4.85-12.65,9.86-18.02,15.4-3.85,3.97-7.83,7.83-11.82,11.67-1.78,1.71-2.05,1.58-3.07-.9h.02Zm-4.06-143.31c-.5-7.63,1.74-15.4-1.21-22.9-.11-.27,.01-.86,.23-1,1.81-1.21,1.05-3.05,1.09-4.62,.1-3.61-.24-7.25,.11-10.83,.34-3.46-.56-6.77-.35-10.31,.72-12.36,.29-24.79,.25-37.19,0-.51,.57-1.52-.72-1.51-3.13,.02-1.51-1.87-.7-2.46,1.58-1.15,1.46-2.58,1.46-4.13,0-12.88,.07-25.77-.06-38.65-.02-2.41,1.2-5.19-1.28-7.28-.25-.21-.15-1.36,.17-1.66,1.7-1.57,1.16-3.56,1.16-5.42,.05-20.74,.05-41.47,.08-62.21,.02-19.38,0-38.76,.09-58.14,.16-35.88,.38-71.75,.58-107.63,0-.84,.03-1.68,.06-2.53,.27-6.53-3.08-11.9-5.39-17.65-.49,1.38-.5,2.66-.49,3.94,1.02,111.36,.62,222.72,.72,334.08,.02,18.66,.06,37.32,.09,55.98-.02,.71,.04,1.43-.08,2.13-.43,2.46,1.4,2.81,2.98,2.85,2.3,.06,1.07-1.78,1.21-2.86Zm536.17-264.07c.49,.33,1,.78,1.14-.28-.01-10.84-.02-21.68-.03-32.52,.07-8.67,0-17.34,.26-26,.11-3.52-1.35-4.35-4.5-4.2-19.48,.88-38.97,.48-58.45,.56-1.8,0-3.61-.02-5.41-.18-14.76-1.3-29.58-1.33-44.29-.2-17.27,1.33-34.47,2.82-51.79,1.15-4.17-.4-8.37-.55-12.57-.72-.56-.02-1.99-.72-1.67,.83,.68,3.28-1.32,2.84-2.76,2.57,0,6.72-.03,13.45,0,20.19,.03,5.6,.06,5.6,5.65,5.07,.24-.02,.48-.05,.72-.07,17.15-1.29,34.29-2.83,51.49-3.25,20.93-.51,41.87-.87,62.8-.79,13.21,.05,26.42-1.53,39.65-.04,5.61,.63,11.29,.6,16.93,.91,2.2,.12,3.89,.77,2.78,3.55-1.27,.92-2.7,.77-4.16,.69-9.23-.52-18.47-1.45-27.71-1.39-21.16,.13-42.33,1.33-63.49,1.03-25.88-.37-51.69,1.3-77.53,1.83-7.09,.15-7.09,.27-7.07,7.27,0,1.32,0,2.65,0,3.97,0,8.26,0,16.53,0,25.29,3.29-2.46,6.24-.84,9.08-1.05,16.78-1.24,33.54-2.85,50.38-3.06,16.84-.21,33.68-.43,50.52-.87,23.33-.62,46.66-.8,70-.3Zm-216.34,180.22c1.77-3.29,1.64-6.93,2.05-10.5,.93-8.26-.08-16.33-2.83-24.06-3.5-9.84-11.79-15.97-19.22-22.46-13.88-12.14-30.33-19.68-48.11-24.13-12.12-3.03-24.33-4.05-36.13,1.69-22.46,10.93-36.34,29.02-43.4,52.58-5.53,18.45-1.96,35.6,9.25,50.92,8.31,11.35,19.36,19.86,31.63,26.67,13.1,7.27,27.07,10.61,42.13,8.77,4.8-.58,9.13-2.53,13.67-3.87,4.09-.17,7.31-2.63,10.6-4.51,12.48-7.13,22.75-16.86,30.8-28.7,4.59-6.75,8.13-14.18,9.56-22.4Zm39.99,192.39c-.09,.07-.25,.13-.27,.22-1.39,6.04-.31,12.15-.52,18.23-.05,1.42,1,.89,1.8,.76,22.86-3.56,45.9-5.11,68.99-5.37,32.74-.37,65.45,1.03,98.18,1.87,1.74,.04,4.99-1.07,4.96,1.72-.03,3.05-3.33,1.97-5.27,1.98-23.71,.13-47.4-.97-71.1-1.38-22.74-.39-45.48-.24-68.18,1.42-9.1,.67-18.2,1.45-27.3,2.09-1.48,.1-2.15,.42-2.12,2.04,.08,4.81,.04,9.63,.02,14.45,0,1.22,.09,2,1.73,1.87,5.04-.39,10.03,.65,15.09,.6,28.63-.28,57.27,.53,85.9-.05,.84-.02,1.69-.01,2.53,.05,12.86,.98,25.73,.76,38.61,.62,11.04-.12,22.09-1.62,33.13-.17,2.61,.34,2.28-1.26,2.28-2.79,0-14.81,0-29.62,0-44.43,0-21.79-.04-43.59,0-65.38,0-1.97-.14-2.91-2.61-2.94-17.68-.15-35.35-1.06-53.02-1.58-40.09-1.18-80.12-.42-120.15,1.69-3.04,.16-4.32,.69-4.2,4.17,.3,8.78,.1,17.58,.11,26.37q0,4.45,4.51,3.91c22.83-2.68,45.74-4.13,68.72-4.84,13.95-.43,27.88-1.24,41.83-1.85,14.78-.65,29.56-1.54,44.36-1.55,4.44,0,8.9,.22,13.28,1.09,1.09,.21,2.85,.03,2.57,1.75-.23,1.4-1.81,1.26-3.01,1.26-22.39-.15-44.73,1.32-67.09,2.17-14.79,.56-29.58,.95-44.36,1.7-19.33,.98-38.64,2.28-57.97,3.33-2.11,.11-2.88,.49-2.81,2.82,.29,10.58,.36,21.18,.55,31.76,.02,.88-.36,2,.9,2.46l-.03-.09Zm-2.72-262.61c.1,1.91,.29,3.82,.3,5.73,.1,21.51,.17,43.03,.27,64.54,0,1.42-.78,3.77,2.28,2.47l-.08,1.6c-1.22,.32-2.33,.34-2.28,2.34,.28,10.71,.36,21.43,.42,32.14,.01,1.88,.73,2.17,2.4,1.9,12.01-1.93,24.12-2.64,36.27-2.91,42.24-.96,84.47-1.16,126.67,1.31,2.64,.15,5.28,.34,7.92,.51,1.04,.07,2.13,.51,2.19,1.51,.06,1.13-.81,1.91-2.12,1.93-2.16,.03-4.33,.2-6.48,.13-17.07-.53-34.14-1.43-51.21-1.6-28.28-.27-56.57-.18-84.86,0-9.49,.06-18.98,.87-28.46,1.3-1.28,.06-2.3,0-2.29,1.83,.07,9.12,.03,18.25,.03,27.58,3.36-.4,6.1-.84,8.84-1.05,23.68-1.83,47.37-1.22,71.08-.6,32.47,.86,64.96,1.36,97.43,2.09,2.11,.05,2.86-.35,2.85-2.69-.22-34.31-.34-68.63-.43-102.94,0-1.76-.52-2.3-2.28-2.12-12.47,1.28-24.99,1.01-37.5,1.18-41.64,.57-83.28-.55-124.92,.16-4.86,.08-9.69,1.18-14.93,.61,1.49-2.76,4.03-2.38,6.07-2.61,13.64-1.51,27.34-2.19,41.07-2.24,42.85-.14,85.7,.25,128.54-.67,3.22-.07,3.99-.9,3.85-4.03-.31-6.73-.19-13.48-.2-20.22-.03-24.93-.07-49.85-.01-74.78,0-2.28-.45-3.1-2.91-3-4.44,.18-8.92,.19-13.35-.11-22.16-1.48-44.26,.2-66.37,1.11-21.75,.9-43.48,2.26-65.22,3.38-10.33,.53-20.67,1.01-31,1.42-1.44,.06-1.8,.51-1.8,1.87,.05,9.01,.02,18.01,.02,27.02,18.83-.82,37.21-3.47,55.74-4.11,38.01-1.32,76.02-2.18,114.05-2.74,1.91-.03,3.86,.16,5.74,.51,1.16,.22,3.05,.2,2.8,2.04-.2,1.5-1.82,1.28-2.98,1.33-6.25,.25-12.5,.59-18.76,.67-52.14,.67-104.25,2.28-156.46,4.8,0,9.83,0,20.17,0,30.51l.07,2.91Zm-37.72,90.87c-3.84,6.03-7.35,12.1-12.16,17.21-9.99,10.59-21.75,18.73-34.98,24.77-1.28,.58-2.77,.94-3.12,2.63-1.44,6.97-5.63,12.85-7.8,19.52-2.4,7.38-6.78,13.63-10.75,20.16-6.1,10.05-14.67,18.14-18.24,30.31-5.1,17.4-12.65,34.16-22.04,49.9-1.77,2.97-3.45,6.01-4.89,9.15-9.57,20.89-19.56,41.52-33.5,59.98-1.23,1.63-2.8,3.2-3.15,5.53,.89,.06,1.61,.15,2.32,.15,48.74,0,97.47-.02,146.21,.08,2.91,0,2.87-1.21,2.88-3.38,.19-77.89-.46-155.77-.79-233.66,0-.78,0-1.56,0-2.35Zm230.65-59.24c-.54,1.36-1.86,1.66-2.68,1.66-3.41,.01-3.63,1.89-3.61,4.68,.37,47.44,.64,94.87,.97,142.31,.01,1.74-.78,3.78,1.76,4.82,.96,.39,.84,1.95-.18,2.36-2.25,.9-1.58,2.69-1.57,4.24,.21,33.95,.51,67.91,.61,101.86,.01,4.07,1.36,8.41-1.27,12.27-.19,.27,.02,.96,.24,1.34,4.72,8.13,11.07,14.8,18.35,20.96V595.15c-6.02,4.47-11.63,8.92-17.56,12.89-2.68,1.79-3.43,3.72-3.32,6.76,1.26,33.65,.78,67.32,1.32,100.98,.5,30.82,.31,61.64,.45,92.46,.03,5.46,.1,5.46,5.14,6.58,.42,.09,.82,.31,1.34,.5Zm-115.24,114.18c-29.48-1.16-51.61-1.55-73.74-.55-2.19,.1-2.79,.57-2.77,2.81,.13,11.68,.15,23.35,.03,35.03-.03,2.45,.68,2.97,3.01,2.71,6.57-.75,13.15-1.46,19.75-1.83,42.43-2.38,84.87-2.63,127.33-1.01,9.13,.35,18.27,.55,27.41,.9,1.83,.07,2.47-.36,2.45-2.34-.1-10.83-.1-21.67-.01-32.5,.01-1.82-.57-2.25-2.26-2.12-3.84,.29-7.68,.5-11.53,.6-11.68,.31-23.31-1-34.96-1.24-20.69-.41-41.39,.49-54.71-.46Zm-78.24-212.67c13.22-1.93,25.8-2.78,38.38-3.61,13.8-.91,27.62-1.48,41.42-2.37,23.29-1.5,46.58-2.68,69.93-2.77,9.51-.04,18.98,.78,28.48,.93,2.22,.04,2.83-.51,2.78-2.76-.15-7.46-.06-14.93-.06-22.39,0-6.13,0-6.19-6.31-6.12-53.64,.58-107.3,.52-160.89,3.43-4.04,.22-8.18,.81-12.17-.6-1.95-.69-1.56,.72-1.56,1.7-.01,11.43,0,22.85,0,34.55Zm-25.49,396.77h226.61c-7.28-5.8-12.39-12.38-16.27-19.93-.33-.64-.52-1.23-1.51-1.08-5.61,.82-11.24,.37-16.88,.3-8.39-.11-16.8,.87-25.2,.85-20.66-.05-41.31-1.27-61.98-.67-5.75,.17-11.53-.51-17.29-.55-14.55-.1-29.09,0-43.64-.13-3.1-.03-6.2-.59-9.28-1.03-5.51-.78-11.04-2.23-14.63,4.22-1.05,1.89-3.26,3.16-4.96,4.68-4.82,4.31-9.66,8.61-14.97,13.35ZM130.12,810.47c1.34-.64,2.19-1.01,3-1.45,9.3-4.99,18.57-10.07,28.95-12.55,1.44-.34,1.27-1.12,1.28-2.05,0-13.24,0-26.47,0-39.94-9.33,2.54-18.06,5.99-26.29,10.68-.78,.45-1.68,1.54-2.45,.45-.68-.97-.05-2.05,.98-2.71,.61-.39,1.2-.8,1.81-1.17,7.2-4.43,14.97-7.58,23.12-9.72,2.23-.58,3.02-1.46,2.91-3.86-.24-5.04-.07-10.11-.07-15.16,0-17.09,.02-34.19-.04-51.28,0-1.2,.92-3.03-1.56-3.27-9.91-.96-19.81-1.97-29.71-3.01-1.23-.13-1.96-.16-1.95,1.48,.05,17.56,.03,35.12,.03,53.1,1.52-.5,2.75-.89,3.97-1.31,7.69-2.68,15.19-5.9,23.16-7.72,1.15-.26,2.73-.92,3.16,.51,.43,1.41-1.28,1.94-2.36,2.19-8.6,2.07-16.69,5.7-25.15,8.19-2.09,.62-2.89,1.54-2.87,3.92,.14,17.57,.07,35.15,.11,52.72,0,.87-.46,1.9,.62,2.79,7.43-4.84,15.48-8.5,23.72-11.75,1.84-.73,4.68-2.91,5.58-.84,.87,2-2.68,2.83-4.49,3.63-7.86,3.5-15.67,7.09-23.18,11.3-1.62,.91-2.44,1.82-2.34,3.86,.21,4.08,.06,8.18,.06,12.94Zm-2.92-306.82c.7-.18,.93-.25,1.16-.31,1.62-.38,3.59-2.42,4.8-.31,1.12,1.94-1.25,2.96-2.57,4.06-.65,.54-1.27,1.13-1.97,1.58-1.3,.84-1.61,2.05-1.37,3.44,1.99,11.58,11.04,20.58,22.4,20.35,11.01-.22,21.22-3.56,30.91-8.65,5.33-2.8,8.38-7.33,10.25-12.89,1.64-4.89,1.72-9.93,1.39-14.95-.71-10.88-7.33-19.81-18.63-21.98-1.75-.34-4.07-.33-4.8-1.93-1-2.16-2.46-1.91-4.07-1.77-12.87,1.12-22.93,7.17-30.37,17.62-3.31,4.65-6.42,9.46-7.13,15.74Zm35.1,366.56c-.27,1.56-1.18,2.25-2.2,2.88-9.1,5.55-18.19,11.12-27.27,16.69-1.07,.66-2.57,.94-2.57,2.65,0,5.92,0,11.85,0,18.27,1.75-1.01,2.89-1.65,4.01-2.32,8.49-5,16.93-10.11,26.21-13.52,2.18-.8,2.94-1.57,2.92-3.91-.1-19.63-.05-39.26-.09-58.89,0-.85,.51-1.91-.47-2.56-10.72,4.64-20.5,10.91-30.76,16.26-.93,.49-1.99,.81-1.98,2.23,.04,5.56,.02,11.12,.02,17.14,1.64-.94,2.67-1.52,3.69-2.12,7.55-4.43,14.72-9.56,22.89-12.88,1.25-.51,3.16-2.27,4.07-.38,.85,1.77-1.54,2.39-2.8,3.02-8.8,4.39-17.02,9.78-25.51,14.7-.96,.56-2.26,.82-2.24,2.44,.05,5.71,.02,11.42,.02,17.54,11.03-5.79,20.4-13.68,32.06-17.26Zm1.04-71.37c-11.13,4.59-21.44,9.57-31.63,14.8-.83,.43-1.63,.75-1.62,2.04,.06,9.07,.03,18.13,.03,27.62,10.83-6.07,20.93-12.32,31.85-17,1.27-.55,1.39-1.37,1.39-2.53-.03-8.17-.02-16.34-.02-24.93Zm-.17,170.91v-48.69c-11.07,6.98-21.91,13.64-32.19,21.41,3.51,2.58,5.6,5.98,7.11,9.61,1.16,2.79,2.18,2.47,4.26,1.03,4.23-2.94,8.59-5.72,13.04-8.32,1.6-.94,4.03-3.36,5.3-1.27,1.45,2.39-1.96,3.28-3.56,4.37-4.88,3.33-9.92,6.43-15.78,10.18,8.4,2.99,13.77,9.51,21.82,11.68Zm.17-338.86c0-6.78-.1-13.27,.06-19.74,.04-1.74-.96-2.23-2.03-2.94-6.93-4.65-13.94-9.17-20.53-14.3-3.44-2.68-6.89-5.35-10.75-8.34,0,9.21,.03,17.71-.03,26.22,0,1.17,.48,1.69,1.41,2.17,10.52,5.46,20.3,12.3,31.86,16.94Zm-33.23-15.33c0,8.64,.04,16.79-.03,24.94-.02,1.66,.77,2.13,2.13,2.75,8.78,3.96,17.8,7.38,26.3,11.96,1.49,.8,2.83,2.16,4.84,2.19,0-6.64-.17-13.14,.09-19.61,.1-2.5-.87-3.71-2.85-4.59-10.59-4.73-20.21-11.13-30.47-17.62Zm.17,323.22c10.45-8.13,20.97-14.76,31.71-21.08,.63-.37,1.33-.69,1.33-1.52,.02-6.5,.01-13.01,.01-19.74-11.16,5.17-21.25,11.04-31.35,16.88-1.08,.62-1.76,1.28-1.74,2.75,.09,7.3,.04,14.61,.04,22.71Zm-.16-293.7c0,8.67,.05,16.85-.04,25.02-.02,1.85,.26,2.67,2.41,2.81,7.06,.45,14.11,1.18,21.16,1.8,3.1,.27,7.32,1.88,9.02,.46,2.07-1.73,.47-6.06,.68-9.26,.06-.84-.06-1.69,.02-2.52,.15-1.47-.34-2.3-1.74-3.07-10.06-5.6-20.77-9.85-31.5-15.25Zm33.24-39.67c0-2.37-.21-4.44,.05-6.45,.41-3.3-.79-5.7-3.23-7.84-3.24-2.85-6.4-5.81-9.4-8.91-6.01-6.2-11.9-12.52-17.83-18.8-.75-.8-1.52-1.74-2.72-1.35-1.5,.49-.69,1.85-.68,2.78,.07,5.16,.24,10.32,.43,15.48,.04,.99-.35,2.06,.89,2.86,10.88,7.08,20.82,15.55,32.49,22.22Zm58.93-110.45c-3.62,.01-4.21-.61-3.76-4.35,.21-1.76,.75-3.5,.1-5.5-6.32,2.34-12.58,4.67-18.87,6.94-.84,.3-1.77,.45-1.55,1.55,.99,4.94,.24,9.89-.07,15.2,6.24-3.68,12.96-2.68,19.32-3.65,1.94-.29,2.22-1.2,2.28-2.87,.07-2.11-1.31-1.53-2.39-1.55-1.68-.03-3.37-.06-5.05,0-2.16,.09-3.14-.96-3.01-3.04,.15-2.41,1.9-1.49,3.22-1.47,3.33,.04,6.6-.34,9.77-1.26Zm-5.69-13.17c-2.39-3.49-4.98-5.36-9.19-4.37-2.29,.54-4.67,.81-6.98,1.38-7.08,1.72-7.02,1.69-3.98,8.35,.53,1.16,.87,1.43,2.04,1.01,5.94-2.13,11.91-4.2,18.11-6.37Zm-71.32,56.92c-.07-.07-.16-.22-.21-.21-.15,.03-.3,.13-.44,.2,.07,.07,.16,.21,.22,.2,.15-.03,.3-.12,.44-.19Z"
       id="path32" />
    <path
       class="cls-12"
       d="M194.27,417.37c-2.74-3.12-3.81-6.42-4.9-9.65-5.38-15.97-8.39-32.54-12.29-48.88-1.23-5.14-2.51-10.25-4.1-15.3-.94-2.97-2.43-4.05-5.66-4.05-14.34,.02-28.62-.98-42.48-5.04-21.32-6.25-31.05-18.14-31.38-40.2-.46-30.33-.18-60.68-.03-91.02,.03-6.85,1.06-13.67,2.86-20.32,4.73-17.41,16.09-26.36,34.79-27.46,2.04-.12,4.09-.11,6.14-.11,168.62,0,337.24,0,505.86,0,8.2,0,16.35,.41,24.4,2.09,17.64,3.7,26.08,13.23,27.44,31.22,1.49,19.83,.52,39.71,1.3,59.56,.58,14.91,.67,29.85,.83,44.77,.23,20.8-9.06,33.94-28.68,40.84-9.06,3.19-18.44,4.34-28.01,4.34-31.65-.02-63.31,0-94.96,0-113.01,0-226.03,.02-339.04-.09-3.38,0-4.38,.95-4.82,4.2-3.3,24.1-4.97,48.35-7.02,72.57-.06,.66-.12,1.32-.24,2.54Zm-2.81-19.51c.26-2.83,.51-5.66,.77-8.49,1.58-17.13,2.92-34.28,5.61-51.29,.53-3.38,1.62-4.37,5.13-4.36,145.14,.11,290.28,.09,435.42,.09,2.29,0,4.58,.05,6.86-.08,9.55-.55,18.89-2.11,27.51-6.5,13.17-6.69,20.36-17.13,20-32.3-.37-15.52-.31-31.06-.9-46.58-.75-19.61,.18-39.25-1.26-58.84-1.21-16.55-7.95-24.32-24.05-27.84-7.92-1.73-15.97-1.99-24.04-1.99-168.25,0-336.49,0-504.74,0-2.05,0-4.09-.02-6.14,.08-17.32,.85-26.92,8.68-31.36,25.45-1.55,5.85-2.45,11.84-2.48,17.83-.16,30.58-.43,61.16,.03,91.74,.29,19.15,8.25,28.96,26.53,34.89,14.48,4.7,29.49,5.49,44.55,5.5,3.7,0,5.92,1.48,7.26,4.68,.64,1.55,1.21,3.13,1.69,4.74,3.22,10.71,5.26,21.7,7.86,32.56,1.66,6.94,3.07,13.96,5.74,20.7Z"
       id="path34" />
    <path
       class="cls-18"
       d="M98.88,513.3c-4.14-6.43,.3-26.61,7.05-31.6-5.59,10.23-8.08,20.53-7.05,31.6Z"
       id="path36" />
    <path
       class="cls-18"
       d="M107.61,502.17c.52-5.41,1.91-10.55,4.47-15.33,.39-.73,.78-2.14,1.95-1.61,1.42,.65,.11,1.61-.2,2.33-2.02,4.71-3.33,9.61-3.93,14.7-.16,1.35,.54,3.76-1.03,3.72-2.12-.05-.73-2.51-1.26-3.82Z"
       id="path38" />
    <path
       class="cls-18"
       d="M208.79,525.55c3.24-.42,4.27,1.01,5.18,2.81,.81,1.6,.91,3.32,.52,4.9-.41,1.71-.37,4.88-2.22,4.56-1.73-.3-.21-2.97,.1-4.6,.57-2.99-.71-5.3-3.58-7.67Z"
       id="path40" />
    <path
       class="cls-18"
       d="M224.04,533.78c-.09,1.47,.1,3-1.64,2.91-1.56-.08-1.18-1.56-1.16-2.56,.05-2.08-.59-4-1.14-5.95-.2-.73-.4-1.52,.35-1.91,.93-.48,1.17,.47,1.49,1.05,1.19,2.1,1.9,4.35,2.09,6.47Z"
       id="path42" />
    <path
       class="cls-17"
       d="M127.2,503.65c.71-6.28,3.81-11.09,7.13-15.74,7.44-10.45,17.5-16.5,30.37-17.62,1.61-.14,3.07-.39,4.07,1.77,.73,1.6,3.05,1.59,4.8,1.93,11.29,2.17,17.91,11.11,18.63,21.98,.33,5.01,.25,10.06-1.39,14.95-1.87,5.56-4.92,10.1-10.25,12.89-9.69,5.09-19.9,8.43-30.91,8.65-11.36,.23-20.41-8.77-22.4-20.35-.24-1.39,.07-2.6,1.37-3.44,.7-.45,1.32-1.04,1.97-1.58,1.32-1.1,3.69-2.12,2.57-4.06-1.22-2.11-3.18-.07-4.8,.31-.23,.05-.46,.12-1.16,.31Zm49.16,2.11c-.63-3.1-1.28-6.41-4.02-8.7-2.59-2.16-4.44-1.53-5,1.76-.52,3.11,.11,6.19,1.36,9.03,.79,1.79,1.84,3.85,4.45,3.16,2.55-.67,2.97-2.82,3.2-5.25Zm-32.82-16.88c.26-.21,.69-.38,.8-.67,1.13-2.82,3.13-4.77,5.8-6.14,.54-.28,.98-.76,.66-1.46-.28-.62-.87-.74-1.49-.81-3.06-.31-7.68,4.25-7.21,7.22,.13,.8,.37,1.68,1.45,1.85Zm37.06,.68c-.3-1.75-.77-3.74-3.34-4.01-1.41-.15-2.05,.72-1.68,1.98,.58,2.01,.4,4.77,3.19,5.16,1.69,.24,1.88-1.43,1.83-3.14Zm-6.61-14.22c-.99,.31-1.79,.52-2.55,.81-1.08,.42-1.35,1.25-.94,2.29,.19,.47,6.72,1.27,6.99,.86,.61-.94,.43-1.91-.44-2.49-.96-.64-2.09-1.01-3.07-1.47Zm-17.57,13.16c-2.82-.09-2.62,1.21-2.45,2.2,.3,1.72,.59,3.68,2.94,3.71,1.17,.02,2.19-.8,1.88-2.07-.44-1.81-1.01-3.74-2.36-3.84Z"
       id="path44" />
    <path
       class="cls-13"
       d="M483.4,780.78c5.39,1.17,10.74-.12,16.03-.64,21.33-2.09,42.7-2.64,64.11-2.65,26.93-.02,53.85-.73,80.78-.2,3.35,.07,6.75-.25,10.01,.89,.86,.3,2.19,.37,2.12,1.54-.08,1.4-1.42,1.31-2.5,1.39-9.48,.73-18.98,.4-28.48,.5-34.62,.34-69.26-.4-103.88,.87-12.71,.47-25.42,.82-38.13,1.22-.02-.97-.04-1.94-.07-2.91Z"
       id="path46" />
    <path
       class="cls-14"
       d="M486.22,1046.39c.38-2.8,2.92-2.52,4.65-2.94,12.75-3.06,25.77-4.47,38.83-5.03,24.98-1.07,49.94-2.33,74.92-3.48,17.29-.8,34.61-.91,51.9,.57,1.07,.09,2.14,.33,3.19,.56,.97,.21,2.59-.25,2.56,1.28-.03,1.85-1.74,1.64-3.02,1.62-5.77-.1-11.54-.14-17.31-.38-16.36-.71-32.68,.1-49.01,.99-10.79,.59-21.59,1.25-32.39,1.57-24.48,.73-48.95,1.55-73.16,5.68-.51,.09-.93,0-1.17-.51l.03,.09Z"
       id="path48" />
    <path
       class="cls-19"
       d="M486.31,856.42c7.75-2.3,15.78-3.1,23.76-3.7,30.23-2.27,60.53-2.37,90.82-2.98,14.66-.3,29.33-.3,43.96-1.5,3.11-.26,6.2-.74,9.3-1.1,1.19-.13,2.75-.32,2.92,1.18,.15,1.34-1.27,1.81-2.49,2.09-8.7,1.96-17.57,2.59-26.43,2.77-31.49,.64-63,.96-94.49,1.63-15.85,.34-31.69,1.06-47.43,3.21,.03-.53,.06-1.06,.08-1.6Z"
       id="path50" />
    <path
       class="cls-15"
       d="M222.28,494.96c-3.17,.92-6.44,1.3-9.77,1.26-1.32-.02-3.07-.93-3.22,1.47-.13,2.08,.85,3.13,3.01,3.04,1.68-.07,3.37-.04,5.05,0,1.08,.02,2.46-.56,2.39,1.55-.06,1.68-.34,2.58-2.28,2.87-6.36,.97-13.08-.03-19.32,3.65,.32-5.31,1.06-10.26,.07-15.2-.22-1.1,.71-1.24,1.55-1.55,6.28-2.27,12.54-4.6,18.87-6.94,.64,2,.11,3.74-.1,5.5-.45,3.74,.14,4.36,3.76,4.35Z"
       id="path52" />
    <path
       class="cls-15"
       d="M216.59,481.79c-6.2,2.17-12.17,4.24-18.11,6.37-1.17,.42-1.51,.15-2.04-1.01-3.04-6.66-3.1-6.63,3.98-8.35,2.31-.56,4.69-.84,6.98-1.38,4.21-.99,6.79,.88,9.19,4.37Z"
       id="path54" />
    <path
       class="cls-20"
       d="M122.26,935.64c1.57,.32,3.12,.68,4.11,2.12-.15,1.08,1.08,2.93-1.21,2.86-1.58-.04-3.41-.39-2.98-2.85,.12-.69,.06-1.42,.08-2.13Z"
       id="path56" />
    <path
       class="cls-1"
       d="M387.94,920.06c-.38,1.29-1.09,1.5-2.12,.66,.41-1.16,1.24-1,2.12-.66Z"
       id="path58" />
    <path
       class="cls-1"
       d="M185.47,870.06c-1.19-.13-1.38-.65-.61-1.55,.89,.24,.92,.83,.61,1.55Z"
       id="path60" />
    <path
       class="cls-20"
       d="M130.41,1081.06h0Z"
       id="path62" />
    <path
       class="cls-13"
       d="M348.2,809.45c2.05,.99,1.97,3.09,1.82,4.66-.52,5.23,1.88,9.21,4.89,13.01,.99,1.25,2.35,2.68,.78,3.99-1.3,1.08-2.64-.43-3.68-1.31-6.43-5.49-7.79-12.83-3.8-20.35Z"
       id="path64" />
    <path
       class="cls-2"
       d="M346.84,832.65c.1,3.89-4.48,10.82-7.51,11.82-1.36,.45-2.88,.63-4.09-.47-1.38-1.26-1.09-3.11-.51-4.36,1.87-4.03,5.1-6.96,9.02-8.89,2.07-1.01,2.95,.59,3.09,1.9Z"
       id="path66" />
    <path
       class="cls-14"
       d="M334.65,876.38c-.08-2.93,1.54-3.52,3.96-2.76,5.44,1.7,12.49,12.92,11.86,18.68-.13,1.21-.48,2.2-1.8,2.24-1.28,.04-1.86-.76-1.94-2.07-.33-5.62-3.42-9.79-7.17-13.63-1.38-1.41-2.88-2.5-4.95-2.5l.03,.04Z"
       id="path68" />
    <path
       class="cls-2"
       d="M379.07,872.82c-1.72-.28-3.23-1.23-2.22-3.76,1.39-3.49,3.56-6.47,6.48-8.87,1.4-1.16,2.62-.47,3.96,.15,1.66,.76,.91,1.9,.69,3.04-1.07,5.45-4.68,9.54-8.91,9.45Z"
       id="path70" />
    <path
       class="cls-13"
       d="M407.85,856.78c-5.44-.55-10.02-1.3-14.35-3.13-1.45-.61-2.76-1.44-3.84-2.61-.73-.79-1.74-1.63-.81-2.76,.97-1.18,1.66,.19,2.39,.57,5.31,2.79,11.05,3.81,16.93,4.21,1.3,.09,3.18-1.03,3.32,1.25,.13,2.08-1.9,2.11-3.38,2.46-.34,.08-.72,.01-.27,.01Z"
       id="path72" />
    <path
       class="cls-14"
       d="M370.98,845.52c-3.67,7.73-8.78,14.41-13.84,21.12-.62,.82-1.43,1.42-2.45,.76-1-.64-.92-1.93-.42-2.59,5.12-6.82,10.19-13.7,16.71-19.3Z"
       id="path74" />
    <path
       class="cls-18"
       d="M137.13,708.97c-1.25-.4-2.58,.49-2.88-.84-.32-1.41,1-1.77,2.04-1.96,7.86-1.49,15.73-2.95,23.61-4.33,.93-.16,2.34-.64,2.65,.93,.2,1.05-.86,1.42-1.63,1.57-8.05,1.61-16.11,3.15-23.79,4.64Z"
       id="path76" />
    <path
       class="cls-2"
       d="M176.36,505.76c-.23,2.43-.65,4.58-3.2,5.25-2.62,.69-3.66-1.37-4.45-3.16-1.26-2.84-1.89-5.93-1.36-9.03,.55-3.29,2.41-3.92,5-1.76,2.74,2.28,3.39,5.6,4.02,8.7Z"
       id="path78" />
    <path
       class="cls-14"
       d="M143.54,488.88c-1.08-.17-1.32-1.05-1.45-1.85-.47-2.96,4.15-7.53,7.21-7.22,.63,.06,1.21,.19,1.49,.81,.32,.7-.12,1.19-.66,1.46-2.66,1.37-4.67,3.32-5.8,6.14-.12,.29-.54,.46-.8,.67Z"
       id="path80" />
    <path
       class="cls-19"
       d="M180.61,489.55c.05,1.71-.14,3.38-1.83,3.14-2.78-.4-2.61-3.16-3.19-5.16-.37-1.26,.28-2.13,1.68-1.98,2.57,.27,3.04,2.26,3.34,4.01Z"
       id="path82" />
    <path
       class="cls-14"
       d="M174,475.33c.98,.46,2.11,.84,3.07,1.47,.87,.58,1.06,1.55,.44,2.49-.27,.41-6.8-.39-6.99-.86-.42-1.03-.14-1.87,.94-2.29,.76-.3,1.56-.5,2.55-.81Z"
       id="path84" />
    <path
       class="cls-19"
       d="M156.43,488.49c1.36,.1,1.92,2.03,2.36,3.84,.31,1.27-.71,2.09-1.88,2.07-2.34-.03-2.64-2-2.94-3.71-.17-.99-.37-2.29,2.45-2.2Z"
       id="path86" />
  </g>
  <path
     class="cls-16"
     d="M175.68,1022.64c.39-3.26,.04-6.62-.85-9.78-.84-3-4.25-5.15-7.32-4.16s-5.06,4.11-4.16,7.32c.16,.57,.28,1.15,.43,1.72,.12,.72,.14,.78,.06,.17,.03,.29,.06,.59,.07,.88,.08,1.29,.02,2.56-.13,3.84-.37,3.1,3,6.09,5.95,5.95,3.54-.16,5.56-2.63,5.95-5.95h0Z"
     id="path90" />
  <path
     class="cls-16"
     d="M132.9,1023.3c4.01-3.55,8.04-7.13,12.71-9.8,4.14-2.37,8.86-3.4,12.85-6.06,1.59-1.06,.1-3.64-1.5-2.57-4.43,2.96-9.78,4.1-14.32,6.95-4.27,2.68-8.07,6.04-11.83,9.37-1.44,1.27,.67,3.37,2.1,2.1h0Z"
     id="path92" />
  <path
     class="cls-16"
     d="M129.36,1005.48c-.65-5-.24-9.84,1.29-14.65,.58-1.83-2.29-2.61-2.87-.79-1.6,5.04-2.08,10.19-1.4,15.44,.24,1.87,3.22,1.9,2.98,0h0Z"
     id="path94" />
</svg>
