<?xml version="1.0" encoding="UTF-8" standalone="no"?>
<svg
   id="Layer_8"
   viewBox="0 0 865 1388"
   version="1.1"
   sodipodi:docname="rosieOnboarding-07.svg"
   inkscape:version="1.2.1 (9c6d41e4, 2022-07-14)"
   xmlns:inkscape="http://www.inkscape.org/namespaces/inkscape"
   xmlns:sodipodi="http://sodipodi.sourceforge.net/DTD/sodipodi-0.dtd"
   xmlns="http://www.w3.org/2000/svg"
   xmlns:svg="http://www.w3.org/2000/svg">
  <sodipodi:namedview
     id="namedview145"
     pagecolor="#505050"
     bordercolor="#ffffff"
     borderopacity="1"
     inkscape:showpageshadow="0"
     inkscape:pageopacity="0"
     inkscape:pagecheckerboard="1"
     inkscape:deskcolor="#505050"
     showgrid="false"
     inkscape:zoom="0.17002882"
     inkscape:cx="438.16102"
     inkscape:cy="694"
     inkscape:window-width="1309"
     inkscape:window-height="456"
     inkscape:window-x="0"
     inkscape:window-y="25"
     inkscape:window-maximized="0"
     inkscape:current-layer="Layer_8" />
  <defs
     id="defs4">
    <style
       id="style2">.cls-1{letter-spacing:0em;}.cls-2{letter-spacing:0em;}.cls-3{fill:#090909;}.cls-4{font-family:ComicNeue-Regular, 'Comic Neue';}.cls-5{fill:#0e1b1e;}.cls-6{fill:#f6f6f6;}.cls-7{letter-spacing:-.06em;}.cls-8,.cls-9{font-size:36px;}.cls-10{fill:#f5f5f5;}.cls-9{font-family:ComicNeue-Bold, 'Comic Neue';}.cls-11{letter-spacing:-.02em;}.cls-12{font-family:ComicNeue-BoldItalic, 'Comic Neue';}.cls-13{fill:#131313;}.cls-14{letter-spacing:0em;}.cls-15{letter-spacing:0em;}.cls-16{letter-spacing:-.02em;}.cls-17{letter-spacing:0em;}.cls-18{fill:#111;}.cls-19{fill:#bdccd4;}.cls-20{letter-spacing:-.02em;}.cls-21{fill:#fdfdfd;}.cls-22{fill:#f9f9f9;}.cls-23{fill:#060909;}.cls-24{fill:#121212;}.cls-25{letter-spacing:0em;}.cls-26{fill:#040809;}.cls-27{fill:#efefef;}.cls-28{fill:#fa99af;}.cls-29{letter-spacing:-.03em;}.cls-30{letter-spacing:-.03em;}.cls-31{letter-spacing:-.03em;}.cls-32{fill:#091113;}.cls-33{fill:#f2f2f2;}.cls-34{fill:#c4c4c4;}.cls-35{fill:#fefefe;}.cls-36{fill:#060606;}.cls-37{fill:#fcfcfc;}</style>
  </defs>
  <g
     id="g72">
    <path
       class="cls-35"
       d="M42,0c260.25,0,520.5,0,780.75,0,0,462.67,0,925.33,0,1388-260.25,0-520.5,0-780.75,0,0-462.67,0-925.33,0-1388Zm116.38,1127.67H722.17V594.52H347.73c-.27-1.7-.7-3.21-.71-4.72-.07-11.02-.48-21.95-3.61-32.7-1.24-4.26-3.19-7.24-7.14-8.72-10.31-3.86-20.86-6.36-31.69-4.7-2.65-3.92-4.94-7.88-7.78-11.4-6.01-7.45-12.99-13.84-23.1-14.56-8.02-.57-16.1-.32-24.16-.35-1.17,0-2.38,.38-3.5,.78-12.87,4.49-22,13.47-29.11,24.72-1.43,2.27-2.39,5.04-2.8,7.7-.53,3.49-1.79,5.65-4.77,8.06-6.06,4.9-8.91,12.09-9.4,19.98-.1,1.65,.05,3.38,.45,4.98,.22,.89,1.37,2.34,1.76,2.24,1.13-.3,2.24-1.11,3.06-2,.49-.53,.39-1.58,.59-2.39,1.47-5.88,3.4-11.53,7.75-16.75,2.29,13.49,7.31,24.4,21.42,28.7l-.78,1.1h-75.84v533.19Zm56.84-606.82c-.45-1.33-.75-2.21-1.04-3.08-6.34-18.99-11.11-38.32-12.19-58.4-.5-9.17-.23-18.28,3.86-26.84,1.15-2.42,2.69-3.4,5.56-3.4,28.52-.03,57.05-.24,85.57-.39,84.13-.46,168.26-.92,252.4-1.37,68.12-.36,136.25-.69,204.37-1.09,3.71-.02,7.48-.34,11.1-1.09,17.1-3.57,27.54-14.82,34-30.33,6.03-14.45,7.87-29.73,7.9-45.2,.12-81.77,.15-163.53,.01-245.3-.02-8.98-.73-18.07-2.22-26.92-2.44-14.56-9.14-26.83-22.4-34.51-11.16-6.46-23.49-8.23-36.13-8.23-203.55-.02-407.1-.02-610.65,.03-4.07,0-8.21,.26-12.19,1.06-32.96,6.56-55.87,34.6-55.88,68.41-.04,89.47-.04,178.94,0,268.42,0,14.08,4.74,26.65,13.33,37.69,8.42,10.82,19.4,16.38,33.39,16.09,12.15-.26,24.31,.16,36.46,.24,6.92,.05,13.84,0,20.67,0,.82,17.55,3.03,33.96,8.04,49.9,3.52,11.2,8.28,21.79,16.01,30.79,5.31,6.18,11.65,10.91,20.01,13.52Z"
       id="path6" />
    <path
       class="cls-36"
       d="M158.38,1127.67V594.48h75.84l.78-1.1c-14.12-4.3-19.13-15.21-21.42-28.7-4.35,5.21-6.28,10.87-7.75,16.75-.2,.81-.11,1.86-.59,2.39-.82,.89-1.93,1.7-3.06,2-.39,.1-1.54-1.35-1.76-2.24-.39-1.6-.55-3.33-.45-4.98,.49-7.89,3.34-15.08,9.4-19.98,2.99-2.41,4.24-4.57,4.77-8.06,.41-2.66,1.37-5.43,2.8-7.7,7.1-11.24,16.23-20.23,29.11-24.72,1.13-.39,2.33-.78,3.5-.78,8.05,.03,16.14-.22,24.16,.35,10.11,.72,17.09,7.11,23.1,14.56,2.84,3.52,5.13,7.48,7.78,11.4,10.82-1.66,21.37,.84,31.69,4.7,3.95,1.48,5.9,4.46,7.14,8.72,3.13,10.75,3.54,21.67,3.61,32.7,0,1.51,.44,3.02,.71,4.72h374.44v533.14H158.38Zm157.41-562.62h-6.36v5.1c-.87,8.03-1.74,16.06-2.61,24.14h35.44c-.41-9.61-.81-18.96-1.22-28.4-8.54-3.42-16.97-.34-25.25-.85Zm262.17,125.75c3.26-.37,4.16,1.56,4.34,4.33,.64,9.58,1.36,19.15,1.99,28.74,1.28,19.67,2.81,39.33,3.67,59.02,.85,19.59,1.01,39.21,1.48,58.82,.05,1.92,.2,3.85,.23,5.77,.27,16.35,.64,32.7,.75,49.06,.09,13.48-.19,26.96-.21,40.44-.02,20.69,.2,41.39,0,62.08-.06,6.66,.1,12.9,3.05,19.22,3.01,6.42,5.2,13.41,6.51,20.38,.95,5.06-.1,10.51-.27,15.78-.38,11.66-.87,23.32-1.1,34.99-.18,8.87-.04,17.74-.04,26.91h12.82c7.97,0,8.03,.02,10.85-7.43,5.57-14.72,13.52-28.09,22.99-40.57,5.04-6.64,10.38-13.04,15.8-19.82-.63-.78-1.71-2.06-2.74-3.38-6.06-7.73-13.01-14.95-17.95-23.34-6.55-11.12-13.9-22.09-14.27-35.98-.36-13.48-.08-26.77,3.17-39.94,6.36-25.74,19.83-47.65,36.4-67.85,9.53-11.62,21.95-16.76,37.06-15.01,1.99,.23,4.02,.03,6.17,.03v-256.98c-1.33,0-2.4,0-3.47,0-140.47,0-280.94,0-421.4,0-.48,0-1.04-.16-1.43,.03-1,.49-2.21,.92-2.82,1.76-1.8,2.46-3.23,2.52-5.2,.14-.69-.83-1.82-1.83-2.77-1.84-10.21-.13-20.42-.08-30.13-.08-1.27,2.48-2.37,4.62-3.47,6.77l-1.29-.27c-.96-2.12-1.93-4.24-2.86-6.29h-61.74v510.06h17.86c10.11,0,20.22,.03,30.33-.05,1.04,0,2.08-.72,3.99-1.43-4.42-.83-7.59-1.33-10.71-2.04-7.35-1.66-12.06-6.85-12.41-14.31-.77-16.57-1.31-33.16-1.86-49.74-.1-3.09,.39-6.06-2.6-8.43-1.18-.93-1.76-3.25-1.78-4.94-.11-11.28-.43-22.58,.16-33.83,.81-15.33,2.24-30.63,3.69-45.92,.54-5.64,.44-11.64,5.03-16.12,.44-.42,.56-1.3,.6-1.98,.46-7.68,.92-15.37,1.3-23.05,.61-12.49,1.22-24.98,1.67-37.48,.06-1.65-.73-3.37-1.3-4.99-1.14-3.19-3.32-6.3-3.45-9.51-.45-10.65-.46-21.34-.14-32,.4-13.19,1.16-26.37,2.09-39.53,.21-2.94,1.72-5.8,2.75-8.66,.39-1.08,1.54-2.03,1.57-3.07,.28-9,.47-18.01,.52-27.02,.09-18.49,1.1-36.89,4.52-55.11,1.32-7.02,6.33-12.23,13.36-13.17,8.77-1.18,17.49-2.04,26.44-2.12,18.71-.18,37.41-2.14,56.12-3.17,8.88-.49,17.79-.73,26.68-.71,17.05,.05,34.11,.49,51.16,.55,8.54,.03,17.09-.88,25.61-.58,12.46,.44,24.88,2.2,37.33,2.31,24.66,.23,49.32-.41,73.98-.43,9.48,0,18.99,.38,28.44,1.21,7.21,.63,14.36,2.14,21.49,3.47,3.13,.59,4.48,2.61,3.12,5.84-1.06,.03-2.21,.36-3.16,.06-15.01-4.75-30.57-4.39-46-4.79-11.05-.28-22.12,.35-33.18,.49-6.86,.09-13.73,.19-20.58,0-16.69-.46-33.38-1.21-50.08-1.61-11.64-.28-23.29-.25-34.94-.21-13.22,.05-26.5,1.07-39.65,.22-16.63-1.08-33.22-1.05-49.69,.69-17.61,1.86-35.17,2.37-52.84,2.18-6.27-.07-12.63,.84-18.81,1.99-5.07,.94-8.67,4.6-9.48,9.67-1.45,9.1-2.81,18.28-3.13,27.47-.81,23.55-1.1,47.13-1.46,70.7-.17,11.43,.18,22.87-.06,34.29-.56,26.32-1.2,52.65-2.08,78.96-.49,14.78-1.4,29.54-2.31,44.3-.91,14.85-2.24,29.68-3.02,44.53-.68,12.85-1.26,25.74-1.15,38.6,.14,16.71,.94,33.41,1.59,50.12,.17,4.43,.62,8.86,1.29,13.24,.44,2.84,1.81,5.14,5.34,5.22,3.06,.07,6.12,.71,9.18,.67,5.14-.06,6.6,.71,8.62,5.96,12.81,0,25.91,.34,38.98-.08,20.41-.66,40.68-2.65,61.24-1.89,31.96,1.18,64-.03,96-.1,10.34-.02,20.7,0,31.01,.67,19.19,1.25,38.33,3.23,57.52,4.41,9.67,.6,19.41,.1,29.23,.1v-10.62c-7.84-.55-15.56-1.06-23.27-1.65-16.17-1.24-32.34-2.33-48.49-3.84-13.76-1.28-27.44-4-41.2-4.41-25.36-.76-50.75-.22-76.12-.35-22.26-.11-44.53-.36-66.79-.6-21.96-.24-43.92-.56-65.87-.83-2.6-.03-5.18-2.49-5.19-5.52-.02-5.29,.02-10.6,.35-15.87,.64-10.08,1.59-20.14,2.27-30.21,.91-13.56,1.65-27.13,2.53-40.69,1.25-19.3,3.14-38.58,3.72-57.91,1.04-35.01,1.49-70.05,1.83-105.08,.21-22.03-.56-44.07-.32-66.1,.21-19,1.24-37.99,1.86-56.98,.11-3.37-.02-6.74-.02-10.11,0-3.35,1.04-5.71,4.93-6.16,5.72-.67,11.39-1.84,17.12-2.46,14.44-1.56,28.73-4.38,43.4-3.85,25.73,.93,51.47,1.45,77.21,2.16,8.17,.23,16.35,.49,24.52,.78,19.96,.71,39.91,1.74,59.87,2.1,20.93,.38,41.87,.08,62.8,.18,6.47,.03,12.95,.26,19.42,.63,3.79,.22,7.61,.63,11.31,1.44,3.27,.72,6.53,2.03,7.16,6.03,1.04,6.61,2.18,13.22,2.88,19.87,1.04,9.79,1.87,19.61,2.52,29.43,.85,12.69,2.14,25.41,2.02,38.1-.38,39.24-1.29,78.47-2.11,117.7-.18,8.65-.89,17.29-1.24,25.94-.68,16.82-1.3,33.64-1.83,50.46-.03,.88,.81,2.22,1.61,2.63,6.44,3.26,12.97,6.34,19.48,9.48-.03,.23,.1-.32,.11-.86,.4-16.36,.99-32.72,1.11-49.08,.06-8.89-1.02-17.78-.98-26.67,.05-11.66,1-23.32,.99-34.97,0-19.73-.43-39.46-.72-59.19-.15-10.22-.15-20.45-.68-30.65-.75-14.4-2.18-28.77-2.86-43.17-.78-16.46-1.1-32.94-1.51-49.41-.13-5.03,.09-10.07,.16-15.1Zm-24.4,17.11c-1.88,0-3.67,.11-5.45-.02-8.21-.62-16.41-1.58-24.63-1.89-8.99-.34-17.99-.05-26.99-.15-10.47-.12-20.94-.27-31.4-.56-24.14-.67-48.28-1.4-72.41-2.18-21.75-.71-43.49-1.54-65.23-2.26-8.54-.28-17.08-.53-25.61-.61-6.12-.05-12.27-.09-18.37,.41-10.51,.87-20.98,2.15-31.47,3.29-5.44,.59-10.88,1.27-16.14,1.89,.18,2.16,.44,3.83,.45,5.49,.04,11.54-.03,23.08,.03,34.62,.13,22.75,.45,45.5,.46,68.25,0,19.62-.29,39.24-.48,58.86-.17,17.45-.21,34.9-.61,52.35-.46,19.72-1.24,39.43-1.92,59.14-.1,2.84-.42,5.67-.66,8.81,13.28,.44,26.07,.87,39.09,1.3,.25-3.69,.46-6.54,.62-9.41,.35-6.24,.59-12.5,1.08-18.73,.07-.93,1.2-2.44,1.98-2.54,5.46-.69,10.94-1.19,16.44-1.53,3.41-.21,6.85-.04,9.59-.04-.54-5.72-1.56-11.17-1.45-16.59,.17-8.27,.83-16.56,1.84-24.78,.67-5.41,1.82-8.71,9-9.38,4.42-.41,8.86-1.16,13.27-.99,10.65,.42,21.29,1.22,31.93,2,3.58,.26,5.49,2.39,5.74,6.22,.19,2.88,0,5.78,.08,8.67,.35,12,.74,23.99,1.13,36.35,6.95-.33,13.37-.64,19.61-.94,.75-11.52,1.56-22.87,2.18-34.23,.17-3.2,.83-6.56-2.13-9.3-.95-.88-.76-2.99-1.1-4.6,2.74-.28,4.94-.24,7-.76,12.78-3.18,25.8-4.26,38.91-4.64,5.56-.16,7.2,1.59,7.32,7.23,.18,8.66,.34,17.33,.62,25.99,.21,6.58,.59,13.16,.89,19.79,.68,.07,1.28,.18,1.87,.19,11.29,.17,22.57,.31,33.86,.51,6.78,.12,8.2,1.51,8.75,8.12,.72,8.59,1.47,17.18,2.23,25.96,8.58,.38,17.08,.96,25.58,1.05,3.57,.04,4.37,1.33,3.69,4.16h-29.81c.47,7.79,.79,15.57,1.45,23.32,.42,4.94-1.11,7.71-5.72,7.6-17.55-.41-35.09-1.07-52.64-1.74-4.19-.16-6.5-2.89-7.33-6.73-.5-2.32-.53-4.77-.56-7.16-.07-5.83-.02-11.65-.02-17.8h-12.2c0,.9-.05,1.95,0,3,.35,6.24,.64,12.48,1.11,18.71,.41,5.41-.71,7.24-5.81,8.66-1.14,.32-2.31,.6-3.49,.7-15.6,1.23-31.21,1.22-46.77-.47-6.87-.75-10.43-5.77-10.1-12.71,.31-6.43,.07-12.88,.07-19.48-1.32-.07-2.6-.15-4.01-.23-.07,.89-.2,1.6-.17,2.3,.38,8.52,.7,17.04,1.23,25.55,.28,4.58-.81,5.97-5.39,5.92-2.41-.03-4.82-.24-7.22-.14-7.55,.31-15.09,.81-22.64,1.1-7.68,.29-15.39,.17-23.05,.71-7.28,.52-8.68-.44-8.73-7.84-.05-6.73-.07-13.47,0-20.2,.02-2.08,.39-4.16,.57-5.94-13.1-1-25.86-1.97-39.04-2.98-1.87,29.99-3.77,60.51-5.69,91.16,1.53,.12,2.11,.22,2.68,.21,12.36-.2,24.71-.57,37.07-.59,33.93-.06,67.86-.12,101.78,.09,23.93,.15,47.87,.26,71.76,1.31,15.9,.7,31.73,3.07,47.61,4.57,9.2,.87,18.41,1.6,27.63,2.19,9.1,.58,18.21,.89,27.31,1.37,1.05,.06,2.08,.41,3.3,.67,.11-.81,.24-1.49,.28-2.18,.51-9.13,1.1-18.25,1.49-27.39,.35-8.28,.59-16.58,.62-24.87,0-1.58-.87-3.48-1.96-4.68-4.11-4.52-8.86-8.49-12.68-13.23-9.79-12.16-10.58-20.01-3.37-31.7,1.35-2.19,3.76-4.61,6.08-5.13,5.15-1.15,10.56-1.16,16.15-1.66,.05-.52,.2-1.45,.24-2.38,1.14-22.56,2.31-45.12,3.38-67.68,.7-14.65,1.46-29.3,1.82-43.96,.54-21.78,.48-43.58,1.17-65.36,.88-27.94-1.44-55.71-3.7-83.49-.43-5.23-1.23-10.44-1.88-15.92Zm155.2,408.33v-247.36c-3.73,.3-7.27,.69-10.83,.86-10.56,.51-19.35,4.93-26.03,12.87-5.7,6.77-10.94,13.99-15.77,21.4-16.4,25.15-25.54,52.38-22.57,82.84,.34,3.54,.73,7.2,1.96,10.48,1.71,4.57,4.38,8.78,6.39,13.25,5.83,12.96,16.08,22.62,24.8,33.42,.53,.65,1.89,1.22,2.64,1.02,5.64-1.57,10.68,.1,15.6,2.57,1.81,.91,4.11,1.62,3.38,4.33-.79,2.95-3.35,2.09-5.42,2.11-.46,0-.91-.3-1.38-.35-4.03-.46-8.21-1.52-11.83,1.12-3.58,2.61-7.54,5.07-10.22,8.47-10.99,13.95-20.59,28.85-27.82,45.15-1.09,2.45-1.74,5.1-2.65,7.83h79.75Zm-137.35,.11c5.41,0,10.83,.09,16.24-.09,.96-.03,2.57-1.1,2.69-1.88,.48-3.21,.61-6.49,.68-9.75,.33-14.15,.9-28.3,.74-42.44-.07-6.61-2.43-13.08-1.09-19.9,1.6-8.19-2.96-15.06-5.64-22.28-2.99-8.04-7.97-14.48-16.06-17.99-5.82-2.53-11.58-5.39-17.66-7.07-3.32-.92-7.49-.43-10.82,.73-4.96,1.72-8.19,13.86-5.31,18.39,4.55,7.13,9.94,13.51,16.83,18.61,1.59,1.18,2.96,3.52,3.18,5.46,.4,3.38-.2,6.88-.34,10.33-.67,16.05-1.41,32.09-1.96,48.14-.19,5.6,.38,11.24,.05,16.83-.14,2.46,.47,2.94,2.58,2.91,5.29-.06,10.59-.02,15.88-.02ZM220.35,559.38c0,.81-.05,1.65,0,2.49,.9,12.84,6.61,20.87,18.71,24.2,7.54,2.07,15.01,2.58,22.74,2.12,12.57-.75,23.33-5.48,32.1-14.38,2.23-2.26,3.7-5.54,4.77-8.61,2.52-7.26,1.17-14.19-2.79-20.69-6.69-10.98-14.88-19.32-29.19-18.68-5.69,.25-11.43-.81-17.16-1.18-1.29-.08-2.8-.16-3.88,.39-8.12,4.14-14.06,10.74-19.63,17.75-3.87,4.87-6.4,10.14-5.67,16.59Zm55.23,468.26c19.21-.58,37.52-1.14,56.08-1.71,0-1,.03-1.69,0-2.38-.32-6.41-.71-12.81-.96-19.22-.21-5.39-.34-10.79-.36-16.18,0-2.49,.66-5.01,.45-7.47-.25-2.86-.36-7.56-1.86-8.17-5.64-2.29-11.37-5.11-17.94-4.25-3.41,.45-6.93,.15-10.4,.15-7.89,.01-15.77,0-23.08,0-.65,20.06-1.29,39.54-1.93,59.21Zm70.73-55.03c0,11.26-.18,21.94,.08,32.62,.12,5.2,1.1,10.38,1.58,15.59,.2,2.2,1.12,3.07,3.39,3.13,12.58,.35,25.16,.9,37.75,1.23,2.73,.07,5.48-.46,8.22-.74,2.81-.29,3.77-1.84,3.48-4.64-.39-3.69-.58-7.41-.64-11.11-.06-4,.53-8.05,.12-12-.67-6.49-1.57-13-2.98-19.37-1.99-9.01,.36-8.19-9.17-7.22-.71,.07-1.44,0-2.16,.03-8.04,.27-16.09,.42-24.12,.87-4.99,.28-9.95,1.02-15.54,1.62Zm79.69-1.68c-.48,18.07-.94,35.74-1.43,54.14,18.07,.64,35.38,1.26,53.17,1.89-.41-4.2,.44-8.48-1.32-10.6-2.91-3.51-2.03-6.93-2.03-10.46,0-4.68,.49-9.36,.56-14.04,.11-7.13,.03-14.27,.03-22.24-16.72,.45-32.81,.88-48.98,1.31Zm-69.91-51.63c-16.1-1.86-32.39-2.99-48.91,.54-.36,10.5-.76,20.82-1.03,31.14-.05,1.89,.26,3.86,.82,5.66,.26,.85,1.47,1.94,2.3,1.99,11.25,.69,22.5,1.29,33.76,1.75,4.84,.2,9.69,.03,14.35,.03-.44-13.99-.86-27.51-1.29-41.12Zm72.88-2.95c-1.04,0-1.63-.07-2.2,.01-10.75,1.46-21.48,3.06-32.25,4.32-3.1,.36-3.6,1.72-3.53,4.42,.1,3.84-.33,7.68-.36,11.52-.07,7.87-.02,15.74-.02,23.87,6.15,.66,12.88,.96,19.43,2.19,6.73,1.27,13.25,1.88,20.27-.92-.43-14.77-.88-29.87-1.33-45.41Zm-10.18,54.14c-5.56-.63-11.2-1.26-16.8-1.89,1.29,9.22,2.5,17.81,3.74,26.69h13.06v-24.8Zm-81.17-411.53l.8-1.07c-1.39-1.22-2.59-3.08-4.2-3.55-6.88-2.01-13.84-3.74-20.84-5.28-2.23-.49-4.67-.08-7.24-.08,.69,3.75,1.3,7.07,1.83,9.99h29.65Zm-4.62,408.06c3.56,8.72,3.35,17.59,3.95,26.4h4.39v-26.4h-8.34Zm-52.66-372.68h20.53c.46-5.06,.9-9.86,1.28-14.02-7.2,4.62-14.44,9.28-21.81,14.02Zm-72.86,253.31l.52,.15v-18.32h-.52v18.16Z"
       id="path8" />
    <path
       class="cls-36"
       d="M215.22,520.85c-8.37-2.61-14.7-7.34-20.01-13.52-7.73-9-12.49-19.59-16.01-30.79-5.01-15.94-7.22-32.35-8.04-49.9-6.83,0-13.75,.04-20.67,0-12.16-.08-24.32-.5-36.46-.24-13.99,.3-24.97-5.27-33.39-16.09-8.6-11.04-13.33-23.61-13.33-37.69-.05-89.47-.05-178.94,0-268.42,.02-33.81,22.92-61.85,55.88-68.41,3.98-.79,8.12-1.06,12.19-1.06,203.55-.05,407.1-.05,610.65-.03,12.64,0,24.97,1.77,36.13,8.23,13.26,7.68,19.96,19.95,22.4,34.51,1.49,8.85,2.2,17.94,2.22,26.92,.14,81.76,.11,163.53-.01,245.3-.02,15.47-1.87,30.75-7.9,45.2-6.47,15.5-16.9,26.76-34,30.33-3.62,.75-7.39,1.07-11.1,1.09-68.12,.41-136.25,.73-204.37,1.09-84.13,.45-168.26,.91-252.4,1.37-28.52,.15-57.05,.37-85.57,.39-2.87,0-4.41,.99-5.56,3.4-4.09,8.55-4.35,17.66-3.86,26.84,1.09,20.08,5.85,39.41,12.19,58.4,.29,.87,.59,1.75,1.04,3.08Zm-7.44-8.2c-.86-3.1-1.53-5.49-2.2-7.88-4.49-16.15-7.81-32.52-8.09-49.34-.15-9.29,.56-18.54,5.62-26.81,1.6-2.61,3.51-3.85,6.93-3.87,72.57-.27,145.14-.72,217.7-1.1,108.07-.57,216.14-1.14,324.21-1.67,20.85-.1,34.46-9.04,42.61-28.26,5.97-14.1,7.8-29,7.82-44.1,.13-82.24,.16-164.47,.02-246.71-.01-8.38-.73-16.87-2.22-25.11-3.19-17.69-12.79-30.61-30.68-35.47-7.56-2.06-15.63-3.14-23.47-3.15-203.76-.17-407.53-.14-611.29-.05-4.88,0-9.88,.64-14.61,1.84-28.89,7.34-48.47,32.98-48.49,63.49-.06,89.34-.03,178.68,0,268.02,0,12.43,4.05,23.62,11.25,33.63,7.66,10.64,17.87,16.1,31.35,15.98,19.73-.18,39.47,.39,59.2,.65,.68,0,1.36,.17,1.41,.18,1.24,10.86,2.1,21.41,3.72,31.84,2.31,14.79,6.41,29.07,14.31,42,3.72,6.1,8.29,11.42,14.91,15.9Z"
       id="path10" />
    <path
       class="cls-21"
       d="M553.56,707.91c.66,5.48,1.46,10.69,1.88,15.92,2.26,27.78,4.59,55.55,3.7,83.49-.69,21.78-.63,43.58-1.17,65.36-.36,14.66-1.12,29.31-1.82,43.96-1.07,22.56-2.24,45.12-3.38,67.68-.05,.94-.19,1.87-.24,2.38-5.59,.5-10.99,.51-16.15,1.66-2.32,.52-4.73,2.94-6.08,5.13-7.2,11.69-6.42,19.54,3.37,31.7,3.82,4.74,8.57,8.72,12.68,13.23,1.09,1.19,1.96,3.1,1.96,4.68-.03,8.29-.27,16.58-.62,24.87-.39,9.13-.98,18.26-1.49,27.39-.04,.69-.17,1.37-.28,2.18-1.22-.25-2.25-.61-3.3-.67-9.1-.48-18.22-.79-27.31-1.37-9.22-.59-18.43-1.32-27.63-2.19-15.87-1.5-31.7-3.87-47.61-4.57-23.9-1.05-47.84-1.16-71.76-1.31-33.93-.21-67.86-.16-101.78-.09-12.36,.02-24.71,.39-37.07,.59-.57,0-1.15-.09-2.68-.21,1.91-30.66,3.82-61.17,5.69-91.16,13.19,1.01,25.94,1.98,39.04,2.98-.18,1.78-.55,3.86-.57,5.94-.07,6.73-.05,13.47,0,20.2,.05,7.4,1.46,8.35,8.73,7.84,7.66-.55,15.37-.42,23.05-.71,7.55-.29,15.09-.78,22.64-1.1,2.4-.1,4.81,.11,7.22,.14,4.58,.06,5.67-1.34,5.39-5.92-.53-8.51-.85-17.03-1.23-25.55-.03-.7,.1-1.41,.17-2.3,1.41,.08,2.7,.15,4.01,.23,0,6.6,.24,13.06-.07,19.48-.33,6.94,3.23,11.96,10.1,12.71,15.57,1.7,31.17,1.71,46.77,.47,1.17-.09,2.35-.38,3.49-.7,5.11-1.42,6.23-3.26,5.81-8.66-.47-6.23-.76-12.47-1.11-18.71-.06-1.05,0-2.1,0-3h12.2c0,6.14-.05,11.97,.02,17.8,.03,2.39,.06,4.84,.56,7.16,.83,3.84,3.14,6.57,7.33,6.73,17.54,.67,35.09,1.33,52.64,1.74,4.61,.11,6.14-2.66,5.72-7.6-.66-7.75-.98-15.53-1.45-23.32h29.81c.68-2.82-.12-4.11-3.69-4.16-8.5-.1-17-.67-25.58-1.05-.76-8.78-1.51-17.37-2.23-25.96-.55-6.61-1.96-7.99-8.75-8.12-11.28-.21-22.57-.34-33.86-.51-.59,0-1.19-.11-1.87-.19-.3-6.63-.68-13.2-.89-19.79-.28-8.66-.44-17.32-.62-25.99-.12-5.64-1.76-7.4-7.32-7.23-13.1,.38-26.13,1.46-38.91,4.64-2.06,.51-4.26,.48-7,.76,.34,1.61,.15,3.72,1.1,4.6,2.96,2.74,2.3,6.09,2.13,9.3-.62,11.36-1.43,22.71-2.18,34.23-6.24,.3-12.65,.61-19.61,.94-.39-12.36-.78-24.35-1.13-36.35-.08-2.89,.11-5.79-.08-8.67-.25-3.83-2.16-5.96-5.74-6.22-10.64-.78-21.28-1.59-31.93-2-4.4-.17-8.85,.58-13.27,.99-7.18,.66-8.33,3.97-9,9.38-1.01,8.21-1.67,16.51-1.84,24.78-.11,5.42,.91,10.87,1.45,16.59-2.74,0-6.18-.17-9.59,.04-5.49,.34-10.98,.84-16.44,1.53-.78,.1-1.91,1.61-1.98,2.54-.49,6.23-.73,12.48-1.08,18.73-.16,2.86-.38,5.72-.62,9.41-13.03-.43-25.81-.86-39.09-1.3,.24-3.15,.56-5.98,.66-8.81,.68-19.71,1.46-39.42,1.92-59.14,.4-17.45,.44-34.9,.61-52.35,.19-19.62,.49-39.24,.48-58.86-.01-22.75-.33-45.5-.46-68.25-.07-11.54,0-23.08-.03-34.62,0-1.66-.26-3.32-.45-5.49,5.26-.62,10.7-1.29,16.14-1.89,10.49-1.14,20.96-2.42,31.47-3.29,6.09-.5,12.24-.47,18.37-.41,8.54,.07,17.08,.32,25.61,.61,21.75,.73,43.49,1.56,65.23,2.26,24.14,.78,48.27,1.51,72.41,2.18,10.46,.29,20.93,.45,31.4,.56,9,.1,18.01-.2,26.99,.15,8.22,.31,16.42,1.28,24.63,1.89,1.77,.13,3.57,.02,5.45,.02Zm-45.12,11.87c-.69,.38-1.5,.55-1.65,.96-.25,.69-.34,1.67-.01,2.27,.86,1.56,1.97,2.99,2.99,4.46,5.58,8.07,11.15,16.16,16.8,24.18,.41,.58,1.46,.71,2.22,1.05,.22-.84,.65-1.69,.61-2.52-.03-.64-.59-1.29-1-1.88-6.19-8.97-12.39-17.94-18.6-26.9-.38-.55-.86-1.04-1.35-1.63Zm-264.79,327.1c-3.19,1.06-2.53,2.71-.89,4.52,2.89,3.18,5.8,6.34,8.69,9.53,3.37,3.72,6.67,7.52,10.15,11.13,.57,.59,1.94,.4,2.94,.57-.21-1.04-.37-2.1-.65-3.12-.08-.29-.53-.47-.76-.74-6.43-7.22-12.85-14.44-19.48-21.89Zm280.25-322.37c-2.49,.9-2.9,2.14-1.48,3.91,.9,1.12,1.89,2.16,2.75,3.31,4.3,5.77,8.55,11.59,12.9,17.32,.43,.57,1.47,.68,2.22,1,.21-.84,.57-1.69,.58-2.53,0-.52-.5-1.08-.85-1.55-5.32-7.1-10.65-14.2-16.11-21.46Zm-267.47,324.21c-.83,.54-1.64,.8-1.91,1.33-.24,.48-.1,1.5,.28,1.86,3.69,3.57,7.41,7.11,11.28,10.48,.64,.56,2.07,.22,3.13,.29-.41-1.07-.55-2.4-1.28-3.16-2.38-2.49-4.97-4.79-7.5-7.15-1.3-1.21-2.62-2.39-4-3.65Z"
       id="path12" />
    <path
       class="cls-21"
       d="M577.62,690.34c1.35-3.23,.01-5.25-3.12-5.84-7.13-1.33-14.28-2.84-21.49-3.47-9.44-.83-18.95-1.21-28.44-1.21-24.66,.02-49.32,.66-73.98,.43-12.45-.11-24.87-1.87-37.33-2.31-8.52-.3-17.07,.61-25.61,.58-17.05-.05-34.11-.5-51.16-.55-8.89-.03-17.8,.22-26.68,.71-18.71,1.03-37.41,2.99-56.12,3.17-8.95,.08-17.67,.94-26.44,2.12-7.03,.94-12.04,6.15-13.36,13.17-3.42,18.22-4.43,36.62-4.52,55.11-.04,9.01-.24,18.02-.52,27.02-.03,1.03-1.18,1.99-1.57,3.07-1.02,2.86-2.54,5.72-2.75,8.66-.93,13.16-1.69,26.34-2.09,39.53-.32,10.66-.32,21.35,.14,32,.14,3.21,2.32,6.32,3.45,9.51,.58,1.62,1.36,3.34,1.3,4.99-.45,12.5-1.05,24.99-1.67,37.48-.38,7.69-.84,15.37-1.3,23.05-.04,.68-.16,1.56-.6,1.98-4.59,4.48-4.5,10.48-5.03,16.12-1.45,15.29-2.88,30.59-3.69,45.92-.6,11.25-.27,22.55-.16,33.83,.02,1.69,.6,4.01,1.78,4.94,3,2.37,2.5,5.34,2.6,8.43,.54,16.58,1.08,33.17,1.86,49.74,.35,7.47,5.07,12.65,12.41,14.31,3.12,.71,6.3,1.21,10.71,2.04-1.91,.71-2.94,1.42-3.99,1.43-10.11,.08-20.22,.05-30.33,.05h-17.86v-510.06h61.74c.93,2.04,1.89,4.16,2.86,6.29l1.29,.27c1.1-2.14,2.2-4.29,3.47-6.77,9.71,0,19.92-.05,30.13,.08,.94,.01,2.07,1.01,2.77,1.84,1.97,2.38,3.4,2.32,5.2-.14,.61-.83,1.82-1.27,2.82-1.76,.39-.19,.95-.03,1.43-.03,140.47,0,280.94,0,421.4,0,1.07,0,2.14,0,3.47,0v256.98c-2.14,0-4.18,.2-6.17-.03-15.11-1.75-27.53,3.39-37.06,15.01-16.57,20.2-30.03,42.11-36.4,67.85-3.26,13.17-3.53,26.46-3.17,39.94,.37,13.89,7.72,24.86,14.27,35.98,4.94,8.39,11.89,15.61,17.95,23.34,1.03,1.32,2.11,2.6,2.74,3.38-5.42,6.77-10.76,13.18-15.8,19.82-9.47,12.48-17.42,25.85-22.99,40.57-2.82,7.45-2.88,7.43-10.85,7.43h-12.82c0-9.17-.14-18.05,.04-26.91,.24-11.67,.73-23.33,1.1-34.99,.17-5.27,1.22-10.72,.27-15.78-1.31-6.97-3.5-13.96-6.51-20.38-2.96-6.32-3.12-12.57-3.05-19.22,.2-20.69-.02-41.39,0-62.08,.01-13.48,.3-26.96,.21-40.44-.11-16.35-.48-32.71-.75-49.06-.03-1.92-.18-3.85-.23-5.77-.47-19.61-.62-39.23-1.48-58.82-.86-19.69-2.39-39.35-3.67-59.02-.62-9.58-1.34-19.16-1.99-28.74-.19-2.77-1.09-4.7-4.34-4.33-.12-.15-.23-.3-.34-.46Z"
       id="path14" />
    <path
       class="cls-21"
       d="M577.96,690.8c-.06,5.03-.28,10.07-.16,15.1,.41,16.47,.73,32.95,1.51,49.41,.68,14.4,2.11,28.77,2.86,43.17,.53,10.2,.53,20.43,.68,30.65,.3,19.73,.72,39.46,.72,59.19,0,11.66-.95,23.31-.99,34.97-.03,8.89,1.05,17.78,.98,26.67-.12,16.36-.71,32.72-1.11,49.08-.01,.55-.14,1.09-.11,.86-6.51-3.14-13.04-6.22-19.48-9.48-.8-.4-1.63-1.75-1.61-2.63,.53-16.82,1.16-33.64,1.83-50.46,.35-8.65,1.06-17.29,1.24-25.94,.82-39.23,1.73-78.47,2.11-117.7,.12-12.69-1.17-25.41-2.02-38.1-.66-9.82-1.49-19.64-2.52-29.43-.7-6.65-1.84-13.26-2.88-19.87-.63-4-3.89-5.31-7.16-6.03-3.7-.81-7.52-1.22-11.31-1.44-6.46-.37-12.94-.6-19.42-.63-20.93-.1-41.87,.2-62.8-.18-19.96-.36-39.91-1.39-59.87-2.1-8.17-.29-16.35-.56-24.52-.78-25.74-.71-51.48-1.23-77.21-2.16-14.66-.53-28.96,2.29-43.4,3.85-5.73,.62-11.4,1.79-17.12,2.46-3.88,.45-4.92,2.81-4.93,6.16,0,3.37,.13,6.75,.02,10.11-.62,18.99-1.65,37.98-1.86,56.98-.24,22.03,.53,44.07,.32,66.1-.33,35.03-.79,70.06-1.83,105.08-.57,19.32-2.47,38.6-3.72,57.91-.88,13.56-1.62,27.13-2.53,40.69-.68,10.08-1.63,20.14-2.27,30.21-.34,5.28-.38,10.58-.35,15.87,.01,3.03,2.59,5.49,5.19,5.52,21.96,.26,43.92,.58,65.87,.83,22.26,.24,44.53,.49,66.79,.6,25.38,.12,50.77-.41,76.12,.35,13.76,.41,27.44,3.13,41.2,4.41,16.14,1.5,32.32,2.6,48.49,3.84,7.71,.59,15.43,1.1,23.27,1.65v10.62c-9.82,0-19.56,.49-29.23-.1-19.19-1.18-38.33-3.17-57.52-4.41-10.31-.67-20.67-.69-31.01-.67-32.01,.07-64.05,1.28-96,.1-20.56-.76-40.84,1.23-61.24,1.89-13.07,.42-26.17,.08-38.98,.08-2.02-5.25-3.48-6.02-8.62-5.96-3.05,.04-6.11-.6-9.18-.67-3.53-.08-4.91-2.38-5.34-5.22-.67-4.38-1.12-8.81-1.29-13.24-.64-16.7-1.45-33.41-1.59-50.12-.11-12.86,.47-25.75,1.15-38.6,.78-14.86,2.11-29.68,3.02-44.53,.9-14.76,1.82-29.52,2.31-44.3,.87-26.32,1.52-52.64,2.08-78.96,.24-11.43-.11-22.86,.06-34.29,.36-23.57,.65-47.14,1.46-70.7,.32-9.19,1.68-18.37,3.13-27.47,.81-5.08,4.4-8.73,9.48-9.67,6.19-1.15,12.54-2.06,18.81-1.99,17.66,.19,35.23-.32,52.84-2.18,16.47-1.74,33.06-1.77,49.69-.69,13.16,.85,26.43-.17,39.65-.22,11.65-.04,23.3-.07,34.94,.21,16.7,.4,33.38,1.15,50.08,1.61,6.86,.19,13.72,.09,20.58,0,11.06-.14,22.13-.78,33.18-.49,15.43,.39,30.99,.03,46,4.79,.95,.3,2.1-.02,3.16-.06,.11,.16,.22,.31,.34,.46Z"
       id="path16" />
    <path
       class="cls-21"
       d="M708.76,1116.24h-79.75c.91-2.74,1.56-5.38,2.65-7.83,7.23-16.3,16.83-31.19,27.82-45.15,2.68-3.4,6.64-5.86,10.22-8.47,3.62-2.64,7.81-1.58,11.83-1.12,.47,.05,.92,.36,1.38,.35,2.07-.02,4.63,.84,5.42-2.11,.73-2.71-1.57-3.42-3.38-4.33-4.93-2.47-9.97-4.14-15.6-2.57-.75,.21-2.11-.36-2.64-1.02-8.73-10.79-18.97-20.46-24.8-33.42-2.01-4.47-4.68-8.68-6.39-13.25-1.23-3.28-1.61-6.95-1.96-10.48-2.97-30.46,6.17-57.69,22.57-82.84,4.84-7.41,10.08-14.63,15.77-21.4,6.68-7.94,15.47-12.36,26.03-12.87,3.55-.17,7.09-.56,10.83-.86v247.36Zm-58.08-175.79c-1.07,5.8-2.29,11.66-3.14,17.57-.24,1.64,.29,4.13,2.82,3.55,1.52-.35,3.45-1.76,3.95-3.14,1.2-3.3,1.66-6.87,2.42-10.34,1.29-5.88,.59-6.9-6.05-7.64Z"
       id="path18" />
    <path
       class="cls-37"
       d="M571.41,1116.35c-5.29,0-10.59-.04-15.88,.02-2.11,.02-2.73-.45-2.58-2.91,.33-5.59-.24-11.22-.05-16.83,.55-16.05,1.29-32.09,1.96-48.14,.14-3.45,.74-6.95,.34-10.33-.23-1.95-1.6-4.29-3.18-5.46-6.88-5.1-12.27-11.47-16.83-18.61-2.89-4.52,.35-16.66,5.31-18.39,3.33-1.16,7.5-1.65,10.82-.73,6.07,1.68,11.83,4.54,17.66,7.07,8.09,3.51,13.06,9.95,16.06,17.99,2.69,7.21,7.24,14.09,5.64,22.28-1.33,6.82,1.02,13.29,1.09,19.9,.16,14.14-.41,28.29-.74,42.44-.08,3.26-.2,6.54-.68,9.75-.12,.77-1.73,1.84-2.69,1.88-5.41,.18-10.82,.09-16.24,.09Z"
       id="path20" />
    <path
       class="cls-28"
       d="M220.35,559.38c-.72-6.45,1.81-11.72,5.67-16.59,5.57-7.01,11.51-13.6,19.63-17.75,1.08-.55,2.59-.48,3.88-.39,5.72,.37,11.47,1.43,17.16,1.18,14.31-.64,22.49,7.7,29.19,18.68,3.96,6.5,5.32,13.43,2.79,20.69-1.07,3.07-2.54,6.35-4.77,8.61-8.77,8.89-19.52,13.63-32.1,14.38-7.73,.46-15.2-.05-22.74-2.12-12.1-3.33-17.82-11.36-18.71-24.2-.06-.84,0-1.68,0-2.49Zm39.79,21.53c5.81,.05,10.36-2.9,12.12-7.22,1.11-2.72,.62-5.02-1.54-7.18-3.97-3.97-8.2-2.69-12.64-1.18-1.55,.53-3.35,.23-5.03,.45-1.88,.25-4.58,.03-5.4,1.14-1.02,1.38-1.13,4.16-.48,5.9,2.39,6.34,8.14,7.45,12.96,8.09Zm12.35-27.22h-.1c0-1.43,.41-3.05-.12-4.24-.53-1.19-1.95-2.63-3.07-2.71-.86-.06-2.38,1.71-2.66,2.88-.45,1.92-.58,4.17,0,6.02,.52,1.68,2.04,4.12,3.32,4.25,2.6,.26,2.82-2.24,2.64-4.41-.05-.59,0-1.19,0-1.79Zm-27.59-3.17c.26,.17,.52,.33,.78,.5-.04,.6-.3,1.31-.07,1.77,.89,1.74,1.93,4.82,2.94,4.83,3.23,.02,2.76-2.82,2.48-5.12-.06-.47-.26-.93-.29-1.4-.18-2.14-.08-4.87-2.96-4.71-1.03,.05-1.92,2.68-2.88,4.13Zm23.49-16.59c3.52,2.81,6.86,5.48,10.35,8.26,.99-3.4-.76-5.63-3.15-7.33-2.09-1.49-4.47-2.71-7.2-.93Zm-22.38,.37l-.12-.75c-1.17,.44-2.55,.63-3.46,1.38-3.12,2.56-4.39,6.57-3.34,9.18,2.26-3.2,4.6-6.5,6.93-9.8Z"
       id="path22" />
    <path
       class="cls-19"
       d="M275.58,1027.64c.64-19.67,1.28-39.15,1.93-59.21,7.3,0,15.19,0,23.08,0,3.47,0,6.98,.29,10.4-.15,6.56-.86,12.29,1.96,17.94,4.25,1.5,.61,1.62,5.3,1.86,8.17,.21,2.46-.46,4.98-.45,7.47,.02,5.39,.15,10.79,.36,16.18,.25,6.41,.64,12.81,.96,19.22,.03,.69,0,1.38,0,2.38-18.56,.56-36.87,1.12-56.08,1.71Z"
       id="path24" />
    <path
       class="cls-19"
       d="M346.32,972.61c5.59-.6,10.55-1.34,15.54-1.62,8.03-.45,16.08-.6,24.12-.87,.72-.02,1.45,.04,2.16-.03,9.53-.97,7.17-1.79,9.17,7.22,1.41,6.37,2.32,12.88,2.98,19.37,.41,3.95-.18,8-.12,12,.06,3.71,.25,7.43,.64,11.11,.3,2.8-.67,4.35-3.48,4.64-2.74,.29-5.49,.81-8.22,.74-12.59-.33-25.16-.88-37.75-1.23-2.27-.06-3.19-.93-3.39-3.13-.47-5.2-1.45-10.38-1.58-15.59-.25-10.67-.08-21.36-.08-32.62Z"
       id="path26" />
    <path
       class="cls-19"
       d="M426,970.93c16.17-.43,32.26-.86,48.98-1.31,0,7.97,.08,15.11-.03,22.24-.07,4.68-.57,9.36-.56,14.04,0,3.53-.88,6.95,2.03,10.46,1.76,2.12,.91,6.41,1.32,10.6-17.79-.63-35.1-1.25-53.17-1.89,.49-18.4,.95-36.07,1.43-54.14Z"
       id="path28" />
    <path
       class="cls-19"
       d="M356.09,919.29c.43,13.6,.85,27.13,1.29,41.12-4.66,0-9.51,.17-14.35-.03-11.26-.46-22.51-1.06-33.76-1.75-.83-.05-2.04-1.14-2.3-1.99-.56-1.8-.87-3.77-.82-5.66,.26-10.32,.67-20.64,1.03-31.14,16.52-3.53,32.81-2.4,48.91-.54Z"
       id="path30" />
    <path
       class="cls-19"
       d="M428.97,916.34c.46,15.54,.9,30.64,1.33,45.41-7.02,2.8-13.54,2.19-20.27,.92-6.55-1.23-13.28-1.54-19.43-2.19,0-8.13-.05-16,.02-23.87,.03-3.84,.46-7.69,.36-11.52-.07-2.7,.43-4.06,3.53-4.42,10.77-1.26,21.5-2.86,32.25-4.32,.57-.08,1.17-.01,2.2-.01Z"
       id="path32" />
    <path
       class="cls-19"
       d="M315.79,565.05c8.29,.51,16.71-2.57,25.25,.85,.4,9.44,.8,18.78,1.22,28.4h-35.44c.87-8.08,1.74-16.11,2.61-24.15,2.29-1.49,6.18-.97,6.36-5.1Z"
       id="path34" />
    <path
       class="cls-6"
       d="M418.78,970.48v24.8h-13.06c-1.24-8.88-2.45-17.47-3.74-26.69,5.6,.63,11.24,1.27,16.8,1.89Z"
       id="path36" />
    <path
       class="cls-33"
       d="M337.61,558.94h-29.65c-.53-2.92-1.14-6.24-1.83-9.99,2.57,0,5-.41,7.24,.08,7,1.54,13.96,3.27,20.84,5.28,1.61,.47,2.81,2.33,4.2,3.55l-.8,1.07Z"
       id="path38" />
    <path
       class="cls-10"
       d="M332.99,967h8.34v26.4h-4.39c-.6-8.81-.39-17.69-3.95-26.4Z"
       id="path40" />
    <path
       class="cls-27"
       d="M280.33,594.32c7.37-4.74,14.62-9.39,21.81-14.02-.38,4.16-.82,8.95-1.28,14.02h-20.53Z"
       id="path42" />
    <path
       class="cls-19"
       d="M315.79,565.05c-.18,4.13-4.07,3.61-6.36,5.1,0-1.62,0-3.23,0-5.1h6.36Z"
       id="path44" />
    <path
       class="cls-34"
       d="M207.47,847.63v-18.16h.52v18.31l-.52-.15Z"
       id="path46" />
    <path
       class="cls-35"
       d="M207.78,512.64c-6.62-4.48-11.18-9.8-14.91-15.9-7.89-12.93-12-27.21-14.31-42-1.63-10.43-2.48-20.98-3.72-31.84-.05,0-.73-.17-1.41-.18-19.73-.26-39.47-.83-59.2-.65-13.49,.12-23.69-5.33-31.35-15.98-7.2-10-11.25-21.2-11.25-33.63-.03-89.34-.05-178.68,0-268.02,.02-30.52,19.6-56.16,48.49-63.49,4.73-1.2,9.73-1.84,14.61-1.84,203.76-.09,407.53-.11,611.29,.05,7.84,0,15.91,1.09,23.47,3.15,17.9,4.86,27.49,17.78,30.68,35.47,1.49,8.24,2.2,16.73,2.22,25.11,.14,82.24,.11,164.47-.02,246.71-.02,15.1-1.85,30.01-7.82,44.1-8.15,19.23-21.76,28.16-42.61,28.26-108.07,.53-216.14,1.1-324.21,1.67-72.57,.39-145.14,.84-217.7,1.1-3.42,.01-5.34,1.26-6.93,3.87-5.06,8.27-5.77,17.52-5.62,26.81,.28,16.82,3.6,33.19,8.09,49.34,.66,2.39,1.33,4.79,2.2,7.88Z"
       id="path48" />
    <path
       class="cls-13"
       d="M508.44,719.78c.49,.59,.97,1.08,1.35,1.63,6.21,8.96,12.41,17.92,18.6,26.9,.41,.59,.97,1.24,1,1.88,.04,.83-.38,1.68-.61,2.52-.75-.34-1.81-.47-2.22-1.05-5.65-8.02-11.22-16.11-16.8-24.18-1.02-1.47-2.13-2.9-2.99-4.46-.33-.59-.23-1.58,.01-2.27,.15-.41,.96-.58,1.65-.96Z"
       id="path50" />
    <path
       class="cls-24"
       d="M243.65,1046.88c6.63,7.45,13.05,14.67,19.48,21.89,.24,.27,.68,.44,.76,.74,.28,1.02,.44,2.08,.65,3.12-1-.17-2.37,.02-2.94-.57-3.48-3.61-6.78-7.41-10.15-11.13-2.89-3.18-5.8-6.34-8.69-9.53-1.64-1.8-2.3-3.46,.89-4.52Z"
       id="path52" />
    <path
       class="cls-18"
       d="M523.89,724.51c5.46,7.27,10.79,14.36,16.11,21.46,.36,.48,.86,1.03,.85,1.55,0,.84-.37,1.69-.58,2.53-.75-.32-1.79-.44-2.22-1-4.35-5.73-8.6-11.55-12.9-17.32-.86-1.15-1.85-2.19-2.75-3.31-1.42-1.77-1.01-3.01,1.48-3.91Z"
       id="path54" />
    <path
       class="cls-18"
       d="M256.43,1048.72c1.38,1.26,2.7,2.44,4,3.65,2.52,2.36,5.12,4.65,7.5,7.15,.73,.76,.87,2.09,1.28,3.16-1.06-.07-2.49,.27-3.13-.29-3.87-3.36-7.59-6.91-11.28-10.48-.38-.36-.51-1.39-.28-1.86,.26-.53,1.08-.79,1.91-1.33Z"
       id="path56" />
    <path
       class="cls-3"
       d="M650.68,940.45c6.64,.73,7.34,1.75,6.05,7.64-.76,3.46-1.22,7.03-2.42,10.34-.5,1.38-2.43,2.79-3.95,3.14-2.53,.58-3.06-1.91-2.82-3.55,.85-5.91,2.07-11.76,3.14-17.57Z"
       id="path58" />
    <path
       class="cls-23"
       d="M260.14,580.9c-4.82-.65-10.57-1.76-12.96-8.09-.66-1.74-.54-4.52,.48-5.9,.81-1.11,3.52-.89,5.4-1.14,1.67-.22,3.48,.08,5.03-.45,4.45-1.51,8.67-2.79,12.64,1.18,2.16,2.16,2.64,4.46,1.54,7.18-1.76,4.33-6.31,7.27-12.12,7.22Zm-8.92-11.73c-.28,.18-.56,.35-.84,.53,.18,1.03,.07,2.25,.59,3.07,3.34,5.19,13.4,5.17,16.63-.05,.59-.95,1.07-2.9,.59-3.37-.88-.86-2.47-1.18-3.81-1.32-.85-.09-1.85,.44-2.66,.91-3.42,1.98-6.88,2.5-10.49,.22Z"
       id="path60" />
    <path
       class="cls-26"
       d="M272.49,553.68c0,.6-.04,1.2,0,1.79,.18,2.17-.04,4.68-2.64,4.41-1.28-.13-2.8-2.58-3.32-4.25-.57-1.85-.45-4.1,0-6.02,.28-1.18,1.81-2.94,2.66-2.88,1.12,.08,2.54,1.52,3.07,2.71,.53,1.2,.12,2.81,.12,4.24h.1Z"
       id="path62" />
    <path
       class="cls-32"
       d="M244.9,550.51c.96-1.45,1.85-4.08,2.88-4.13,2.88-.15,2.78,2.57,2.96,4.71,.04,.47,.24,.93,.29,1.4,.28,2.3,.74,5.14-2.48,5.12-1,0-2.05-3.09-2.94-4.83-.23-.46,.03-1.17,.07-1.77-.26-.17-.52-.33-.78-.5Z"
       id="path64" />
    <path
       class="cls-32"
       d="M268.39,533.93c2.74-1.78,5.11-.57,7.2,.93,2.39,1.7,4.14,3.93,3.15,7.33-3.49-2.78-6.83-5.45-10.35-8.26Z"
       id="path66" />
    <path
       class="cls-5"
       d="M246.01,534.3c-2.34,3.3-4.67,6.61-6.93,9.8-1.05-2.61,.23-6.62,3.34-9.18,.92-.75,2.3-.94,3.46-1.38l.12,.75Z"
       id="path68" />
    <path
       class="cls-22"
       d="M251.22,569.17c3.62,2.28,7.07,1.75,10.49-.22,.81-.47,1.81-.99,2.66-.91,1.34,.14,2.94,.45,3.81,1.32,.47,.47,0,2.42-.59,3.37-3.23,5.22-13.28,5.24-16.63,.05-.52-.81-.41-2.03-.59-3.07,.28-.18,.56-.35,.84-.53Z"
       id="path70" />
  </g>
</svg>
