<?xml version="1.0" encoding="UTF-8" standalone="no"?>
<svg
   id="Layer_7"
   viewBox="0 0 865 1388"
   version="1.1"
   sodipodi:docname="rosieOnboarding-06.svg"
   inkscape:version="1.2.1 (9c6d41e4, 2022-07-14)"
   xmlns:inkscape="http://www.inkscape.org/namespaces/inkscape"
   xmlns:sodipodi="http://sodipodi.sourceforge.net/DTD/sodipodi-0.dtd"
   xmlns="http://www.w3.org/2000/svg"
   xmlns:svg="http://www.w3.org/2000/svg">
  <sodipodi:namedview
     id="namedview169"
     pagecolor="#505050"
     bordercolor="#ffffff"
     borderopacity="1"
     inkscape:showpageshadow="0"
     inkscape:pageopacity="0"
     inkscape:pagecheckerboard="1"
     inkscape:deskcolor="#505050"
     showgrid="false"
     inkscape:zoom="0.17002882"
     inkscape:cx="438.16102"
     inkscape:cy="694"
     inkscape:window-width="1309"
     inkscape:window-height="456"
     inkscape:window-x="0"
     inkscape:window-y="25"
     inkscape:window-maximized="0"
     inkscape:current-layer="Layer_7" />
  <defs
     id="defs4">
    <style
       id="style2">.cls-1{letter-spacing:0em;}.cls-2{font-family:ComicNeue-Regular, 'Comic Neue';}.cls-3{fill:#0c0c0c;}.cls-4{letter-spacing:-.06em;}.cls-5{font-size:36px;}.cls-6{letter-spacing:-.03em;}.cls-7{letter-spacing:-.02em;}.cls-8{font-family:ComicNeue-BoldItalic, 'Comic Neue';}.cls-9{letter-spacing:0em;}.cls-10{letter-spacing:-.02em;}.cls-11{letter-spacing:0em;}.cls-12{letter-spacing:-.02em;}.cls-13{letter-spacing:-.02em;}.cls-14{fill:#0d0d0d;}.cls-15{fill:#080808;}.cls-16{fill:#bdccd4;}.cls-17{letter-spacing:-.02em;}.cls-18{fill:#fdfdfd;}.cls-19{fill:#fbfbfb;}.cls-20{fill:#dcdcdc;}.cls-21{fill:#050505;}.cls-22{fill:#161616;}.cls-23{fill:#f7f7f7;}.cls-24{fill:#fa99af;}.cls-25{fill:#0d191c;}.cls-26{fill:#070707;}.cls-27{letter-spacing:-.03em;}.cls-28{fill:#f8f8f8;}.cls-29{fill:#eee;}.cls-30{fill:#fefefe;}.cls-31{fill:#fcfcfc;}</style>
  </defs>
  <g
     id="g112">
    <path
       class="cls-30"
       d="M823.75,977.58v410.42H43V0H823.75V736.95c-.86-.27-1.82-.38-2.56-.84-12.94-7.93-25.86-15.91-38.4-23.65-.43-7.25-.22-14.98-1.48-22.47-1.84-10.99-7.27-20.6-13.39-29.86-7.89-11.95-18.15-20.88-31.16-26.85-14.95-6.85-30.8-7.87-46.91-8.48-13.58-.51-25.01,4.71-35.33,12.17-19.97,14.44-32.46,34.43-39.3,57.93-1.66,5.7-3.1,11.06-7.96,15.06-1.59,1.31-2.58,3.83-2.99,5.96-.78,4.08-.83,8.29-1.39,12.42-1.8,13.36,3.45,23.76,13.27,32.34,1.4,1.22,2.81,2.62,3.69,4.23,5.2,9.57,11.49,18.24,19.84,25.34,.76,.64,1.22,2.19,1.09,3.22-.72,5.57-2.26,11.1-2.4,16.67-.22,8.86-5.05,14.93-10.71,20.77-6.99,7.21-16.46,7.61-25.54,9.48-.05-.74,.01-1.36-.14-1.93-.77-2.9-.58-6.5-4.35-7.52-4.05-1.1-4.8,2.67-6.58,4.86-.08,.09-.16,.19-.21,.3-.96,2.33-2.7,2.77-5.14,2.85-7.42,.23-14.83,.77-22.24,1.34-4.7,.36-7.97,2.48-7.84,7.92-2.69,.12-5.07,.23-7.61,.35-.16,.48-.49,1.02-.53,1.59-.53,7.37-1.42,14.69-.51,22.15,.62,5.1,.12,10.33,.12,15.73-8.06,.06-14.82,2.87-21.09,8.83v-311.87h-11.74c9.01-4.94,14.37-11.88,16.46-21.43,1.87,3.12,3.53,6.15,5.44,9.01,1.88,2.82,4.39,2.82,6.38,.11,.76-1.04,1.26-2.31,1.77-3.52,1.57-3.74,2.84-7.62,4.69-11.21,2.08-4.04,3.83-8.71,9.83-8.51,.75,.02,2.13-1.44,2.16-2.25,.03-.91-.99-2.48-1.82-2.68-3.17-.77-6.68-1.32-9,1.68-2.55,3.29-4.89,6.8-6.81,10.49-1.83,3.52-2.99,7.38-4.69,11.7-3.22-5.64-7.03-10.16-7.51-16.56-.72-9.66-4.51-18.19-10.88-25.55-6.42-7.42-15.18-10.05-24.31-11.76-12.45-2.33-23.57,1.2-32.74,9.48-6.67,6.02-10.01,14.37-11.37,23.25-.55,3.61,.07,7.39-.3,11.04-.73,7.23-1.75,14.43-2.7,21.64-.17,1.32-.58,2.61-.88,3.92l-1.16-.25c0-1.17,.02-2.33,0-3.5-.14-8.06,.01-16.14-.54-24.18-.38-5.5-2.48-6.87-8.03-6.88-6.74,0-13.48-.06-20.22,.02-2.63,.03-5.31,.14-7.89,.64-3.67,.7-4.89,3.13-3.89,6.75,.35,1.26,.7,2.58,.71,3.87,.06,8.23,.03,16.47,.03,24.97H92.29v472.28h434.45c0-6.54,.05-12.87-.01-19.2-.13-12.64-.34-25.28-.48-37.91-.07-6.02,.19-12.06-.2-18.05-.18-2.74-1.29-5.56-2.59-8.02-.47-.9-3.17-1.61-4.05-1.08-1.27,.76-2.38,2.68-2.54,4.21-.39,3.82,.06,7.72-.3,11.54-1.45,15.32-2.98,30.6-.71,46,.58,3.94,.09,8.05,.09,12.07h-89.19c3.12-28.29-2.78-55.91-4.75-84.72,7.69,11.06,15.31,20.4,27.07,25.6,13.7,6.05,27.16,8.29,40.64-.25,7.96-5.05,16.38-9.54,23.71-15.39,13.49-10.76,26.19-22.52,39.55-33.45,4.45-3.65,9.61-7.04,15.01-8.76,5.72-1.82,12.12-1.42,18.21-2.15,10.86-1.29,21.7-2.87,31.43-8.3,9.16-5.11,16.03-11.87,14.46-23.31,6.45-2.4,13.19,1.37,19.46-1.66,.27-.13,.7,.08,1.06,.11,7.67,.55,15.34,1.03,23,1.73,1.49,.14,3.17,.85,4.31,1.82,7.1,6.1,13.73,12.8,21.15,18.47,16.01,12.26,33.35,22.53,51.25,31.74,22.92,11.8,46.76,21.44,71.42,29Zm-374.62-452.79c-.26-5.61-.39-10.41-.74-15.2-.3-4.08-1.04-8.13-1.24-12.21-.24-4.63,1.55-6.63,6.09-7.36,1.18-.19,2.4-.19,3.6-.19,48.99-.17,97.98-.33,146.96-.48,34.3-.11,68.61-.04,102.91-.36,20.49-.19,31.05-8.22,37.41-27.47,.34-1.03,.63-2.07,.92-3.11,5.14-18.74,6.3-37.99,6.34-57.24,.21-90.68,.23-181.36,.02-272.03-.03-11.62-.9-23.39-2.93-34.81-4.22-23.69-18.2-39.17-41.66-45.66-10.87-3.01-21.97-3.99-33.2-3.99-169.12,0-338.24,0-507.36,.04-7.33,0-14.69,.15-22,.77-31.81,2.71-53.95,18.28-64.66,49-6.72,19.27-8.04,39.24-8.15,59.4-.35,65.26-.66,130.53-1.04,195.79-.17,30.1-.68,60.2-.61,90.3,.05,20.26,9.71,34.47,28.64,42.12,14.75,5.96,30.26,7.64,45.96,7.66,91.96,.1,183.93,.06,275.89,.07,1.43,0,2.87,0,4.43,0,3.57,14.49,9.44,27.28,24.43,34.96Z"
       id="path6" />
    <path
       class="cls-26"
       d="M823.75,977.58c-24.66-7.56-48.5-17.2-71.42-29-17.9-9.21-35.24-19.48-51.25-31.74-7.41-5.68-14.05-12.37-21.15-18.47-1.14-.98-2.82-1.69-4.31-1.82-7.65-.7-15.33-1.17-23-1.73-.36-.03-.79-.24-1.06-.11-6.28,3.03-13.01-.75-19.46,1.66,1.56,11.44-5.3,18.2-14.46,23.31-9.73,5.43-20.57,7-31.43,8.3-6.09,.73-12.49,.33-18.21,2.15-5.4,1.72-10.56,5.12-15.01,8.76-13.36,10.94-26.05,22.7-39.55,33.45-7.33,5.84-15.75,10.34-23.71,15.39-13.49,8.54-26.94,6.3-40.64,.25-11.76-5.2-19.39-14.53-27.07-25.6,1.98,28.81,7.88,56.43,4.75,84.72h89.19c0-4.02,.49-8.13-.09-12.07-2.27-15.4-.74-30.68,.71-46,.36-3.82-.09-7.72,.3-11.54,.16-1.53,1.27-3.45,2.54-4.21,.88-.53,3.57,.18,4.05,1.08,1.3,2.46,2.41,5.28,2.59,8.02,.39,6,.13,12.03,.2,18.05,.14,12.64,.35,25.28,.48,37.91,.06,6.33,.01,12.66,.01,19.2H92.29v-472.28H406.97c0-8.51,.03-16.74-.03-24.97,0-1.29-.36-2.61-.71-3.87-1-3.62,.22-6.04,3.89-6.75,2.58-.5,5.25-.6,7.89-.64,6.74-.08,13.48-.03,20.22-.02,5.55,0,7.66,1.38,8.03,6.88,.55,8.03,.4,16.12,.54,24.18,.02,1.16,0,2.33,0,3.5l1.16,.25c.3-1.31,.71-2.6,.88-3.92,.95-7.21,1.97-14.41,2.7-21.64,.37-3.66-.25-7.43,.3-11.04,1.36-8.88,4.7-17.23,11.37-23.25,9.17-8.28,20.29-11.81,32.74-9.48,9.13,1.71,17.89,4.35,24.31,11.76,6.37,7.35,10.17,15.89,10.88,25.55,.48,6.4,4.29,10.92,7.51,16.56,1.7-4.32,2.86-8.18,4.69-11.7,1.92-3.69,4.26-7.2,6.81-10.49,2.32-3,5.83-2.44,9-1.68,.83,.2,1.85,1.77,1.82,2.68-.03,.81-1.41,2.27-2.16,2.25-5.99-.2-7.75,4.47-9.83,8.51-1.85,3.59-3.12,7.48-4.69,11.21-.51,1.21-1,2.47-1.77,3.52-1.99,2.71-4.49,2.7-6.38-.11-1.91-2.86-3.57-5.89-5.44-9.01-2.09,9.56-7.45,16.5-16.46,21.43h11.74v311.87c6.27-5.96,13.03-8.77,21.09-8.83,0-5.4,.5-10.64-.12-15.73-.91-7.46-.02-14.78,.51-22.15,.04-.57,.36-1.11,.53-1.59,2.54-.12,4.93-.22,7.61-.35-.13-5.44,3.14-7.56,7.84-7.92,7.4-.57,14.82-1.11,22.24-1.34,2.44-.08,4.18-.52,5.14-2.85,.04-.11,.13-.2,.21-.3,1.78-2.19,2.53-5.96,6.58-4.86,3.78,1.02,3.58,4.62,4.35,7.52,.15,.57,.09,1.19,.14,1.93,9.08-1.87,18.56-2.26,25.54-9.48,5.66-5.84,10.49-11.91,10.71-20.77,.14-5.57,1.68-11.1,2.4-16.67,.13-1.03-.33-2.58-1.09-3.22-8.35-7.1-14.64-15.77-19.84-25.34-.87-1.61-2.29-3.01-3.69-4.23-9.82-8.59-15.07-18.98-13.27-32.34,.56-4.13,.61-8.34,1.39-12.42,.41-2.13,1.4-4.66,2.99-5.96,4.86-3.99,6.3-9.36,7.96-15.06,6.83-23.49,19.33-43.49,39.3-57.93,10.32-7.46,21.75-12.69,35.33-12.17,16.11,.61,31.96,1.63,46.91,8.48,13.01,5.96,23.28,14.9,31.16,26.85,6.12,9.27,11.55,18.87,13.39,29.86,1.25,7.49,1.05,15.22,1.48,22.47,12.55,7.74,25.46,15.71,38.4,23.65,.75,.46,1.7,.57,2.56,.84v8.67c-.72-.38-1.48-.7-2.15-1.15-13.36-8.93-26.71-17.88-40.18-26.9-.19,.51-.34,.8-.4,1.12-4.04,20.27-11.15,39.07-25.05,54.9-7.38,8.41-14.27,17.27-25.07,21.6-5.41,2.17-10.95,3.99-16.35,5.93-.45,6.04-.91,12.15-1.43,19.12,2.16-1.93,3.52-3.24,4.98-4.43,4.16-3.41,6.51-2.92,9.2,1.68,1.71,2.93,3.61,5.76,5.38,8.55,3.75-2.38,4.59-4.75,2.61-8.76-2.29-4.65-3.46-9.86-5-14.86-.21-.68,.27-1.58,.43-2.38,.81,.36,1.9,.51,2.37,1.13,.78,1.01,1.22,2.31,1.71,3.53,1.83,4.55,3.62,9.12,5.88,14.83,5.71-8.18,11-15.44,15.95-22.93,3.57-5.4,6.63-11.14,10.07-16.62,.49-.77,2.11-1.56,2.78-1.29,.75,.3,1.28,1.77,1.41,2.8,.11,.86-.4,1.86-.81,2.71-1.87,3.88-3.75,7.75-5.73,11.58-11.72,22.65-27.62,41.48-49.75,54.69-16.08,9.6-33.52,12.86-51.98,11.74-4.91-.3-9.81-.76-14.72-.89-.9-.02-2.64,1.18-2.64,1.81,.06,7.18,.28,14.36,.75,21.52,.06,.87,1.7,2.17,2.75,2.34,3.76,.59,7.59,.83,11.39,1.11,13.42,1.01,26.84,2.46,40.25-.14,15.84-3.07,30.91-7.99,43.85-18.08,15.01-11.7,26.19-26.81,36.89-42.22,8.25-11.87,15.43-24.46,20.49-38.13,.37-.99,1.69-1.62,2.57-2.42,.42,1.22,1.4,2.57,1.15,3.63-.92,3.94-1.95,7.91-3.48,11.65-7.64,18.69-18.89,35.16-31.21,51.04-13.43,17.31-29.4,31.01-50.73,37.4-6.82,2.04-13.85,3.5-20.87,4.71-5.24,.9-10.62,.97-16.68,1.47,8.2,6.37,15.73,12.83,23.86,18.42,23.75,16.36,48.79,30.5,75.63,41.16,13.8,5.48,27.9,10.18,41.87,15.23v5.78Zm-157.82-157.09c1.06-.16,2.13-.32,3.19-.48,5.41-.81,7.89,1.82,6.82,7.18-.6,2.99-1.14,6-1.73,9.1,2.65,1.26,5.4,2.2,7.68,3.82,.97,.69,.94,2.79,1.37,4.25-1.3,.27-2.73,1-3.89,.7-2.16-.56-4.23-1.61-6.24-2.65-4.78-2.5-5.6-4.55-4.29-9.82,.49-1.99,.79-4.02,1.23-6.29-2.84,.76-5.11,1.38-7.39,1.99-.72-.02-1.45-.05-2.17-.07-2.4-1.81-3.13-4.21-2.04-6.95,2.6-6.49,5.33-12.93,7.91-19.15-7.02-2.43-13.84-4.79-20.78-7.19-.11,.37-.31,.8-.36,1.25-1.21,9.26-2.3,18.54-3.63,27.78-.58,4.07-1.75,8-5.64,10.36-.73-.1-1.45-.21-2.18-.31-.35-.52-.69-1.04-1.04-1.56,.22,.35,.44,.71,.66,1.06-1.87,1.55-3.75,3.1-5.03,4.16,4.37,3.46,9.02,7.13,14.1,11.15,3.64-3.83,7.2-7.68,10.9-11.4,.71-.71,1.98-.86,3-1.27,.34,1.29,1.33,2.84,.92,3.82-2.19,5.29,.07,9.67,2.37,14.11,.52,.34,1.05,.68,1.57,1.02,3.13,0,6.25,0,9.38,0,.49-.09,.99-.18,1.48-.26,7.54-.12,14.83-1.42,22.1-3.95-3.17-6.1-6.75-11.26-8.6-16.98-2.94-9.11-4.73-18.6-6.92-27.94-.12-.5,.44-1.6,.85-1.7,.69-.16,1.83,0,2.22,.48,.8,.99,1.44,2.23,1.77,3.46,1.24,4.59,2.5,9.19,3.42,13.85,2.01,10.1,7.57,18.4,12.85,27.09,10.93-5.14,20.83-11.1,29.37-19.06-2.28-3.53-4.38-6.79-6.38-9.89-3.24,2.47-6.1,4.85-9.17,6.92-2.44,1.65-4.4,.68-5.34-1.98-.47-1.31-.84-2.82-.67-4.17,.58-4.87,1.43-9.7,2.12-14.56,.23-1.59,.28-3.21,.41-4.74-6.43,.47-12.4,1.18-18.39,1.27-5.99,.1-11.99-.48-17.99-.57-.89-.01-2.28,.85-2.61,1.64-2.12,5.18-4.01,10.46-5.98,15.71-.02,.37-.04,.75-.05,1.12,.27-.11,.55-.23,.82-.34Zm-390.18-5.45c-7.87-4.21-11.99-11.32-15.82-18.46-10.58-19.7-12.95-40.87-10.28-62.77,2.14-17.55,11.61-32.29,18.91-47.82,1.38-2.94,4.86-4.85,7.14-7.43,11.95-13.5,26.93-22.16,43.9-27.64,13.57-4.38,27.36-5.97,41.56-3.56,15.82,2.69,30.84,6.79,42.84,18.54,3.61,3.53,7.58,6.61,9.8,11.24,3.75,7.83,7.85,15.55,10.84,23.67,4.72,12.8,7.61,26.12,8.3,39.8,.9,17.79-5.01,33.94-12.89,49.41-3.04,5.97-7.33,11.31-10.87,16.66,5.23,2.67,10.91,5,15.97,8.28,10.94,7.11,17.46,17.81,22.32,29.62,9.14,22.23,10.33,46.04,13.57,69.41,1.2,8.64,4.18,15.84,11.6,20.8,1.77,1.18,3.46,2.49,5.48,3.96,15.5-10.19,27.93-24.04,42.34-36.47-1.93-.13-3.06-.2-4.53-.3v-306.53h-13.12c.32,4.84,.82,9.48,.87,14.12,.04,3.51-2.57,6-5.99,5.77-1.05-.07-2.34-1.42-2.87-2.5-.3-.61,.51-2.54,1.14-2.72,2.49-.69,2.79-2.47,2.7-4.46-.13-2.87-.36-5.75-.77-8.59-.1-.68-1.1-1.75-1.7-1.76-8.98-.11-17.96-.08-27.38-.08,.5,4.37,1.1,8.26,1.36,12.17,.21,3.11,.35,6.44-2.69,8.45-.85,.56-3.15,.58-3.37,.14-.59-1.16-.69-2.77-.44-4.1,.27-1.44,1.7-2.77,1.68-4.13-.07-4.15-.59-8.28-.92-12.34H102.87v451.54h162.53c-1-1.02-2.01-1.64-3.12-2.01-11.94-3.97-21.97-11.09-30.94-19.6-9.8-9.3-15.89-21.29-20.77-33.6-8.5-21.42-10.33-43.59-6.74-66.54,4.49-28.67,17.2-53.46,34.16-76.27,10.09-13.58,22.94-24.56,37.75-33.9Zm69.58,159.95c.33-2.4,.66-4.53,.92-6.67,.28-2.26,.52-4.52,.76-6.79,.82-7.71,.77-8.25,8.49-8.86,12.39-.98,24.97-3.65,35.91,6.42,4.11,3.78,6.79,7.09,6.94,12.52,.11,4.21,.31,8.42,.6,12.63,.05,.74,.74,1.45,1.2,2.13,1.54,2.3,4.13,4.43,4.46,6.88,.84,6.15,1.14,12.46,.79,18.66-.59,10.44-4.53,19.1-14.34,24.44-5.69,3.1-10.94,7-16.75,10.78h47.36c-.48-1.86-1.49-3.76-1.35-5.57,1.39-17.49-.63-34.84-1.83-52.23-1.18-17.12-2.55-34.24-3.5-51.37-.46-8.29-.23-16.62-.11-24.92,.06-4.79,.38-9.59,.86-14.36,.15-1.47,1.19-2.85,1.82-4.27,1.32,14.25,1.82,28.07,2.48,41.89,.19,4.04,.15,8.29,1.39,12.06,5.48,16.66,16.21,28.89,32.59,35.46,8.07,3.23,16.77,6.26,25.26,1.67,7.75-4.19,15.62-8.6,22.33-14.23,16.02-13.45,31.4-27.66,46.96-41.65,1.17-1.05,1.75-2.74,3.06-4.86,1.58-.41,4.09-1.34,6.69-1.67,11.79-1.53,23.62-2.8,35.41-4.35,8.96-1.18,17.68-3.38,25.38-8.39,3.14-2.04,5.96-4.52,6.67-8.55,.52-2.95-.95-6.61-3.09-6.99-3.84-.7-7.73-1.13-11.78-1.7-.04,.9-.03,1.61-.12,2.31-.57,4.53-2.2,7.63-7.1,9.65-4.51,1.86-8.97,1.86-13.36,1.99-11.63,.32-23.35,.57-34.89-.58-7.17-.72-8.91-2.03-8.35-9.31,.1-1.31,.01-2.63,.01-4.25-6.23,1.21-11.66,3.39-16.13,7.66-4.52,4.32-9.34,8.38-13.51,13.02-5.56,6.19-12.33,10.99-17.7,17.6-5.06,6.24-13.43,9.82-20.45,14.4-1.2,.78-2.95,.87-4.47,.97-.65,.04-1.48-.58-2-1.11-1.01-1.03-1.78-2.3-2.8-3.33-2.6-2.64-5.32-5.16-7.91-7.81-1.15-1.18-2.17-2.5-3.14-3.84-1.03-1.4-2.5-2.79-2.79-4.37-.99-5.48-1.45-11.05-2.29-16.55-1.86-12.26-4.06-24.47-5.67-36.76-.98-7.46-1.83-14.85-4.39-22-6.81-19.03-18.26-33.49-38.33-39.77-5,4.47-9.15,10.7-17.25,10.49-.43-.01-.87,.35-1.3,.55-10.35,4.65-21.44,6-32.55,6.57-8,.41-16.07-.29-24.11-.62-16.03-.66-31.51-4-46.56-9.52-.91-.33-2.38-.33-3.08,.2-5.3,3.94-10.56,7.92-15.65,12.12-11.73,9.66-21.6,20.76-29.92,33.7-10.98,17.06-19.4,34.83-23.56,54.73-3.6,17.24-3.89,34.31-.57,51.67,2.96,15.44,9.69,29.07,18.1,41.99,2.77,4.26,6.62,7.87,10.2,11.56,9.11,9.43,21.85,12.9,32.72,19.45,4.12,2.48,9.76,3.24,14.74,3.33,19.01,.37,38.04,.37,57.05,.02,5.76-.11,12.26,2.61,17.23-2.85,11.51-2.26,20.09-9.91,29.45-16.09,3.8-2.5,6.22-6.07,7.5-10.61,2.17-7.66,1.97-15.41,1.74-23.2-.03-1.08-.85-2.13-1.69-4.1-7.43,4.99-14.42,9.72-21.45,14.39-1.37,.91-2.9,1.58-4.35,2.36-.92-1.85-2.16-3.61-2.69-5.56-.66-2.42-.75-5-1.09-7.51-.33-.08-.66-.16-.99-.24-1.75,3.6-3.63,7.15-5.21,10.82-1.14,2.65-2.84,4.44-5.65,4.99-2.46,.48-4.97,1.1-7.45,1.08-7.93-.06-15.87-.2-23.78-.67-12.08-.71-24.07-1.93-35.33-7.02-4.55-2.05-9.48-3.25-14.02-5.32-8.98-4.08-15.87-10.03-19.54-19.83-4.76-12.73-5.62-25.71-3.81-38.83,1.81-13.07,4.48-26.04,7.11-38.98,1.06-5.21,2.92-10.26,4.67-15.3,.3-.85,1.93-1.23,2.95-1.82,.3,1.06,.95,2.15,.83,3.16-.2,1.75-1.02,3.42-1.32,5.17-2.48,14.35-4.95,28.7-7.31,43.07-1.72,10.47-2.04,20.98-.46,31.81,4.53-1.78,8.85-3.47,13.17-5.17,4.45-1.76,8.87-3.66,12.74-2.07,4.15-3.95,7.66-7.53,11.45-10.77,1.42-1.21,3.56-2.39,5.28-2.27,9.34,.61,18.66,1.64,27.99,2.52,2.22,.21,2.89,1.38,2.94,3.61,.14,6.46,.57,12.91,.88,19.28,4,1.25,7.83,2.46,11.78,3.69Zm-87.37-225.77c.05,10.4,1.25,20.57,4.6,30.4,5.56,16.31,14.79,29.51,31.96,35.04,6.62,2.13,13.62,3.22,20.53,4.31,9.77,1.55,19.58,3.53,29.41,3.72,9.5,.18,19.15-1.08,28.52-2.83,10.59-1.98,20.43-6.47,27.58-14.87,8.02-9.42,14.45-19.76,19.06-31.53,6.49-16.6,8.39-33.01,4.88-50.55-3.08-15.4-8.48-29.74-16.21-43.23-5.17-9.03-14.36-14.06-23.01-18.47-15.32-7.81-32.07-9.43-49.19-6.74-20.18,3.17-37.5,11.92-52.18,26.01-3.2,3.07-6.87,6.01-9,9.77-10.39,18.26-15.74,38.06-16.95,58.99Zm369.58,15.49c9.67,18.66,24.48,28.82,44.92,30.77,13.48,1.29,26.89,.9,40.16-1.71,10.83-2.13,20.87-6.11,28.35-14.74,4.57-5.27,9.05-10.62,13.34-16.13,9.61-12.34,14.14-26.85,17.46-41.84,2.41-10.88,4.31-22.07,1.27-32.84-6.96-24.63-21.4-42.96-46.71-51.13-12.55-4.05-25.48-4.15-38.47-4.28-11.41-.11-21.16,3.85-30.03,10.7-13.66,10.54-23.09,24.34-30.53,39.61-2.63,5.4-4.48,11.17-6.78,17.01,3.16,0,5.57-.28,7.89,.05,12.1,1.72,19.68,9.13,24.2,20,.8,1.92,1.04,2.79,3.4,2,2.4-.81,5.06-.83,7.85-1.24,1.08-3.8,3.05-7.78,3.16-11.81,.17-6.52,3.24-10.84,8.02-14.51,5.36-4.12,12.02-4.43,18.19-5.99,4.09-1.03,8.66-1.94,12.67-1.15,12.16,2.4,21.69,8.85,26.75,20.65,2-1.88,3.92-3.66,5.81-5.47,6.81-6.52,14.09-12.4,22.91-16.02,3.9-1.6,7.81-.93,8.82,2.15,1.09,3.29,1.13,6.99,1.14,10.52,0,.82-1.87,2.08-3.04,2.31-.61,.12-2.03-1.46-2.28-2.47-.5-2.01-.44-4.15-.63-6.59-1.37,.58-2.36,.93-3.29,1.4-10.34,5.13-18.6,13.07-27.35,20.34-.5,.42-.66,1.47-.67,2.23-.27,15.98-7.8,27.86-20.83,36.47-7.94,5.25-16.72,8.01-26.27,5.99-11.43-2.41-17.88-10.59-22.08-20.75-1.43-3.46-1.83-7.34-2.74-11.17-2.39,.37-4.94,.77-7.79,1.22,1.03,8.86-.84,16.68-5.78,24.06-5.06,7.54-11.62,11.78-21.04,12.38Zm-101.96-210.46c-.08-1.8,.11-3.66-.28-5.39-5.08-22.54-22.78-31.31-43.03-27.05-6.21,1.31-12.43,3.67-16.43,8.89-7.47,9.76-10.61,20.76-7.56,33.07,2.09,8.41,7.4,14.94,15.16,17.39,7.55,2.39,16.11,3.21,24.02,2.51,15.1-1.34,28.45-12.36,28.11-29.42Zm200.06,160.18c.17-2.47-.41-6.18-3.44-9.08-2.34-2.24-4.42-4.98-7.17-6.48-3.67-2-7.94-4.34-11.82-4.14-6.3,.32-12.53,2.45-18.72,4.12-1.32,.35-2.63,1.77-3.38,3.03-2.61,4.43-5.39,8.83-7.35,13.56-3.57,8.59-5.58,17.3,.18,26.03,4.69,7.09,10.73,12.14,19.5,11.08,18.92-2.29,31.42-17.79,32.2-38.11Zm-135.86,140.18h-36.94v44.41c5.08,0,9.75-.28,14.38,.05,11.93,.86,23.83,1.94,35.66-1.17,.72-2.54,1.39-4.93,1.93-6.86-4.8-2.05-9.55-3.71-13.93-6.07-3.89-2.1-6.73-5.4-7.05-10.21-.49-7.3,1.92-13.76,5.96-20.16Zm38.18-10.73c-.43,.06-.85,.11-1.28,.17-.12,2.83-.67,5.73-.26,8.49,.81,5.43,.65,6.57-5,7.21-7.95,.9-16,1.19-24.01,1.29-5.94,.08-6.12-.13-7.6,5.66-.36,1.38-.46,2.83-.82,4.22-1.13,4.34,.86,7.58,4.43,9.18,4.8,2.14,9.91,4.14,15.06,4.81,7.33,.96,14.82,.62,22.23,.92,1.01,.04,2.52,.2,2.92,.85,1.93,3.11,4.54,2.04,6.72,1.81-.47-4.72-1.21-9.19-1.27-13.67-.06-4.65,.64-9.31,.81-13.98,.08-2.25,.56-5.27-.63-6.62-3.36-3.81-7.49-6.94-11.32-10.34Zm-1.31-136.6c-.72,0-1.45-.04-2.17,0-5.02,.29-5.94,1.34-5.93,6.33,0,4.33-.11,8.67-.25,13-.3,9.31,.99,18.37,3.85,27.26,1.03,3.22,3.13,3.97,5.98,3.8,4.28-.26,7.98-1.91,10.54-5.38,2.21-2.99,4.62-6.04,5.89-9.46,1.38-3.73,2.06-7.91,2.07-11.91,.01-2.81-1.64-5.62-2.46-8.45-2.4-8.31-8.38-15.44-17.53-15.21Zm-184.31-153.24h-32.23c.96,10.45,1.89,20.66,2.84,30.95h29.39v-30.95Zm-103.46,451.1c1.48-8.93,2.88-17.39,4.41-26.6-8.82-1.94-17.61-3.88-26.15-5.76-1.82,10.52-3.5,20.27-5.23,30.31,8.9,.68,18.44,1.41,26.97,2.06Zm36.62-6.71c6.3-4.09,12.42-8.05,18.5-12.07,.5-.33,1.07-1.04,1.08-1.57,.08-5.12,.05-10.23,.05-15.81-10.74-.57-21.36-1.14-31.91-1.7v21.1c7.27-3.88,9.93-2.64,11.42,5.21,.31,1.62,.58,3.24,.87,4.83Zm-103.15-21.64c1.13,4.56,2.39,8.23,2.84,11.98,.24,1.98,.68,2.76,2.5,3.43,6.68,2.45,13.24,5.25,19.95,7.64,3.22,1.15,6.66,1.67,9.24,2.29-1.32-4-2.9-7.79-3.8-11.74-1.5-6.6-2.57-13.3-3.86-20.2-9.05,2.22-17.82,4.38-26.85,6.6Zm57.62-25.01c-10.16-1.15-19.94-2.26-29.46-3.35,0,5.08-.41,9.44,.12,13.69,.53,4.25,1.99,8.39,3.28,13.54,7.59-9.78,17.29-5.71,26.07-5.12v-18.75Zm291.76-110.09c-5.05,1.09-10.58,2.37-16.15,3.47-3.93,.77-5.9-.87-6.48-4.74-.24-1.62-1.02-3.16-1.74-5.3-1.05,1.76-1.82,2.83-2.36,4-1.62,3.48-3.91,5.24-8.13,4.99-4.88-.3-9.83,.1-14.72,.59-3.46,.35-6.86,1.34-11.17,2.23,15.01,0,28.92-.01,42.84,0,6.1,0,8.52,2.37,8.45,8.37h9.47v-13.61Zm-274.79,144.72c3.65,3.41,7.2,6.73,11.04,10.32,.28-1.09,.61-1.84,.64-2.61,.27-5.52-.2-11.17,.88-16.52,1.31-6.49-1.2-10.74-5.66-14.67-1.3-1.15-2.29-2.65-3.38-3.95-1.19,9.3-2.37,18.49-3.51,27.43Zm6.22-30.51l-.52,1.67c2.28,2.22,4.52,4.49,6.89,6.61,.51,.46,1.51,.5,2.29,.5,8.15,0,16.3-.01,24.45-.1,1.21-.01,2.42-.42,3.63-.65-.85-.98-1.65-2-2.56-2.92-.84-.85-1.68-1.81-2.71-2.35-2.02-1.06-4.15-2.56-6.27-2.64-8.39-.3-16.8-.12-25.2-.12Zm-57.85,10.3c-4.2-1.47-8.33-2.97-12.5-4.32-.69-.22-1.62,.06-2.36,.32-6.08,2.16-12.15,4.36-18.2,6.59-.65,.24-1.22,.7-1.54,.89,3.11,1.09,6.1,2.16,9.12,3.16,.84,.28,1.85,.62,2.62,.39,7.56-2.25,15.09-4.62,22.87-7.03Zm50.82,23.38c-.5,2.84-.91,5.03-1.27,7.23-1.44,8.77-.64,9.49,8.25,7.51,.23-.05,.49-.03,.7-.12,2-.79,2.52-3.18,1.06-4.81-2.77-3.1-5.53-6.2-8.74-9.81Zm119.89-404.46c-4.15-4.76-8.2-9.4-12.46-14.27v14.27h12.46Zm-153.33,388.46c-2.57,2.13-4.44,3.43-5.98,5.03-.8,.83-1.6,2.31-1.41,3.31,.77,4.05,1.93,8.03,2.94,12.04,.25-.01,.5-.02,.75-.03,1.16-6.39,2.32-12.78,3.7-20.35Zm-50.88,.2c1.67,7.46,4.48,11.65,9.33,14.05-.47-2.12-1.26-4.18-1.31-6.26-.14-5.16-3.1-7.21-8.02-7.79Zm35.12-10.92v-10.45c-2.69,2.28-5.39,4.57-8.62,7.31,3.34,1.22,5.7,2.08,8.62,3.15Zm358.03-108.15c-.77-2.78-1.32-4.78-2.01-7.25-2.33,2.04-4.32,3.79-6.84,6,3.25,.46,5.75,.82,8.84,1.26Zm-44.4-129.48c-.43,6.38-2.12,12.99,1.62,19.14-.54-6.38-1.08-12.76-1.62-19.14Zm83.68,125.45l-.22-.24-.22,.24,.34,.22,.1-.22Z"
       id="path8" />
    <path
       class="cls-31"
       d="M823.75,971.8c-13.97-5.05-28.07-9.75-41.87-15.23-26.84-10.66-51.88-24.8-75.63-41.16-8.12-5.59-15.66-12.05-23.86-18.42,6.06-.5,11.44-.57,16.68-1.47,7.02-1.21,14.05-2.66,20.87-4.71,21.32-6.39,37.3-20.09,50.73-37.4,12.32-15.88,23.57-32.35,31.21-51.04,1.53-3.74,2.56-7.71,3.48-11.65,.25-1.06-.73-2.41-1.15-3.63-.88,.8-2.2,1.43-2.57,2.42-5.07,13.67-12.25,26.26-20.49,38.13-10.7,15.41-21.88,30.52-36.89,42.22-12.95,10.09-28.02,15.01-43.85,18.08-13.41,2.6-26.83,1.16-40.25,.14-3.81-.29-7.63-.52-11.39-1.11-1.05-.17-2.69-1.47-2.75-2.34-.46-7.16-.69-14.34-.75-21.52,0-.63,1.74-1.83,2.64-1.81,4.91,.13,9.81,.6,14.72,.89,18.46,1.12,35.91-2.14,51.98-11.74,22.13-13.21,38.03-32.04,49.75-54.69,1.98-3.82,3.85-7.7,5.73-11.58,.41-.85,.92-1.85,.81-2.71-.13-1.02-.66-2.5-1.41-2.8-.68-.27-2.3,.52-2.78,1.29-3.44,5.49-6.5,11.22-10.07,16.62-4.95,7.49-10.23,14.75-15.95,22.93-2.26-5.71-4.05-10.28-5.88-14.83-.49-1.22-.93-2.51-1.71-3.53-.48-.62-1.56-.77-2.37-1.13-.16,.8-.64,1.69-.43,2.38,1.54,5,2.71,10.21,5,14.86,1.98,4.01,1.14,6.38-2.61,8.76-1.77-2.8-3.67-5.62-5.38-8.55-2.69-4.6-5.04-5.09-9.2-1.68-1.46,1.19-2.82,2.5-4.98,4.43,.52-6.97,.98-13.08,1.43-19.12,5.4-1.95,10.94-3.77,16.35-5.93,10.79-4.33,17.69-13.19,25.07-21.6,13.9-15.83,21.01-34.63,25.05-54.9,.06-.31,.21-.61,.4-1.12,13.47,9.02,26.82,17.97,40.18,26.9,.67,.45,1.43,.77,2.15,1.15v138.74c-.36-.01-.77,.09-1.07-.05-11.48-5.5-22.99-10.93-34.39-16.59-5.66-2.81-11.07-6.13-16.68-9.06-.88-.46-2.18-.1-3.28-.12,.33,1.06,.5,2.21,1.03,3.16,.38,.69,1.17,1.22,1.87,1.66,6.39,4,12.56,8.42,19.25,11.84,10.91,5.57,22.16,10.48,33.27,15.67v52.03c-.57-.12-1.17-.17-1.71-.38-23.87-9.29-46.71-20.76-69.32-32.72-9.8-5.18-20.12-9.61-27.72-18.17-.17-.19-.66-.09-1.59-.19,.22,1.06,.12,2.1,.6,2.64,3.04,3.46,5.65,7.67,9.41,10.05,23.86,15.14,49.32,27.3,75.07,38.83,4.95,2.22,10.17,3.83,15.26,5.72v23.12Z"
       id="path10" />
    <path
       class="cls-15"
       d="M823.75,948.67c-5.09-1.89-10.31-3.5-15.26-5.72-25.75-11.53-51.2-23.69-75.07-38.83-3.76-2.38-6.37-6.59-9.41-10.05-.47-.54-.38-1.58-.6-2.64,.93,.1,1.42,0,1.59,.19,7.6,8.56,17.92,12.99,27.72,18.17,22.61,11.96,45.45,23.43,69.32,32.72,.54,.21,1.14,.26,1.71,.38v5.78Z"
       id="path12" />
    <path
       class="cls-3"
       d="M823.75,890.86c-11.11-5.19-22.36-10.1-33.27-15.67-6.69-3.42-12.86-7.84-19.25-11.84-.7-.44-1.49-.97-1.87-1.66-.53-.95-.7-2.1-1.03-3.16,1.1,.02,2.41-.33,3.28,.12,5.61,2.93,11.02,6.25,16.68,9.06,11.4,5.66,22.91,11.09,34.39,16.59,.3,.14,.71,.04,1.07,.05v6.5Z"
       id="path14" />
    <path
       class="cls-21"
       d="M449.13,524.78c-14.99-7.68-20.86-20.48-24.43-34.96-1.56,0-3,0-4.43,0-91.96,0-183.93,.03-275.89-.07-15.69-.02-31.21-1.7-45.96-7.66-18.93-7.65-28.59-21.86-28.64-42.12-.07-30.1,.43-60.2,.61-90.3,.37-65.26,.69-130.53,1.04-195.79,.11-20.16,1.43-40.13,8.15-59.4,10.71-30.72,32.85-46.29,64.66-49,7.3-.62,14.66-.77,22-.77,169.12-.04,338.24-.03,507.36-.04,11.23,0,22.33,.98,33.2,3.99,23.46,6.5,37.44,21.98,41.66,45.66,2.03,11.42,2.91,23.19,2.93,34.81,.21,90.68,.19,181.36-.02,272.03-.04,19.25-1.2,38.5-6.34,57.24-.29,1.04-.58,2.08-.92,3.11-6.35,19.25-16.92,27.28-37.41,27.47-34.3,.31-68.61,.25-102.91,.36-48.99,.15-97.98,.31-146.96,.48-1.2,0-2.42,0-3.6,.19-4.54,.73-6.33,2.73-6.09,7.36,.21,4.08,.95,8.13,1.24,12.21,.35,4.79,.48,9.59,.74,15.2Zm-4.37-7.58c-.29-3.07-.49-5.1-.66-7.14-.41-5.03-1.16-10.06-1.09-15.08,.06-4.56,2.9-7.62,7.3-8.71,2.19-.54,4.51-.77,6.78-.78,64.28-.25,128.55-.46,192.83-.66,18.66-.06,37.32,.06,55.97-.17,19.8-.24,28.87-7.25,34.62-26.17,.1-.34,.15-.71,.25-1.05,5.27-18.97,6.26-38.47,6.31-57.96,.2-89.84,.21-179.68,0-269.51-.03-11.74-.91-23.62-2.95-35.17-3.96-22.38-17.52-36.5-39.66-42.25-10.1-2.62-20.35-3.52-30.73-3.52-169.13,0-338.26,0-507.38,.03-7.21,0-14.44,.27-21.64,.75-30.72,2.06-51.35,17.97-61.27,47.06-6.39,18.72-7.53,38.12-7.63,57.68-.32,65.27-.66,130.53-1.04,195.8-.17,29.38-.63,58.76-.64,88.14,0,21.08,9.18,33.65,29.07,40.74,13.31,4.74,27.19,6.16,41.18,6.17,93.17,.09,186.34,.06,279.51,.07,1.55,0,3.11,0,4.65,0,1.99,12.1,6.14,22.85,16.25,31.73Z"
       id="path16" />
    <path
       class="cls-30"
       d="M275.74,815.03c-14.81,9.35-27.66,20.33-37.75,33.9-16.95,22.81-29.67,47.6-34.16,76.27-3.59,22.95-1.76,45.13,6.74,66.54,4.89,12.31,10.97,24.3,20.77,33.6,8.97,8.51,19,15.63,30.94,19.6,1.1,.37,2.12,.99,3.12,2.01H102.87v-451.54H464.43c.34,4.06,.86,8.2,.92,12.34,.02,1.36-1.41,2.7-1.68,4.13-.25,1.33-.15,2.94,.44,4.1,.23,.45,2.52,.43,3.37-.14,3.04-2.01,2.9-5.34,2.69-8.45-.27-3.91-.86-7.81-1.36-12.17,9.42,0,18.4-.03,27.38,.08,.6,0,1.6,1.08,1.7,1.76,.42,2.84,.64,5.72,.77,8.59,.09,1.99-.21,3.77-2.7,4.46-.63,.17-1.45,2.11-1.14,2.72,.54,1.08,1.82,2.43,2.87,2.5,3.42,.22,6.03-2.27,5.99-5.77-.06-4.64-.55-9.28-.87-14.12h13.12v306.53c1.47,.1,2.6,.17,4.53,.3-14.41,12.43-26.84,26.28-42.34,36.47-2.02-1.46-3.71-2.77-5.48-3.96-7.42-4.96-10.4-12.16-11.6-20.8-3.24-23.38-4.44-47.19-13.57-69.41-4.86-11.81-11.38-22.51-22.32-29.62-5.05-3.29-10.74-5.61-15.97-8.28,3.54-5.35,7.82-10.69,10.87-16.66,7.88-15.47,13.78-31.62,12.89-49.41-.69-13.68-3.58-27-8.3-39.8-2.99-8.12-7.09-15.84-10.84-23.67-2.21-4.62-6.19-7.7-9.8-11.24-12.01-11.75-27.02-15.84-42.84-18.54-14.2-2.42-27.99-.83-41.56,3.56-16.97,5.48-31.95,14.15-43.9,27.64-2.29,2.58-5.76,4.48-7.14,7.43-7.3,15.53-16.77,30.26-18.91,47.82-2.67,21.91-.31,43.07,10.28,62.77,3.83,7.13,7.95,14.24,15.82,18.46Z"
       id="path18" />
    <path
       class="cls-18"
       d="M345.32,974.98c-3.95-1.24-7.79-2.44-11.78-3.69-.31-6.37-.74-12.82-.88-19.28-.05-2.23-.72-3.4-2.94-3.61-9.33-.88-18.64-1.91-27.99-2.52-1.73-.11-3.87,1.06-5.28,2.27-3.79,3.24-7.3,6.81-11.45,10.77-3.87-1.59-8.29,.31-12.74,2.07-4.31,1.71-8.63,3.39-13.17,5.17-1.58-10.83-1.26-21.34,.46-31.81,2.36-14.37,4.83-28.72,7.31-43.07,.3-1.75,1.12-3.42,1.32-5.17,.12-1.01-.53-2.1-.83-3.16-1.02,.6-2.65,.98-2.95,1.82-1.76,5.03-3.61,10.09-4.67,15.3-2.63,12.94-5.3,25.9-7.11,38.98-1.81,13.12-.96,26.1,3.81,38.83,3.66,9.79,10.55,15.75,19.54,19.83,4.54,2.06,9.48,3.26,14.02,5.32,11.26,5.09,23.25,6.31,35.33,7.02,7.91,.47,15.85,.6,23.78,.67,2.48,.02,4.99-.6,7.45-1.08,2.81-.55,4.52-2.34,5.65-4.99,1.58-3.68,3.46-7.22,5.21-10.82,.33,.08,.66,.16,.99,.24,.34,2.51,.42,5.09,1.09,7.51,.54,1.95,1.77,3.72,2.69,5.56,1.45-.78,2.98-1.45,4.35-2.36,7.03-4.67,14.02-9.4,21.45-14.39,.84,1.97,1.66,3.02,1.69,4.1,.23,7.78,.43,15.54-1.74,23.2-1.29,4.54-3.71,8.1-7.5,10.61-9.36,6.17-17.95,13.83-29.45,16.09-4.97,5.45-11.47,2.74-17.23,2.85-19.01,.35-38.04,.35-57.05-.02-4.98-.1-10.62-.85-14.74-3.33-10.87-6.55-23.62-10.02-32.72-19.45-3.57-3.7-7.42-7.3-10.2-11.56-8.41-12.92-15.14-26.55-18.1-41.99-3.32-17.36-3.03-34.42,.57-51.67,4.16-19.9,12.58-37.67,23.56-54.73,8.32-12.94,18.19-24.04,29.92-33.7,5.09-4.19,10.36-8.18,15.65-12.12,.71-.52,2.18-.53,3.08-.2,15.05,5.51,30.53,8.86,46.56,9.52,8.03,.33,16.1,1.02,24.11,.62,11.11-.57,22.2-1.92,32.55-6.57,.43-.19,.87-.56,1.3-.55,8.1,.21,12.25-6.02,17.25-10.49,20.07,6.28,31.52,20.74,38.33,39.77,2.56,7.15,3.42,14.54,4.39,22,1.61,12.29,3.81,24.5,5.67,36.76,.84,5.51,1.3,11.08,2.29,16.55,.28,1.58,1.76,2.97,2.79,4.37,.98,1.33,1.99,2.66,3.14,3.84,2.59,2.65,5.31,5.17,7.91,7.81,1.02,1.03,1.79,2.3,2.8,3.33,.52,.54,1.35,1.15,2,1.11,1.52-.1,3.27-.18,4.47-.97,7.02-4.58,15.39-8.16,20.45-14.4,5.37-6.62,12.14-11.41,17.7-17.6,4.17-4.64,8.98-8.7,13.51-13.02,4.47-4.27,9.9-6.45,16.13-7.66,0,1.63,.09,2.95-.01,4.25-.56,7.28,1.18,8.59,8.35,9.31,11.54,1.15,23.26,.9,34.89,.58,4.38-.12,8.85-.12,13.36-1.99,4.9-2.02,6.52-5.12,7.1-9.65,.09-.7,.08-1.41,.12-2.31,4.05,.57,7.94,1,11.78,1.7,2.14,.39,3.61,4.05,3.09,6.99-.72,4.03-3.53,6.5-6.67,8.55-7.7,5.01-16.41,7.2-25.38,8.39-11.79,1.56-23.62,2.82-35.41,4.35-2.59,.34-5.11,1.27-6.69,1.67-1.3,2.12-1.89,3.82-3.06,4.86-15.56,13.99-30.95,28.2-46.96,41.65-6.71,5.63-14.57,10.04-22.33,14.23-8.49,4.59-17.19,1.56-25.26-1.67-16.37-6.56-27.11-18.8-32.59-35.46-1.24-3.77-1.2-8.01-1.39-12.06-.66-13.82-1.16-27.64-2.48-41.89-.63,1.42-1.67,2.8-1.82,4.27-.47,4.77-.79,9.57-.86,14.36-.11,8.31-.34,16.64,.11,24.92,.94,17.14,2.31,34.25,3.5,51.37,1.2,17.39,3.22,34.74,1.83,52.23-.14,1.81,.87,3.71,1.35,5.57h-47.36c5.81-3.78,11.06-7.68,16.75-10.78,9.81-5.35,13.76-14.01,14.34-24.44,.35-6.2,.05-12.51-.79-18.66-.34-2.45-2.92-4.59-4.46-6.88-.46-.68-1.14-1.39-1.2-2.13-.29-4.2-.49-8.41-.6-12.63-.14-5.43-2.82-8.73-6.94-12.52-10.94-10.06-23.52-7.39-35.91-6.42-7.72,.61-7.68,1.14-8.49,8.86-.24,2.26-.48,4.53-.76,6.79-.27,2.14-.59,4.27-.92,6.67Z"
       id="path20" />
    <path
       class="cls-30"
       d="M257.95,749.21c1.21-20.93,6.56-40.73,16.95-58.99,2.14-3.75,5.8-6.7,9-9.77,14.68-14.09,32-22.84,52.18-26.01,17.12-2.69,33.87-1.07,49.19,6.74,8.65,4.41,17.84,9.44,23.01,18.47,7.72,13.49,13.12,27.83,16.21,43.23,3.51,17.54,1.61,33.95-4.88,50.55-4.6,11.77-11.04,22.11-19.06,31.53-7.15,8.4-16.99,12.89-27.58,14.87-9.37,1.75-19.02,3.01-28.52,2.83-9.83-.18-19.64-2.17-29.41-3.72-6.9-1.09-13.9-2.18-20.53-4.31-17.18-5.54-26.4-18.73-31.96-35.04-3.35-9.83-4.55-20-4.6-30.4Zm135.78-3.75c.36,6.3,.62,12.4,1.11,18.49,.17,2.11,.7,4.27,1.52,6.21,.4,.94,1.85,1.44,2.83,2.13,.69-1.09,2-2.19,1.98-3.26-.08-3.95-.54-7.89-.98-11.82-.32-2.85-.61-5.74-1.32-8.51-.56-2.17-1.52-4.53-5.14-3.24Zm16.1-5.56c-.23,4.22-.59,8.37-.63,12.52-.02,2.33,.87,4.58,3.63,4.74,3.01,.18,3.73-1.86,3.63-4.5-.11-2.97,.1-5.96-.11-8.93-.29-4.04-1.73-4.91-6.52-3.83Zm-40.07,6.06c-1.42,4.96-1.79,9.67,.79,14.12,.55,.95,1.99,2.22,2.69,2.04,1.12-.29,2.6-1.54,2.79-2.59,.52-2.79,.61-5.71,.53-8.56-.12-4.85-1.74-6-6.81-5.01Zm19.43,53.09c.51-.41,2.73-1.29,3.03-2.61,.56-2.42-1.6-3.38-3.81-3.69-.24-.03-.48-.07-.71-.06-2.56,.11-3.87-1.32-4.66-3.58-.39-1.1-.86-2.28-1.64-3.09-.56-.58-1.74-.89-2.55-.77-.51,.08-1.13,1.15-1.23,1.85-.81,5.62,4.73,12.05,11.57,11.94Z"
       id="path22" />
    <path
       class="cls-31"
       d="M627.53,764.7c9.42-.6,15.98-4.84,21.04-12.38,4.95-7.38,6.81-15.2,5.78-24.06,2.85-.45,5.4-.84,7.79-1.22,.9,3.83,1.31,7.72,2.74,11.17,4.2,10.16,10.66,18.35,22.08,20.75,9.55,2.01,18.33-.74,26.27-5.99,13.02-8.61,20.55-20.49,20.83-36.47,.01-.76,.17-1.81,.67-2.23,8.75-7.27,17.01-15.21,27.35-20.34,.94-.46,1.92-.82,3.29-1.4,.2,2.44,.14,4.58,.63,6.59,.25,1.01,1.67,2.59,2.28,2.47,1.17-.23,3.04-1.49,3.04-2.31-.01-3.52-.05-7.23-1.14-10.52-1.02-3.07-4.93-3.74-8.82-2.15-8.82,3.62-16.1,9.49-22.91,16.02-1.89,1.81-3.81,3.59-5.81,5.47-5.06-11.8-14.58-18.25-26.75-20.65-4.01-.79-8.58,.12-12.67,1.15-6.18,1.55-12.83,1.87-18.19,5.99-4.78,3.67-7.85,7.99-8.02,14.51-.11,4.03-2.08,8.02-3.16,11.81-2.79,.4-5.45,.43-7.85,1.24-2.36,.79-2.6-.07-3.4-2-4.52-10.86-12.11-18.27-24.2-20-2.32-.33-4.73-.05-7.89-.05,2.3-5.83,4.15-11.61,6.78-17.01,7.45-15.27,16.87-29.07,30.53-39.61,8.87-6.85,18.62-10.81,30.03-10.7,12.99,.13,25.92,.23,38.47,4.28,25.31,8.16,39.74,26.5,46.71,51.13,3.05,10.77,1.14,21.95-1.27,32.84-3.32,15-7.85,29.5-17.46,41.84-4.28,5.5-8.77,10.86-13.34,16.13-7.48,8.63-17.53,12.61-28.35,14.74-13.27,2.62-26.69,3-40.16,1.71-20.44-1.96-35.25-12.12-44.92-30.77Zm23.41,3.9c-.29,.34-.57,.68-.86,1.02,.25,1.12,.32,2.32,.77,3.35,3.56,8.09,12.67,9.17,19.05,2.3,2.86-3.08,3.55-6.12,1.46-7.41-3.21-1.99-4.97,.44-6.79,2.6-3.57,4.24-5.88,4.17-10.01,.09-.94-.93-2.41-1.31-3.63-1.94Z"
       id="path24" />
    <path
       class="cls-24"
       d="M525.57,554.23c.34,17.06-13.01,28.08-28.11,29.42-7.92,.7-16.47-.12-24.02-2.51-7.76-2.45-13.07-8.98-15.16-17.39-3.05-12.3,.09-23.31,7.56-33.07,4-5.22,10.21-7.58,16.43-8.89,20.25-4.26,37.95,4.51,43.03,27.05,.39,1.73,.2,3.59,.28,5.39Zm-29.16-1.12h.12c0,1.09-.22,2.23,.06,3.24,.29,1.05,1.05,1.96,1.6,2.94,1.07-.62,2.94-1.12,3.06-1.88,.44-2.95,.47-5.99,.27-8.98-.04-.56-1.88-1.37-2.87-1.34-.65,.02-1.55,1.25-1.81,2.1-.39,1.23-.3,2.61-.42,3.92Zm-17.91,12.53c-.39,2.8,1.63,4.57,4.04,5.2,1.83,.47,4.09-.17,5.98-.83,.71-.25,1.12-1.92,1.24-2.99,.04-.39-1.15-1.28-1.8-1.31-3.02-.14-6.04-.06-9.46-.06Zm-2.17-14.27h-.08c0-1.07,.29-2.26-.09-3.17-.34-.82-1.31-1.66-2.17-1.9-.63-.18-2.06,.44-2.22,.97-.59,2.01-1.21,4.18-.99,6.2,.13,1.2,1.81,2.23,2.79,3.34,.92-1.22,1.91-2.39,2.71-3.68,.27-.43,.04-1.16,.04-1.76Zm29.71-10.87c2-1.4,1.8-3.85,.17-5.46-1.8-1.77-4.44-2.7-6.71-3.99-.05,.9-.49,2.13-.07,2.63,1.92,2.24,4.09,4.27,6.61,6.82Zm-25.82-9.03c-3.09-1.1-6.6,.75-9.89,5.26-.61,.84-.6,2.14-.87,3.23l1.13,.38c3.18-2.93,6.36-5.85,9.63-8.86Z"
       id="path26" />
    <path
       class="cls-28"
       d="M635.96,834.3c3.89-2.36,5.05-6.29,5.64-10.36,1.33-9.24,2.43-18.52,3.63-27.78,.06-.45,.25-.88,.36-1.25,6.95,2.4,13.77,4.76,20.78,7.19-2.58,6.22-5.31,12.66-7.91,19.15-1.1,2.74-.37,5.14,2.04,6.95,.67,1.7,1.39,1.75,2.17,.07,2.28-.61,4.55-1.23,7.39-1.99-.44,2.27-.74,4.3-1.23,6.29-1.3,5.27-.48,7.33,4.29,9.82,2,1.05,4.07,2.09,6.24,2.65,1.16,.3,2.58-.43,3.89-.7-.43-1.46-.4-3.56-1.37-4.25-2.27-1.62-5.03-2.56-7.68-3.82,.59-3.1,1.13-6.11,1.73-9.1,1.07-5.36-1.41-7.99-6.82-7.18-1.06,.16-2.13,.32-3.19,.48-.26-.26-.51-.52-.77-.78,1.97-5.25,3.86-10.53,5.98-15.71,.33-.8,1.72-1.66,2.61-1.64,6,.09,12,.67,17.99,.57,5.98-.1,11.96-.8,18.39-1.27-.13,1.52-.18,3.14-.41,4.74-.69,4.85-1.54,9.69-2.12,14.56-.16,1.35,.21,2.86,.67,4.17,.94,2.66,2.9,3.63,5.34,1.98,3.07-2.07,5.93-4.45,9.17-6.92,2,3.1,4.1,6.36,6.38,9.89-8.53,7.96-18.43,13.93-29.37,19.06-5.28-8.69-10.84-16.99-12.85-27.09-.93-4.66-2.19-9.26-3.42-13.85-.33-1.23-.97-2.47-1.77-3.46-.39-.48-1.53-.65-2.22-.48-.41,.1-.97,1.19-.85,1.7,2.19,9.35,3.99,18.83,6.92,27.94,1.84,5.72,5.43,10.87,8.6,16.98-7.27,2.54-14.56,3.83-22.1,3.95-.49,.09-.99,.18-1.48,.26-3.13,0-6.25,0-9.38,0-.52-.34-1.05-.68-1.57-1.02-2.3-4.44-4.56-8.82-2.37-14.11,.41-.98-.58-2.53-.92-3.82-1.01,.41-2.29,.56-3,1.27-3.71,3.71-7.27,7.57-10.9,11.4-5.08-4.01-9.73-7.69-14.1-11.15,1.28-1.06,3.16-2.61,5.03-4.16-.22-.35-.44-.71-.66-1.06,.35,.52,.69,1.04,1.04,1.56,.73,.1,1.45,.21,2.18,.31Z"
       id="path28" />
    <path
       class="cls-19"
       d="M725.62,714.41c-.78,20.33-13.28,35.83-32.2,38.11-8.77,1.06-14.81-3.99-19.5-11.08-5.76-8.72-3.75-17.44-.18-26.03,1.96-4.73,4.74-9.13,7.35-13.56,.75-1.26,2.06-2.68,3.38-3.03,6.18-1.66,12.42-3.8,18.72-4.12,3.89-.2,8.16,2.15,11.82,4.14,2.75,1.5,4.83,4.24,7.17,6.48,3.03,2.9,3.61,6.61,3.44,9.08Zm-28.69,18.74l-.49-.22c0-.6,0-1.2,0-1.8,.04-2.84-1.68-4.28-4.18-4.4-3.02-.14-3.89,2.01-3.49,4.61,.25,1.6,.88,3.17,1.47,4.7,1.06,2.78,3.1,2.49,4.82,.99,.99-.87,1.27-2.55,1.87-3.87Zm-.14-22.01c-.11,.49-.22,.98-.34,1.48,2.05,2.41,4.07,4.85,6.18,7.2,.3,.33,1.32,.53,1.57,.3,.65-.58,1.66-1.7,1.47-2.13-.88-1.98-1.75-4.26-3.34-5.55-1.33-1.07-3.66-.92-5.54-1.31Z"
       id="path30" />
    <path
       class="cls-16"
       d="M589.76,854.59c-4.04,6.4-6.45,12.85-5.96,20.16,.32,4.81,3.16,8.11,7.05,10.21,4.38,2.36,9.13,4.02,13.93,6.07-.54,1.93-1.21,4.32-1.93,6.86-11.83,3.11-23.73,2.03-35.66,1.17-4.62-.33-9.29-.05-14.38-.05v-44.41h36.94Z"
       id="path32" />
    <path
       class="cls-31"
       d="M627.94,843.86c3.83,3.4,7.96,6.53,11.32,10.34,1.19,1.35,.71,4.37,.63,6.62-.17,4.66-.87,9.32-.81,13.98,.06,4.48,.8,8.95,1.27,13.67-2.18,.23-4.8,1.3-6.72-1.81-.4-.65-1.91-.81-2.92-.85-7.42-.29-14.91,.04-22.23-.92-5.16-.67-10.26-2.67-15.06-4.81-3.57-1.59-5.56-4.83-4.43-9.18,.36-1.38,.46-2.83,.82-4.22,1.49-5.79,1.66-5.58,7.6-5.66,8.01-.11,16.06-.39,24.01-1.29,5.65-.64,5.81-1.78,5-7.21-.41-2.75,.14-5.65,.26-8.49,.43-.06,.85-.11,1.28-.17Z"
       id="path34" />
    <path
       class="cls-28"
       d="M626.63,707.26c9.14-.23,15.13,6.89,17.53,15.21,.82,2.83,2.47,5.64,2.46,8.45-.02,3.99-.69,8.17-2.07,11.91-1.27,3.42-3.68,6.46-5.89,9.46-2.56,3.47-6.26,5.12-10.54,5.38-2.86,.17-4.95-.58-5.98-3.8-2.85-8.89-4.15-17.94-3.85-27.26,.14-4.33,.26-8.66,.25-13,0-4.99,.91-6.05,5.93-6.33,.72-.04,1.44,0,2.17,0Zm-1.32,29.44c-.04,3.71,2.12,7.51,4.19,7.36,2.4-.17,3.57-1.62,3.57-4.08,0-3.74-1.78-6.57-4.31-6.39-1.94,.14-4.06,.47-3.45,3.1Zm-2.36-9.39c2.52-2.57,4.75-4.74,6.85-7.03,.56-.61,1.22-1.84,.96-2.31-.45-.82-1.98-1.96-2.36-1.75-2.18,1.25-4.63,2.5-6.08,4.43-1.62,2.16-1.62,4.94,.63,6.66Z"
       id="path36" />
    <path
       class="cls-16"
       d="M442.32,554.02v30.95h-29.39c-.94-10.29-1.88-20.5-2.84-30.95h32.23Z"
       id="path38" />
    <path
       class="cls-16"
       d="M338.87,1005.12c-8.53-.65-18.07-1.38-26.97-2.06,1.73-10.04,3.41-19.78,5.23-30.31,8.54,1.88,17.33,3.82,26.15,5.76-1.53,9.22-2.93,17.67-4.41,26.6Z"
       id="path40" />
    <path
       class="cls-16"
       d="M375.48,998.41c-.28-1.59-.56-3.22-.87-4.83-1.5-7.86-4.16-9.1-11.42-5.21v-21.1c10.55,.56,21.17,1.13,31.91,1.7,0,5.58,.03,10.7-.05,15.81,0,.54-.57,1.24-1.08,1.57-6.08,4.01-12.2,7.97-18.5,12.07Z"
       id="path42" />
    <path
       class="cls-16"
       d="M272.34,976.77c9.03-2.22,17.81-4.38,26.85-6.6,1.29,6.9,2.36,13.6,3.86,20.2,.9,3.95,2.48,7.74,3.8,11.74-2.58-.62-6.02-1.14-9.24-2.29-6.7-2.39-13.26-5.19-19.95-7.64-1.82-.67-2.26-1.45-2.5-3.43-.45-3.76-1.7-7.42-2.84-11.98Z"
       id="path44" />
    <path
       class="cls-16"
       d="M329.95,951.76v18.75c-8.78-.58-18.48-4.66-26.07,5.12-1.29-5.15-2.75-9.28-3.28-13.54-.53-4.24-.12-8.61-.12-13.69,9.53,1.08,19.3,2.19,29.46,3.35Z"
       id="path46" />
    <path
       class="cls-29"
       d="M621.71,841.67v13.61h-9.47c.07-5.99-2.35-8.36-8.45-8.37-13.91-.02-27.83,0-42.84,0,4.31-.89,7.71-1.89,11.17-2.23,4.88-.49,9.84-.89,14.72-.59,4.21,.26,6.5-1.51,8.13-4.99,.55-1.17,1.31-2.24,2.36-4,.72,2.14,1.49,3.68,1.74,5.3,.58,3.87,2.55,5.52,6.48,4.74,5.57-1.1,11.1-2.37,16.15-3.47Z"
       id="path48" />
    <path
       class="cls-16"
       d="M346.92,986.39c1.14-8.94,2.32-18.13,3.51-27.43,1.1,1.3,2.08,2.8,3.38,3.95,4.47,3.93,6.98,8.19,5.66,14.67-1.08,5.35-.61,11-.88,16.52-.04,.77-.37,1.52-.64,2.61-3.84-3.59-7.38-6.9-11.04-10.32Z"
       id="path50" />
    <path
       class="cls-16"
       d="M353.15,955.88c8.4,0,16.81-.18,25.2,.12,2.13,.08,4.25,1.58,6.27,2.64,1.03,.54,1.87,1.49,2.71,2.35,.91,.92,1.71,1.95,2.56,2.92-1.21,.23-2.42,.63-3.63,.65-8.15,.09-16.3,.11-24.45,.1-.78,0-1.78-.04-2.29-.5-2.37-2.12-4.61-4.39-6.89-6.61l.52-1.67Z"
       id="path52" />
    <path
       class="cls-16"
       d="M295.29,966.18c-7.78,2.41-15.31,4.78-22.87,7.03-.77,.23-1.78-.12-2.62-.39-3.02-1-6.01-2.07-9.12-3.16,.32-.19,.89-.65,1.54-.89,6.06-2.22,12.12-4.43,18.2-6.59,.74-.26,1.68-.55,2.36-.32,4.17,1.35,8.3,2.85,12.5,4.32Z"
       id="path54" />
    <path
       class="cls-16"
       d="M346.12,989.56c3.21,3.61,5.97,6.71,8.74,9.81,1.46,1.63,.94,4.02-1.06,4.81-.22,.09-.47,.07-.7,.12-8.89,1.98-9.68,1.26-8.25-7.51,.36-2.2,.77-4.39,1.27-7.23Z"
       id="path56" />
    <path
       class="cls-23"
       d="M466.01,585.1h-12.46v-14.27c4.25,4.87,8.3,9.51,12.46,14.27Z"
       id="path58" />
    <path
       class="cls-16"
       d="M312.67,973.56c-1.38,7.57-2.54,13.96-3.7,20.35-.25,.01-.5,.02-.75,.03-1.02-4.01-2.17-7.98-2.94-12.04-.19-1,.62-2.48,1.41-3.31,1.54-1.61,3.4-2.91,5.98-5.03Z"
       id="path60" />
    <path
       class="cls-16"
       d="M261.8,973.76c4.92,.58,7.88,2.63,8.02,7.79,.06,2.08,.85,4.14,1.31,6.26-4.85-2.4-7.66-6.59-9.33-14.05Z"
       id="path62" />
    <path
       class="cls-16"
       d="M296.92,962.84c-2.92-1.06-5.28-1.93-8.62-3.15,3.22-2.73,5.93-5.03,8.62-7.31v10.45Z"
       id="path64" />
    <path
       class="cls-20"
       d="M654.95,854.69c-3.09-.44-5.59-.79-8.84-1.26,2.51-2.2,4.51-3.96,6.84-6,.68,2.47,1.24,4.48,2.01,7.25Z"
       id="path66" />
    <path
       class="cls-20"
       d="M610.55,725.2c.54,6.38,1.08,12.76,1.62,19.14-3.74-6.15-2.05-12.76-1.62-19.14Z"
       id="path68" />
    <path
       class="cls-23"
       d="M635.96,834.3c-.73-.1-1.45-.21-2.18-.31,.73,.1,1.45,.21,2.18,.31Z"
       id="path70" />
    <path
       class="cls-23"
       d="M662.68,828.28c-.78,1.68-1.5,1.63-2.17-.07,.72,.02,1.45,.05,2.17,.07Z"
       id="path72" />
    <path
       class="cls-23"
       d="M659.67,854.06c.52,.34,1.05,.68,1.57,1.02-.52-.34-1.05-.68-1.57-1.02Z"
       id="path74" />
    <path
       class="cls-23"
       d="M670.62,855.08c.49-.09,.99-.18,1.48-.26-.49,.09-.99,.18-1.48,.26Z"
       id="path76" />
    <path
       class="cls-23"
       d="M694.23,850.65l-.1,.22-.34-.22,.22-.24,.22,.24Z"
       id="path78" />
    <path
       class="cls-23"
       d="M665.93,820.48c-.27,.11-.55,.23-.82,.34,.02-.37,.04-.75,.05-1.12,.26,.26,.51,.52,.77,.78Z"
       id="path80" />
    <path
       class="cls-30"
       d="M444.75,517.2c-10.11-8.88-14.26-19.63-16.25-31.73-1.55,0-3.1,0-4.65,0-93.17,0-186.34,.02-279.51-.07-13.99-.01-27.87-1.43-41.18-6.17-19.89-7.08-29.08-19.65-29.07-40.74,0-29.38,.47-58.76,.64-88.14,.38-65.27,.72-130.53,1.04-195.8,.1-19.56,1.24-38.96,7.63-57.68,9.92-29.09,30.55-45,61.27-47.06,7.2-.48,14.43-.75,21.64-.75,169.13-.04,338.26-.03,507.38-.03,10.38,0,20.63,.89,30.73,3.52,22.14,5.75,35.7,19.87,39.66,42.25,2.04,11.54,2.92,23.43,2.95,35.17,.22,89.84,.21,179.68,0,269.51-.04,19.49-1.04,38.99-6.31,57.96-.1,.35-.14,.71-.25,1.05-5.75,18.92-14.82,25.93-34.62,26.17-18.66,.23-37.32,.11-55.97,.17-64.28,.2-128.55,.41-192.83,.66-2.26,0-4.59,.23-6.78,.78-4.4,1.09-7.24,4.14-7.3,8.71-.06,5.02,.68,10.05,1.09,15.08,.17,2.03,.37,4.06,.66,7.14Z"
       id="path82" />
    <path
       class="cls-15"
       d="M393.73,745.46c3.62-1.28,4.58,1.07,5.14,3.24,.72,2.77,1,5.65,1.32,8.51,.44,3.93,.9,7.88,.98,11.82,.02,1.07-1.28,2.17-1.98,3.26-.98-.7-2.43-1.19-2.83-2.13-.82-1.94-1.35-4.1-1.52-6.21-.49-6.09-.75-12.19-1.11-18.49Z"
       id="path84" />
    <path
       class="cls-21"
       d="M409.82,739.9c4.79-1.08,6.24-.21,6.52,3.83,.21,2.96,0,5.95,.11,8.93,.1,2.64-.62,4.68-3.63,4.5-2.76-.16-3.65-2.4-3.63-4.74,.04-4.15,.4-8.3,.63-12.52Z"
       id="path86" />
    <path
       class="cls-26"
       d="M369.76,745.96c5.06-1,6.68,.16,6.81,5.01,.07,2.86-.02,5.77-.53,8.56-.19,1.05-1.67,2.31-2.79,2.59-.7,.18-2.14-1.09-2.69-2.04-2.58-4.45-2.21-9.16-.79-14.12Z"
       id="path88" />
    <path
       class="cls-3"
       d="M389.19,799.05c-6.84,.1-12.38-6.32-11.57-11.94,.1-.7,.72-1.77,1.23-1.85,.82-.12,1.99,.19,2.55,.77,.78,.81,1.26,1.99,1.64,3.09,.79,2.25,2.11,3.68,4.66,3.58,.24,0,.48,.03,.71,.06,2.21,.3,4.37,1.27,3.81,3.69-.31,1.32-2.52,2.2-3.03,2.61Z"
       id="path90" />
    <path
       class="cls-14"
       d="M650.94,768.6c1.23,.63,2.7,1.02,3.63,1.94,4.13,4.08,6.44,4.15,10.01-.09,1.81-2.15,3.58-4.59,6.79-2.6,2.09,1.29,1.39,4.34-1.46,7.41-6.38,6.87-15.49,5.79-19.05-2.3-.45-1.03-.52-2.23-.77-3.35,.29-.34,.57-.68,.86-1.02Z"
       id="path92" />
    <path
       class="cls-21"
       d="M496.41,553.12c.12-1.31,.03-2.69,.42-3.92,.27-.85,1.17-2.08,1.81-2.1,.99-.03,2.84,.79,2.87,1.34,.21,2.98,.17,6.03-.27,8.98-.11,.76-1.99,1.26-3.06,1.88-.55-.97-1.32-1.89-1.6-2.94-.28-1.01-.06-2.15-.06-3.23h-.12Z"
       id="path94" />
    <path
       class="cls-15"
       d="M478.5,565.65c3.42,0,6.44-.08,9.46,.06,.66,.03,1.85,.93,1.8,1.31-.12,1.07-.53,2.75-1.24,2.99-1.89,.66-4.16,1.3-5.98,.83-2.41-.62-4.42-2.39-4.04-5.2Z"
       id="path96" />
    <path
       class="cls-26"
       d="M476.33,551.37c0,.6,.22,1.33-.04,1.76-.8,1.29-1.79,2.46-2.71,3.68-.98-1.11-2.66-2.14-2.79-3.34-.22-2.02,.41-4.18,.99-6.2,.15-.53,1.58-1.15,2.22-.97,.86,.24,1.84,1.08,2.17,1.9,.37,.92,.09,2.1,.09,3.17h.08Z"
       id="path98" />
    <path
       class="cls-14"
       d="M506.03,540.5c-2.52-2.55-4.69-4.58-6.61-6.82-.42-.49,.02-1.73,.07-2.63,2.27,1.29,4.91,2.22,6.71,3.99,1.63,1.6,1.83,4.06-.17,5.46Z"
       id="path100" />
    <path
       class="cls-25"
       d="M480.21,531.48c-3.27,3.01-6.45,5.94-9.63,8.86l-1.13-.38c.27-1.09,.26-2.39,.87-3.23,3.29-4.5,6.8-6.36,9.89-5.26Z"
       id="path102" />
    <path
       class="cls-22"
       d="M696.94,733.15c-.6,1.32-.88,3-1.87,3.87-1.72,1.5-3.76,1.79-4.82-.99-.59-1.53-1.22-3.09-1.47-4.7-.4-2.6,.47-4.75,3.49-4.61,2.5,.12,4.23,1.57,4.18,4.4,0,.6,0,1.2,0,1.8l.49,.22Z"
       id="path104" />
    <path
       class="cls-22"
       d="M696.79,711.14c1.89,.39,4.21,.23,5.54,1.31,1.59,1.28,2.46,3.56,3.34,5.55,.19,.43-.82,1.55-1.47,2.13-.25,.23-1.27,.03-1.57-.3-2.11-2.35-4.13-4.79-6.18-7.2,.11-.49,.23-.98,.34-1.48Z"
       id="path106" />
    <path
       class="cls-14"
       d="M625.31,736.7c-.6-2.63,1.51-2.96,3.45-3.1,2.54-.18,4.31,2.65,4.31,6.39,0,2.46-1.17,3.91-3.57,4.08-2.07,.14-4.24-3.66-4.19-7.36Z"
       id="path108" />
    <path
       class="cls-22"
       d="M622.95,727.31c-2.25-1.72-2.25-4.5-.63-6.66,1.45-1.93,3.9-3.18,6.08-4.43,.38-.22,1.9,.93,2.36,1.75,.26,.46-.4,1.7-.96,2.31-2.1,2.29-4.33,4.47-6.85,7.03Z"
       id="path110" />
  </g>
</svg>
