<?xml version="1.0" encoding="UTF-8" standalone="no"?>
<svg
   id="Layer_3"
   viewBox="0 0 865 1388"
   version="1.1"
   sodipodi:docname="rosieOnboarding-02.svg"
   inkscape:version="1.2.1 (9c6d41e4, 2022-07-14)"
   xmlns:inkscape="http://www.inkscape.org/namespaces/inkscape"
   xmlns:sodipodi="http://sodipodi.sourceforge.net/DTD/sodipodi-0.dtd"
   xmlns="http://www.w3.org/2000/svg"
   xmlns:svg="http://www.w3.org/2000/svg">
  <sodipodi:namedview
     id="namedview167"
     pagecolor="#505050"
     bordercolor="#ffffff"
     borderopacity="1"
     inkscape:showpageshadow="0"
     inkscape:pageopacity="0"
     inkscape:pagecheckerboard="1"
     inkscape:deskcolor="#505050"
     showgrid="false"
     inkscape:zoom="0.32784453"
     inkscape:cx="468.20974"
     inkscape:cy="259.26924"
     inkscape:window-width="1309"
     inkscape:window-height="456"
     inkscape:window-x="0"
     inkscape:window-y="25"
     inkscape:window-maximized="0"
     inkscape:current-layer="Layer_3" />
  <defs
     id="defs4">
    <style
       id="style2">.cls-1{font-family:ComicNeue-Regular, 'Comic Neue';}.cls-2{font-family:ComicNeue-Bold, 'Comic Neue';}.cls-3{letter-spacing:-.06em;}.cls-4{font-size:36px;}.cls-5{fill:#040404;}.cls-6{letter-spacing:-.03em;}.cls-7{letter-spacing:0em;}.cls-8{letter-spacing:-.02em;}.cls-9{letter-spacing:-.1em;}.cls-10{letter-spacing:-.02em;}.cls-11{letter-spacing:-.05em;}.cls-12{fill:#bdccd4;}.cls-13{letter-spacing:-.02em;}.cls-14{letter-spacing:-.02em;}.cls-15{fill:#fa99af;}.cls-16{fill:#c3dfe0;}.cls-17{letter-spacing:-.03em;}</style>
  </defs>
  <g
     id="g102">
    <path
       class="cls-5"
       d="M206.17,448.21c-11.57,0-22.88-.03-34.18,.02-4.84,.02-9.62-.42-14.28-1.73-12.91-3.62-20.75-13.44-22.25-28.44-1.6-16.08-.98-32.25-1.25-48.38-.92-54.32-2.1-108.64-2.39-162.97-.03-6.04,.14-12.05,1.72-17.92,4.26-15.83,15.65-23.53,30.79-26.83,8.03-1.75,16.19-2.25,24.39-2.21,117.35,.53,234.7,1.05,352.05,1.57,48.5,.21,97.01,.39,145.51,.65,9.65,.05,19.17,1.23,28.45,4.11,21.06,6.53,32.51,21.2,36.06,42.53,2.67,16.04,1.38,32.22,1.21,48.34-.49,45.53-1.27,91.06-1.93,136.59-.09,6.4-.8,12.74-2.42,18.94-5.31,20.29-19.23,31.13-40.3,31.38-31.05,.37-62.1,.62-93.15,1-97.84,1.18-195.67,2.4-293.51,3.6-14.2,.17-28.4,.45-42.6,.35-3.24-.02-5.03,1.22-6.77,3.58-10.31,13.95-16.43,29.78-21.02,46.32-2.8,10.09-4.74,20.37-6.43,30.69-.21,1.28-.45,2.55-.69,3.87,1.52,.7,3.09,.22,4.6,.22,166.95,.03,333.9,.04,500.85-.05,2.98,0,3.71,.67,3.71,3.69-.09,114.58-.07,229.16-.07,343.73,0,78.31-.02,156.62,.08,234.93,0,3.28-.8,4.06-4.06,4.06-209.68-.08-419.36-.08-629.04,0-3.22,0-4.09-.72-4.09-4.04,.09-192.77,.09-385.53,0-578.3,0-3.25,.75-4.1,4.05-4.08,27.68,.15,55.37,.08,83.05,.08,4.5,0,4.42,.01,3.68-4.37-4.38-25.85-4.79-51.73-.43-77.64,.16-.94,.38-1.87,.68-3.3Zm209.62,299.75c.96,6.01-5.44,5.45-7.57,8.73,3.45,1.58,7.19,2.73,10.94,3.86,.97,.29,1.63,.48,2.53-.37,2.69-2.53,5.53-4.89,8.35-7.34-2.38-.63-4.79-.66-7.09-1.08-2.64-.49-6.22,.24-7.15-3.73-.56-6.43,3.97-9.34,8.56-12,2.72-1.57,5.76-2.61,8.72-3.92-4.27-5.87-8.25-11.72-12.68-17.21-1.32-1.64-2.61-2.98-3.2-5.11-.71-2.55-2.08-2.85-4.53-1.08-8.47,6.09-16.78,12.37-25,18.79-1.99,1.56-2.2,2.69-.69,4.49,5,5.98,10.06,11.92,14.92,18.02,1.74,2.18,2.98,2.59,5.36,.72,2.37-1.86,4.75-4.82,8.53-2.76Zm181.25,221.41c-.25,.27-.23,.5,.12,.65,.07,.03,.19-.05,.29-.09-.17-.17-.33-.33-.5-.5-.4-.41-.73-.94-1.2-1.22-3.11-1.83-3.82-4.7-2.77-7.78,1.08-3.19,4.05-3.36,6.94-3.16,.59,.04,1.17,.34,1.76,.35,4,.05,7.23,2.9,11.34,2.86,5.86-.05,9.66-3.92,14.97-6.96-5.71-.29-10.49-.62-15.26-.75-13.71-.37-27.44-.45-41.14-1.04-24.75-1.06-49.47-2.79-74.26-2.61-2.74,.02-2.94,.9-3,3.22-.3,10.48,1.25,20.92,.52,31.41-.19,2.69-1.15,5.35-.19,8.17,1.53,4.49,.4,6.27-4.12,7.79-20.55,6.91-41.09,13.87-61.64,20.81-3.04,1.03-6.16,1.87-9.1,3.12-8.02,3.41-15.59,1.58-23.68-.5-20.54-5.28-39.99-13.33-59.59-21.15-5.11-2.04-7.04-5.16-6.85-10.58,.33-9.25,.39-18.53,0-27.77-.21-4.93,1.86-7.59,6.03-9.36,5.37-2.28,10.69-4.65,16.92-7.36-9.04,.96-17.17,.56-25.3,.39-7.55-.16-8.37,.54-6.79,8.16,.53,2.56,0,3.96-2.22,4.83-7.74,3.02-14.48,7.86-21.59,12.01-2.13,1.24-4.27,1.67-6.53,1.32-8.27-1.27-16.57-.36-24.85-.59-.79-.02-1.96-.41-2.31,.49-1.41,3.61-4.92,4.94-7.71,7.12,.73,.7,1.38,1.25,1.95,1.86,2.05,2.24,4.05,2.96,6.43,.3,1.02-1.13,2.46-1.98,4.04-2.27,1.52-.28,2.94,0,3.58,1.65,.56,1.46-.07,2.45-1.34,3.3-2.09,1.4-4.01,3.03-6.11,4.42-2.24,1.49-4.3,1.95-5.98-1.04-.8-1.42-2.48-2.31-3.44-3.67-1.81-2.56-4.02-2.77-6.78-1.88-6.23,2.01-12.73,2.33-19.2,2.61-5.25,.23-5.25,.15-5.57,5.51-.31,5.12-.26,5.16,4.83,5.43,.95,.05,1.93,.17,2.82,.46,1.48,.48,2.62,1.4,2.22,3.18-.41,1.85-1.95,2.02-3.4,1.77-8.34-1.48-12.55,.95-10.11-12.4,.04-.23-.06-.51,.03-.72,1.29-3-.62-3.55-2.9-3.8-7.41-.81-14.06-3.63-20.2-7.73-8.23-5.48-12.51-13.62-14.92-22.87-.52-1.99-1.26-2.16-2.87-1.89-14.98,2.46-30.16,2.46-45.26,3.42-2.3,.15-2.73,.68-2.72,2.82,.09,16.75,.09,33.49,0,50.24-.01,2.19,.39,3.05,2.75,2.61,6.07-1.14,12.24-.53,18.37-.85,.93-.05,1.79-.16,2.66,.64,5.03,4.59,10.21,9,15.74,13,1.07,.77,1.97,1.56,1.95,3.18-.15,12.04-.32,24.08-.22,36.11,.03,3.01-.96,4.63-3.65,5.71-1.42,.57-2.81,.67-4.22,.65-9.74-.14-19.49-.23-29.22-.59-3.07-.11-4.31,.38-4.21,3.92,.29,9.63,.32,19.28,0,28.91-.13,3.92,1.14,4.54,4.73,4.54,199.1-.09,398.19-.08,597.29-.08,.6,0,1.22-.08,1.8,.01,2.35,.37,3-.55,2.97-2.93-.12-13.37-.09-26.75-.02-40.12,.01-2.06-.46-2.97-2.64-3.79-9.05-3.42-18.6-5.51-27.21-10.15-2.65-1.43-3.82-3.23-3.83-6.23-.02-13.49-.17-26.98-.28-40.48,0-.96,.23-2.05-.13-2.86-1.48-3.39,.36-4.72,3.11-5.96,8.85-3.98,17.93-7.34,27.25-9.97,3.01-.85,3.86-2.26,3.75-5.27-.24-6.38-.25-12.78,0-19.15,.12-2.86-.83-3.26-3.4-3.21-8.78,.17-17.57,.05-26.36,.01-1.19,0-2.58,.14-3.53-.41-1.79-1.03-2.56-.39-3.66,1.04-3.67,4.71-7.08,9.58-11.99,13.3-10.76,8.14-22.44,14.76-34.25,21.1-13.98,7.51-28.65,13.35-44.35,16.46-9.03,1.79-17.92,4.17-27.27,3.55-6.63-.43-9.96-2.63-11.2-8.72-1.97-9.61-1.12-19.05,2.86-28.1,1.31-2.98,3.63-4.46,6.83-5.23,5.41-1.3,10.82-.43,16.23-.66Zm107.8-16.3c9.35-.89,18.73-1.13,28.11-.83,3.07,.1,4.23-.51,4.19-4-.19-20.12-.06-40.23-.06-60.35,0-112.41-.05-224.82,.06-337.23,0-3.8-.99-4.6-4.66-4.6-162.02,.1-324.04,.08-486.06,.08-.6,0-1.22,.08-1.8-.01-2.37-.39-2.95,.67-3.17,2.95-1.51,16.09-2.17,32.2-2.05,48.36,0,.84,.58,1.92-.61,2.61-14-14.27-22.56-31.59-28.11-50.52-.82-2.78-1.97-3.45-4.68-3.44-23.95,.1-47.91,.14-71.86-.04-3.35-.02-3.8,1.01-3.8,4,.08,132.89,.06,265.78,.06,398.67,0,.72,.07,1.45-.01,2.17-.2,1.62,.53,2.16,2.06,2,2.51-.28,5.04-.37,7.52-.79,10.47-1.76,21.12-1.23,31.61-2.61,2.74-.36,6.24,.17,8-1.34,1.87-1.6,.33-5.23,.67-7.95,.04-.36,.02-.72,.07-1.08,2.64-18.13,10.27-33.51,24.86-45.02,7.45-5.88,16.41-7.35,25.4-7.53,7.4-.15,13.95,4.26,21.09,5.93,1.85,.43,3.46,1.54,5.03,2.69,5.25,3.84,9.22,8.82,12.13,14.51,1.5,2.92,2.65,2.41,4.68,.92,1.89-1.39,2.97-3.86,6.05-3.72,11.4,.5,22.82,.71,34.22,1.16,1.71,.07,3.84,.35,4.29,2.54,.68,3.26,1.69,6.43,1.59,9.88-.2,6.74-.06,13.49-.04,20.24,0,1.39-.35,2.66,2.14,2.52,10.09-.59,20.19-.91,30.29-1.15,2.23-.05,2.95-.51,3.15-2.9,.61-7.26,.76-7.25-6.13-9.69-2.34-.83-3.67-2.08-3.41-4.97,.43-4.65,.33-9.36,.54-14.04,.34-7.52,.09-15.1,2.25-22.46,.37-1.27,.65-1.66,1.96-1.89,6.84-1.2,13.64-2.59,20.46-3.88,3.15-.6,6.16-1.24,9.56-.63,8.86,1.61,17.74,3.71,26.81,.26,5.22-1.98,10.79-3.94,16.27-4.17,10.19-.43,20.4,.77,30.47,2.64,1.44,.27,1.82,.65,1.84,2.28,.14,9.35-.28,18.68-1.16,27.98-.22,2.33,.15,3.3,2.85,3.47,9.84,.64,19.66,1.53,29.47,2.49,4.52,.44,5.61,1.89,5.89,6.5,.41,6.72,.83,13.44,1.31,20.16,.07,.94-.6,2.49,.76,2.71,1.96,.32,1.76-1.62,1.96-2.77,1.15-6.61,2.26-13.22,3.25-19.86,2.76-18.45,5.68-36.86,10.48-54.93,1.83-6.9,3.33-13.88,5.19-21.7-6.98,4.96-13.96,7.97-20.95,10.86-8.98,3.72-17.97,4.72-26.46-1.58-5.01-3.72-8.01-8.88-10.13-14.54-10.27-27.45-17.12-55.84-23.09-84.47-.47-2.26-.95-2.3-2.6-.97-3.45,2.78-7.06,5.37-10.51,8.15-.98,.79-1.71,1.56-3.13,1.06-8.54-3-17.16-5.67-22.83-13.66-4.91-6.92-10.88-13.08-15.03-20.57-1.28-2.31-2.11-4,1.01-6.27,9.01-6.57,17.29-14.14,26.92-19.83,2.08-1.23,3.32-4.47,6.29-3.58,2.79,.84,4,3.69,5.59,5.89,1.05,1.46,1.91,1.91,3.79,1.64,8.65-1.26,16.58,.5,23.63,5.95,10.57,8.18,17.03,19.21,22.31,31.2,6.5,14.78,9.52,30.61,14.29,45.9,1.66,5.33,2.6,10.89,4.34,16.19,1.27,3.87,2.09,3.96,5.44,1.78,8.45-5.5,16.76-11.23,25.32-16.55,5.77-3.59,11.88-6.63,18.11-10.06-2.1-1.58-2.11-4.19-3.88-5.78-4.44-3.99-7.4-8.96-9.6-14.48-3.05-7.63-3.73-15.73-5.04-23.72-1.16-7.1-.66-14.09,.53-21.1,3.35-19.81,14.74-35.71,25.07-52.16,3.03-4.82,6.26-9.19,11.18-12.36,13.41-8.64,28.59-10.67,43.87-11.48,15.78-.84,31.18,2.56,46.29,6.96,15.73,4.58,28.53,13.24,37.17,27.46,8.86,14.58,12.25,30.81,13.51,47.49,1.61,21.3-5.67,40.31-16.39,58.21-1.22,2.04-.35,2.3,1.09,2.87,5.89,2.34,10.31,6.42,13.79,11.65,4.65,6.97,8.21,14.52,10.92,22.38,3.58,10.37,5.58,21.17,7.83,31.9,2.82,13.41,3.74,27,2.07,40.48-1.87,15.11-2.92,30.36-6.75,45.24-1.41,5.48-2.86,10.77-5.6,15.7-.05,.26-.09,.52-.14,.78,.25-.06,.51-.12,.76-.18ZM235.16,589.27c0-2.95-.05-4.76,0-6.56,.82-28.46,3.36-56.71,10.78-84.32,4.99-18.58,11.9-36.29,24.16-51.48,1.31-1.63,2.62-2.38,4.8-2.38,13.84-.02,27.68-.19,41.52-.36,99.4-1.22,198.8-2.47,298.2-3.68,30.81-.37,61.62-.63,92.43-.98,19.73-.22,32-10.04,36.63-29.2,1.36-5.65,1.96-11.38,2.04-17.17,.66-45.41,1.42-90.82,1.92-136.23,.17-15.99,1.49-32.05-1.21-47.97-3.41-20.14-14.52-33.57-34.5-39.19-8.4-2.36-16.97-3.39-25.66-3.43-48.87-.25-97.73-.44-146.6-.66-117.23-.52-234.46-1.04-351.69-1.56-7.84-.03-15.64,.51-23.3,2.24-13.04,2.94-23.04,9.52-26.85,23.17-1.4,5.02-1.71,10.18-1.68,15.38,.27,56.74,1.56,113.47,2.51,170.2,.24,14.2-.41,28.44,1.13,42.6,1.68,15.47,9.55,23.55,24.93,25.68,2.85,.39,5.75,.45,8.64,.46,12.75,.05,25.49,.02,38.44,.02-3.91,14.09-4.85,28.23-4.95,42.47-.18,25.59,2.97,50.65,12.36,74.65,3.85,9.84,8.77,19.09,15.95,28.29Zm187.14,156.36c4.81,1.28,8.97,1.42,13.17,.72,2.53-.42,4.06,1.3,5.37,2.94,1.21,1.52,.3,2.86-1.11,3.95-.63,.49-.31,1.39-.1,2.03,1.63,4.9,2.19,10.02,3.2,15.05,2.48,12.28,6.32,24.18,9.95,36.14,3.83,12.61,7.22,25.39,13.12,37.26,5.21,10.47,12.06,13.36,23.02,9.34,7.64-2.81,15.16-6.04,22.01-10.57,1.5-.99,2.93-2.15,4.53-2.94,1.51-.75,3.3-1.18,4.84-.2,1.5,.96,.91,2.66,.7,4.01-.76,4.96-1.53,9.93-2.55,14.84-2.39,11.44-5.39,22.77-7.32,34.28-2.92,17.34-5.14,34.81-7.68,52.38,.61,0,1.32,.01,2.03,0,16.01-.29,32.03,.08,47.99,1.04,27.27,1.64,54.64,.48,81.84,3.35,.96,.1,1.63-.37,2.32-.78,6.52-3.83,12.84-7.98,18.92-12.49,1.2-.89,1.75-1.98,1.95-3.58,.98-7.72,2.09-15.43,3.34-23.11,1.87-11.52,2.74-23.04,1.98-34.76-.48-7.31-1.75-14.54-1.85-21.86-.02-1.26-.29-2.92,1.54-3.07,1.63-.14,1.68,1.51,1.95,2.58,3.25,13.24,4.64,26.76,4.3,40.32-.38,15.21-3.69,30.18-5.09,45.33-.1,1.13-.64,2.33-1.79,2.49-3.22,.45-5.27,2.76-7.62,4.53-9.04,6.79-19.17,11.79-28.75,17.68-7.01,4.31-13.8,5.57-21.35,2.03-1.56-.73-3.29-1.4-5.45-.6,1.49,1.38,2.74,2.8,3.62,4.47,1.79,3.44,.44,5.44-3.41,6.13-5.68,1.02-11.51-.43-17.11,1.34-1.41,.44-2.71,.81-3.28,2.4-2.39,6.67-4.52,13.34-3.02,20.6,1.09,5.3,2.59,6.89,8.07,6.63,16.96-.81,33.08-5.46,48.72-11.69,9.79-3.9,18.9-9.31,28.22-14.25,14.47-7.68,26.97-17.46,36.56-30.78,2.78-3.86,5.09-8.05,5.78-12.92,1.59-11.24,3.17-22.48,4.83-33.71,1.12-7.59,2.11-15.19,2.41-22.87,.38-9.65-1.06-19.07-2.82-28.52-2.82-15.13-6.17-30.04-13.18-43.92-3.77-7.45-8.53-13.83-15.88-18.1-1.71-.99-2.63-.88-3.94,.54-3.69,3.98-7.76,7.64-12.54,10.17-22.48,11.91-46.25,16.13-71.34,10.98-17.9-3.68-34.86-9.63-48.51-22.55-1.36-1.28-2.29-.61-3.46,.13-11.88,7.47-23.82,14.88-34.88,23.53-3.7,2.89-7.71,3.27-11.91,3.89-3.27,.49-5.33-1.02-6.57-3.78-2.36-5.25-4.78-10.49-6.81-15.87-2.97-7.92-4.44-16.28-6.56-24.45-4.45-17.1-9.36-34.02-21.87-47.47-6.78-7.3-14.62-11.75-24.89-10.91-.03,.45-.15,.75-.04,.89,2.46,3.25,4.54,6.96,7.55,9.57,3.14,2.73,1.85,7.29,5.13,9.77,1.09,.83,.78,2.51-.7,3.3-1.15,.61-2.4,1.02-3.6,1.55-4.23,1.84-8.35,3.87-11.96,7.56Zm188.64,60.66c9.57,.36,18.8-1.58,27.92-3.91,20.49-5.24,35.58-17.11,42.61-37.43,9.67-27.98,9.09-55.58-4.58-82.46-7.13-14.02-18.46-22.8-33.14-27.12-8.06-2.37-16.4-3.91-24.82-5.1-13.14-1.86-25.97-.84-38.92,1.26-12.21,1.98-21.1,8.92-28.75,18.05-4.41,5.26-7.34,11.44-10.95,17.19-11.29,17.96-17.36,36.75-13.8,58.71,2.96,18.27,11.66,32.06,25.94,42.49,17.29,12.64,37.39,17.38,58.48,18.32Zm-357.04,140.66c0-3.81,.4-7.47-.08-11.02-1.15-8.53,1.41-14.85,9.64-18.31,1.81-.76,2.05-1.85,1.06-3.56-4.51-7.78-9.15-15.14-19.26-16.67-4.14-.63-8.07-2.73-12.08-4.08-5.69-1.91-11.44,.08-16.6,2.62-20.77,10.25-32.42,34.25-28.39,57.04,2.42,13.65,10.21,22.08,23.31,25.69,8.97,2.48,18.14,1.51,27.2,.47,4.83-.56,9.71-1.44,13.93-4.24,.97-.64,2.63-1.28,2.07-2.55-1.95-4.46-.66-8.83-.25-13.29,.72-7.85,.39-8.15-7.28-5.77-12.8,3.96-24.62,.85-36.2-4.51-1.54-.71-3.39-1.85-2.57-3.73,.87-2.01,2.56-.24,3.68,.19,12.65,4.84,25.38,6.92,38.42,1.49,1.1-.46,2.17-.73,3.4,.24Zm483.16,86c0-6.98-.08-13.96,.05-20.94,.04-2.05-.61-3.04-2.57-3.49-8.48-1.92-16.68-4.96-25.33-6.26-2-.3-2.73-.42-2.63,2.04,.57,13.22,1.01,26.45,1.35,39.67,.05,1.89,.75,2.65,2.34,3.39,7.93,3.66,16.56,5.33,24.6,8.66,1.77,.73,2.24,.06,2.22-1.76-.09-7.1-.04-14.2-.04-21.31Zm-587.85-4.25v.76c-5.41,0-10.82,.08-16.23-.04-2.08-.05-2.61,.68-2.6,2.69,.09,10.23,.1,20.46,0,30.68-.02,2.14,.41,2.9,2.75,2.83,10.33-.29,20.66-.45,30.99-.47,2.27,0,2.87-.8,2.92-2.86,.26-10.46,.56-20.91,.96-31.36,.08-2.14-.92-2.28-2.58-2.26-5.4,.07-10.81,.03-16.21,.03Zm130.78-62.07c3.2,.21,5.41,.12,7.51,.55,2.94,.61,3.22-.62,3.32-3.18,.34-8.75,.93-17.5,1.61-26.23,.24-3.02-1.93-6.36-5.01-6.51-9.2-.44-18.43-.14-27.57-1.59-1.95-.31-2.56,.57-2.32,2.41,.28,2.14,.58,4.29,.66,6.45,.26,7.03,.23,7.03,6.74,4.33,.11-.05,.22-.09,.33-.15,1.49-.81,2.84-.65,3.63,.9,.91,1.78,0,3.01-1.64,3.72-2.09,.89-4.16,1.88-6.34,2.45-1.73,.45-2.1,1.34-1.84,2.84,.71,4.06,.49,8.16,.41,12.24-.04,1.91,.37,2.56,2.53,2.63,6.37,.22,12.64-1.79,17.98-.86Zm99.47,38.38c.81,1.82-1.29,4.4,1.56,5.66,7.62,3.38,15.57,5.78,23.61,7.9,2.09,.55,2.97-.04,3.06-2.31,.15-3.84,.09-7.67,.39-11.52,.61-7.89,.78-15.82,1.1-23.73,.04-.95,.14-1.99-1.25-2.17-8.51-1.06-16.73-3.53-25.14-5.06-1.57-.29-2.59-.2-2.55,2.04,.18,9.73,.4,19.46-.79,29.18Zm33.57,14.44c.53-.04,1.03,.02,1.46-.13,8.82-3.1,17.61-6.25,26.45-9.3,1.37-.47,1.65-1.2,1.33-2.42-1.09-4.17-.37-8.34-.12-12.53,.36-6.24,.47-12.5,.61-18.75,.04-1.85-.38-2.76-2.79-2.05-8.01,2.37-15.95,5.08-24.19,6.6-1.2,.22-1.59,.59-1.62,1.77-.35,12.24-.74,24.49-1.12,36.82Zm-34.74-67.34c-.61,3.86,.25,7.54,.54,11.25,.19,2.48,1.92,4.67,3.15,4.3,8.15-2.42,16.43-4.31,24.74-6.06,1.07-.22,1.71-.43,1.78-1.7,.43-8.15,.92-16.31,1.43-24.46,.11-1.83-.78-2.23-2.39-2.19-8.04,.2-16.08,.29-24.11,.55-2.44,.08-4.35,1-4.2,4.06,.24,4.82-1.51,9.51-.94,14.25Zm20.13-60.62c-7.48,.96-14.47,1.91-21.46,2.73-2.01,.23-3.52,.57-3.38,3.11,.59,10.21-.77,20.39-.62,30.61,.04,2.77,.95,2.89,3.09,2.51,5.9-1.05,11.8-2.07,17.72-2.93,2.07-.3,2.36-1.36,2.47-3.15,.32-5.14,.94-10.26,1.28-15.4,.38-5.72,.59-11.45,.89-17.49Zm14.3,55.18h-.13c0,3.97,.06,7.93-.03,11.9-.03,1.48-.02,2.61,1.9,2.69,8.2,.34,16.15,2.15,24,4.4,2.13,.61,2.53-.23,2.81-2.21,1.3-9.01-.75-17.94-.35-26.92,.05-1.2-.44-1.64-1.64-1.79-7.46-.92-14.91-1.9-22.36-2.9-3.13-.42-4.31,.99-4.23,4.01,.1,3.6,.02,7.21,.02,10.82Zm13.81-21.92c0-10.26-.12-20.35,.07-30.44,.06-3.07-1.53-3.99-3.92-4.35-6.39-.95-12.8-1.73-19.18-2.71-1.94-.3-2.04,.9-1.95,2.09,.67,9.22-.18,18.42-.36,27.62-.06,2.83,.97,3.63,3.43,4.06,7.25,1.28,14.66,1.62,21.91,3.72Zm19.48,65.27h-.08c0,5.28,.04,10.56-.02,15.84-.02,1.83,.49,2.36,2.29,1.63,5.2-2.1,10.4-4.18,15.68-6.08,1.91-.69,2.4-1.67,2.45-3.65,.23-8.87,.61-17.74,1.1-26.6,.17-2.94-1.09-3.74-3.62-3.12-5.1,1.25-10.13,2.76-15.26,3.83-2.39,.5-2.62,1.73-2.57,3.73,.11,4.8,.03,9.61,.03,14.42Zm0-36.32c0,3.22,.13,7.43-.05,11.63-.1,2.2,.85,2.39,2.51,1.95,5.31-1.42,10.6-2.94,15.94-4.23,2.03-.49,2.63-1.45,2.63-3.48-.04-9.01,.36-18.01,1.31-26.98,.2-1.88-.26-2.65-2.28-2.22-6.18,1.33-12.38,2.58-18.57,3.85-1.67,.34-2.39,1.25-2.05,3.01,.98,5.13,.39,10.31,.59,16.47Zm-71.05,54.73c.59-10.28,1.22-20.33,1.69-30.38,.11-2.42,.26-5.16-3-6.03-4.69-1.26-9.39-2.47-14.06-3.78-1.54-.43-2.48,.06-2.43,1.58,.3,10.21-1.96,20.3-1.51,30.52,.04,.94,.25,1.4,1.28,1.75,6.05,2.05,12.06,4.23,18.04,6.35Zm-24.66-118.54c0,11.6,.02,22.77-.04,33.95,0,.96,.33,1.36,1.12,1.44,5.14,.51,9.97,2.25,14.88,3.65,2.29,.65,3-.52,3-2.55,0-9.5,1.03-18.93,1.75-28.39,.15-1.91-.2-2.7-2.21-3.18-5.93-1.41-11.78-3.11-18.51-4.93Zm79.2,4.91c.51,9.91,1.1,19.61,1.45,29.32,.09,2.38,.95,2.2,2.59,1.58,4.03-1.52,8.02-3.2,12.16-4.34,3.05-.84,4.05-2.23,4.06-5.46,.03-8.87-.82-17.76,.52-26.61,.28-1.83-.91-1.63-2.01-1.45-5.07,.84-10.11,2.12-15.21,2.45-3.66,.23-4.1,1.85-3.56,4.51Zm-131.27,71.27c4.91-3.05,9.42-6.22,14.49-8.34,2.09-.88,2.68-2.16,2.64-4.39-.13-7.2-.82-14.39-.17-21.62,.35-3.96,.06-7.98,.06-12.26-4.12,2.43-7.69,4.87-11.55,6.71-5.54,2.65-9.11,5.95-6.56,12.69,.32,.84,.07,1.91,.08,2.87,0,7.94-.14,15.88,1.01,24.34Zm55.56,3.41c.65-2.12-.87-3.46-4.07-4.09-3.83-.75-7.55-2.08-11.33-3.11-3.73-1.01-3.71-.79-3.47,3.11,.6,9.34,1.04,18.7,1.29,28.05,.05,1.83,.39,2.5,2.12,2.94,3.35,.84,6.7,1.76,9.91,3.03,2.21,.87,3.05,.05,3-1.85-.21-9.05,1.67-17.9,2.55-28.08Zm133.42-43.95c-4.47,1.05-9.19,2.29-13.98,3.21-1.79,.34-1.96,1.14-1.95,2.63,.06,9.13,.11,18.26-.01,27.38-.03,2.22,.85,2.33,2.55,1.95,3.94-.89,7.55-3.07,11.75-2.97,1.15,.03,1.65-.7,1.65-1.87-.02-10.07-.01-20.13-.01-30.33Zm-15.9,72.88c5-1.73,9.72-3.02,14.12-5.21,1.2-.6,1.72-1.28,1.72-2.7-.04-8.77-.02-17.54,.09-26.31,.03-1.96-.67-2.2-2.33-1.71-4,1.18-8.02,2.3-12.06,3.34-1.17,.3-1.54,.91-1.54,2.02,.01,10.08,0,20.15,0,30.58Zm-96.47-30.38c-1.94-9.92-.87-19.32,.34-28.71,.53-4.12,.21-4.58-3.56-3.48-1.24,.36-2.26,.26-3.45-.18-2.35-.86-4.78-1.49-7.19-2.19-1.01-.3-1.82-.47-1.84,1.13-.13,9.13-.31,18.25-.53,27.38-.04,1.72,.79,2.15,2.32,2.5,4.52,1.03,9,2.28,13.92,3.55Zm-111.8-43.42c10.65,1.29,20.96,.27,31.19,1.3,.42,.04,.94-.21,1.31-.46,4.84-3.29,9.33-6.99,13.59-11.13-9.25-3.05-18.62-2.02-27.85-2.63-.82-.05-1.55,0-2.32,.61-5.15,4.06-10.37,8.04-15.92,12.32Zm125,45.51c7.97,2.18,15.26,2.75,22.04,5.46,1.47,.59,3.42,.64,4.98,.24,7.32-1.89,14.57-4.02,21.99-6.1-16.23-6.97-32.13-5.26-49,.4Zm-226.67,53.34c-4.95-5.1-9.75-10.23-17.99-8.33-2.08,.48-4.3,.33-6.45,.48-6.7,.45-6.61,.44-6.43,7.21,.05,1.95,.64,2.39,2.5,2.3,8.51-.38,17.03-.59,25.54-.91,.92-.03,1.93,.11,2.82-.76Zm575.61-36.08c-9.12,3.38-17.93,6.06-27.1,10.41,9.01,1.65,16.84,4.11,24.77,6.17,1.56,.41,2.42,.23,2.37-1.78-.13-4.8-.04-9.6-.04-14.8Zm-253.52-67.4c-9.74-1.06-18.44-2.01-27.14-2.95-.56-.06-1.22-.52-1.63,.13-.2,.32-.22,.95-.04,1.3,2.07,4.08,1.82,4.37-2.75,5.58-4.89,1.3-9.7,2.93-14.54,4.41,3.36-.4,6.46,2.14,9.61,1.04,4.55-1.58,9.26-2.4,13.89-3.6,7.24-1.88,14.47-3.78,22.6-5.9Zm-74.88-35.26c3.85-.03,7.46,.98,11.12,1.27,4.45,.35,8.61,2.88,13.43,1.08,3.89-1.45,8.21-1.71,12.32-2.6,1.8-.39,3.79-.17,5.7-1.44-20.04-3.37-34.08-2.8-42.57,1.7Zm-16.41,3.35q-13.56-3.28-30.53-.1c9.54,5.71,20.29,1.33,30.53,.1Zm-52.51,70.69c4.41,1.17,8.09,2.01,11.68,3.14,2.35,.74,3.01-.02,2.92-2.27-.1-2.42-.02-4.86-.02-7.37-4.64,2.07-9.26,4.13-14.58,6.5Zm81.37-30.47c-5.88-2.33-12.09-2.52-18.1-3.8-1.97-.42-1.6,.69-1.64,1.69-.04,.98-.6,2.18,1.33,2.15,6.14-.09,12.27-.03,18.41-.03Z"
       id="path6" />
    <path
       class="cls-15"
       d="M253.89,946.95c-1.24-.96-2.3-.69-3.4-.24-13.04,5.43-25.76,3.35-38.42-1.49-1.12-.43-2.81-2.2-3.68-.19-.82,1.89,1.02,3.02,2.57,3.73,11.58,5.37,23.4,8.48,36.2,4.51,7.67-2.38,8.01-2.08,7.28,5.77-.41,4.46-1.7,8.83,.25,13.29,.56,1.27-1.1,1.91-2.07,2.55-4.22,2.79-9.1,3.68-13.93,4.24-9.06,1.05-18.23,2.01-27.2-.47-13.1-3.62-20.89-12.04-23.31-25.69-4.04-22.8,7.61-46.8,28.39-57.04,5.16-2.54,10.91-4.53,16.6-2.62,4.02,1.35,7.94,3.45,12.08,4.08,10.11,1.53,14.75,8.89,19.26,16.67,.99,1.71,.76,2.8-1.06,3.56-8.23,3.46-10.78,9.78-9.64,18.31,.48,3.55,.08,7.21,.08,11.02Zm-5.1-11.5c.09-4.09-.87-6.63-2.65-7.94-2.37-1.74-5.41-1.17-5.8,1.27-.59,3.63-.05,7.21,2.11,10.27,1.78,2.52,4.74,2,5.78-.91,.4-1.11,.49-2.32,.56-2.68Zm-36.06-14.44c0,.48-.07,.97,.01,1.44,.28,1.59,.19,3.79,2.37,3.76,2.52-.03,1.92-2.33,1.88-3.89-.07-2.6,.38-5.08,1.88-7.14,.88-1.2,1.75-2.21,.33-3.28-1.53-1.15-3.04-.5-3.95,1.02-1.48,2.48-2.57,5.12-2.53,8.09Zm21.57,7.87c-.52-2.63-1.89-5.21-4.09-7.34-.91-.89-2.07-.67-3.04-.33-1.19,.42-.89,1.69-.62,2.49,.82,2.44,1.2,5.05,2.72,7.26,.78,1.13,1.61,1.73,2.97,1.28,1.42-.47,2.14-1.45,2.05-3.36Zm10.87-19.78c-1.57-.15-2.33,.65-2.04,2.11,.55,2.79,1.58,5.45,3.07,7.86,.89,1.44,2.37,1.42,3.81,.72,1.3-.63,1.5-1.68,1.1-2.98-.74-2.41-2.12-4.48-3.45-6.57-.54-.84-1.51-1.12-2.5-1.15Zm-12.9-4.32c-.05,.66,.12,1.61,.91,1.95,.77,.33,1.1-.63,1.58-1.12,.66-.67,1.3-1.42,2.1-1.87,1.26-.72,2.35-1.49,1.27-2.98-.93-1.28-2.39-.95-3.54-.33-1.55,.84-2.32,2.31-2.31,4.34Z"
       id="path8" />
    <path
       class="cls-16"
       d="M737.05,1032.95c0,7.1-.05,14.2,.04,21.31,.02,1.82-.45,2.49-2.22,1.76-8.04-3.33-16.67-5-24.6-8.66-1.59-.73-2.29-1.5-2.34-3.39-.34-13.23-.78-26.45-1.35-39.67-.11-2.45,.63-2.34,2.63-2.04,8.65,1.3,16.85,4.34,25.33,6.26,1.96,.44,2.61,1.44,2.57,3.49-.13,6.98-.05,13.96-.05,20.94Z"
       id="path10" />
    <path
       class="cls-16"
       d="M149.2,1028.7c5.4,0,10.81,.04,16.21-.03,1.66-.02,2.67,.12,2.58,2.26-.41,10.45-.7,20.91-.96,31.36-.05,2.06-.65,2.86-2.92,2.86-10.33,.01-20.66,.17-30.99,.47-2.34,.07-2.77-.69-2.75-2.83,.1-10.23,.1-20.46,0-30.68-.02-2.01,.52-2.74,2.6-2.69,5.41,.12,10.82,.04,16.23,.04v-.76Z"
       id="path12" />
    <path
       class="cls-16"
       d="M279.98,966.63c-5.34-.92-11.61,1.08-17.98,.86-2.16-.07-2.57-.72-2.53-2.63,.08-4.08,.3-8.18-.41-12.24-.26-1.5,.11-2.4,1.84-2.84,2.18-.57,4.26-1.55,6.34-2.45,1.65-.7,2.56-1.94,1.64-3.72-.79-1.55-2.15-1.71-3.63-.9-.11,.06-.22,.1-.33,.15-6.52,2.7-6.48,2.7-6.74-4.33-.08-2.16-.38-4.31-.66-6.45-.24-1.84,.36-2.72,2.32-2.41,9.14,1.44,18.37,1.14,27.57,1.59,3.08,.15,5.25,3.49,5.01,6.51-.68,8.73-1.27,17.48-1.61,26.23-.1,2.56-.38,3.79-3.32,3.18-2.1-.43-4.3-.34-7.51-.55Z"
       id="path14" />
    <path
       class="cls-16"
       d="M379.45,1005.01c1.19-9.72,.96-19.46,.79-29.18-.04-2.24,.98-2.33,2.55-2.04,8.41,1.53,16.64,4,25.14,5.06,1.39,.17,1.29,1.22,1.25,2.17-.33,7.91-.49,15.84-1.1,23.73-.3,3.85-.24,7.68-.39,11.52-.09,2.27-.97,2.86-3.06,2.31-8.04-2.12-15.99-4.52-23.61-7.9-2.85-1.27-.75-3.84-1.56-5.66Z"
       id="path16" />
    <path
       class="cls-16"
       d="M415.79,747.96c-3.78-2.05-6.15,.91-8.53,2.77-2.38,1.86-3.62,1.46-5.36-.72-4.86-6.09-9.92-12.03-14.92-18.02-1.51-1.8-1.3-2.93,.69-4.49,8.21-6.43,16.53-12.7,25-18.79,2.45-1.76,3.82-1.47,4.53,1.08,.59,2.14,1.88,3.47,3.2,5.11,4.43,5.49,8.41,11.34,12.68,17.21-2.97,1.31-6,2.34-8.72,3.92-4.59,2.66-9.13,5.56-8.56,12l-.02-.07Z"
       id="path18" />
    <path
       class="cls-16"
       d="M413.02,1019.45c.38-12.34,.77-24.58,1.12-36.82,.03-1.18,.42-1.55,1.62-1.77,8.24-1.52,16.18-4.23,24.19-6.6,2.41-.71,2.83,.2,2.79,2.05-.14,6.25-.25,12.51-.61,18.75-.24,4.19-.96,8.36,.12,12.53,.32,1.22,.04,1.95-1.33,2.42-8.83,3.05-17.63,6.2-26.45,9.3-.43,.15-.92,.09-1.46,.13Z"
       id="path20" />
    <path
       class="cls-16"
       d="M378.28,952.11c-.57-4.74,1.18-9.43,.94-14.25-.15-3.06,1.76-3.98,4.2-4.06,8.03-.26,16.07-.34,24.11-.55,1.61-.04,2.51,.36,2.39,2.19-.51,8.15-.99,16.3-1.43,24.46-.07,1.27-.71,1.48-1.78,1.7-8.31,1.75-16.59,3.64-24.74,6.06-1.24,.37-2.96-1.82-3.15-4.3-.29-3.71-1.16-7.39-.54-11.25Z"
       id="path22" />
    <path
       class="cls-16"
       d="M398.41,891.49c-.3,6.04-.51,11.77-.89,17.49-.34,5.14-.96,10.26-1.28,15.4-.11,1.79-.41,2.85-2.47,3.15-5.93,.86-11.83,1.89-17.72,2.93-2.14,.38-3.04,.26-3.09-2.51-.16-10.22,1.21-20.4,.62-30.61-.15-2.53,1.37-2.87,3.38-3.11,7-.82,13.98-1.77,21.46-2.73Z"
       id="path24" />
    <path
       class="cls-16"
       d="M412.7,946.68c0-3.61,.08-7.21-.02-10.82-.08-3.02,1.1-4.43,4.23-4.01,7.45,1,14.9,1.98,22.36,2.9,1.21,.15,1.7,.59,1.64,1.79-.4,8.97,1.65,17.91,.35,26.92-.29,1.98-.68,2.82-2.81,2.21-7.86-2.25-15.8-4.07-24-4.4-1.92-.08-1.93-1.21-1.9-2.69,.08-3.96,.03-7.93,.03-11.89h.13Z"
       id="path26" />
    <path
       class="cls-16"
       d="M426.51,924.75c-7.25-2.1-14.65-2.44-21.91-3.72-2.46-.43-3.49-1.23-3.43-4.06,.18-9.2,1.03-18.4,.36-27.62-.09-1.19,0-2.39,1.95-2.09,6.38,.97,12.8,1.76,19.18,2.71,2.39,.36,3.98,1.28,3.92,4.35-.2,10.08-.07,20.17-.07,30.44Z"
       id="path28" />
    <path
       class="cls-16"
       d="M445.99,990.02c0-4.81,.07-9.61-.03-14.42-.04-1.99,.19-3.23,2.57-3.73,5.13-1.07,10.17-2.59,15.26-3.83,2.53-.62,3.79,.18,3.62,3.12-.5,8.86-.87,17.73-1.1,26.6-.05,1.98-.55,2.96-2.45,3.65-5.27,1.9-10.48,3.98-15.68,6.08-1.81,.73-2.32,.2-2.29-1.63,.06-5.28,.02-10.56,.02-15.84h.08Z"
       id="path30" />
    <path
       class="cls-16"
       d="M445.98,953.69c-.19-6.15,.4-11.34-.59-16.47-.34-1.77,.39-2.67,2.05-3.01,6.19-1.27,12.39-2.52,18.57-3.85,2.02-.43,2.48,.34,2.28,2.22-.95,8.97-1.35,17.97-1.31,26.98,0,2.03-.6,2.99-2.63,3.48-5.34,1.29-10.63,2.82-15.94,4.23-1.66,.44-2.6,.25-2.51-1.95,.18-4.2,.05-8.42,.05-11.63Z"
       id="path32" />
    <path
       class="cls-16"
       d="M374.94,1008.42c-5.98-2.12-11.99-4.3-18.04-6.35-1.03-.35-1.23-.81-1.28-1.75-.45-10.22,1.81-20.3,1.51-30.52-.05-1.52,.9-2.01,2.43-1.58,4.67,1.31,9.37,2.52,14.06,3.78,3.26,.87,3.11,3.62,3,6.03-.47,10.05-1.1,20.1-1.69,30.38Z"
       id="path34" />
    <path
       class="cls-16"
       d="M350.27,889.88c6.72,1.82,12.58,3.52,18.51,4.93,2.01,.48,2.36,1.26,2.21,3.18-.72,9.45-1.74,18.89-1.75,28.39,0,2.03-.72,3.2-3,2.55-4.91-1.4-9.75-3.14-14.88-3.65-.79-.08-1.13-.48-1.12-1.44,.06-11.18,.04-22.35,.04-33.95Z"
       id="path36" />
    <path
       class="cls-16"
       d="M429.48,894.79c-.54-2.66-.11-4.27,3.56-4.51,5.1-.33,10.14-1.6,15.21-2.45,1.09-.18,2.28-.38,2.01,1.45-1.34,8.84-.49,17.74-.52,26.61-.01,3.23-1.02,4.61-4.06,5.46-4.14,1.14-8.13,2.83-12.16,4.34-1.64,.62-2.5,.8-2.59-1.58-.35-9.71-.94-19.41-1.45-29.32Z"
       id="path38" />
    <path
       class="cls-16"
       d="M298.21,966.06c-1.15-8.46-1-16.4-1.01-24.34,0-.96,.25-2.03-.08-2.87-2.56-6.74,1.02-10.04,6.56-12.69,3.86-1.84,7.43-4.29,11.55-6.71,0,4.28,.29,8.3-.06,12.26-.64,7.23,.04,14.42,.17,21.62,.04,2.23-.55,3.51-2.64,4.39-5.07,2.12-9.58,5.29-14.49,8.34Z"
       id="path40" />
    <path
       class="cls-16"
       d="M353.77,969.47c-.88,10.18-2.76,19.03-2.55,28.08,.04,1.89-.79,2.72-3,1.85-3.2-1.26-6.56-2.18-9.91-3.03-1.73-.44-2.07-1.11-2.12-2.94-.25-9.36-.69-18.71-1.29-28.05-.25-3.9-.26-4.12,3.47-3.11,3.78,1.03,7.5,2.36,11.33,3.11,3.21,.63,4.72,1.97,4.07,4.09Z"
       id="path42" />
    <path
       class="cls-16"
       d="M487.19,925.52c0,10.2,0,20.26,.01,30.33,0,1.17-.5,1.9-1.65,1.87-4.2-.1-7.81,2.08-11.75,2.97-1.7,.38-2.58,.27-2.55-1.95,.12-9.13,.07-18.26,.01-27.38,0-1.49,.16-2.29,1.95-2.63,4.79-.92,9.51-2.16,13.98-3.21Z"
       id="path44" />
    <path
       class="cls-16"
       d="M471.28,998.39c0-10.42,0-20.5,0-30.58,0-1.1,.37-1.72,1.54-2.02,4.04-1.04,8.06-2.16,12.06-3.34,1.66-.49,2.36-.25,2.33,1.71-.11,8.77-.14,17.54-.09,26.31,0,1.43-.52,2.11-1.72,2.7-4.4,2.19-9.12,3.48-14.12,5.21Z"
       id="path46" />
    <path
       class="cls-16"
       d="M374.81,968.01c-4.92-1.27-9.39-2.52-13.92-3.55-1.53-.35-2.36-.78-2.32-2.5,.22-9.12,.41-18.25,.53-27.38,.02-1.6,.83-1.43,1.84-1.13,2.4,.71,4.84,1.34,7.19,2.19,1.19,.43,2.21,.54,3.45,.18,3.77-1.1,4.1-.64,3.56,3.48-1.22,9.39-2.29,18.79-.34,28.71Z"
       id="path48" />
    <path
       class="cls-16"
       d="M263.01,924.59c5.55-4.28,10.77-8.25,15.92-12.32,.77-.6,1.5-.66,2.32-.61,9.23,.62,18.6-.42,27.85,2.63-4.26,4.15-8.75,7.85-13.59,11.13-.37,.25-.89,.5-1.31,.46-10.23-1.04-20.54-.01-31.19-1.3Z"
       id="path50" />
    <path
       class="cls-16"
       d="M388.01,970.1c16.87-5.66,32.77-7.37,49-.4-7.41,2.08-14.67,4.21-21.99,6.1-1.55,.4-3.51,.35-4.98-.24-6.78-2.71-14.06-3.28-22.04-5.46Z"
       id="path52" />
    <path
       class="cls-16"
       d="M161.34,1023.44c-.89,.87-1.91,.72-2.82,.76-8.51,.31-17.03,.53-25.54,.91-1.86,.08-2.45-.36-2.5-2.3-.19-6.77-.27-6.77,6.43-7.21,2.16-.14,4.38,0,6.45-.48,8.23-1.9,13.04,3.23,17.99,8.33Z"
       id="path54" />
    <path
       class="cls-16"
       d="M736.95,987.36c0,5.2-.09,10,.04,14.8,.05,2.01-.8,2.18-2.37,1.78-7.94-2.06-15.76-4.52-24.77-6.17,9.17-4.35,17.99-7.02,27.1-10.41Z"
       id="path56" />
    <path
       class="cls-16"
       d="M483.43,919.96c-8.13,2.13-15.36,4.03-22.6,5.9-4.63,1.2-9.34,2.03-13.89,3.6-3.15,1.09-6.25-1.44-9.61-1.04,4.84-1.49,9.65-3.11,14.54-4.41,4.57-1.22,4.82-1.5,2.75-5.58-.18-.35-.16-.98,.04-1.3,.41-.65,1.07-.19,1.63-.13,8.7,.95,17.4,1.89,27.14,2.95Z"
       id="path58" />
    <path
       class="cls-16"
       d="M408.55,884.7c8.49-4.5,22.53-5.06,42.57-1.7-1.91,1.28-3.91,1.05-5.7,1.44-4.11,.89-8.43,1.16-12.32,2.6-4.83,1.8-8.98-.73-13.43-1.08-3.66-.29-7.27-1.3-11.12-1.27Z"
       id="path60" />
    <path
       class="cls-16"
       d="M415.81,748.02c.93,3.97,4.51,3.25,7.15,3.73,2.3,.42,4.71,.45,7.09,1.08-2.82,2.46-5.66,4.81-8.35,7.34-.9,.85-1.57,.66-2.53,.37-3.75-1.13-7.49-2.27-10.94-3.86,2.13-3.28,8.53-2.73,7.57-8.74,0,0,.02,.06,.02,.06Z"
       id="path62" />
    <path
       class="cls-16"
       d="M392.14,888.06c-10.23,1.22-20.98,5.61-30.53-.1q16.97-3.17,30.53,.1Z"
       id="path64" />
    <path
       class="cls-16"
       d="M339.62,958.75c5.32-2.37,9.94-4.43,14.58-6.5,0,2.52-.08,4.95,.02,7.37,.09,2.25-.58,3.01-2.92,2.27-3.59-1.13-7.27-1.97-11.68-3.14Z"
       id="path66" />
    <path
       class="cls-16"
       d="M420.99,928.28c-6.14,0-12.28-.06-18.41,.03-1.93,.03-1.37-1.17-1.33-2.15,.04-1-.33-2.11,1.64-1.69,6.01,1.28,12.22,1.47,18.1,3.8Z"
       id="path68" />
    <path
       class="cls-5"
       d="M219.23,1063.15c.64-6.05-.65-13.4,.6-20.71,.38-2.21,1.19-3.79,2.99-4.99,4.08-2.72,7.95-5.82,12.27-8.08,3.27-1.71,7.28-.96,10.91-1.13,9.24-.42,18.5-.32,27.75-.26,4.84,.03,4.33,.38,4.83,5.18,1.13,10.85-.56,21.64-.01,32.45,.12,2.44-.35,4.4-2.22,6.11-1.31,1.21-2.49,2.64-3.42,4.17-4.18,6.84-10.64,8.84-18.1,8.58-10.46-.36-20.9-.17-31.33,.65-3.28,.26-4.65-.37-4.37-4.11,.4-5.5,.1-11.06,.1-17.85Zm40.35-20.66c-9.33,0-18.31,0-27.29,0q-7.04,0-7.53,6.82c-.09,1.2-.24,2.39-.3,3.59-.4,8.51-1.43,16.99-.72,25.54,.22,2.66,1.16,3.32,3.74,3.09,9.55-.82,19.09-2.03,28.69-2.1,1.93-.01,2.01-.86,2.1-2.38,.49-8.28,.84-16.55,.7-24.84-.06-3.33-.26-6.69,.62-9.72Zm15.44-6.44c-3.73,2.64-6.69,5.07-9.96,6.93-2.13,1.21-2.59,2.65-2.48,4.82,.3,6.13,.52,12.27,.68,18.41,.1,3.79,.02,7.58,.02,12.01,1.68-1.61,2.81-2.8,4.06-3.85,4.09-3.47,6.99-7.08,6.68-13.23-.41-8.06,.58-16.2,1.01-25.07Zm-2.04-4.21c-.78-.5-.96-.73-1.15-.73-10.93-.02-21.86,0-32.79-.03-.78,0-1.42,.22-1.98,.69-2.87,2.42-5.73,4.85-8.96,7.58,9.01-.83,17.39-1.24,25.8-1.36,3.38-.05,6.93-.02,10.09-1.03,3.09-.98,5.78-3.23,8.99-5.13Z"
       id="path70" />
    <path
       class="cls-5"
       d="M640.68,1028.55c5.16,0,10.32,.07,15.48-.04,1.6-.03,2.78,.49,3.84,1.56,3.05,3.07,6.1,6.14,9.18,9.19,1.23,1.22,1.67,2.25,.61,4.06-1.45,2.48-.39,5.4-.42,8.13-.13,10.22-.19,20.43-.31,30.65-.02,2.07-1.1,2.97-3.2,3.58-5.17,1.51-10.3,.31-15.36-.05-11.54-.82-23.07-.3-34.61-.63-.12,0-.24,0-.36,0-6.41-.1-6.71-.09-6.93-6.24-.43-12.03,.04-24.05,.77-36.06,.07-1.09,.54-1.77,1.25-2.45,2.52-2.4,5.17-4.69,7.51-7.26,2.83-3.11,6.18-4.14,10.29-3.89,4.07,.25,8.17,.06,12.25,.06v-.61Zm-1.87,17.94v.06c-8.17,0-16.34,0-24.51,0-1.12,0-2.33-.42-2.31,1.65,.12,10.1,.44,20.17,1.38,30.23,.18,1.92,.84,2.32,2.65,2.22,14.65-.8,29.3-.7,43.92,.56,2.6,.22,3.74-.19,3.81-3.36,.21-9.47,.77-18.95,1.53-28.39,.2-2.54-.31-3.06-2.7-3.02-7.93,.12-15.86,.05-23.78,.05Zm-22.64-5.78c.22,.4,.44,.8,.67,1.2,15.84-.93,31.73,.38,47.97-.94-1.79-2.12-3.35-3.78-4.7-5.6-1.72-2.32-3.82-3.09-6.74-3.02-8.54,.2-17.08,.05-25.62,.09-1.13,0-2.27-.3-3.35,.75-2.65,2.61-5.48,5.03-8.23,7.52Z"
       id="path72" />
    <path
       class="cls-5"
       d="M550.52,750.58c.73-7.6,1.55-16.52,4.83-25.01,.64-1.65,1.24-3.37,3.44-2.72,2.03,.6,1.71,2.5,1.41,3.96-1.99,9.87-3.82,19.75-3.16,29.9,.12,1.81-.81,2.97-2.5,3.5-1.83,.58-2.21-1.02-2.87-2.06-1.2-1.87-1.16-1.9-1.15-7.58Z"
       id="path74" />
    <path
       class="cls-5"
       d="M559.25,780.77c-3.27,.24-5.52-1.35-7.06-4.03-.34-.6-.92-1.58-.02-2.29,.61-.48,1.41-.45,2.01-.02,4.46,3.16,7.84,.82,11.08-2.16,1.32-1.22,2.47-2.67,3.94-3.65,1.16-.77,2.74-1.13,3.88,.35,1.05,1.36,.35,2.46-.62,3.48-3.71,3.89-7.21,8.1-13.21,8.32Z"
       id="path76" />
    <path
       class="cls-5"
       d="M581.97,736.95c.32,1.67-.35,3.71-.9,5.78-.44,1.63-1.34,2.8-3.12,3.01-2.14,.25-2.67-1.6-3.05-2.91-1.1-3.81,.41-7.47,1.25-11.13,.34-1.48,1.76-.98,2.72-.97,1.59,.02,2.73,.96,3.06,2.5,.22,1.02,.04,2.12,.04,3.71Z"
       id="path78" />
    <path
       class="cls-5"
       d="M542.21,727.23c-.24,1.46-.62,3.34-.83,5.24-.15,1.4-.85,2.19-2.14,2.52-1.35,.34-1.79-.67-2.49-1.53-2.32-2.85-2.23-6.01-1.16-9.17,.78-2.3,3.08-2.74,5.02-2.33,2.81,.59,1.33,3.09,1.61,5.28Z"
       id="path80" />
    <path
       class="cls-5"
       d="M248.79,935.46c-.07,.36-.17,1.57-.56,2.68-1.04,2.91-4,3.43-5.78,.91-2.16-3.05-2.69-6.64-2.11-10.27,.4-2.44,3.44-3.01,5.8-1.27,1.78,1.31,2.74,3.86,2.65,7.94Zm-5.64-5.66c-.21,4.31-.07,4.85,1.85,7.36,1.06-2.75,1.6-5.34-1.85-7.36Z"
       id="path82" />
    <path
       class="cls-5"
       d="M212.73,921.02c-.04-2.97,1.05-5.62,2.53-8.09,.91-1.52,2.42-2.18,3.95-1.02,1.42,1.07,.55,2.08-.33,3.28-1.5,2.06-1.96,4.55-1.88,7.14,.04,1.56,.64,3.86-1.88,3.89-2.19,.02-2.09-2.17-2.37-3.76-.08-.47-.01-.96-.01-1.44Z"
       id="path84" />
    <path
       class="cls-5"
       d="M234.29,928.88c.09,1.91-.63,2.89-2.05,3.36-1.36,.45-2.2-.15-2.97-1.28-1.52-2.2-1.9-4.81-2.72-7.26-.27-.8-.57-2.07,.62-2.49,.96-.34,2.12-.56,3.04,.33,2.2,2.13,3.57,4.71,4.09,7.34Z"
       id="path86" />
    <path
       class="cls-5"
       d="M245.16,909.1c.99,.03,1.96,.31,2.5,1.15,1.33,2.09,2.71,4.16,3.45,6.57,.4,1.3,.2,2.35-1.1,2.98-1.44,.69-2.91,.72-3.81-.72-1.5-2.41-2.52-5.07-3.07-7.86-.29-1.46,.47-2.26,2.04-2.11Z"
       id="path88" />
    <path
       class="cls-5"
       d="M232.27,904.78c0-2.03,.76-3.5,2.31-4.34,1.14-.62,2.61-.95,3.54,.33,1.08,1.49-.01,2.26-1.27,2.98-.8,.45-1.44,1.2-2.1,1.87-.48,.49-.8,1.45-1.58,1.12-.79-.34-.95-1.29-.91-1.95Z"
       id="path90" />
    <path
       class="cls-12"
       d="M259.59,1042.49c-.88,3.04-.68,6.39-.62,9.72,.15,8.29-.2,16.57-.7,24.84-.09,1.52-.17,2.37-2.1,2.38-9.6,.07-19.14,1.28-28.69,2.1-2.58,.22-3.52-.44-3.74-3.09-.7-8.55,.32-17.04,.72-25.54,.06-1.2,.21-2.39,.3-3.59q.49-6.82,7.53-6.82c8.98,0,17.96,0,27.29,0Z"
       id="path92" />
    <path
       class="cls-12"
       d="M275.03,1036.05c-.43,8.87-1.42,17.01-1.01,25.07,.31,6.16-2.58,9.76-6.68,13.23-1.25,1.06-2.38,2.25-4.06,3.85,0-4.43,.08-8.22-.02-12.01-.16-6.14-.38-12.28-.68-18.41-.11-2.17,.35-3.61,2.48-4.82,3.27-1.86,6.23-4.29,9.96-6.93Z"
       id="path94" />
    <path
       class="cls-12"
       d="M272.99,1031.84c-3.21,1.9-5.9,4.15-8.99,5.13-3.16,1-6.71,.98-10.09,1.03-8.41,.12-16.79,.54-25.8,1.36,3.23-2.74,6.09-5.16,8.96-7.58,.56-.47,1.21-.7,1.98-.69,10.93,.02,21.86,.01,32.79,.03,.19,0,.37,.22,1.15,.73Z"
       id="path96" />
    <path
       class="cls-12"
       d="M638.81,1046.49c7.93,0,15.86,.08,23.78-.05,2.38-.04,2.9,.49,2.7,3.02-.76,9.45-1.32,18.92-1.53,28.39-.07,3.17-1.21,3.58-3.81,3.36-14.62-1.26-29.27-1.36-43.92-.56-1.81,.1-2.48-.3-2.65-2.22-.94-10.06-1.26-20.14-1.38-30.23-.02-2.07,1.19-1.65,2.31-1.65,8.17-.01,16.34,0,24.51,0v-.06Z"
       id="path98" />
    <path
       class="cls-12"
       d="M616.17,1040.71c2.76-2.5,5.58-4.92,8.23-7.52,1.07-1.06,2.21-.75,3.35-.75,8.54-.03,17.08,.12,25.62-.09,2.92-.07,5.02,.7,6.74,3.02,1.35,1.82,2.9,3.48,4.7,5.6-16.24,1.33-32.13,.01-47.97,.94-.22-.4-.44-.8-.67-1.2Z"
       id="path100" />
  </g>
</svg>
