<?xml version="1.0" encoding="UTF-8" standalone="no"?>
<svg
   id="Layer_11"
   viewBox="0 0 865 1388"
   version="1.1"
   sodipodi:docname="rosieOnboarding-10.svg"
   inkscape:version="1.2.1 (9c6d41e4, 2022-07-14)"
   xmlns:inkscape="http://www.inkscape.org/namespaces/inkscape"
   xmlns:sodipodi="http://sodipodi.sourceforge.net/DTD/sodipodi-0.dtd"
   xmlns="http://www.w3.org/2000/svg"
   xmlns:svg="http://www.w3.org/2000/svg">
  <sodipodi:namedview
     id="namedview169"
     pagecolor="#505050"
     bordercolor="#ffffff"
     borderopacity="1"
     inkscape:showpageshadow="0"
     inkscape:pageopacity="0"
     inkscape:pagecheckerboard="1"
     inkscape:deskcolor="#505050"
     showgrid="false"
     inkscape:zoom="0.22295542"
     inkscape:cx="338.63272"
     inkscape:cy="210.80448"
     inkscape:window-width="1309"
     inkscape:window-height="456"
     inkscape:window-x="0"
     inkscape:window-y="25"
     inkscape:window-maximized="0"
     inkscape:current-layer="Layer_11" />
  <defs
     id="defs4">
    <style
       id="style2">.cls-1{letter-spacing:0em;}.cls-2{fill:#0f0f0f;}.cls-3{fill:#090909;}.cls-4{letter-spacing:0em;}.cls-4,.cls-5,.cls-6{font-family:ComicNeue-BoldItalic, 'Comic Neue';}.cls-7{letter-spacing:0em;}.cls-8{fill:#040707;}.cls-9,.cls-10,.cls-11,.cls-12,.cls-13,.cls-14,.cls-15,.cls-16{font-family:ComicNeue-Regular, 'Comic Neue';}.cls-5{letter-spacing:0em;}.cls-17{fill:#0c0c0c;}.cls-10,.cls-18{letter-spacing:0em;}.cls-11{letter-spacing:-.02em;}.cls-19{font-size:36px;}.cls-20{letter-spacing:-.02em;}.cls-12{letter-spacing:0em;}.cls-21{fill:#131313;}.cls-22{fill:#0a0a0a;}.cls-23{fill:#232323;}.cls-24{letter-spacing:-.1em;}.cls-25{letter-spacing:-.02em;}.cls-13{letter-spacing:-.02em;}.cls-26{letter-spacing:0em;}.cls-27{fill:#0d0d0d;}.cls-28{fill:#080808;}.cls-14{letter-spacing:-.03em;}.cls-29{fill:#bdccd4;}.cls-30{letter-spacing:-.02em;}.cls-15{letter-spacing:0em;}.cls-31{fill:#0e0e0e;}.cls-16{letter-spacing:-.03em;}.cls-32{fill:#050505;}.cls-33{fill:#0b0b0b;}.cls-34{fill:#fa99af;}.cls-35{fill:#070707;}.cls-36{letter-spacing:-.01em;}.cls-37{fill:#060606;}</style>
  </defs>
  <g
     id="g72">
    <path
       class="cls-32"
       d="M213.76,513.57c-3.45,7.28-6.17,13.98-6.4,21.45-.04,1.4,.29,3.19-1.78,3.36-2.13,.18-2.05-1.91-2.28-3.09-.61-3.13,.41-6.17,1.19-9.17,1.86-7.1,4.59-13.8,9.19-19.64,1.76-2.23,1.51-5.17,2.36-7.73,5-15.13,12.87-27.81,28.64-33.77,4.77-1.8,9.79-1.99,14.81-2.55,13.06-1.46,22.79,4.59,31.77,12.78,4.13,3.76,6.14,8.84,7.38,14.09,.63,2.69,1.97,3.47,4.31,3.49,6.48,.05,11.97,2.86,17.2,6.28,2.27,1.49,4.04,2.62,2.39,6.51-1.41,3.32-.57,7.78-.95,11.73-.51,5.26-.76,10.58-.72,15.86,.03,3.53-1.97,4.85-4.79,5.06-9.47,.69-18.95,1.33-28.44,1.59-7.05,.19-7.06-.08-8.89-6.98-.21,.05-.44,.07-.64,.15-3.38,1.39-4.87,3.22-4.47,7.54,.49,5.38,1.57,10.88,.4,16.42-.53,2.49,2.62,5.62,5.24,5.88,1.07,.11,2.16,.03,3.25,.03,132.76,0,265.51,.02,398.27-.09,3.68,0,4.46,.89,4.46,4.51-.1,185.79-.09,371.58-.09,557.36q0,4.69-4.8,4.69c-167.54,0-335.08-.01-502.62,.09-3.66,0-4.4-.89-4.4-4.45,.1-185.91,.1-371.82,0-557.72,0-3.47,.6-4.56,4.36-4.51,18.17,.24,36.35,.09,54.52,.14,2.2,0,3.36,.1,3.55-3.03,.3-5.23,.63-10.53,1.79-15.71,.28-1.24,1.19-2.89-1.29-3.74-12.13-4.13-19.55-12.47-21.88-25.19-.06-.31-.23-.6-.65-1.63Zm-28.52,63.02c-.05,.84-.15,1.68-.15,2.51,0,177.14,0,354.28,.02,531.42,0,.84-.54,1.91,.66,2.67,8.4-8.27,16.51-16.83,25.33-24.67,.65-.58,1.47-1.03,1.06-2.36-1.76-5.66-1.66-11.62-1.84-17.42-.47-14.87-.48-29.74-1.4-44.61-.65-10.55-1.12-21.13-1.19-31.7-.18-31.05-1-62.1-.29-93.16,.51-22.24,1.28-44.47,2.73-66.67,.86-13.16,1.61-26.32,2.68-39.48,1.59-19.51,2.28-39.1,2.97-58.67,.62-17.67,.7-35.35,1.08-53.02,.12-5.89,.98-11.82,.52-17.65-.98-12.51-.73-25-.63-37.51,.05-7.27,.6-14.76-6.84-19.97-3.76-2.64-5.36-7.57-7.39-11.82-3.13-6.58-6.3-13.13-14.77-14.31-2.05-.29-1.52-2.07-1.15-3.5,6.13-.34,10.93,1.93,14.52,7.01,2.15,3.05,4.25,6.08,5.74,9.53,1.88,4.34,4.62,8.15,7.83,11.6,.57,.61,1.11,2.14,2.54,.99,1.83-1.47,4.1-1.35,6.21-1.39,10.59-.2,21.16-.72,31.75-.91,44.62-.81,89.24-2.03,133.86-2.96,5.17-.11,10.33-.37,15.49-.66,.96-.05,2.03-.31,2.8,.33,1.51,1.23,2.29,.22,3.28-.74,4.42-4.26,8.86-8.5,13.35-12.68,4.06-3.77,8.21-7.44,12.9-11.67-1.6,0-2.3,0-3,0-72.83-.03-145.65-.06-218.48-.08-9.15,0-18.3,.02-27.44,.13-.96,.01-2.94-1.14-2.72,1.43Zm32.47,509.27c6.11-.41,12.03,.93,18.05,1.01,25.03,.34,50.05-.54,75.08,.21,16.48,.49,32.91-1.67,49.4-2.04,13.33-.3,26.59-1.7,39.82-3.29,1.75-.21,1.85-.82,1.68-2.18-.84-6.93-.41-13.84-.15-20.8,.54-14.18,.21-28.4,.54-42.59,.74-31.4,1.51-62.8,2.63-94.18,.29-8.06,.22-16.12,.67-24.17,.8-14.05,1.53-28.1,2.01-42.16,.63-18.78-.85-37.53-.88-56.3-.03-21.18,.59-42.35,.94-63.53,.02-.96,.14-1.92,.22-2.88,.88-10.87,2.2-21.73,2.54-32.62,.43-13.58-.13-27.19-.33-40.78-.26-17.21-2.39-34.34-1.8-51.56,.06-1.76-.35-2.1-2.19-1.95-8.01,.66-16.05,1.52-24.07,1.49-32.5-.15-64.95,1.27-97.42,2.1-20.92,.54-41.86,.06-62.8-.02-1.74,0-2.28,.29-1.94,2.22,.66,3.77,1.32,7.61,1.34,11.42,.08,20.33,1.99,40.61,1.36,60.97-.46,15.02,.05,30.07-.45,45.08-.49,14.65-1.12,29.31-1.86,43.96-.87,17.16-2.55,34.25-3.33,51.41-1.14,24.98-2.16,49.98-2.58,74.97-.54,33.07,.03,66.14,.94,99.2,.34,12.13,1.07,24.23,1.41,36.36,.31,11.14,.43,22.29,.56,33.43,.06,5.7,1.72,11.33,.6,17.23Zm260.68-13.04c2.81-.64,5.33-1.51,8-1.53,23.21-.2,46.35-2.71,69.59-1.83,15.28,.58,30.53-1.12,45.82-1.2,11.43-.06,22.79,1.16,34.21,1.14,1.58,0,3.03,.84,3.09-1.43,.2-7.22,2.1-14.3,1.7-21.56-.53-9.6-1.19-19.19-1.53-28.79-.74-21.16-1.58-42.33-1.89-63.5-.32-21.89-2.11-43.73-2.25-65.62-.13-19.73,.3-39.44,1-59.16,.65-18.27,1.66-36.54,2.03-54.83,.12-6.11,.4-12.25,.88-18.37,.48-6.09,1.45-12.24,.69-18.36-.69-5.54-.34-11.02-.14-16.55,.37-10.58,2.02-21.06,2.44-31.6,.96-23.68,1.39-47.39,1.35-71.1,0-4.46,.24-8.92,1.18-13.25,.47-2.18-.07-2.51-1.94-2.35-13.05,1.08-26.16-.1-39.22,1.12-9.08,.85-18.23,.56-27.32,1.65-11.2,1.34-22.43,2.33-33.73,2.71-10.2,.34-20.43,.34-30.62,1.36-10.03,1-20.09,1.78-30.15,2.32-2.6,.14-2.98,.93-2.55,3.09,.92,4.6,1.34,9.26,1.61,13.93,.92,15.64,.08,31.28,.02,46.91-.09,19.98,.07,39.97-.05,59.95-.26,42.37-.8,84.74-.36,127.12,.47,44.88-1.36,89.71-2.35,134.57-.55,24.94-1.79,49.96,.49,75.17Zm-30.42-496.25c1.2,177.63,.55,355.09,1.06,532.63,7.2-11.17,14.08-22.42,20.98-33.67,1.99-3.25,2.37-7.02,1.74-10.44-1.39-7.52-1.41-15-1.02-22.57,.73-14.18,.22-28.38,.57-42.58,.39-16.24,1-32.48,1.27-48.72,.17-10.11,.29-20.22,.71-30.32,.92-21.89,.97-43.8,.77-65.69-.19-20.47-.44-40.93-.11-61.39,.42-25.52,.79-51.03,.82-76.55,.02-22.51,.4-45.01,1.15-67.51,.28-8.4,.39-16.81-.3-25.24-.43-5.24-1.61-10.4-1.55-15.66,.03-2.51,.7-4.48,3.36-1.47,.9,1.02,2.06,.42,3.06,.32,11.24-1.15,22.44-2.76,33.7-3.45,21.96-1.34,43.95-1.95,65.89-4.19,18.75-1.92,37.65-2.61,56.54-2.18,3.67,.08,7.25-.51,11.05,.02,3.74,.53,5.58-4.19,8.29-6.48,5.7-4.83,10.99-10.17,16.29-16.14h-218.46c4.29,4.94,8.68,9.11,13.36,13.03,3.59,3.01,6.98,6.26,10.39,9.47,1.26,1.19,1.67,2.79,.47,4.2-1.31,1.53-2.86,.82-4.17-.16-.96-.72-1.78-1.62-2.65-2.45-7.8-7.46-16.11-14.4-23.22-22.81Zm224.78,529.98V583.69c-7.19,6.73-14.98,14.03-22.78,21.32-1.06,.99-1.36,2.23-1.42,3.58-.14,3.12-.48,6.26-.38,9.37,.62,19.25,.38,38.51,.27,57.77-.04,6.25-.01,12.54-.65,18.75-1.39,13.52-2.45,27.05-2.09,40.65,.13,4.81,.65,9.59,.35,14.42-.43,7.08-.76,14.17-1.04,21.25-.28,7.09-.26,14.2-.71,21.28-1.48,23.53-1.82,47.12-2.56,70.67-.66,21.02,.73,42.09,1.65,63.13,1.22,27.88,1.85,55.78,2.86,83.67,.37,10.31,1.29,20.6,1.56,30.92,.13,5.01,1.19,9.98,.21,15.09-.97,5.05-1.22,10.24-1.78,15.37-.11,1.04-.4,1.98,.45,3.03,8.65,10.72,17.23,21.51,26.06,32.57Zm-232.04-526.65c.05-.02-.19,0-.34,.13-9.06,7.9-17.93,16.04-27.99,22.71-.63,.42-.88,.85-.73,1.75,1.9,11.14,1.57,22.47,2.82,33.68,1.01,9.08,.83,18.26,1.29,27.39,.72,14.67,1.47,29.39,.2,43.99-1.76,20.16-2.13,40.35-2.55,60.54-.46,21.9,.17,43.8,1.06,65.69,.86,20.92-.82,41.82-1.77,62.72-.39,8.55,.1,17.11-.54,25.62-1.68,22.44-1.3,44.94-2.18,67.41-1.16,29.53-.88,59.13-1.22,88.69-2.8,5.64,.86,8.16,4.95,10.72,9.47,5.93,13.44,16.82,21.44,24.11,.76,.7,.62,2.47,2.34,1.99,1.94-.54,.99-2.19,.99-3.29,.46-87.88,.89-175.76,1.28-263.65,.35-78.25,.65-156.51,.96-234.76,.05-11.79,0-23.57,0-35.45Zm11,537.18h185.78c10.83,0,21.66-.08,32.49,.05,2.8,.03,3.26-.81,1.77-2.96-2.51-3.65-3.76-7.85-7.92-10.77-4.26-2.99-7.48-7.69-10.6-12.13-3.45-4.91-6.98-9.77-10.65-14.52-1.15-1.49-2.49-4.67-4.85-.79-.6,.99-2.02,.44-3.08,.51-6.27,.42-12.4-1.27-18.67-1.23-12.98,.07-25.96-.17-38.93,.61-9.72,.59-19.43,.48-29.18,.13-19.48-.7-38.92,1.59-58.42,1.2-2.99-.06-6.05,.22-8.86,1.3-2.04,.78-3.95,1.13-5.81-.02-1.53-.95-1.71,.08-2.1,1.07-1.79,4.62-4.36,8.82-6.84,13.08-4.63,7.96-9.23,15.95-14.15,24.46Zm-22.62-.14c-6.02-7.58-10.27-16.01-17.92-21.66-2.16-1.6-4.51-3.24-5.8-5.84-.54-1.1-1.7-.63-2.6-.7-5.22-.37-10.26,1.06-15.39,1.58-20.82,2.12-41.75,2.92-62.63,3.36-28.26,.6-56.55-.1-84.82-.62-8.23-.15-16.69-.13-24.39-4.06-1.24-.63-1.33,.65-1.74,1.22-2.48,3.41-5.3,6.52-8.23,9.56-5.29,5.49-10.35,11.19-15.84,17.16h239.35ZM260.57,468.8c-10.25,.09-19.31,3.46-26.42,10.91-7.18,7.51-11.81,16.54-13.34,26.91-2.26,15.34,6.02,26.88,20.83,28.53,24.46,2.73,43.73-11.08,50.41-35.02,2.63-9.44-.28-16.9-7.6-22.9-6.91-5.67-14.77-8.81-23.88-8.43Zm26.97,66.68c3.21-.25,6.42-.62,9.62-.91,5.39-.48,10.77-.5,16.15-.67,1.47-.05,3.2-.19,3.15-2.51-.15-7.33,.95-14.56,2.02-21.78,.19-1.25-.19-1.66-1.44-1.79-5.82-.62-11.62-1.35-17.44-2.02-1.2-.14-2.08,.34-2.46,1.57-2.43,7.87-7.08,14.33-12.81,20.08-2.28,2.29-.41,4.82-.22,7.15,.13,1.58,2.24,.43,3.42,.87Zm-32.45,27.37c4.21,0,8.41,.03,12.62-.03,.78-.01,2.07,.55,1.9-1.21-.72-7.34,.76-14.61,.68-21.94-.02-2.01-.38-2.38-2.45-1.68-7.93,2.67-16.04,4.54-24.51,3.84-1.59-.13-1.84,.32-2.11,1.84-.9,5.11-.2,10.32-1.27,15.4-.59,2.78,.75,3.93,3.6,3.81,3.84-.16,7.69-.04,11.54-.04Zm64.66-59.06c-5.97-5.14-12.38-7.07-19.1-7.96-2.02-.27-1.46,2.12-1.45,3.32,0,.97-1.45,2.92,.98,2.98,6.28,.16,12.52,.88,19.57,1.66Z"
       id="path6" />
    <path
       class="cls-37"
       d="M209.47,476.03c-4.04-1.45-6.96-4.05-9.46-7.19-4.2-5.26-6.86-11.3-8.42-17.77-.6-2.49-1.72-3.45-4.15-4.04-15.99-3.89-32.26-5.17-48.65-5.53-3.72-.08-7.44,.02-11.16-.53-10.73-1.58-17.96-7.49-22.13-17.36-4.05-9.57-5.23-19.73-5.71-29.96-1.49-31.77-.61-63.56-.23-95.34,.68-55.98,2.22-111.95,2.4-167.94,.04-11.98,1.64-23.76,5.82-35.05,8.14-21.97,24.22-34.26,47-38.27,6.18-1.09,12.41-1.45,18.68-1.45,176.21,.02,352.43,.01,528.64,.01,12.66,0,25.25,.67,37.49,4.32,18.21,5.42,27.83,17.18,29.68,36.1,.52,5.28,.75,10.56,.75,15.86-.03,91.39,0,182.79-.06,274.18,0,10.72-.67,21.41-3.43,31.85-4.49,16.98-14.12,24.94-31.66,26.48-5.77,.51-11.53,.68-17.31,.68-75.23-.08-150.45-.13-225.68-.25-90.15-.13-180.3-.3-270.45-.57-3.25,0-4.49,1.04-5.5,3.99-3.06,9.02-5.43,18.17-6.48,27.76Zm-4-7.63c1.04-.74,.98-1.63,1.13-2.42,1.45-7.57,3.77-14.87,6.37-22.12,1.05-2.93,2.37-3.94,5.6-3.93,90.99,.26,181.99,.42,272.98,.55,74.51,.11,149.01,.17,223.52,.26,6.5,0,12.98-.08,19.47-.68,15.8-1.47,23.67-7.91,27.77-23.22,2.73-10.19,3.31-20.66,3.32-31.14,.05-91.28,.04-182.55,.06-273.83,0-5.18-.24-10.34-.75-15.5-1.69-16.98-9.82-27.08-26.07-32.11-12.1-3.75-24.59-4.28-37.13-4.28-175.38,0-350.75,0-526.13-.01-5.3,0-10.58,.21-15.86,.71-24.36,2.33-41.9,16.5-49.13,39.85-3.01,9.73-4.26,19.74-4.3,29.89-.18,46.6-1.36,93.18-1.98,139.77-.55,41.05-2.01,82.1-.2,123.15,.44,9.98,1.57,19.91,5.67,29.22,3.52,7.99,9.49,12.74,18.22,14.08,3.73,.57,7.44,.43,11.16,.51,17.59,.41,35.06,1.81,52.14,6.43,2.35,.64,3.39,1.73,3.95,4.24,1.71,7.64,4.44,14.88,10.19,20.58Z"
       id="path8" />
    <path
       class="cls-34"
       d="M260.57,468.8c9.1-.38,16.96,2.76,23.88,8.43,7.32,6,10.24,13.46,7.6,22.9-6.68,23.94-25.95,37.75-50.41,35.02-14.81-1.65-23.09-13.19-20.83-28.53,1.53-10.37,6.16-19.4,13.34-26.91,7.11-7.44,16.17-10.82,26.42-10.91Zm-2.27,37.6c-2.99-.02-5.9,.63-8.31,2.6-1.42,1.15-2.49,2.6-1.89,4.68,.6,2.07,1.58,3.96,3.88,4.19,4.29,.43,8.64,.34,12.64-1.48,3.5-1.59,3.7-5.94,.53-8.15-2.02-1.4-4.3-2.05-6.85-1.84Zm15.62-9.96c-.13-2.33,.32-5.14-3.3-5.09-3.16,.04-2.42,2.85-2.42,4.46,0,1.97-.41,4.87,3,4.95,3.18,.07,2.6-2.38,2.72-4.32Zm-26.79,.71c.21-2.32-.63-4.1-3.38-4.26-2.54-.15-2.47,1.85-2.38,3.46,.12,2.12-.24,4.91,2.98,5.03,2.65,.1,2.8-2.04,2.77-4.23Zm-3.73-14.67c-.22-.85-.77-1.06-1.6-.95-1.91,.26-7.34,5.3-7.62,7.19-.1,.66,.2,2.01,.67,1.62,2.96-2.46,5.71-5.19,8.55-7.85Zm33.68,3.57c-.15-2.06-4.3-5.89-6.53-5.97-.41-.01-.98,.17-1.22,.47-.51,.65,.1,1.03,.57,1.38,1.92,1.39,3.88,2.73,5,4.95,.26,.52,.82,.92,1.48,.63,.61-.26,.81-.81,.7-1.46Z"
       id="path10" />
    <path
       class="cls-29"
       d="M287.54,535.47c-1.18-.44-3.29,.7-3.42-.87-.19-2.33-2.06-4.86,.22-7.15,5.74-5.76,10.38-12.22,12.81-20.08,.38-1.23,1.25-1.71,2.46-1.57,5.81,.67,11.62,1.4,17.44,2.02,1.25,.13,1.62,.54,1.44,1.79-1.07,7.22-2.18,14.45-2.02,21.78,.05,2.31-1.68,2.46-3.15,2.51-5.39,.17-10.76,.19-16.15,.67-3.2,.28-6.42,.65-9.62,.91Z"
       id="path12" />
    <path
       class="cls-29"
       d="M319.75,503.78c-7.05-.78-13.29-1.5-19.57-1.66-2.42-.06-.97-2.01-.98-2.98-.01-1.2-.57-3.59,1.45-3.32,6.72,.89,13.13,2.82,19.1,7.96Z"
       id="path14" />
    <path
       class="cls-3"
       d="M388.96,651.52c-4.82-.87-9.37,.04-13.92,.12-25,.42-49.99-1.47-75-.49-20.9,.82-41.8,1.49-62.72,1.21-2.43-.03-4.81-.32-6.94-1.54-1.03-.58-2.11-1.38-1.13-2.87,.76-1.16,1.16-2.94,3.04-2.51,5.25,1.2,10.52,.36,15.77,.24,24.16-.54,48.26-2.79,72.43-2.48,20.56,.26,41.11,.69,61.67,.45,3.36-.04,6.73,.14,10.08-.03,2.04-.11,3.33,.72,3.8,2.49,.48,1.83-.5,3.24-2.17,4.09-1.62,.83-3.36,1.28-4.92,1.34Z"
       id="path16" />
    <path
       class="cls-35"
       d="M255.05,964.31c12.76,.1,25.46-1.19,38.19-1.76,20.93-.94,41.88,.05,62.8-.71,7.98-.29,15.81,.23,23.69,1.21,2.01,.25,3.73,.53,3.95,2.74,.24,2.46-1.83,3.25-3.69,3.69-1.48,.35-3.11,.2-4.66,.11-9.12-.53-18.23,.16-27.35,.25-20.93,.2-41.87-.29-62.78,.94-12.49,.74-24.97,1.31-37.49,1.15-5.17-.07-10.28-1.01-15.48-.6-2.49,.2-3.25-1.51-2.13-3.69,1.17-2.28,2.91-3.36,5.48-3.35,6.49,.04,12.99,.01,19.48,.01Z"
       id="path18" />
    <path
       class="cls-3"
       d="M380.45,847.26c-7.64-1.59-15.97-2.26-24.41-2.07-29.81,.66-59.63,1.08-89.44,1.79-9.23,.22-18.43,1.74-27.71,.61-1.69-.21-3.32-.43-4.76-1.37-1.32-.86-2.26-1.96-1.16-3.57,.86-1.26,1.51-2.27,3.7-1.55,5.27,1.72,10.75,.21,16.08-.17,23.63-1.67,47.29-2.53,70.98-2.71,13.34-.1,26.69-.26,40.03-.71,7.99-.27,15.61,2.85,23.62,2.04,1.77-.18,2.3,1.61,2.66,2.92,.43,1.58-.48,2.78-1.9,3.51-2.22,1.14-4.67,.92-7.69,1.29Z"
       id="path20" />
    <path
       class="cls-22"
       d="M242.52,881.89c25-1.67,49.04-2.09,73.09-1.75,20.07,.28,40.1,1.9,60.19,1.83,3.97-.01,7.96,.2,11.89-.21,2.53-.27,3.81,.81,4.18,2.78,.44,2.36-1.11,3.89-3.4,4.19-2.85,.38-5.76,.76-8.62,.59-13.8-.82-27.64-.3-41.44-1.18-25.7-1.65-51.44-1.17-77.17-.67-9.73,.19-19.47,.76-29.19-.32-1.94-.22-4.71-.17-4.53-2.83,.16-2.46,2.6-2.57,4.82-2.48,3.72,.16,7.45,.04,10.19,.04Z"
       id="path22" />
    <path
       class="cls-22"
       d="M367.4,689.97c-24.01,2.03-48.1,1.02-72.15,1.86-17.18,.6-34.36,1.26-51.55,1.68-4.42,.11-8.87-.51-13.28-.98-1.62-.17-3.71-.75-3.11-2.97,.46-1.69,1.73-2.32,4.11-2.2,8.71,.41,17.45-.11,26.17-.81,22.91-1.83,45.88-2.7,68.85-2.78,16.5-.06,32.93-1.54,49.41-1.73,.6,0,1.21,.02,1.8-.05,2.69-.3,4.74,.79,4.92,3.47,.18,2.65-2.17,3.68-4.38,3.92-3.58,.39-7.19,.41-10.79,.59Z"
       id="path24" />
    <path
       class="cls-33"
       d="M375.83,731.96c-26.71-.58-53.01-2.3-79.35-1.68-17.67,.42-35.34,.97-53.02,1.36-4.2,.09-8.41-.21-12.61-.29-1.55-.03-3.39-.4-3.38-1.95,.02-1.76,1.24-3.19,3.54-3.31,13.81-.69,27.61-1.67,41.42-2.2,20.07-.77,40.16-1.32,60.24-.6,17.54,.63,35.06,1.55,52.61,1.34,2.22-.03,3.08,1.24,3.46,2.89,.44,1.95-.79,3.19-2.56,3.79-3.52,1.18-7.17,.35-10.35,.64Z"
       id="path26" />
    <path
       class="cls-22"
       d="M308.35,927.74c-16,.37-31.99,.59-47.96,1.46-7.1,.39-14.19-.13-21.27-.38-1.87-.07-3.88-.19-5.44-1.55-.7-.61-1.75-1.2-1.26-2.31,.42-.95,1.09-1.75,2.43-1.8,35.91-1.26,71.81-3.1,107.76-2.96,12.38,.05,24.77-.3,37.15-.58,2.69-.06,5.12,.36,5.24,3.39,.12,3.23-2.44,4.04-5.22,4.09-10.22,.21-20.43,.53-30.65,.61-13.59,.11-27.18,.03-40.77,.03Z"
       id="path28" />
    <path
       class="cls-3"
       d="M340.06,1022.55c-22.41-.62-43.2,.18-63.98,1.28-11.65,.61-23.31,1.14-34.98,.79-2.76-.08-5.56-.21-8.14-1.31-1.15-.49-2.75-1.21-2.18-2.81,.54-1.51,1.39-3.15,3.53-3.06,25.53,1.19,50.88-2.44,76.35-2.92,20.22-.39,40.38,.3,60.52,2.1,1.18,.11,2.36,.39,3.52,.67,1.77,.43,3.28,1.39,3.08,3.37-.23,2.22-2,2.79-3.99,2.68-11.76-.65-23.57,.44-33.73-.79Z"
       id="path30" />
    <path
       class="cls-37"
       d="M306.51,801.48c13.49-.86,33.71,.08,53.91-.42,5.77-.14,11.52-.73,17.3-.51,1.32,.05,2.64,.13,3.96,.26,2.33,.22,3.94,1.59,3.89,3.85-.04,2.47-1.91,3.23-4.29,3.26-10.7,.17-21.39,.56-32.09,.65-29.1,.26-58.21,.53-87.31,.54-9.96,0-19.92-.76-29.89-1.15-1.02-.04-1.93-.22-2.44-1.19-.62-1.17,.4-1.78,.97-2.46,2.1-2.53,5.09-2.52,7.95-2.47,20.45,.35,40.89,.32,68.04-.38Z"
       id="path32" />
    <path
       class="cls-33"
       d="M312.96,768.94c-25.17-1.27-47.05-.65-68.93-.38-3.83,.05-7.69-.25-11.5-.71-1.44-.18-3.87-.33-3.51-2.65,.3-1.97,2.18-1.96,4.03-1.98,15.87-.17,31.67-1.82,47.56-1.73,28.38,.17,56.76-.08,85.13,.18,6.55,.06,13.2,.56,19.6,2.48,2.02,.61,3.86,1.49,3.22,3.89-.62,2.35-2.54,2.02-4.67,1.85-6.69-.55-13.41-.87-20.13-.91-18.04-.11-36.07-.04-50.81-.04Z"
       id="path34" />
    <path
       class="cls-28"
       d="M308.15,1057.88c-18.53,0-37.06,.03-55.59-.04-1.97,0-5.05,.85-5.31-2.02-.25-2.77,2.79-2.34,4.7-2.66,20.02-3.34,40.25-3.26,60.45-3.48,14.44-.16,28.88,0,43.32,.04,5.9,.01,11.77-.25,17.61-1.17,2.49-.39,4.77,.05,5.31,2.86,.52,2.73-1.63,3.89-3.8,4.42-4.46,1.09-9.04,1.28-13.61,1.33-17.69,.18-35.38-.67-53.07,.7Z"
       id="path36" />
    <path
       class="cls-17"
       d="M616.44,722.12c-9.15,.13-18.21-1.58-27.31-1.66-18.63-.16-37.26,.36-55.87,1.26-7.44,.36-14.87,.88-22.31,1.26-1.3,.07-2.63-.23-3.94-.32-1.39-.09-2.98-.37-2.86-2.01,.12-1.67,1.42-2.5,3.3-2.62,23.37-1.49,46.73-3.05,70.15-3.45,16.02-.27,31.89,1.7,47.82,2.88,1.68,.13,3.35,.5,3.21,2.55-.14,2.05-1.84,2.15-3.52,2.12-2.88-.06-5.77-.02-8.65-.02Z"
       id="path38" />
    <path
       class="cls-33"
       d="M576.44,1033.51c-28.02-.23-54.59-.52-81.05,2.52-.93,.11-2.19,.64-2.46-.6-.32-1.47,1.05-2.13,2.21-2.33,5.19-.93,10.39-1.91,15.62-2.53,25.62-3.04,51.34-2.87,77.07-2.14,11.54,.33,23.07,.67,34.6,1.09,1.92,.07,4.89-.43,4.97,2.2,.08,2.6-2.93,2.31-4.84,2.55-5.27,.65-10.57,.46-15.85,.18-10.57-.56-21.17-.08-30.27-.94Z"
       id="path40" />
    <path
       class="cls-31"
       d="M600.64,679.28c-26.69-1.74-53.37-.36-80.06-.11-7.56,.07-15.14,.47-22.68-.64-.59-.09-1.21-.13-1.75-.36-.94-.4-2.34-.61-2.01-2.07,.25-1.09,1.36-1.19,2.36-1.16,27.31,.83,54.5-3.01,81.81-2.17,13.7,.42,27.39,1.05,41.1,1.04,2.29,0,5.76-.39,5.63,2.83-.11,2.77-3.51,2.28-5.68,2.41-6.24,.39-12.48,.97-18.73,.21Z"
       id="path42" />
    <path
       class="cls-27"
       d="M559.97,956.11c16.87-.1,36.72,.11,56.55-1.03,1.44-.08,2.89-.01,4.33-.09,1.56-.08,2.73,.53,2.82,2.09,.08,1.48-.9,2.42-2.45,2.6-5.37,.64-10.75,1.1-16.17,1.21-30.55,.65-61.1,.13-91.65-.5-5.41-.11-10.83-.09-16.24-.13-.96,0-1.97,.14-2.87-.11-1.43-.39-3.97,.27-3.75-2.12,.19-2.03,2.25-1.82,4.05-1.81,6.61,.04,13.22-.07,19.83-.28,14.19-.43,28.38-.07,45.55,.15Z"
       id="path44" />
    <path
       class="cls-31"
       d="M588.11,785.88c8.65,0,17.31,0,25.96,0,1.55,0,3.43-.31,3.58,1.94,.14,2.13-1.71,2.51-3.23,2.62-6.95,.52-13.9,1.17-20.86,1.29-26.09,.46-52.11,2.17-78.07,4.71-7.9,.78-15.74,1.93-23.69,1.13-1.89-.19-4.93,.15-5.04-1.99-.08-1.59,3.09-1.1,4.73-1.26,32.16-3.09,64.21-7.64,96.63-7.38l-.02-1.08Z"
       id="path46" />
    <path
       class="cls-31"
       d="M580.26,829.02c10.17-.32,21.55,1.18,32.98,1.32,1.54,.02,3.46-.09,3.71,1.99,.29,2.42-1.87,2.63-3.44,2.75-6.85,.52-13.68,.03-20.53-.34-29.73-1.61-59.39,1.34-89.1,1.4-2.4,0-4.81-.09-7.2-.3-.99-.09-2.52-.28-2.33-1.64,.13-.94,1.24-1.72,2.47-1.77,2.28-.09,4.57-.19,6.85-.28,25.11-.92,50.15-3.82,76.6-3.13Z"
       id="path48" />
    <path
       class="cls-31"
       d="M574.45,980.77c10.32-.16,20.64-1.45,30.97-.16,2.09,.26,5.2,.22,5.07,2.69-.12,2.31-3.28,1.84-5.19,1.83-29.34-.04-58.6,1.99-87.87,3.59-8.5,.46-16.97,1.59-25.46,2.27-1.76,.14-4.72,.93-4.96-1.32-.27-2.52,2.76-1.92,4.52-2.19,25.09-3.86,50.37-5.45,75.71-6.3,2.4-.08,4.8-.27,7.2-.41Z"
       id="path50" />
    <path
       class="cls-17"
       d="M512.03,876.5c-5.29,0-10.58,.01-15.87-.01-1.08,0-2.2,.02-3.22-.27-1.49-.42-4.09-.12-3.81-2.3,.22-1.76,2.46-.61,3.78-.69,13.56-.79,27.11-1.64,40.68-2.21,14.77-.62,29.55-1,44.33-1.42,8.53-.24,17.07-.41,25.6-.44,2.6-.01,6.89-.78,6.92,2.44,.03,3.49-4.39,2.39-6.86,2.49-14.77,.59-29.55,.9-44.33,1.31-15.74,.43-31.48,.87-47.22,1.31v-.2Z"
       id="path52" />
    <path
       class="cls-2"
       d="M550.68,758.14c-14.29,.52-28.58,1.02-42.87,1.59-2.42,.1-4.82,.1-7.14-.58-.86-.25-1.97-.69-1.62-1.96,.3-1.09,.93-1.86,2.33-1.7,10.11,1.17,20.11-.77,30.16-1.18,19.09-.79,38.17-1.95,57.29-2.07,9.77-.06,19.35,2.09,29.09,2.33,1.32,.03,3.01,.33,2.96,1.95-.05,1.74-1.79,2.05-3.24,2.15-5.66,.4-11.31-.16-16.9-.78-11.89-1.32-23.77-.58-35.65-.29-4.8,.12-9.61,.02-14.41,.02v.52Z"
       id="path54" />
    <path
       class="cls-31"
       d="M556.5,918.48c-16.55-.23-33.38-.13-50.2,.93-4.8,.3-9.62,.55-14.41-.1-1-.14-2.58-.12-2.6-1.43-.02-1.38,1.31-1.67,2.64-1.79,33.73-3.07,67.51-2.5,101.3-1.47,4.57,.14,9.14,.17,13.71,.31,1.44,.04,3.21,.11,3.34,1.98,.14,1.91-1.57,2.09-3.03,2.35-3.83,.67-7.71,.63-11.52,.33-12.97-1.02-25.99-.03-39.24-1.11Z"
       id="path56" />
    <path
       class="cls-21"
       d="M561.18,633.83c16.23-.39,32.45-.81,48.68-1.14,2.63-.05,5.28,.23,7.9,.48,1.23,.12,2.54,.66,2.39,2.16-.14,1.43-1.53,1.85-2.72,1.83-3-.04-5.98-.15-8.99-.06-28.24,.88-56.49,1.42-84.73,.08-6.11-.29-12.21-.78-18.32-1.19-.67-.04-1.55,.2-1.74-.78-.16-.84,.52-1.33,1.1-1.7,1.73-1.1,3.69-.91,5.61-.8,16.93,1,33.88,1.22,50.84,1.12Z"
       id="path58" />
    <path
       class="cls-23"
       d="M259.84,597.93c-3.27,1.69-6.66,1.2-9.89,.93-8.52-.71-17.03-.05-25.54-.29-1.3-.04-3.95,.7-3.81-1.38,.16-2.44,2.52-.74,3.84-.76,9.96-.14,19.92-.58,29.87,.15,1.88,.14,3.82-.08,5.54,1.35Z"
       id="path60" />
    <path
       class="cls-8"
       d="M258.3,506.4c2.56-.22,4.84,.44,6.85,1.84,3.18,2.2,2.97,6.55-.53,8.15-4,1.82-8.35,1.91-12.64,1.48-2.3-.23-3.29-2.12-3.88-4.19-.6-2.07,.47-3.52,1.89-4.68,2.41-1.97,5.32-2.62,8.31-2.6Zm-5.67,6.94c3.11-.87,6.56,.43,9.87-1.54-3.78-1.28-7.11-2.08-9.87,1.54Z"
       id="path62" />
    <path
       class="cls-32"
       d="M273.92,496.44c-.12,1.94,.46,4.39-2.72,4.32-3.42-.07-3.01-2.98-3-4.95,0-1.61-.74-4.42,2.42-4.46,3.63-.05,3.17,2.76,3.3,5.09Z"
       id="path64" />
    <path
       class="cls-8"
       d="M247.13,497.15c.03,2.19-.12,4.32-2.77,4.23-3.23-.12-2.86-2.9-2.98-5.03-.09-1.61-.16-3.61,2.38-3.46,2.75,.16,3.59,1.93,3.38,4.26Z"
       id="path66" />
    <path
       class="cls-21"
       d="M243.4,482.48c-2.84,2.66-5.59,5.39-8.55,7.85-.47,.39-.77-.96-.67-1.62,.28-1.88,5.72-6.93,7.62-7.19,.83-.11,1.38,.11,1.6,.95Z"
       id="path68" />
    <path
       class="cls-21"
       d="M277.08,486.06c.11,.65-.1,1.19-.7,1.46-.66,.29-1.23-.12-1.48-.63-1.12-2.22-3.08-3.56-5-4.95-.47-.34-1.08-.72-.57-1.38,.24-.3,.81-.49,1.22-.47,2.24,.08,6.39,3.92,6.54,5.98Z"
       id="path70" />
  </g>
</svg>
