<?xml version="1.0" encoding="UTF-8" standalone="no"?>
<svg
   id="Layer_9"
   viewBox="0 0 865 1388"
   version="1.1"
   sodipodi:docname="rosieOnboarding-08.svg"
   inkscape:version="1.2.1 (9c6d41e4, 2022-07-14)"
   xmlns:inkscape="http://www.inkscape.org/namespaces/inkscape"
   xmlns:sodipodi="http://sodipodi.sourceforge.net/DTD/sodipodi-0.dtd"
   xmlns="http://www.w3.org/2000/svg"
   xmlns:svg="http://www.w3.org/2000/svg">
  <sodipodi:namedview
     id="namedview87"
     pagecolor="#505050"
     bordercolor="#ffffff"
     borderopacity="1"
     inkscape:showpageshadow="0"
     inkscape:pageopacity="0"
     inkscape:pagecheckerboard="1"
     inkscape:deskcolor="#505050"
     showgrid="false"
     inkscape:zoom="0.44906037"
     inkscape:cx="315.1024"
     inkscape:cy="378.56825"
     inkscape:window-width="1309"
     inkscape:window-height="456"
     inkscape:window-x="0"
     inkscape:window-y="25"
     inkscape:window-maximized="0"
     inkscape:current-layer="Layer_9" />
  <defs
     id="defs4">
    <style
       id="style2">.cls-1{fill:#e9e9e9;}.cls-2{fill:#47bfd7;}.cls-3,.cls-4,.cls-5{font-family:ComicNeue-Regular, 'Comic Neue';}.cls-6{fill:#050e10;}.cls-7{font-size:36px;}.cls-8{fill:#040404;}.cls-9{letter-spacing:-.03em;}.cls-10{font-family:ComicNeue-BoldItalic, 'Comic Neue';}.cls-4{letter-spacing:-.06em;}.cls-11{letter-spacing:-.02em;}.cls-12{fill:#030303;}.cls-13{fill:#080808;}.cls-14{fill:#bdccd4;}.cls-15{fill:#070b0c;}.cls-16{fill:#e5ddda;}.cls-17{fill:#0b0b0b;}.cls-18{fill:#fa99af;}.cls-19{fill:#080707;}.cls-20{fill:#070707;}.cls-5{letter-spacing:-.02em;}</style>
  </defs>
  <g
     id="g58">
    <path
       class="cls-12"
       d="M624.22,404.99c2.06,3.43,4.09,6.8,6.13,10.21,2.99-1.52,6.08-3.09,9.17-4.65,4.43-2.23,8.84-1.07,11.28,3.28,.85,1.52,1.52,1.28,2.74,.86,6.91-2.38,11.19-.64,13.83,5.99,.73,1.84,1.84,1.22,2.82,1.23,8.67,.06,17.33,.04,26,.04,21.67,0,43.33,.08,65-.09,3.21-.02,3.86,.78,3.86,3.9-.08,195.56-.08,391.11-.08,586.67,0,36.73-.04,73.45,.08,110.18,.01,3.12-.66,3.9-3.86,3.9-101.71-.1-203.42-.08-305.13-.08-108.05,0-216.09-.02-324.14,.08-3.28,0-4.05-.8-4.05-4.06,.08-232.16,.08-464.33,0-696.49,0-3.2,.69-4.09,4.02-4.09,124.7,.1,249.4,.07,374.1,.15,3.13,0,3.95-.63,4.17-3.97,.81-12.15,.48-24.3,.57-36.45,.04-4.76,1.35-6.19,6.17-6.26,4.57-.07,9.14,.08,13.71,.15,1.49,.02,2.71,.15,2.75-2.11,.04-2.16,1.68-2.77,3.83-2.71,6.5,.17,13,.02,19.5,.22,2.43,.08,3.54-.31,4.02-3.08,1.85-10.59,7.01-19.59,14.38-27.29,2.67-2.79,6.05-4.77,9.58-6.31,6.7-2.92,13.5-5.73,20.77-6.8,10.84-1.6,20.27,2.05,27.63,9.81,6.78,7.15,12.58,15.45,13.6,25.53,1.35,13.37,1.05,26.64-12.03,35.37-3.45,2.3-6.59,5.06-10.43,6.87Zm-43.87,18.66c3.16-3.9,6.21-7.88,8.79-12.14-10.76-3.97-16.81-13.22-24.01-21.21,.57,9.98,1.8,19.76,.64,29.59-.24,2.06,.6,2.12,2.13,2.09,3.48-.07,6.96-.05,10.44,0,.6,0,1.97-.58,1.34,1.09-.25,.42-.49,.83-.74,1.25-1.57,2.52-3.33,4.94-4.67,7.58-1.84,3.61-3.85,5.63-8.61,5.44-12.26-.51-24.55-.08-36.83-.24-2.84-.04-3.87,.41-3.79,3.6,.28,11.31-.03,22.62,.44,33.94,.61,14.8-.68,29.59-.94,44.39-.73,40.57,.25,81.13,1.46,121.68,.36,12.24,1.84,24.45,2.53,36.69,.43,7.66,1.42,15.35,.26,23.04-.19,1.23-.28,2.67-1.84,2.57-1.67-.11-.91-1.65-.99-2.6-.66-8.03-1.31-16.06-1.92-24.09-.99-12.95-2.7-25.84-3.15-38.83-.61-17.68-1.42-35.36-1.83-53.05-.54-23.23-1.21-46.51,.05-69.7,1.35-24.94-.2-49.82,.2-74.73,.01-.81-.03-2.18-.43-2.34-2.62-1.06-5.45-.67-8.11-.33-1.56,.19-.74,2.26-.71,3.43,.42,21.89,1.15,43.79,1.28,65.68,.07,12.02-1.1,24.05-1.25,36.08-.44,35.88,.99,71.75,1.23,107.62,.1,15.52-.34,31.04,1.46,46.52,.43,3.69,.06,7.48,.06,11.54-1.73-.8-1.89-1.78-1.99-2.69-.97-9.21-2.4-18.4-2.74-27.63-1.23-33.32-2.13-66.65-3.08-99.98-.61-21.43-.17-42.84,.47-64.27,.72-23.82-.84-47.64-1.28-71.46q-.09-5-5.2-5c-117.24,0-234.48,.02-351.72-.09-3.53,0-4.24,.87-4.23,4.29,.1,168.95,.08,337.9,.08,506.84,0,.48,.07,.97-.01,1.44-.38,2.25,.49,2.82,2.75,2.66,24-1.68,48.09-1.18,72.1-2.78,14.4-.96,28.89-.49,43.29-1.46,16.9-1.14,33.75-2.87,50.71-3.25,9.11-.21,18.28,.14,27.3-1.64,1.37-.27,1.71,.78,2.09,1.52,.63,1.22,.21,2.4-1.04,3.04-2.05,1.05-4.24,1.57-6.56,1.67-14.67,.57-29.33,1.3-44,1.75-13.22,.41-26.25,2.92-39.55,2.77-12.25-.14-24.52,.45-36.78,1.09-22.34,1.17-44.72,1.47-67.09,.86-2.36-.06-3.56,.22-3.26,2.98,.26,2.38,.26,4.83,0,7.21-.31,2.93,.52,3.84,3.64,3.78,21.03-.41,42.06-.69,63.07-2.2,22.44-1.61,44.93-2.33,67.41-3.13,9.48-.34,19-.48,28.42-1.94,9.62-1.48,19.34-1.81,29.05-2.32,1.22-.06,2.58-.43,2.87,1.22,.31,1.78-.94,2.61-2.45,2.99-.68,.17-1.44,.07-2.16,.11-5.64,.27-11.36,.06-16.91,.89-15.84,2.37-31.78,2.93-47.75,3.57-9.37,.38-18.75,.54-28.12,.89-16.82,.62-33.56,2.64-50.41,2.57-2.52-.01-5.06,.05-7.57,.3-11.9,1.22-23.79-.33-35.69-.05-3.11,.07-3.39,.65-3.38,3.26,.06,43.83,.09,87.67-.05,131.5-.01,3.41,1.09,3.78,4.02,3.77,65.36-.08,130.72-.06,196.08-.06h3.58c-3.26-8.54-3.7-17.38-3.93-26.17-.47-18.4-.23-36.8,.17-55.21,.51-23.43,.67-46.87,2.47-70.25,.59-7.62,.66-15.37,2.53-22.83,2.51-10,5.11-20.01,8.34-29.8,4.71-14.3,13.12-26.2,24.84-35.77,6.59-5.37,14.15-9.06,21.66-12.77,9.76-4.82,17.49-1.91,22.53,7.64,6.56,12.42,2.64,28.34-5.51,37.35-7.13,7.89-15.74,14.14-23.52,21.3-1.6,1.47-3.2,2.99-3.91,5.09-3.31,9.86-4.77,20.04-4.22,30.39,.53,9.99,.45,19.97,.5,29.95,.05,9.98-.77,20.05,.91,29.89,1.97,11.52,3.08,23.36,9.03,33.82-.04,.02,.25-.04,.35-.22,7.47-12.95,17.02-24.42,25.95-36.32,.64-.85,1.36-1.58,1.34-2.83-.09-5.21,1.59-10.17,2.83-15.11,2.92-11.68,7.19-22.95,11.94-34.03,1.32-3.08,2.73-6.12,4.22-9.46-8.83,1.89-51.05,2.95-54.83,1.47,3.3-2.2,53.9-5.38,55.75-3.48,2.27-4.16,4.53-8.31,6.87-12.6-2.05,0-3.85-.09-5.63,.01-17.15,.97-34.34,1.5-51.38,3.87-1.11,.16-2.4,.6-2.68-.76-.23-1.1,.95-1.84,1.99-2.18,2.26-.75,4.5-1.78,6.82-2.05,15.98-1.9,32.02-3.11,48.1-3.69,3.8-.14,6.84-1.26,8.99-4.67,4.33-6.87,8.54-13.87,13.45-20.32,2.54-3.34,2.11-4.89-.64-7.61-9.64-9.53-17.31-20.44-21.7-33.43-3.68-10.88-5.76-22.07-6.78-33.49-.74-8.27-1.59-16.62,.13-24.78,5.08-24.04,13.77-46.7,29.98-65.46,12.3-14.23,26.54-26.85,44.07-34.25,27.8-11.73,56.61-14.08,86.02-6.22,11.62,3.11,22.41,8.51,33.76,12.2,10.96,3.57,19.52,9.77,26.72,18.37,11.29,13.5,18.67,29.17,25.02,45.41,4.78,12.23,6.26,24.74,4.15,37.76-1.95,12.04-3.89,24.12-9.08,35.21-12.52,26.72-26.96,52.17-50.98,70.62-.99,.76-1.05,1.15-.39,2.21,4.2,6.65,7.08,13.96,9.91,21.25,4.23,10.92,6.45,22.3,8.25,33.88,1.92,12.37,2.85,24.74,3.37,37.22,.69,16.48-1.31,32.94-.07,49.4,.94,12.61,1.3,25.22-.01,37.82-.32,3.09,.86,3.7,3.78,3.69,29.25-.11,58.5-.13,87.75,.01,3.17,.02,3.9-.72,3.9-3.9-.09-222.17-.09-444.35,.01-666.52,0-3.34-.98-3.81-3.98-3.81-50.56,.09-101.11,.07-151.67,.07h-4.22c1.42-2.6,3.07-4.63,3.69-6.95,1.85-6.85,5.75-9.15,12.94-8.45,8.34,.81,8.37,.2,5.71-7.76-.57-1.69-.93-2.46-3.16-1.7-4.47,1.53-9.17,1.76-13.76,.24-1.61-.53-2.31,.08-3.11,1.37-1.85,2.94-3.71,5.91-5.9,8.6-1.89,2.32-2.59,3.88,.68,5.6,2.05,1.08,3.33,2.97,2.61,5.7-.71,2.67-2.75,4.12-5,3.82-5.07-.67-8.3,.93-9.85,5.86-.24,.77-1.01,1.01-1.79,.77-.87-.27-.83-1.06-.9-1.78-.17-1.83,.88-3.21,1.76-4.61,2.52-4,5.9-7.6,5.67-12.81,.25-.48,.51-.95,.76-1.43Zm-19.98-45.79c.05-2.29-.75-3.28-3.32-3-2.96,.33-5.99,.08-9.5,.08,1.51,1.71,2.93,2.02,4.2,2.59,1.2,1,2.48,1.99,2.88,3.58,.33,1.3,.45,2.75-.95,3.54-1.59,.9-2.5-.18-3.04-1.48-.36-.88-1.01-1.25-1.74-1.68-3.64-2.1-7.6-3.4-11.54-4.77-.55-.19-1.33-.63-1.47,.16-.59,3.35-3.21,2.25-5.15,2.39-4.55,.34-9.1,.6-13.66,.69-1.79,.04-2.13,.62-2.11,2.31,.14,9.85,.09,19.7,.22,29.55,.09,7.06,.17,7,7.16,7.02,11.18,.02,22.32-.72,33.49-1.08,5.43-.17,5.44,.03,5.45-5.72,0-.72,0-1.44,0-2.16,0-7.09-.4-14.22,.16-21.27,.3-3.78,1.15-7.34-1.09-10.76Zm6.73,2.88c.55,4.02,2.18,7.84,5.1,10.33,5.81,4.95,11.88,9.62,18.31,13.79,1.89,1.23,2.56,.7,3.53-.85,3.23-5.18,6.61-10.27,9.8-15.48,1.71-2.78,3.76-5.27,5.82-7.76,.49-.6,1-1.59,2.02-.94,1.06,.68,.75,1.61,.2,2.51-.69,1.12-1.36,2.26-2.06,3.38-4.03,6.52-8.02,13.07-12.13,19.55-1.37,2.15-.98,2.93,1.55,3,2.67,.07,5.31-.02,7.79-1.09,12.47-5.38,23.28-12.9,30.74-24.53,2.12-3.31,4.26-6.87,3.59-11.04-1.39-8.67-3.85-16.85-9.55-23.96-8.18-10.2-18.25-15.74-31.38-13.2-8.9,1.72-17.15,5.64-23.27,12.6-8.26,9.39-13.75,19.87-10.07,33.02l-.45,.61,.44,.06Zm-132.95,625.53c10.88-13.34,22-25.45,31.25-39.1,3.55-5.24,6.75-10.83,11.96-14.74,1.04-.78,2.27-1.81,3.48-.46,.9,1.01,.58,2.3-.32,3.27-6.04,6.58-10.04,14.57-15.16,21.79-13,18.32-27.98,35.1-41.41,53.08-7.37,9.88-15.37,19.31-20.67,30.6-.91,1.94-2.86,2.28-4.6,1.16-2.95-1.9-5.65-4.19-6.93-7.59-2.59-6.89-5.27-13.69-6.54-21.07-1.76-10.19-3.43-20.32-3.12-30.7,.21-6.97,.14-13.95,.21-20.93,.14-13.92-1.17-27.89,1.36-41.72,1.77-9.7,4.92-18.53,13.51-24.72,7.11-5.12,13.94-10.76,19.63-17.48,7.41-8.75,9.35-20.76,3.04-30.92-2.69-4.33-5.64-5.49-10.67-4.34-9.52,2.18-17.3,7.86-24.57,13.71-13.64,10.97-21.34,25.76-25.89,42.71-4.27,15.91-6.77,31.93-7.81,48.31-.34,5.4-.37,10.8-.68,16.2-.56,9.83-1.11,19.68-.95,29.51,.09,5.76,.59,11.55,.23,17.31-1.28,20.69-.47,41.37,.3,62.05,.19,5.23,1.08,10.45,2.4,15.57,.66,2.56,1.72,3.55,4.57,3.53,30.21-.12,60.42-.35,90.62,.12,7.17,.11,11.72-2.2,16.01-7.58,10.29-12.9,18.14-27.33,26.96-41.16,16.55-25.95,29.19-53.79,39.71-82.64,.4-1.09,.45-2.78,2.01-2.43,1.45,.32,1.05,1.97,1.02,3.12-.03,.94-.18,1.91-.46,2.81-1.25,3.97-2.48,7.95-3.86,11.88-5.81,16.51-11.49,33.1-20.26,48.35-13.13,22.82-25.32,46.23-41.77,67.45h2.65c58.25,0,116.5,0,174.75,0,.48,0,.97-.05,1.44,0,1.47,.19,1.82-.53,1.81-1.88-.11-9.01,1.04-17.99,.51-27.03-.7-11.88-1.17-23.76-.53-35.7,1.4-26.04,1.09-51.97-4.36-77.7-2.68-12.65-8.18-24.17-12.38-36.2-1.03-2.94-2.39-3.43-5.43-1.56-12.52,7.71-26.37,11.98-40.85,13.77-11.82,1.47-23.78,1.68-35.62,.02-12.2-1.71-24.34-3.88-35.72-9-11.76-5.29-21.84-13-30.93-21.99-2.64-2.62-3.91-1.88-5.49,.81-2.84,4.84-5.59,9.75-8.8,14.34-14.1,20.13-23.82,42.3-30.97,65.69-1.06,3.48-2.32,6.93-2.66,11.46Zm23.64-218.25c7.65,1.43,16.95,11.62,17.51,19.04,0,.12,0,.24,0,.36-.03,1.42-.4,2.8-1.98,2.98-1.35,.16-2.62-.39-2.98-1.99-.85-3.7-3.16-6.68-4.95-9.91-1.18-2.13-2.97-3.71-5.31-4.63-3.61-1.41-4.34-1-5.73,2.59-6.71,17.36-6.13,35.21-3.3,53.11,3.01,18.99,10.69,35.72,24.41,49.6,12.28,12.42,24.53,24.89,41.1,31.46,20.84,8.26,42.54,10.59,64.82,8.04,20.64-2.36,39.41-9.58,54.1-24.24,25.57-25.51,44.84-55.01,51.29-91.37,1.72-9.67,1.95-19.59-.92-29.27-5-16.85-12.41-32.57-22.43-46.98-6.15-8.85-13.4-16.52-24.07-20.17-4.94-1.69-9.63-4.06-14.48-6.01-22.84-9.18-46.29-14.35-71.05-10.41-13.14,2.09-26.2,4.65-38.08,10.99-10.01,5.34-18.5,12.81-27.11,20.13-14.76,12.54-24.02,28.59-30.86,46.67Zm160.96-365.77c2.69-1.64,6.11-2.55,7.07-4.61,1.08-2.33-2.16-4.66-3.22-7.14-.23-.55-.45-1.13-.81-1.6-.62-.83-1.09-2.75-2.49-1.3-1.31,1.36-4.96,.66-3.9,4.14,1.03,3.4,2.15,6.78,3.34,10.51Zm13.43-2.15c5.23-.9,9.42-1.6,13.6-2.34,.75-.13,1.96,.22,2.02-.93,.04-.88-.45-1.74-1.47-2.22-1.25-.58-2.62-1.1-3.79-.47-3.19,1.71-6.62,3.03-10.36,5.97Zm31.25,1.87c-4.33-4.28-7.27-4.7-10.83-2.05-.49,.36-1.02,.75-.92,1.42,.12,.84,.89,.62,1.43,.63,3.2,.02,6.4,.01,10.33,.01Zm-82.44,11.29c1.89,.18,4.05,.82,4.98-.97,.61-1.18-1.43-2.51-2.3-2.54-1.98-.07-1.93,2.08-2.67,3.51Z"
       id="path6" />
    <path
       class="cls-13"
       d="M551.7,325.83c-16.91-5.25-27.4-16.22-33-32.02-1.08-3.05-2.28-4.15-5.69-4.12-96.16,.97-192.32,1.82-288.48,2.63-26.96,.23-53.92,.24-80.88,.34-5.66,.02-11.31-.29-16.9-1.23-17.1-2.87-24.77-10.39-28.43-27.52-2.35-11-3.06-22.17-3.36-33.35-.52-19.74-.72-39.49,1.93-59.13,.97-7.16,2.52-14.17,4.93-21.01,6.37-18.06,19.92-27.29,37.9-31.17,18.48-3.99,37.26-4.27,56.03-4.28,126.51-.05,253.02-.06,379.53,.08,31.41,.04,62.83,.47,94.17,2.83,19.54,1.47,39,3.52,57.79,9.77,21.43,7.12,33.41,21.95,36.14,44.07,3.14,25.41,3.65,50.89,.13,76.33-.71,5.12-2.11,10.1-3.88,14.97-6.49,17.92-20.09,26.16-38.29,28.17-5.27,.58-10.56,.75-15.86,.74-50.44-.02-100.87,.02-151.31-.09-2.98,0-4.09,.75-4.64,3.72-1.85,10.09-2.5,20.03,2.15,30.27Zm-7.31-7.7c-1.13-9.56-.45-18.24,1.67-26.86,.73-3,2.06-3.79,5.08-3.78,51.28,.1,102.55,.06,153.83,.09,5.42,0,10.82-.17,16.22-.74,17.91-1.91,30.23-10.74,35.44-28.46,1.09-3.69,2.09-7.4,2.61-11.22,3.43-25.09,2.89-50.2-.22-75.25-2.59-20.83-14.26-34.2-34.35-40.55-17.93-5.67-36.42-7.69-55-9.1-29.78-2.25-59.63-2.78-89.47-2.82-128.31-.17-256.63-.16-384.94-.09-18.4,0-36.83,.29-54.95,4.23-16.81,3.65-29.18,12.5-34.75,29.44-1.54,4.69-2.78,9.45-3.57,14.32-3.51,21.63-3.24,43.41-2.54,65.2,.37,11.43,1.09,22.83,4.01,33.98,3.1,11.83,10.42,18.76,22.74,20.47,8.38,1.17,16.78,1.42,25.2,1.35,92.31-.72,184.62-1.46,276.93-2.2,29.49-.24,58.97-.43,88.46-.81,2.98-.04,4.14,.82,4.85,3.64,1.3,5.14,3.57,9.94,6.49,14.38,4,6.1,9.02,11.1,16.27,14.79Z"
       id="path8" />
    <path
       class="cls-18"
       d="M567.11,380.08c-3.68-13.15,1.81-23.63,10.07-33.02,6.12-6.96,14.37-10.88,23.27-12.6,13.13-2.54,23.2,3.01,31.38,13.2,5.7,7.11,8.17,15.29,9.55,23.96,.67,4.16-1.47,7.73-3.59,11.04-7.46,11.63-18.27,19.15-30.74,24.53-2.47,1.07-5.11,1.16-7.79,1.09-2.53-.06-2.91-.84-1.55-3,4.11-6.47,8.1-13.02,12.13-19.55,.69-1.12,1.36-2.26,2.06-3.38,.55-.89,.87-1.83-.2-2.51-1.02-.65-1.53,.34-2.02,.94-2.07,2.49-4.12,4.98-5.82,7.76-3.19,5.21-6.57,10.29-9.8,15.48-.97,1.55-1.64,2.08-3.53,.85-6.43-4.18-12.51-8.85-18.31-13.79-2.92-2.49-4.55-6.31-5.1-10.33l-.04,.06c-.05-.26,1-.55-.03-.78l.08,.05Zm23.34,15.16c6.44-.02,12.21-6.88,11.2-12.52-.62-3.45-3.51-6.81-6.23-7.05-3.87-.35-4.98,2.51-6.13,5.37-.61,1.53-1.24,3.06-2.5,4.27-1.94,1.87-3.75,4.02-2.42,6.91,1.29,2.8,4.1,2.89,6.08,3.02Zm3.05-43.51c-.8-.01-2.25,.26-2.8,1.88-.35,1.02,0,2.81,1.12,2.25,3.35-1.7,5.12,.73,7.3,2.16,.94,.62,1.83,1.39,2.82,.29,1.02-1.13,.54-2.36-.43-3.16-2.12-1.74-4.32-3.43-8-3.42Zm3.2,16.47c0-3.02-1.68-4.87-3.63-4.72-1.25,.09-1.95,.84-2.01,2.06-.09,1.68,2.6,5.91,3.57,5.6,1.72-.57,2.05-2.1,2.07-2.93Zm-18.6-13.31c-.56-1.69-1.71-1.94-3.07-1.15-1.39,.81-2.27,2.14-2.85,3.61-.57,1.43-1.57,3.37,.1,4.24,2.02,1.04,1.87-1.56,2.48-2.53,.95-1.52,2.82-2.28,3.34-4.17Zm-5.99,15.85c.03,2-.17,4.61,2.39,4.71,1.78,.07,1.97-2.29,1.95-3.99-.01-1.77,.32-3.72-2.49-3.72-2.4,0-1.73,1.69-1.86,3Z"
       id="path10" />
    <path
       class="cls-14"
       d="M560.37,377.87c2.24,3.41,1.39,6.97,1.09,10.76-.56,7.05-.16,14.17-.16,21.27,0,.72,0,1.44,0,2.16,0,5.76-.01,5.55-5.45,5.72-11.16,.35-22.31,1.1-33.49,1.08-6.99-.02-7.07,.04-7.16-7.02-.13-9.85-.08-19.7-.22-29.55-.02-1.69,.32-2.28,2.11-2.31,4.56-.09,9.11-.35,13.66-.69,1.94-.14,4.56,.96,5.15-2.39,.14-.79,.92-.35,1.47-.16,3.94,1.37,7.9,2.66,11.54,4.77,.73,.42,1.38,.79,1.74,1.68,.53,1.3,1.45,2.38,3.04,1.48,1.4-.79,1.28-2.24,.95-3.54-.4-1.59-1.68-2.58-2.88-3.58,2.9-.5,5.78-.88,8.61,.33Z"
       id="path12" />
    <path
       class="cls-16"
       d="M560.37,377.87c-2.83-1.21-5.72-.83-8.61-.33-1.28-.58-2.69-.89-4.2-2.6,3.51,0,6.54,.25,9.5-.08,2.57-.28,3.37,.71,3.32,3Z"
       id="path14" />
    <path
       class="cls-16"
       d="M580.99,433.25c.74-1.43,.69-3.58,2.67-3.51,.87,.03,2.92,1.35,2.3,2.54-.93,1.79-3.08,1.15-4.98,.97Z"
       id="path16" />
    <path
       class="cls-2"
       d="M567.1,380.75l-.44-.06c.15-.2,.3-.41,.45-.61l-.08-.05,.03,.78,.04-.06Z"
       id="path18" />
    <path
       class="cls-19"
       d="M315.05,681.31c4.35-4.07,7.29-8.25,9.86-12.67,6.5-11.18,14.1-21.4,24.52-29.29,5.44-4.12,11.63-6.57,18.12-8.37,1.46-.4,3.08-.41,3.67,1.29,.59,1.72-.53,2.72-2.15,3.08-19.54,4.36-30.53,18.7-40.32,34.47-3.6,5.81-7.09,11.73-12.69,15.93-1.03,.77-1.03,1.75-1.05,2.85-.22,10.23-.41,20.46-.73,30.69-.41,13.46-2.23,26.77-6.08,39.67-4.93,16.51-15.45,28.73-30.33,37.27-1.01,.58-2.01,1.17-2.9,2.24,4.42-.53,8.84-1.01,13.25-1.59,9.62-1.28,19.16-3,28.6-5.33,13.92-3.44,24.94-11.09,33.91-22.19,6.33-7.83,12.69-15.73,21.42-21.19,5.74-3.59,11.92-5.94,18.55-7.39,4.53-.99,8.93-2.57,13.33-4.07,1.65-.57,3.3-.99,4,.8,.78,2.01-.87,3.04-2.56,3.63-6.08,2.12-12.28,3.91-17.84,7.31-13.29,8.14-21.61,20.45-28.58,33.92-8.69,16.81-13.91,34.9-19.49,52.86-2.37,7.62-5.3,15.02-8.66,22.28-9.5,20.56-26.2,32.17-47.26,38.35-4.65,1.37-9.34,3.1-14.38,2.35-1.45-.22-1.19,.78-1.1,1.59,.86,8.18-.35,16.35-.13,24.53,.14,5.09-2.16,6.66-7.06,5.21-.97-.29-1.88-.34-2.82-.27-16.83,1.27-33.68,.4-50.52,.57-3.9,.04-7.8-.9-11.6-2.04-2.01-.61-2.97-1.83-3.06-3.89-.84-19.83,.2-39.67,.03-59.5-.05-5.81,.9-6.83,6.85-6.63,21,.7,41.99,2.12,63.02,.96,3.21-.18,5.17,1.85,5.18,5.06,.02,5.05,.17,10.14-.32,15.15-.47,4.74,.5,9.37,.28,14.05-.1,2.06,1.27,1.62,2.38,1.54,6.18-.45,12.06-2.3,17.7-4.62,16.06-6.59,29.59-16.23,37.66-32.28,5.25-10.44,9.07-21.39,12.37-32.56,6.4-21.59,13.88-42.72,26.93-61.38,2.17-3.11,4.68-5.98,7.48-9.52-2.86,.6-4.24,2.2-5.71,3.57-5.37,5.02-10.16,10.59-14.74,16.32-10.41,13.04-24.16,19.89-40.3,22.94-12.38,2.33-24.8,4.19-37.36,5.05-1.9,.13-2.89,.71-2.77,2.79,.19,3.47-.27,6.94,.48,10.42,.73,3.35,.41,7.06-.93,9.9-1.71,3.65-5.86,5.4-9.79,5.66-19.92,1.3-39.88,1.69-59.84,1.82-10.04,.07-13.89-3.22-13.48-13.32,.65-15.98-.07-31.98,1.11-47.94,.08-1.07-.09-2.17,0-3.24,.19-2.6,1.35-4.04,4.22-4.34,22.14-2.29,44.31-3.98,66.6-3.67,11.22,.16,10.9,.78,11.42,11.91,.31,6.68,.21,13.38,.24,20.07,0,1.81,.28,2.44,2.2,1.31,15.41-9.05,26.54-21.5,30.97-39.16,3.45-13.74,5.31-27.71,5.13-41.92-.09-7.32-.02-14.64-.02-21.97-7.49,4.63-15.93,8.39-24.93,10.77-6.48,1.72-12.99,3.56-19.8,2.06-1.51-.33-1.54,.44-1.55,1.52-.04,6.45-1.11,12.85-.8,19.34,.27,5.69-1.6,7.08-7.21,7.94-19.61,3.01-39.34,2.02-59.03,1.98-6.95-.02-7.98-1.26-8.03-8.36-.1-16.48,2.15-32.86,2.1-49.34,0-1.69,.05-3.37,.05-5.06,0-6.48,2.33-8.69,8.95-8.67,10.47,.04,20.94,.16,31.4-.44,9.87-.57,19.71,1.16,29.57,.35,1.94-.16,1.92,1.19,1.96,2.25,.34,10.57,1.9,21.11,1.3,31.69-.17,2.94,.73,3.57,3.14,3.59,7.32,.05,14.23-1.96,21.11-4.14,7.11-2.25,13.84-5.33,20.17-9.31,1.57-.99,2.36-1.96,2.37-3.96,.17-28.47,5.06-56.31,11.71-83.88,3.14-13,5.81-26.13,10.61-38.69,5.33-13.98,14.3-25,27.46-34.2-34.66,.99-68.32,.11-102.32-.58,2.89,10.53-.11,20.62-.31,30.76-.09,4.33-4.51,7.44-10.22,7.56-4.93,.11-9.87,.14-14.8-.04-10.74-.39-21.2,1.77-31.74,3.22-2.6,.36-5.18,.83-7.78,1.15-4.82,.58-6.77-1.42-8.13-8.67-.7-3.74-.68-7.68-.78-11.49-.39-15.24-1.27-30.53,1.34-45.67,.53-3.09,2.3-5.3,5.86-5.78,12.54-1.71,25.19-1.73,37.77-2.73,7.43-.59,14.88-1.05,22.32-1.51,3.86-.24,4.71,.89,4.86,4.75,.31,8.23,.93,16.45,1.3,24.67,.07,1.65,.64,1.84,2.11,1.76,32.47-1.78,64.97,.19,97.46-.84,7.43-.24,14.4-1.67,21.49-3.08,3-.59,5.99-.35,8.98-.58,1.72-.14,3.29,.37,3.37,2.3,.08,1.89-1.39,2.74-3.13,2.76-3.85,.07-7.71,.25-11.45,1.15-19.04,4.6-30.85,17.39-38.59,34.57-5.82,12.9-8.21,26.83-11.5,40.47-3.83,15.9-7.14,31.93-9.3,48.15-1.43,10.72-1.62,21.56-2.28,33.19Zm-120.16,124.05c-.13,2.4-.31,4.8-.37,7.21-.09,3.25-.24,6.51-.05,9.74,.11,2.02,.63,3.52,3.63,3.54,8.39,.04,16.8-.05,25.17,.2,12.35,.37,24.38-2.37,36.64-2.44,3.23-.02,5-1.45,4.82-5.09-.8-15.77,.75-31.49,1.21-47.23,.1-3.23-1.27-4.27-3.94-4.61-1.07-.14-2.16-.1-3.24-.12-15.88-.31-31.67,1.89-47.57,1.74-4.61-.04-9.35,.2-14.01,.77-2.94,.36-4.64,1.33-4.17,4.97,1.35,10.38,1.35,20.87,1.89,31.32Zm30.43,60.73c-5.93,.43-14.95-.13-23.93,.91-2.22,.26-2.09,1.54-2.08,2.97,.06,6.49-.13,12.98-.56,19.46-.71,10.59,1.2,21.1,1.12,31.67,0,1.07,.27,1.47,1.34,1.61,6.79,.87,13.62,2.02,20.43,1.19,11.56-1.41,23.12-2.75,34.77-2.57,3.35,.05,4.06-1.12,3.95-4.04-.46-12.74,.35-25.46,.72-38.19,.09-3.24,.42-6.48,.32-9.71-.03-1.04,.25-3-1.7-3.01-2.77,0-5.41-1-8.24-.66-7.67,.91-15.37,.55-26.13,.37Zm26.15-333.72c.7-10.36-.9-20.61-1.43-30.9-.12-2.27-1.17-2.43-2.99-2.32-10.3,.59-20.61,1.15-30.92,1.61-7.32,.32-14.65,.51-21.98,.64-2.78,.05-4.33,.68-4.18,4.01,.18,4.06-.42,8.16-.4,12.24,.06,12.49,.27,24.98,1.95,37.37,.22,1.63,.54,3.71,3.16,3.46,2.97-.28,6.02-.19,8.92-.78,13.5-2.74,27.11-3.22,40.81-2.32,3.47,.23,5.95-1.74,6.56-5.04,1.1-5.97,.19-11.99,.49-17.97Zm-31.15,136.7v-.79c-6.97,0-13.95,.13-20.92-.07-2.23-.06-2.45,.82-2.12,2.47,.75,3.68,.64,7.41,.74,11.13,.33,13.59-.6,27.15-.8,40.73-.05,3.06,.71,4.02,3.7,3.65,4.87-.61,9.77-1.16,14.67-1.43,11.89-.66,23.78-.43,35.59,1.3,1.85,.27,2.77-.46,3.08-2.1,.57-3.06,1.15-6.12,1.51-9.21,.62-5.37-.19-10.74-.21-16.1-.03-7.92,.67-15.83,.91-23.76,.17-5.69,.06-5.76-5.87-5.79-10.09-.06-20.18-.02-30.27-.02Z"
       id="path20" />
    <path
       class="cls-20"
       d="M440.15,561.21c-9.27,.42-18.51-.11-27.73-.94-2.16-.19-4.26,.18-6.45-.1-8.7-1.1-9.48-3.58-9.94-11.51-.2-3.33,.38-6.7,.61-10.06,.75-11.27,1.8-22.58,1.77-33.81-.03-8.93,5.99-13.66,9.82-19.89,5.79-9.42,13.45-17.53,20.08-26.36,3.63-4.83,8.47-4.59,12.03,.71,6.48,9.64,12.08,19.79,16.92,30.35,2.11,4.61,4.16,9.15,4.53,14.36,.2,2.85-.92,5.36-.97,8.14-.28,13.12,1.37,26.16,1.48,39.26,.06,7.05-1.87,9.09-8.8,9.29-2.28,.07-4.57,.11-6.85,.2-2.16,.09-4.32,.23-6.49,.35Zm.39-6.31c4.04,0,8.46,0,12.88,0,2.18,0,2.5-1.44,2.43-3.18-.15-3.84-.39-7.68-.42-11.51-.1-10.33-1.59-20.63-.69-30.98,.27-3.15-1.07-4.25-4.35-4.22-14.78,.16-29.56,.15-44.34-.02-2.72-.03-3.02,.9-3,3.24,.06,8.66,.24,17.32-.49,25.97-.43,5.15-.39,10.33-.47,15.5-.04,2.5,.08,4.61,3.75,4.68,3.07,.05,6.21-.41,9.28,.46,1.57,.44,1.42-.44,1.41-1.78-.07-7.07-.02-14.16,1.03-21.18,.27-1.83,1.2-2.68,3.01-2.98,4.96-.83,9.91-1.55,14.97-1.49,2.98,.03,4.83,1.62,4.92,4.19,.27,7.75,.1,15.52,.1,23.31Zm13.9-55.74c0-.41,.1-.8-.01-1.11-4.54-12.5-10.86-24.08-18.02-35.23-1.19-1.86-2.29-1.51-3.58,.15-5.14,6.65-10.42,13.18-15.58,19.82-4.3,5.54-8.5,11.17-13.16,17.33,17.22-1.74,33.77-.37,50.36-.95Zm-17.46,56.45c-2.37-2.78-2.31-5.63-2.23-8.52,.12-4.2,.06-8.41,.22-12.61,.06-1.61-.45-2.18-2.01-1.97-3.07,.41-6.14,.86-9.22,1.14-1.83,.17-2.24,1.03-2.32,2.77-.23,5.54,.17,11.05,.33,16.57,.04,1.49,.45,1.91,1.96,2.19,4.2,.79,8.39,.07,13.26,.42Z"
       id="path22" />
    <path
       class="cls-8"
       d="M442.43,700.81c6.42-.18,7.42,.82,7.6,7.34,.08,2.86,.36,5.71,.45,8.56,.04,1.22,.93,1.54,1.7,2.08,8.88,6.18,11.8,14.48,8.83,25.8-2.06,7.88-5.44,14.57-12.5,18.94-1.27,.79-1.37,1.71-1.39,2.98-.06,3.71,.47,7.45-.69,11.1-.99,3.13-2.46,5.11-6.33,4.95-4.28-.18-8.62,.35-12.9,.8-3.29,.34-4.46-1.65-5.27-4.19-.21-.67-.15-1.43-.16-2.15-.15-6.65-1.41-12.23-6.79-17.49-6.2-6.06-6.64-14.82-4.25-23.25,1.8-6.35,4.03-12.51,8.87-17.38,1.93-1.94,.97-4.8,1.41-7.2,1.52-8.4,1.33-8.34,10-9.46,3.8-.49,7.55-1.39,11.41-1.44Zm-27.25,42.28c-.38,10.43,4.44,17.08,12.39,18.53,12.95,2.36,23.47-4.42,26.76-17.36,1.17-4.62,2.78-9.34,.75-14.06-3.09-7.22-10.96-7.95-16.58-11.74-.6-.4-1.65-.35-2.44-.21-6.4,1.13-12.36,3.16-15.78,9.26-2.94,5.25-5.1,10.8-5.1,15.59Z"
       id="path24" />
    <path
       class="cls-20"
       d="M391.13,648.11c.58-9.47,1.11-18.95,1.74-28.42,.36-5.35-.77-10.63-.01-16.06,1.25-9.01,3.87-11.69,12.75-12.71,10.39-1.19,20.8-1.62,31.2-1.55,9.17,.06,12.76,1.04,14.76,11.22,1.1,5.6,.46,11.24,1.04,16.86,.82,7.87,1.93,15.77,1.6,23.71-.21,5.16-.83,10.33-.43,15.49,.37,4.8,.27,9.56-.05,14.35-.33,4.9-2.81,7.84-7.65,7.46-11.31-.88-22.53,.62-33.79,.79-5.59,.09-10.88-1.07-15.96-3.32-2.55-1.13-4.01-3.06-3.97-5.89,.1-7.34-1.57-14.58-1.23-21.94Zm4.66,3.31c-.73,4.79,1.53,11.24,1.5,17.85,0,1.98,1.63,2.31,2.9,2.64,4.06,1.06,8.13,1.87,12.41,1.76,10.44-.25,20.83-1.77,31.32-.71,4.68,.47,5.48-.54,5.4-5.31-.24-14.19,.78-28.41-.77-42.55-.7-6.42-.4-12.94-2.19-19.27-.84-2.98-2.23-6.05-.83-9.34,.39-.92-.5-1.56-1.36-1.77-1.39-.34-2.8-.73-4.22-.78-11.9-.41-23.77,.26-35.6,1.52-1.86,.2-3.15,1.08-4,3.06-1.77,4.14-2.82,8.59-2.82,12.84-.01,12.76-1.52,25.44-1.75,40.06Z"
       id="path26" />
    <path
       class="cls-20"
       d="M520.15,743.13c-.06,.29-.04,.97-.35,1.43-2.77,4.13-5.35,8.52-9.86,11.03-3.06,1.7-5.2,.14-4.89-3.35,.56-6.21,4.48-10.15,9.45-13.09,2.66-1.58,5.71,.6,5.65,3.99Z"
       id="path28" />
    <path
       class="cls-15"
       d="M590.45,395.24c-1.97-.13-4.79-.21-6.08-3.02-1.33-2.89,.48-5.04,2.42-6.91,1.26-1.22,1.89-2.75,2.5-4.27,1.15-2.87,2.26-5.72,6.13-5.37,2.72,.24,5.62,3.6,6.23,7.05,1.01,5.64-4.76,12.5-11.2,12.52Zm1.06-3.59c4.88,.1,7.67-6.06,5.16-11.3-.38-.79-.73-1.55-1.66-1.68-1.31-.18-1.59,1.03-1.83,1.82-.79,2.52-1.75,4.91-3.6,6.88-.77,.82-2.19,1.65-1.5,2.94,.62,1.16,2.11,1.33,3.44,1.35Z"
       id="path30" />
    <path
       class="cls-6"
       d="M593.5,351.73c3.68-.01,5.88,1.68,8,3.42,.96,.79,1.45,2.02,.43,3.16-.99,1.09-1.88,.32-2.82-.29-2.18-1.43-3.95-3.86-7.3-2.16-1.11,.56-1.47-1.23-1.12-2.25,.56-1.61,2-1.89,2.8-1.88Z"
       id="path32" />
    <path
       class="cls-15"
       d="M596.7,368.2c-.02,.84-.35,2.36-2.07,2.93-.96,.32-3.66-3.92-3.57-5.6,.07-1.21,.76-1.96,2.01-2.06,1.95-.14,3.63,1.7,3.63,4.72Z"
       id="path34" />
    <path
       class="cls-6"
       d="M578.1,354.89c-.53,1.89-2.39,2.65-3.34,4.17-.61,.98-.46,3.58-2.48,2.53-1.67-.86-.67-2.8-.1-4.24,.59-1.47,1.46-2.81,2.85-3.61,1.37-.79,2.51-.55,3.07,1.15Z"
       id="path36" />
    <path
       class="cls-12"
       d="M572.12,370.74c.13-1.3-.54-2.99,1.86-2.99,2.81,0,2.47,1.95,2.49,3.72,.01,1.7-.18,4.06-1.95,3.99-2.56-.1-2.36-2.71-2.39-4.72Z"
       id="path38" />
    <path
       class="cls-12"
       d="M567.06,380.81l-.03-.78c1.03,.23-.02,.52,.03,.78Z"
       id="path40" />
    <path
       class="cls-14"
       d="M194.89,805.36c-.54-10.45-.54-20.94-1.89-31.32-.47-3.64,1.22-4.61,4.17-4.97,4.65-.56,9.4-.81,14.01-.77,15.9,.15,31.69-2.05,47.57-1.74,1.08,.02,2.18-.02,3.24,.12,2.67,.35,4.03,1.38,3.94,4.61-.47,15.74-2.02,31.46-1.21,47.23,.19,3.64-1.59,5.07-4.82,5.09-12.25,.06-24.29,2.81-36.64,2.44-8.36-.25-16.78-.15-25.17-.2-2.99-.02-3.51-1.52-3.63-3.54-.18-3.24-.03-6.5,.05-9.74,.06-2.4,.25-4.81,.37-7.21Z"
       id="path42" />
    <path
       class="cls-14"
       d="M225.32,866.09c10.76,.18,18.46,.54,26.13-.37,2.82-.33,5.47,.66,8.24,.66,1.95,0,1.67,1.96,1.7,3.01,.1,3.23-.23,6.47-.32,9.71-.37,12.73-1.18,25.45-.72,38.19,.11,2.92-.6,4.09-3.95,4.04-11.65-.18-23.21,1.16-34.77,2.57-6.81,.83-13.64-.31-20.43-1.19-1.06-.14-1.34-.53-1.34-1.61,.08-10.57-1.82-21.08-1.12-31.67,.43-6.48,.62-12.96,.56-19.46-.01-1.43-.14-2.71,2.08-2.97,8.98-1.04,18-.48,23.93-.91Z"
       id="path44" />
    <path
       class="cls-14"
       d="M251.47,532.37c-.29,5.98,.61,12-.49,17.97-.61,3.31-3.09,5.27-6.56,5.04-13.7-.9-27.31-.42-40.81,2.32-2.91,.59-5.95,.5-8.92,.78-2.62,.25-2.94-1.83-3.16-3.46-1.67-12.4-1.89-24.89-1.95-37.37-.02-4.08,.58-8.17,.4-12.24-.15-3.33,1.4-3.96,4.18-4.01,7.33-.13,14.65-.32,21.98-.64,10.31-.45,20.61-1.02,30.92-1.61,1.82-.1,2.87,.05,2.99,2.32,.53,10.3,2.13,20.54,1.43,30.9Z"
       id="path46" />
    <path
       class="cls-14"
       d="M220.33,669.07c10.09,0,20.18-.04,30.27,.02,5.94,.03,6.04,.1,5.87,5.79-.24,7.92-.94,15.84-.91,23.76,.02,5.36,.83,10.73,.21,16.1-.35,3.09-.94,6.15-1.51,9.21-.3,1.65-1.22,2.37-3.08,2.1-11.81-1.72-23.69-1.96-35.59-1.3-4.9,.27-9.8,.82-14.67,1.43-3,.37-3.75-.59-3.7-3.65,.2-13.58,1.14-27.14,.8-40.73-.09-3.72,.02-7.45-.74-11.13-.34-1.65-.11-2.53,2.12-2.47,6.97,.2,13.95,.07,20.92,.07v.79Z"
       id="path48" />
    <path
       class="cls-17"
       d="M437.79,740.35c1.88-1.11,3.22-2.07,4.69-2.73,1.84-.83,3.68-.58,4.62,1.37,.9,1.87-.11,3.08-1.88,3.99-2.01,1.03-3.81,2.47-5.82,3.49-3.29,1.66-4.93,.92-5.92-2.43-1.51-5.14,.26-10.25,.19-15.37-.01-.76,.5-1.59,1.58-1.65,1.38-.08,2.08,.88,2.28,1.88,.3,1.51,.22,3.1,.25,4.66,.03,2.11,0,4.22,0,6.8Z"
       id="path50" />
    <path
       class="cls-20"
       d="M440.96,616.73c-.72,3.59,0,6.43,.65,8.95,1.41,5.46,1.16,10.93,1.34,16.4,.16,5.03-2.09,6.87-7.14,6.23-2.26-.29-4.48-.19-6.77,.22-6.97,1.27-13.99,1.75-21.03,.31-2.86-.59-4.3-2.08-4.21-5.21,.35-11.52,.45-23.04,.82-34.55,.19-5.8,1.44-6.98,7.29-6.36,7.26,.78,14.33,.16,21.39-1.47,3.97-.92,4.99,.07,5.99,4.28,.95,3.97,1.57,7.93,1.66,11.2Zm-31.01-9.46c-.1,.32-.27,.65-.31,1-1.13,11.37-.33,22.8-.85,34.18-.08,1.76,.73,2.4,2.19,2.56,1.43,.16,2.88,.09,4.31,.21,7.33,.63,14.45-2.54,21.83-1.15,1.43,.27,2.2-.42,2.16-2.03-.13-4.66,.13-9.31-.98-13.94-.83-3.47-1.39-7.04-1.2-10.65,.18-3.51-.52-6.88-1.31-10.27-.38-1.63-.72-1.77-2.3-1.37-7.72,1.95-15.58,2.35-23.54,1.45Z"
       id="path52" />
    <path
       class="cls-20"
       d="M415.43,659.57c-.32-1.44,.14-2.83,.76-4.1,1.18-2.44,2.19-5.31,5.85-4.53,3.22,.68,5.4,4.21,4.89,7.72-.54,3.71-4.8,7.51-7.65,6.65-2.7-.81-4.2-2.68-3.84-5.73Zm7.96-1.87c-.15-1.34-.67-2.43-2.11-2.42-2.02,0-2.41,1.67-2.62,3.19-.15,1.1-.12,2.73,1.43,2.57,1.73-.19,2.7-1.73,3.3-3.33Z"
       id="path54" />
    <path
       class="cls-1"
       d="M423.39,657.7c-.6,1.6-1.57,3.14-3.3,3.33-1.55,.17-1.58-1.47-1.43-2.57,.21-1.52,.61-3.18,2.62-3.19,1.44,0,1.96,1.08,2.11,2.42Z"
       id="path56" />
  </g>
  <text
     class="cls-7"
     transform="translate(184.87,200.28)"
     id="text84" />
</svg>
