<?xml version="1.0" encoding="UTF-8" standalone="no"?>
<!-- Created with Inkscape (http://www.inkscape.org/) -->

<svg
   width="1024"
   height="1024"
   id="svg2"
   version="1.1"
   inkscape:version="1.2.1 (9c6d41e4, 2022-07-14)"
   sodipodi:docname="Rosie-ios-icon.svg"
   inkscape:export-filename="/Users/dpotter/PDM/rosie/ios/Rosie-ios-icon-1024x1024@1x.png"
   inkscape:export-xdpi="96"
   inkscape:export-ydpi="96"
   xmlns:inkscape="http://www.inkscape.org/namespaces/inkscape"
   xmlns:sodipodi="http://sodipodi.sourceforge.net/DTD/sodipodi-0.dtd"
   xmlns="http://www.w3.org/2000/svg"
   xmlns:svg="http://www.w3.org/2000/svg"
   xmlns:rdf="http://www.w3.org/1999/02/22-rdf-syntax-ns#"
   xmlns:cc="http://creativecommons.org/ns#"
   xmlns:dc="http://purl.org/dc/elements/1.1/">
  <defs
     id="defs4" />
  <sodipodi:namedview
     id="base"
     pagecolor="#ffffff"
     bordercolor="#666666"
     borderopacity="1.0"
     inkscape:pageopacity="0.0"
     inkscape:pageshadow="2"
     inkscape:zoom="0.66974313"
     inkscape:cx="311.31338"
     inkscape:cy="495.71244"
     inkscape:document-units="px"
     inkscape:current-layer="layer3"
     showgrid="false"
     showguides="true"
     inkscape:guide-bbox="true"
     fit-margin-top="0"
     fit-margin-left="0"
     fit-margin-right="0"
     fit-margin-bottom="0"
     inkscape:window-width="1362"
     inkscape:window-height="944"
     inkscape:window-x="0"
     inkscape:window-y="26"
     inkscape:window-maximized="0"
     inkscape:showpageshadow="false"
     borderlayer="true"
     showborder="false"
     inkscape:snap-global="false"
     inkscape:snap-page="false"
     inkscape:snap-bbox="true"
     inkscape:pagecheckerboard="0"
     inkscape:deskcolor="#d1d1d1">
    <sodipodi:guide
       orientation="0,1"
       position="-10.429825,956.71547"
       id="guide3101"
       inkscape:locked="false" />
    <sodipodi:guide
       orientation="1,0"
       position="956.5625,59.8125"
       id="guide3103"
       inkscape:locked="false" />
    <sodipodi:guide
       orientation="0,1"
       position="1246.875,315.625"
       id="guide3105"
       inkscape:locked="false" />
    <sodipodi:guide
       orientation="1,0"
       position="67.351921,64.523494"
       id="guide3107"
       inkscape:locked="false" />
    <sodipodi:guide
       orientation="0,1"
       position="961.5,67.5"
       id="guide3109"
       inkscape:locked="false" />
    <sodipodi:guide
       orientation="1,0"
       position="319.08193,67.707547"
       id="guide3111"
       inkscape:locked="false" />
    <sodipodi:guide
       orientation="1,0"
       position="511.68014,67.707547"
       id="guide3113"
       inkscape:locked="false" />
    <sodipodi:guide
       orientation="1,0"
       position="706.1875,64.734375"
       id="guide3115"
       inkscape:locked="false" />
    <sodipodi:guide
       orientation="0,1"
       position="-21.213203,1024"
       id="guide3117"
       inkscape:locked="false" />
    <sodipodi:guide
       orientation="0,1"
       position="0,0"
       id="guide3119"
       inkscape:locked="false" />
    <sodipodi:guide
       orientation="1,0"
       position="0,1042.6289"
       id="guide3121"
       inkscape:locked="false" />
    <sodipodi:guide
       orientation="0,1"
       position="-6.8942911,705"
       id="guide3123"
       inkscape:locked="false" />
    <sodipodi:guide
       orientation="1,0"
       position="1024,1037.75"
       id="guide3125"
       inkscape:locked="false" />
    <sodipodi:guide
       orientation="0,1"
       position="-27.223611,512.65241"
       id="guide3127"
       inkscape:locked="false" />
    <inkscape:grid
       type="xygrid"
       id="grid4235"
       empspacing="5"
       visible="true"
       enabled="true"
       snapvisiblegridlinesonly="true" />
    <sodipodi:guide
       orientation="1,0"
       position="511.68014,430.8932"
       id="guide4003"
       inkscape:locked="false" />
  </sodipodi:namedview>
  <metadata
     id="metadata7">
    <rdf:RDF>
      <cc:Work
         rdf:about="">
        <dc:format>image/svg+xml</dc:format>
        <dc:type
           rdf:resource="http://purl.org/dc/dcmitype/StillImage" />
      </cc:Work>
    </rdf:RDF>
  </metadata>
  <g
     inkscape:groupmode="layer"
     id="layer5"
     inkscape:label="Background"
     style="display:inline">
    <rect
       style="color:#000000;fill:#ffffff;fill-opacity:1;fill-rule:nonzero;stroke:none;stroke-width:2;marker:none;visibility:visible;display:inline;overflow:visible;enable-background:accumulate"
       id="rect4108"
       width="1024"
       height="1024"
       x="0"
       y="1.5099033e-14" />
  </g>
  <g
     inkscape:groupmode="layer"
     id="layer3"
     inkscape:label="Layer"
     style="display:inline">
    <path
       d="M 482.87019,948.40204 C 334.48603,945.05821 179.73691,871.12019 108.40288,736.83899 21.923833,577.39028 87.379765,382.04016 196.29637,250.4854 c 2.25382,-23.49325 32.6762,-37.91939 47.99807,-53.93478 50.03099,-41.76107 109.26968,-71.70214 170.76265,-92.73735 229.05749,-74.925713 458.92758,18.67996 527.71442,258.48704 50.04546,178.8948 -52.37588,358.36123 -171.16148,486.16491 -75.29704,74.49845 -185.39147,100.87553 -288.72489,99.93682 z m 36.63976,-59.64732 C 601.95234,883.30931 687.94406,857.10503 743.38356,792.70348 843.04951,677.23836 934.34186,518.83484 881.23277,363.06575 791.3368,87.341373 463.34984,82.910555 269.05938,252.36981 c -38.9669,36.35862 -67.4152,82.03562 -90.94302,129.46393 -46.22994,87.11442 -68.3434,191.4935 -35.59318,286.9563 52.78592,151.21988 224.15289,229.95883 377.00125,219.96468 z"
       fill="#000000"
       id="path2"
       style="stroke-width:4.67016" />
    <path
       d="m 588.72177,721.37141 c -40.64443,-3.06363 -79.53941,-32.69582 -84.79895,-74.49845 -1.35528,-11.55865 -2.28371,-44.76818 14.51113,-44.13304 6.95387,-3.46059 13.95164,1.97081 20.30307,4.57676 6.98189,3.22242 14.31872,5.6976 21.84702,7.31815 19.41854,3.6941 39.83649,2.58727 58.47044,-4.12376 26.63861,-11.33448 58.78334,-20.06302 73.81193,12.58609 14.65964,33.1208 -7.36485,70.44941 -37.09511,86.46807 -20.18444,11.28779 -44.25913,14.45416 -67.03552,11.80618 z m 22.27668,-21.43605 c 27.59132,-1.4244 56.61639,-17.77931 63.02385,-46.23462 3.30181,-19.07761 -6.57092,-37.94974 -28.049,-28.20311 -37.96842,17.85403 -83.13357,23.12665 -121.18933,2.54524 -3.13835,48.41558 42.15149,75.45582 86.21448,71.87848 z"
       fill="#000000"
       id="path4"
       style="stroke-width:4.67016" />
    <path
       d="m 423.91125,529.72846 c -9.3109,-10.17161 -6.15808,-26.05484 -5.80455,-38.72873 0,-12.48288 7.44004,-30.52979 22.80581,-24.65659 16.13168,9.12643 16.1172,33.28238 17.5019,49.10677 0.78086,17.38468 -22.68765,27.02623 -34.48822,14.27855 z"
       fill="#000000"
       id="path6"
       style="stroke-width:4.67016" />
    <path
       d="m 673.84483,488.07014 c 0.54641,-10.23046 -0.0701,-22.24259 7.39754,-30.23557 7.73379,-8.49363 22.34673,-2.70869 22.24399,8.729 0.13543,10.23093 5.24459,22.10995 -1.2049,31.19249 -8.51838,11.83513 -28.90831,5.03443 -28.43663,-9.68592 z"
       fill="#000000"
       id="path8"
       style="stroke-width:4.67016" />
    <path
       d="m 423.91125,529.72799 c 11.80057,12.74768 35.28402,3.12061 34.48869,-14.27902 -1.38517,-15.82391 -1.37023,-39.97986 -17.50237,-49.1063 -15.36577,-5.88814 -22.80581,12.15877 -22.80581,24.65613 -0.33859,12.67435 -3.50589,28.55711 5.81949,38.72919 z m 231.84137,179.82323 c 29.73026,-16.03267 51.75475,-53.34727 37.09978,-86.46807 -15.02859,-32.64911 -47.18733,-23.92057 -73.81193,-12.58609 -18.64796,6.71103 -39.05657,7.83187 -58.47044,4.12376 -7.5283,-1.63456 -14.86513,-4.07705 -21.84702,-7.31815 -6.35143,-2.60595 -13.33519,-8.03735 -20.30354,-4.57676 -16.79484,-0.64915 -15.86688,32.56038 -14.49665,44.12837 5.25954,41.8073 44.15452,71.4535 84.79895,74.50312 22.77639,2.64798 46.85108,-0.5324 67.03085,-11.80618 z m 46.51016,-211.79563 c 6.46817,-9.09701 1.35901,-20.9765 1.22358,-31.20696 0.0887,-11.4377 -14.52421,-17.22263 -22.258,-8.729 -7.47226,7.99298 -6.83712,20.00464 -7.39754,30.2351 -0.47168,14.72035 19.91825,21.52104 28.43196,9.68592 z M 881.23277,363.05081 C 934.34186,518.81989 843.06352,677.22435 743.38356,792.68947 687.93005,857.09102 601.95234,883.29063 519.50949,888.74071 366.64664,898.73486 195.29416,819.9819 142.50824,668.77603 109.75802,573.31323 131.87147,468.94816 178.10142,381.81926 201.64371,334.39048 230.07753,288.71395 269.04444,252.35487 463.34984,82.910509 791.32279,87.341326 881.24678,363.05081 Z"
       id="path10"
       style="stroke-width:4.67016;fill:#fa99af;fill-opacity:1" />
    <path
       d="m 435.53529,943.5404 c -11.3882,-2.20431 -22.62881,-5.11849 -33.67842,-8.65381 -23.54229,-8.22883 -46.90758,-17.55981 -69.49249,-28.03966 -18.93098,-8.77523 -37.40567,-18.5639 -55.98312,-28.04433 -8.97185,-4.57676 -17.91474,-9.25626 -26.7689,-14.05719 -3.56521,-1.94279 -7.21867,-3.79684 -10.84272,-5.72562 -4.78832,-4.63747 -10.06233,-8.6865 -15.80804,-12.1144 -2.3276,-1.60654 -6.30518,-3.57735 -10.32713,-5.27261 -2.63724,-1.62989 -5.23011,-3.35318 -7.77909,-5.1185 -3.09351,-2.25569 -6.1875,-4.50671 -9.28101,-6.75773 -1.31138,-0.9854 -2.63724,-1.97548 -3.9631,-2.94687 -8.53006,-6.49153 -17.03069,-13.01108 -25.44305,-19.64738 -0.94291,-0.76591 -1.90029,-1.53181 -2.8432,-2.28371 l -0.0738,-0.0607 c 0,0 -0.0588,-0.042 -0.0883,-0.0701 l -0.177,-0.14945 -0.028,-0.028 0.10321,0.0747 c 0,0 -0.11769,-0.10741 -0.17653,-0.14944 -0.0593,-0.042 -0.11816,-0.10275 -0.19148,-0.14945 l 0.19148,0.14945 0.0883,0.0747 -0.0467,-0.0327 -0.26526,-0.20549 -0.0589,-0.042 -0.26526,-0.2195 c -0.67764,-0.56042 -1.36976,-1.12084 -2.0474,-1.68126 0.0588,0.0467 0.13216,0.10275 0.19147,0.14945 -0.0887,-0.0747 -0.177,-0.14945 -0.26526,-0.2195 0.41237,0.33625 0.82475,0.67718 1.23759,1.01343 -0.48616,-0.39697 -0.98727,-0.79393 -1.47343,-1.2049 -8.32364,-6.83245 -16.50016,-13.87039 -24.19052,-21.38935 -2.97582,-5.7443 -5.77512,-11.60069 -8.38294,-17.57849 -15.7632,-34.40043 -23.49792,-71.20131 -26.62119,-108.57663 -0.2209,-3.70811 -0.45674,-7.4022 -0.70715,-11.0963 0.23584,3.48861 0.47145,6.97722 0.70715,10.46583 -0.53039,-9.73262 -1.046022,-19.46057 -1.502717,-29.2072 -0.05884,-1.13018 -0.103211,-2.26503 -0.162055,-3.39988 -0.353531,-18.5312 0.176999,-37.08109 1.163852,-55.43483 2.54874,-45.95674 3.88936,-92.78213 17.75236,-137.04547 12.96484,-43.29241 37.50889,-81.82967 59.41569,-121.00019 11.56519,-21.71252 24.30866,-41.73164 38.11273,-60.29414 18.5186,-12.998 37.80357,-24.87703 57.39724,-36.21152 17.25205,-9.9806 35.10748,-18.84177 52.86017,-27.89488 17.50191,-8.93542 35.00381,-17.87038 52.59445,-26.64375 22.89407,-11.40781 46.21546,-21.71205 70.14071,-30.44106 13.43606,-0.85417 26.87212,-1.88436 40.29323,-2.92949 22.82029,-1.78116 45.58406,-4.10695 68.28572,-7.06573 18.88614,-2.44357 37.74426,-5.00487 56.6304,-7.33066 2.04553,0.45628 4.08172,0.92735 6.12726,1.41314 -58.19024,36.68283 -116.38467,73.36556 -174.90181,109.50375 -65.58871,43.30689 -102.8907,87.73228 -137.21733,158.02151 -14.14313,30.77964 -31.80708,60.66168 -39.15886,94.00291 -4.99427,27.83604 -4.86164,56.24604 -6.40839,84.40713 -1.63549,44.80554 -4.47869,92.39917 15.91078,133.73011 19.60908,39.20135 54.83425,66.52181 87.95271,93.82825 77.40375,73.39628 113.54241,92.17968 215.41548,123.8574 4.19847,1.32165 8.19146,2.83946 11.95094,4.50203 -10.09222,3.04962 -20.27318,5.75831 -30.5849,8.15411 -18.83009,3.85755 -37.77508,6.96321 -56.69157,10.45182 -19.57919,3.61004 -40.26335,7.52364 -59.5628,14.32339 -3.69783,-0.54174 -7.39567,-1.10215 -11.07902,-1.70928 z"
       id="path12"
       style="stroke-width:4.67016;fill:#f87797;fill-opacity:1" />
    <path
       d="M 482.87019,948.40204 C 334.48603,945.05821 179.73691,871.12019 108.40288,736.83899 21.923833,577.39028 87.379765,382.04016 196.29637,250.4854 c 2.25382,-23.49325 32.6762,-37.91939 47.99807,-53.93478 50.03099,-41.76107 109.26968,-71.70214 170.76265,-92.73735 229.05749,-74.925713 458.92758,18.67996 527.71442,258.48704 50.04546,178.8948 -52.37588,358.36123 -171.16148,486.16491 -75.29704,74.49845 -185.39147,100.87553 -288.72489,99.93682 z m 36.63976,-59.64732 C 601.95234,883.30931 687.94406,857.10503 743.38356,792.70348 843.04951,677.23836 934.34186,518.83484 881.23277,363.06575 791.3368,87.341373 463.34984,82.910555 269.05938,252.36981 c -38.9669,36.35862 -67.4152,82.03562 -90.94302,129.46393 -46.22994,87.11442 -68.3434,191.4935 -35.59318,286.9563 52.78592,151.21988 224.15289,229.95883 377.00125,219.96468 z"
       fill="#000000"
       id="path14"
       style="stroke-width:4.67016" />
    <path
       d="m 588.72177,721.37141 c -40.64443,-3.06363 -79.53941,-32.69582 -84.79895,-74.49845 -1.35528,-11.55865 -2.28371,-44.76818 14.51113,-44.13304 6.95387,-3.46059 13.95164,1.97081 20.30307,4.57676 6.98189,3.22242 14.31872,5.6976 21.84702,7.31815 19.41854,3.6941 39.83649,2.58727 58.47044,-4.12376 26.63861,-11.33448 58.78334,-20.06302 73.81193,12.58609 14.65964,33.1208 -7.36485,70.44941 -37.09511,86.46807 -20.18444,11.28779 -44.25913,14.45416 -67.03552,11.80618 z m 22.27668,-21.43605 c 27.59132,-1.4244 56.61639,-17.77931 63.02385,-46.23462 3.30181,-19.07761 -6.57092,-37.94974 -28.049,-28.20311 -37.96842,17.85403 -83.13357,23.12665 -121.18933,2.54524 -3.13835,48.41558 42.15149,75.45582 86.21448,71.87848 z"
       fill="#000000"
       id="path16"
       style="stroke-width:4.67016" />
  </g>
  <g
     inkscape:label="BORDER"
     inkscape:groupmode="layer"
     id="layer1"
     transform="translate(50.25,211.52169)"
     style="display:none"
     sodipodi:insensitive="true">
    <path
       inkscape:connector-curvature="0"
       d="m 301.95446,-211.52169 h 319.59108 c 101.4156,0 152.12339,0 206.7084,17.25959 59.59748,21.69173 106.54481,68.63899 128.23654,128.236542 C 973.75,-11.44076 973.75,39.267072 973.75,140.68273 v 319.59116 c 0,101.41566 0,152.12349 -17.25952,206.70829 -21.69173,59.59758 -68.63906,106.54477 -128.23654,128.23654 -54.58501,17.25959 -105.2928,17.25959 -206.7084,17.25959 H 301.95446 c -101.4156,0 -152.12339,0 -206.708396,-17.25959 C 35.648581,773.52695 -11.298747,726.57976 -32.99048,666.98218 -50.25,612.39738 -50.25,561.68955 -50.25,460.27389 V 140.68273 c 0,-101.415658 0,-152.12349 17.25952,-206.708254 21.691733,-59.597546 68.639061,-106.544846 128.236544,-128.236576 54.585006,-17.25959 105.292796,-17.25959 206.708396,-17.25959 v 0"
       id="path5"
       style="fill:none;stroke:#000000;stroke-opacity:1" />
  </g>
  <g
     inkscape:groupmode="layer"
     id="layer6"
     inkscape:label="MASK"
     style="display:none"
     sodipodi:insensitive="true">
    <path
       style="color:#000000;display:inline;overflow:visible;visibility:visible;fill:#ffffff;fill-opacity:1;fill-rule:nonzero;stroke:none;stroke-width:2;marker:none;enable-background:accumulate"
       d="m -0.03515625,708.40625 c 0.05564213,38.75762 0.61632351,71.02215 3.48917125,100.18549 0.8757813,8.89038 2.0231286,17.50673 3.364698,25.91301 2.7291509,17.10087 6.251639,30.63186 10.624705,44.6288 0.983104,3.14664 2.343873,6.00913 3.546782,8.89844 4.954414,11.90016 10.441772,22.62502 16.75229,32.23106 7.482354,11.38984 16.590926,23.44234 26.690428,33.79613 11.282296,11.56636 22.163363,20.60638 34.238258,28.7856 7.753914,5.2523 15.167714,9.80978 23.655414,13.91931 3.34329,1.61873 6.78353,3.25751 10.45545,4.87471 6.01057,2.6472 12.64725,5.2405 20.38236,7.4312 16.33865,4.6274 37.83594,9.5058 66.67436,11.7859 26.04947,2.0596 58.07248,3.2184 99.20801,3.1754 H -0.03515625 Z"
       id="path4146"
       inkscape:connector-curvature="0"
       sodipodi:nodetypes="csssssssssssccc" />
    <path
       style="color:#000000;display:inline;overflow:visible;visibility:visible;fill:#ffffff;fill-opacity:1;fill-rule:nonzero;stroke:none;stroke-width:2;marker:none;enable-background:accumulate"
       d="m 1024,708.375 c -0.028,33.52476 -0.3641,57.51886 -2.1872,86.13032 -2.1429,33.63123 -7.6767,62.03085 -16.1313,85.82727 -5.1582,14.5187 -11.40374,27.32387 -18.62968,38.55822 -10.39312,16.15845 -22.65083,31.16786 -36.89519,44.46448 -6.86448,6.40775 -13.96935,11.81612 -21.91877,17.50161 -10.37402,7.41958 -20.2254,13.06198 -32.1818,18.6383 -10.69022,4.9858 -23.165,9.4996 -39.90567,13.451 -11.58454,2.7344 -25.21186,5.3376 -41.70422,7.0737 -27.23282,2.8667 -62.17789,3.4121 -108.25867,3.9801 H 1024 Z"
       id="path4146-5"
       inkscape:connector-curvature="0"
       sodipodi:nodetypes="cssssssssccc" />
    <path
       style="color:#000000;display:inline;overflow:visible;visibility:visible;fill:#ffffff;fill-opacity:1;fill-rule:nonzero;stroke:none;stroke-width:2;marker:none;enable-background:accumulate"
       d="m 1023.9571,318.26274 c 0.1837,-39.14081 -0.2997,-73.55855 -3.476,-103.94061 -1.4113,-13.49969 -3.8539,-26.31006 -5.9548,-38.18792 -3.6187,-20.45841 -10.1174,-38.44655 -17.2973,-52.70888 -2.12747,-4.22606 -3.90726,-7.55456 -5.77779,-10.81658 -1.49793,-2.61224 -3.05404,-5.18185 -4.89348,-8.13563 -1.96035,-3.14791 -3.87346,-6.195884 -5.993,-9.197124 C 974.88453,87.232938 968.40279,79.35023 961.65509,72.082687 951.58996,61.242143 940.4011,51.100793 927.77306,42.698049 909.73264,30.693887 894.47219,21.390417 866.08729,13.614807 853.18652,10.080839 837.40303,6.7460486 817.42751,4.3881848 790.09127,1.1614792 754.65731,0.08073128 706.1875,0 H 1024 Z"
       id="path4146-5-3"
       inkscape:connector-curvature="0"
       sodipodi:nodetypes="cssssssssssccc" />
    <path
       style="color:#000000;display:inline;overflow:visible;visibility:visible;fill:#ffffff;fill-opacity:1;fill-rule:nonzero;stroke:none;stroke-width:2;marker:none;enable-background:accumulate"
       d="M 0,318.48 C 0.04438432,264.21497 1.9515494,215.42652 8.7981727,178.4577 14.754939,146.29372 24.640519,123.97857 37.889606,103.37989 53.29125,79.434582 73.01483,58.195063 97.250401,42.030991 111.80438,32.324119 124.48551,25.310001 143.39137,18.055461 153.25339,14.271217 164.74156,11.469151 178.08885,8.8727346 208.3231,2.9913388 250.69975,-0.29260813 319.08193,0 H 0 Z"
       id="path4146-5-3-7"
       inkscape:connector-curvature="0"
       sodipodi:nodetypes="csssssccc" />
  </g>
  <g
     inkscape:groupmode="layer"
     id="layer4"
     inkscape:label="FULL MASK to BG"
     style="display:none">
    <g
       id="g3108"
       transform="matrix(0.5649724,0,0,0.5649724,445.54508,-1009.2323)"
       style="fill:#ffffff">
      <path
         style="fill:#ffffff;fill-opacity:1"
         d="m -255.18484,3598.5738 c -65.89075,-0.4253 -133.31625,-3.6429 -171.28383,-8.1738 -35.62761,-4.2516 -75.24646,-12.6237 -101.97363,-21.5486 -19.91256,-6.6493 -47.54459,-19.4411 -66.12352,-30.6108 -37.44793,-22.5137 -72.20796,-52.2487 -98.54251,-84.2969 -24.29731,-29.5689 -41.20817,-56.8511 -55.47181,-89.4924 -6.61929,-15.1478 -8.38704,-19.8689 -11.92879,-31.8579 -16.20259,-54.8465 -23.54268,-107.7838 -26.58122,-191.706 -1.42838,-39.4507 -1.67596,-120.9647 -1.45114,-477.7704 0.16145,-256.2384 0.41117,-371.6315 0.83443,-385.5878 4.03548,-133.0627 14.45033,-200.8155 39.80624,-258.9554 22.87778,-52.4577 63.32922,-104.9173 108.81811,-141.1212 12.25925,-9.757 31.66981,-22.9097 46.90669,-31.7844 24.79601,-14.4423 54.99637,-27.5472 78.82329,-34.2039 41.36425,-11.5562 93.35603,-18.869 158.31851,-22.2681 28.5354,-1.493 42.80966,-1.8693 92.94472,-2.45 66.71195,-0.7727 774.97059,-0.3507 803.30789,0.4786 74.58713,2.1828 111.22328,5.1416 152.96045,12.3533 34.90069,6.0305 66.10255,14.5431 92.14805,25.1403 28.90007,11.7586 67.93807,35.6951 94.27249,57.8041 24.08118,20.2172 52.39634,51.696 69.50417,77.2697 27.40876,40.9722 44.92544,81.5642 54.48975,126.2709 2.0427,9.5481 7.5352,40.5742 9.5433,53.9079 4.7447,31.5043 7.3924,66.4897 8.9033,117.6415 0.8272,28.0023 1.2273,742.0895 0.4567,814.9924 -0.6825,64.5731 -1.8558,98.6886 -4.564,132.7029 -5.9213,74.3703 -21.87168,136.2374 -47.80384,185.4176 -7.83137,14.852 -18.80155,31.9295 -30.54535,47.5505 -23.00313,30.5976 -46.50391,54.389 -74.58963,75.5123 -48.63111,36.5753 -94.65909,56.7768 -158.32303,69.4872 -51.86283,10.3544 -93.05381,13.1537 -222.7503,15.1381 -27.97184,0.4279 -676.86617,0.5685 -740.10549,0.1603 z"
         id="path3124"
         inkscape:connector-curvature="0" />
      <path
         style="fill:#ffffff;fill-opacity:1"
         d="m -255.18484,3598.5738 c -65.89075,-0.4253 -133.31625,-3.6429 -171.28383,-8.1738 -35.62761,-4.2516 -75.24646,-12.6237 -101.97363,-21.5486 -19.91256,-6.6493 -47.54459,-19.4411 -66.12352,-30.6108 -37.44793,-22.5137 -72.20796,-52.2487 -98.54251,-84.2969 -24.29731,-29.5689 -41.20817,-56.8511 -55.47181,-89.4924 -6.61929,-15.1478 -8.38704,-19.8689 -11.92879,-31.8579 -16.20259,-54.8465 -23.54268,-107.7838 -26.58122,-191.706 -1.42838,-39.4507 -1.67596,-120.9647 -1.45114,-477.7704 0.16145,-256.2384 0.41117,-371.6315 0.83443,-385.5878 4.03548,-133.0627 14.45033,-200.8155 39.80624,-258.9554 22.87778,-52.4577 63.32922,-104.9173 108.81811,-141.1212 12.25925,-9.757 31.66981,-22.9097 46.90669,-31.7844 24.79601,-14.4423 54.99637,-27.5472 78.82329,-34.2039 41.36425,-11.5562 93.35603,-18.869 158.31851,-22.2681 28.5354,-1.493 42.80966,-1.8693 92.94472,-2.45 66.71195,-0.7727 774.97059,-0.3507 803.30789,0.4786 74.58713,2.1828 111.22328,5.1416 152.96045,12.3533 34.90069,6.0305 66.10255,14.5431 92.14805,25.1403 28.90007,11.7586 67.93807,35.6951 94.27249,57.8041 24.08118,20.2172 52.39634,51.696 69.50417,77.2697 27.40876,40.9722 44.92544,81.5642 54.48975,126.2709 2.0427,9.5481 7.5352,40.5742 9.5433,53.9079 4.7447,31.5043 7.3924,66.4897 8.9033,117.6415 0.8272,28.0023 1.2273,742.0895 0.4567,814.9924 -0.6825,64.5731 -1.8558,98.6886 -4.564,132.7029 -5.9213,74.3703 -21.87168,136.2374 -47.80384,185.4176 -7.83137,14.852 -18.80155,31.9295 -30.54535,47.5505 -23.00313,30.5976 -46.50391,54.389 -74.58963,75.5123 -48.63111,36.5753 -94.65909,56.7768 -158.32303,69.4872 -51.86283,10.3544 -93.05381,13.1537 -222.7503,15.1381 -27.97184,0.4279 -676.86617,0.5685 -740.10549,0.1603 z"
         id="path3122"
         inkscape:connector-curvature="0" />
      <path
         style="fill:#ffffff;fill-opacity:1"
         d="m -255.18484,3598.5738 c -65.89075,-0.4253 -133.31625,-3.6429 -171.28383,-8.1738 -35.62761,-4.2516 -75.24646,-12.6237 -101.97363,-21.5486 -19.91256,-6.6493 -47.54459,-19.4411 -66.12352,-30.6108 -37.44793,-22.5137 -72.20796,-52.2487 -98.54251,-84.2969 -24.29731,-29.5689 -41.20817,-56.8511 -55.47181,-89.4924 -6.61929,-15.1478 -8.38704,-19.8689 -11.92879,-31.8579 -16.20259,-54.8465 -23.54268,-107.7838 -26.58122,-191.706 -1.42838,-39.4507 -1.67596,-120.9647 -1.45114,-477.7704 0.16145,-256.2384 0.41117,-371.6315 0.83443,-385.5878 4.03548,-133.0627 14.45033,-200.8155 39.80624,-258.9554 22.87778,-52.4577 63.32922,-104.9173 108.81811,-141.1212 12.25925,-9.757 31.66981,-22.9097 46.90669,-31.7844 24.79601,-14.4423 54.99637,-27.5472 78.82329,-34.2039 41.36425,-11.5562 93.35603,-18.869 158.31851,-22.2681 28.5354,-1.493 42.80966,-1.8693 92.94472,-2.45 66.71195,-0.7727 774.97059,-0.3507 803.30789,0.4786 74.58713,2.1828 111.22328,5.1416 152.96045,12.3533 34.90069,6.0305 66.10255,14.5431 92.14805,25.1403 28.90007,11.7586 67.93807,35.6951 94.27249,57.8041 24.08118,20.2172 52.39634,51.696 69.50417,77.2697 27.40876,40.9722 44.92544,81.5642 54.48975,126.2709 2.0427,9.5481 7.5352,40.5742 9.5433,53.9079 4.7447,31.5043 7.3924,66.4897 8.9033,117.6415 0.8272,28.0023 1.2273,742.0895 0.4567,814.9924 -0.6825,64.5731 -1.8558,98.6886 -4.564,132.7029 -5.9213,74.3703 -21.87168,136.2374 -47.80384,185.4176 -7.83137,14.852 -18.80155,31.9295 -30.54535,47.5505 -23.00313,30.5976 -46.50391,54.389 -74.58963,75.5123 -48.63111,36.5753 -94.65909,56.7768 -158.32303,69.4872 -51.86283,10.3544 -93.05381,13.1537 -222.7503,15.1381 -27.97184,0.4279 -676.86617,0.5685 -740.10549,0.1603 z"
         id="path3120"
         inkscape:connector-curvature="0" />
      <path
         style="fill:#ffffff;fill-opacity:1"
         d="m -255.18484,3598.5738 c -65.89075,-0.4253 -133.31625,-3.6429 -171.28383,-8.1738 -35.62761,-4.2516 -75.24646,-12.6237 -101.97363,-21.5486 -19.91256,-6.6493 -47.54459,-19.4411 -66.12352,-30.6108 -37.44793,-22.5137 -72.20796,-52.2487 -98.54251,-84.2969 -24.29731,-29.5689 -41.20817,-56.8511 -55.47181,-89.4924 -6.61929,-15.1478 -8.38704,-19.8689 -11.92879,-31.8579 -16.20259,-54.8465 -23.54268,-107.7838 -26.58122,-191.706 -1.42838,-39.4507 -1.67596,-120.9647 -1.45114,-477.7704 0.16145,-256.2384 0.41117,-371.6315 0.83443,-385.5878 4.03548,-133.0627 14.45033,-200.8155 39.80624,-258.9554 22.87778,-52.4577 63.32922,-104.9173 108.81811,-141.1212 12.25925,-9.757 31.66981,-22.9097 46.90669,-31.7844 24.79601,-14.4423 54.99637,-27.5472 78.82329,-34.2039 41.36425,-11.5562 93.35603,-18.869 158.31851,-22.2681 28.5354,-1.493 42.80966,-1.8693 92.94472,-2.45 66.71195,-0.7727 774.97059,-0.3507 803.30789,0.4786 74.58713,2.1828 111.22328,5.1416 152.96045,12.3533 34.90069,6.0305 66.10255,14.5431 92.14805,25.1403 28.90007,11.7586 67.93807,35.6951 94.27249,57.8041 24.08118,20.2172 52.39634,51.696 69.50417,77.2697 27.40876,40.9722 44.92544,81.5642 54.48975,126.2709 2.0427,9.5481 7.5352,40.5742 9.5433,53.9079 4.7447,31.5043 7.3924,66.4897 8.9033,117.6415 0.8272,28.0023 1.2273,742.0895 0.4567,814.9924 -0.6825,64.5731 -1.8558,98.6886 -4.564,132.7029 -5.9213,74.3703 -21.87168,136.2374 -47.80384,185.4176 -7.83137,14.852 -18.80155,31.9295 -30.54535,47.5505 -23.00313,30.5976 -46.50391,54.389 -74.58963,75.5123 -48.63111,36.5753 -94.65909,56.7768 -158.32303,69.4872 -51.86283,10.3544 -93.05381,13.1537 -222.7503,15.1381 -27.97184,0.4279 -676.86617,0.5685 -740.10549,0.1603 z"
         id="path3118"
         inkscape:connector-curvature="0" />
      <path
         style="fill:#ffffff;fill-opacity:1"
         d="m -255.18484,3598.5738 c -65.89075,-0.4253 -133.31625,-3.6429 -171.28383,-8.1738 -35.62761,-4.2516 -75.24646,-12.6237 -101.97363,-21.5486 -19.91256,-6.6493 -47.54459,-19.4411 -66.12352,-30.6108 -37.44793,-22.5137 -72.20796,-52.2487 -98.54251,-84.2969 -24.29731,-29.5689 -41.20817,-56.8511 -55.47181,-89.4924 -6.61929,-15.1478 -8.38704,-19.8689 -11.92879,-31.8579 -16.20259,-54.8465 -23.54268,-107.7838 -26.58122,-191.706 -1.42838,-39.4507 -1.67596,-120.9647 -1.45114,-477.7704 0.16145,-256.2384 0.41117,-371.6315 0.83443,-385.5878 4.03548,-133.0627 14.45033,-200.8155 39.80624,-258.9554 22.87778,-52.4577 63.32922,-104.9173 108.81811,-141.1212 12.25925,-9.757 31.66981,-22.9097 46.90669,-31.7844 24.79601,-14.4423 54.99637,-27.5472 78.82329,-34.2039 41.36425,-11.5562 93.35603,-18.869 158.31851,-22.2681 28.5354,-1.493 42.80966,-1.8693 92.94472,-2.45 66.71195,-0.7727 774.97059,-0.3507 803.30789,0.4786 74.58713,2.1828 111.22328,5.1416 152.96045,12.3533 34.90069,6.0305 66.10255,14.5431 92.14805,25.1403 28.90007,11.7586 67.93807,35.6951 94.27249,57.8041 24.08118,20.2172 52.39634,51.696 69.50417,77.2697 27.40876,40.9722 44.92544,81.5642 54.48975,126.2709 2.0427,9.5481 7.5352,40.5742 9.5433,53.9079 4.7447,31.5043 7.3924,66.4897 8.9033,117.6415 0.8272,28.0023 1.2273,742.0895 0.4567,814.9924 -0.6825,64.5731 -1.8558,98.6886 -4.564,132.7029 -5.9213,74.3703 -21.87168,136.2374 -47.80384,185.4176 -7.83137,14.852 -18.80155,31.9295 -30.54535,47.5505 -23.00313,30.5976 -46.50391,54.389 -74.58963,75.5123 -48.63111,36.5753 -94.65909,56.7768 -158.32303,69.4872 -51.86283,10.3544 -93.05381,13.1537 -222.7503,15.1381 -27.97184,0.4279 -676.86617,0.5685 -740.10549,0.1603 z"
         id="path3116"
         inkscape:connector-curvature="0" />
      <path
         style="fill:#ffffff;fill-opacity:1"
         d="m -255.18484,3598.5738 c -65.89075,-0.4253 -133.31625,-3.6429 -171.28383,-8.1738 -35.62761,-4.2516 -75.24646,-12.6237 -101.97363,-21.5486 -19.91256,-6.6493 -47.54459,-19.4411 -66.12352,-30.6108 -37.44793,-22.5137 -72.20796,-52.2487 -98.54251,-84.2969 -24.29731,-29.5689 -41.20817,-56.8511 -55.47181,-89.4924 -6.61929,-15.1478 -8.38704,-19.8689 -11.92879,-31.8579 -16.20259,-54.8465 -23.54268,-107.7838 -26.58122,-191.706 -1.42838,-39.4507 -1.67596,-120.9647 -1.45114,-477.7704 0.16145,-256.2384 0.41117,-371.6315 0.83443,-385.5878 4.03548,-133.0627 14.45033,-200.8155 39.80624,-258.9554 22.87778,-52.4577 63.32922,-104.9173 108.81811,-141.1212 12.25925,-9.757 31.66981,-22.9097 46.90669,-31.7844 24.79601,-14.4423 54.99637,-27.5472 78.82329,-34.2039 41.36425,-11.5562 93.35603,-18.869 158.31851,-22.2681 28.5354,-1.493 42.80966,-1.8693 92.94472,-2.45 66.71195,-0.7727 774.97059,-0.3507 803.30789,0.4786 74.58713,2.1828 111.22328,5.1416 152.96045,12.3533 34.90069,6.0305 66.10255,14.5431 92.14805,25.1403 28.90007,11.7586 67.93807,35.6951 94.27249,57.8041 24.08118,20.2172 52.39634,51.696 69.50417,77.2697 27.40876,40.9722 44.92544,81.5642 54.48975,126.2709 2.0427,9.5481 7.5352,40.5742 9.5433,53.9079 4.7447,31.5043 7.3924,66.4897 8.9033,117.6415 0.8272,28.0023 1.2273,742.0895 0.4567,814.9924 -0.6825,64.5731 -1.8558,98.6886 -4.564,132.7029 -5.9213,74.3703 -21.87168,136.2374 -47.80384,185.4176 -7.83137,14.852 -18.80155,31.9295 -30.54535,47.5505 -23.00313,30.5976 -46.50391,54.389 -74.58963,75.5123 -48.63111,36.5753 -94.65909,56.7768 -158.32303,69.4872 -51.86283,10.3544 -93.05381,13.1537 -222.7503,15.1381 -27.97184,0.4279 -676.86617,0.5685 -740.10549,0.1603 z"
         id="path3114"
         inkscape:connector-curvature="0" />
      <path
         style="fill:#ffffff;fill-opacity:1"
         d="m -255.18484,3598.5738 c -65.89075,-0.4253 -133.31625,-3.6429 -171.28383,-8.1738 -35.62761,-4.2516 -75.24646,-12.6237 -101.97363,-21.5486 -19.91256,-6.6493 -47.54459,-19.4411 -66.12352,-30.6108 -37.44793,-22.5137 -72.20796,-52.2487 -98.54251,-84.2969 -24.29731,-29.5689 -41.20817,-56.8511 -55.47181,-89.4924 -6.61929,-15.1478 -8.38704,-19.8689 -11.92879,-31.8579 -16.20259,-54.8465 -23.54268,-107.7838 -26.58122,-191.706 -1.42838,-39.4507 -1.67596,-120.9647 -1.45114,-477.7704 0.16145,-256.2384 0.41117,-371.6315 0.83443,-385.5878 4.03548,-133.0627 14.45033,-200.8155 39.80624,-258.9554 22.87778,-52.4577 63.32922,-104.9173 108.81811,-141.1212 12.25925,-9.757 31.66981,-22.9097 46.90669,-31.7844 24.79601,-14.4423 54.99637,-27.5472 78.82329,-34.2039 41.36425,-11.5562 93.35603,-18.869 158.31851,-22.2681 28.5354,-1.493 42.80966,-1.8693 92.94472,-2.45 66.71195,-0.7727 774.97059,-0.3507 803.30789,0.4786 74.58713,2.1828 111.22328,5.1416 152.96045,12.3533 34.90069,6.0305 66.10255,14.5431 92.14805,25.1403 28.90007,11.7586 67.93807,35.6951 94.27249,57.8041 24.08118,20.2172 52.39634,51.696 69.50417,77.2697 27.40876,40.9722 44.92544,81.5642 54.48975,126.2709 2.0427,9.5481 7.5352,40.5742 9.5433,53.9079 4.7447,31.5043 7.3924,66.4897 8.9033,117.6415 0.8272,28.0023 1.2273,742.0895 0.4567,814.9924 -0.6825,64.5731 -1.8558,98.6886 -4.564,132.7029 -5.9213,74.3703 -21.87168,136.2374 -47.80384,185.4176 -7.83137,14.852 -18.80155,31.9295 -30.54535,47.5505 -23.00313,30.5976 -46.50391,54.389 -74.58963,75.5123 -48.63111,36.5753 -94.65909,56.7768 -158.32303,69.4872 -51.86283,10.3544 -93.05381,13.1537 -222.7503,15.1381 -27.97184,0.4279 -676.86617,0.5685 -740.10549,0.1603 z"
         id="path3112"
         inkscape:connector-curvature="0" />
      <path
         style="fill:#ffffff;fill-opacity:1"
         d="m -255.18484,3598.5738 c -65.89075,-0.4253 -133.31625,-3.6429 -171.28383,-8.1738 -35.62761,-4.2516 -75.24646,-12.6237 -101.97363,-21.5486 -19.91256,-6.6493 -47.54459,-19.4411 -66.12352,-30.6108 -37.44793,-22.5137 -72.20796,-52.2487 -98.54251,-84.2969 -24.29731,-29.5689 -41.20817,-56.8511 -55.47181,-89.4924 -6.61929,-15.1478 -8.38704,-19.8689 -11.92879,-31.8579 -16.20259,-54.8465 -23.54268,-107.7838 -26.58122,-191.706 -1.42838,-39.4507 -1.67596,-120.9647 -1.45114,-477.7704 0.16145,-256.2384 0.41117,-371.6315 0.83443,-385.5878 4.03548,-133.0627 14.45033,-200.8155 39.80624,-258.9554 22.87778,-52.4577 63.32922,-104.9173 108.81811,-141.1212 12.25925,-9.757 31.66981,-22.9097 46.90669,-31.7844 24.79601,-14.4423 54.99637,-27.5472 78.82329,-34.2039 41.36425,-11.5562 93.35603,-18.869 158.31851,-22.2681 28.5354,-1.493 42.80966,-1.8693 92.94472,-2.45 66.71195,-0.7727 774.97059,-0.3507 803.30789,0.4786 74.58713,2.1828 111.22328,5.1416 152.96045,12.3533 34.90069,6.0305 66.10255,14.5431 92.14805,25.1403 28.90007,11.7586 67.93807,35.6951 94.27249,57.8041 24.08118,20.2172 52.39634,51.696 69.50417,77.2697 27.40876,40.9722 44.92544,81.5642 54.48975,126.2709 2.0427,9.5481 7.5352,40.5742 9.5433,53.9079 4.7447,31.5043 7.3924,66.4897 8.9033,117.6415 0.8272,28.0023 1.2273,742.0895 0.4567,814.9924 -0.6825,64.5731 -1.8558,98.6886 -4.564,132.7029 -5.9213,74.3703 -21.87168,136.2374 -47.80384,185.4176 -7.83137,14.852 -18.80155,31.9295 -30.54535,47.5505 -23.00313,30.5976 -46.50391,54.389 -74.58963,75.5123 -48.63111,36.5753 -94.65909,56.7768 -158.32303,69.4872 -51.86283,10.3544 -93.05381,13.1537 -222.7503,15.1381 -27.97184,0.4279 -676.86617,0.5685 -740.10549,0.1603 z"
         id="path3110"
         inkscape:connector-curvature="0" />
    </g>
  </g>
  <g
     inkscape:groupmode="layer"
     id="layer2"
     inkscape:label="GUIDES"
     style="display:none"
     transform="translate(0,-2.2054443)"
     sodipodi:insensitive="true">
    <path
       style="color:#000000;display:inline;overflow:visible;visibility:visible;fill:none;stroke:#000000;stroke-width:2;stroke-linecap:butt;stroke-linejoin:miter;stroke-miterlimit:4;stroke-dasharray:none;stroke-dashoffset:0;stroke-opacity:1;marker:none;enable-background:accumulate"
       d="M 0.99801512,321.03518 V 707.31187"
       id="path4024"
       inkscape:connector-curvature="0" />
    <circle
       style="color:#000000;display:inline;overflow:visible;visibility:visible;fill:none;stroke:#000000;stroke-width:1.00571;stroke-linecap:butt;stroke-linejoin:miter;stroke-miterlimit:4;stroke-dasharray:none;stroke-dashoffset:0;stroke-opacity:1;marker:none;enable-background:accumulate"
       id="path3129"
       transform="matrix(1.988799,0,0,1.988471,-407.91018,-80.585593)"
       cx="462.32144"
       cy="298.86218"
       r="138" />
    <circle
       style="color:#000000;display:inline;overflow:visible;visibility:visible;fill:none;stroke:#000000;stroke-width:0.620861;stroke-linecap:butt;stroke-linejoin:miter;stroke-miterlimit:4;stroke-dasharray:none;stroke-dashoffset:0;stroke-opacity:1;marker:none;enable-background:accumulate"
       id="path3129-9"
       transform="matrix(3.2215081,0,0,3.2211587,-977.38931,-448.55899)"
       cx="462.32144"
       cy="298.86218"
       r="138" />
    <path
       style="color:#000000;display:inline;overflow:visible;visibility:visible;fill:none;stroke:#000000;stroke-width:2;stroke-linecap:butt;stroke-linejoin:miter;stroke-miterlimit:4;stroke-dasharray:none;stroke-dashoffset:0;stroke-opacity:1;marker:none;enable-background:accumulate"
       d="M 67.351921,69.489974 956.5625,958.70544"
       id="path4011"
       inkscape:connector-curvature="0"
       sodipodi:nodetypes="cc" />
    <path
       style="color:#000000;display:inline;overflow:visible;visibility:visible;fill:none;stroke:#000000;stroke-width:2;stroke-linecap:butt;stroke-linejoin:miter;stroke-miterlimit:4;stroke-dasharray:none;stroke-dashoffset:0;stroke-opacity:1;marker:none;enable-background:accumulate"
       d="M 0.99801467,707.31189 H 1023.001"
       id="path4028"
       inkscape:connector-curvature="0" />
    <path
       style="color:#000000;display:inline;overflow:visible;visibility:visible;fill:none;stroke:#000000;stroke-width:2;stroke-linecap:butt;stroke-linejoin:miter;stroke-miterlimit:4;stroke-dasharray:none;stroke-dashoffset:0;stroke-opacity:1;marker:none;enable-background:accumulate"
       d="M 0.99801467,513.69318 H 1023.001"
       id="path4030"
       inkscape:connector-curvature="0" />
    <path
       style="color:#000000;display:inline;overflow:visible;visibility:visible;fill:none;stroke:#000000;stroke-width:2;stroke-linecap:butt;stroke-linejoin:miter;stroke-miterlimit:4;stroke-dasharray:none;stroke-dashoffset:0;stroke-opacity:1;marker:none;enable-background:accumulate"
       d="M 0.99801467,321.0352 H 1023.001"
       id="path4032"
       inkscape:connector-curvature="0" />
    <path
       style="color:#000000;display:inline;overflow:visible;visibility:visible;fill:none;stroke:#000000;stroke-width:2;stroke-linecap:butt;stroke-linejoin:miter;stroke-miterlimit:4;stroke-dasharray:none;stroke-dashoffset:0;stroke-opacity:1;marker:none;enable-background:accumulate"
       d="M 319.08193,1026.2054 V 2.2054443"
       id="path4034"
       inkscape:connector-curvature="0"
       sodipodi:nodetypes="cc" />
    <path
       style="color:#000000;display:inline;overflow:visible;visibility:visible;fill:none;stroke:#000000;stroke-width:2;stroke-linecap:butt;stroke-linejoin:miter;stroke-miterlimit:4;stroke-dasharray:none;stroke-dashoffset:0;stroke-opacity:1;marker:none;enable-background:accumulate"
       d="M 511.68014,2.2054443 V 1026.2054"
       id="path4036"
       inkscape:connector-curvature="0"
       sodipodi:nodetypes="cc" />
    <path
       style="color:#000000;display:inline;overflow:visible;visibility:visible;fill:none;stroke:#000000;stroke-width:2;stroke-linecap:butt;stroke-linejoin:miter;stroke-miterlimit:4;stroke-dasharray:none;stroke-dashoffset:0;stroke-opacity:1;marker:none;enable-background:accumulate"
       d="M 706.1875,1026.2054 V 2.2054443"
       id="path4038"
       inkscape:connector-curvature="0"
       sodipodi:nodetypes="cc" />
    <path
       style="color:#000000;display:inline;overflow:visible;visibility:visible;fill:none;stroke:#000000;stroke-width:2;stroke-linecap:butt;stroke-linejoin:miter;stroke-miterlimit:4;stroke-dasharray:none;stroke-dashoffset:0;stroke-opacity:1;marker:none;enable-background:accumulate"
       d="M 67.351921,958.70544 956.5625,69.489974"
       id="path4001"
       inkscape:connector-curvature="0"
       sodipodi:nodetypes="cc" />
    <path
       style="color:#000000;display:inline;overflow:visible;visibility:visible;fill:none;stroke:#000000;stroke-width:2;stroke-linecap:butt;stroke-linejoin:miter;stroke-miterlimit:4;stroke-dasharray:none;stroke-dashoffset:0;stroke-opacity:1;marker:none;enable-background:accumulate"
       d="M 956.5625,69.489974 V 958.70544"
       id="path4003"
       inkscape:connector-curvature="0"
       sodipodi:nodetypes="cc" />
    <path
       style="color:#000000;display:inline;overflow:visible;visibility:visible;fill:none;stroke:#000000;stroke-width:2;stroke-linecap:butt;stroke-linejoin:miter;stroke-miterlimit:4;stroke-dasharray:none;stroke-dashoffset:0;stroke-opacity:1;marker:none;enable-background:accumulate"
       d="M 67.351921,69.489974 H 956.5625"
       id="path4009"
       inkscape:connector-curvature="0"
       sodipodi:nodetypes="cc" />
    <path
       style="color:#000000;display:inline;overflow:visible;visibility:visible;fill:none;stroke:#000000;stroke-width:2;stroke-linecap:butt;stroke-linejoin:miter;stroke-miterlimit:4;stroke-dasharray:none;stroke-dashoffset:0;stroke-opacity:1;marker:none;enable-background:accumulate"
       d="M 67.351921,958.70544 V 69.489974"
       id="path4007"
       inkscape:connector-curvature="0"
       sodipodi:nodetypes="cc" />
    <path
       style="color:#000000;display:inline;overflow:visible;visibility:visible;fill:none;stroke:#000000;stroke-width:2;stroke-linecap:butt;stroke-linejoin:miter;stroke-miterlimit:4;stroke-dasharray:none;stroke-dashoffset:0;stroke-opacity:1;marker:none;enable-background:accumulate"
       d="m 956.5625,958.70544 -889.210579,-3e-5"
       id="path4005"
       inkscape:connector-curvature="0"
       sodipodi:nodetypes="cc" />
    <circle
       style="color:#000000;display:inline;overflow:visible;visibility:visible;fill:none;stroke:#000000;stroke-width:1.42908;stroke-linecap:butt;stroke-linejoin:miter;stroke-miterlimit:4;stroke-dasharray:none;stroke-dashoffset:0;stroke-opacity:1;marker:none;enable-background:accumulate"
       id="path3129-7"
       transform="matrix(1.4025564,0,0,1.3964479,-135.79717,96.569794)"
       cx="462.32144"
       cy="298.86218"
       r="138" />
  </g>
</svg>
